<?xml version="1.0" encoding="UTF-8" standalone="no"?>
<!DOCTYPE svg PUBLIC "-//W3C//DTD SVG 1.1//EN"
 "http://www.w3.org/Graphics/SVG/1.1/DTD/svg11.dtd">
<!-- Generated by graphviz version 2.43.0 (0)
 -->
<!-- Title: src/client_session.hpp Pages: 1 -->
<svg width="316pt" height="140pt"
 viewBox="0.00 0.00 316.00 140.00" xmlns="http://www.w3.org/2000/svg" xmlns:xlink="http://www.w3.org/1999/xlink">
<g id="graph0" class="graph" transform="scale(1 1) rotate(0) translate(4 136)">
<title>src/client_session.hpp</title>
<!-- Node1 -->
<g id="node1" class="node">
<title>Node1</title>
<g id="a_node1"><a xlink:title=" ">
<polygon fill="#bfbfbf" stroke="black" points="89.5,-112.5 89.5,-131.5 213.5,-131.5 213.5,-112.5 89.5,-112.5"/>
<text text-anchor="middle" x="151.5" y="-119.5" font-family="Helvetica,sans-Serif" font-size="10.00">src/client_session.hpp</text>
</a>
</g>
</g>
<!-- Node2 -->
<g id="node2" class="node">
<title>Node2</title>
<g id="a_node2"><a xlink:href="client__session_8cpp.html" target="_top" xlink:title=" ">
<polygon fill="none" stroke="black" points="0,-56.5 0,-75.5 123,-75.5 123,-56.5 0,-56.5"/>
<text text-anchor="middle" x="61.5" y="-63.5" font-family="Helvetica,sans-Serif" font-size="10.00">src/client_session.cpp</text>
</a>
</g>
</g>
<!-- Node1&#45;&gt;Node2 -->
<g id="edge1" class="edge">
<title>Node1&#45;&gt;Node2</title>
<path fill="none" stroke="midnightblue" d="M128.46,-107.18C111.9,-97.24 90.08,-84.15 75.92,-75.65"/>
<polygon fill="midnightblue" stroke="midnightblue" points="126.66,-110.18 137.04,-112.32 130.27,-104.18 126.66,-110.18"/>
</g>
<!-- Node3 -->
<g id="node3" class="node">
<title>Node3</title>
<g id="a_node3"><a xlink:href="snowplow_8hpp.html" target="_top" xlink:title=" ">
<polygon fill="none" stroke="black" points="100,-0.5 100,-19.5 203,-19.5 203,-0.5 100,-0.5"/>
<text text-anchor="middle" x="151.5" y="-7.5" font-family="Helvetica,sans-Serif" font-size="10.00">src/snowplow.hpp</text>
</a>
</g>
</g>
<!-- Node1&#45;&gt;Node3 -->
<g id="edge2" class="edge">
<title>Node1&#45;&gt;Node3</title>
<path fill="none" stroke="midnightblue" d="M151.5,-102.35C151.5,-78.25 151.5,-37.31 151.5,-19.59"/>
<polygon fill="midnightblue" stroke="midnightblue" points="148,-102.37 151.5,-112.37 155,-102.37 148,-102.37"/>
</g>
<!-- Node4 -->
<g id="node4" class="node">
<title>Node4</title>
<g id="a_node4"><a xlink:href="tracker_8hpp.html" target="_top" xlink:title=" ">
<polygon fill="none" stroke="black" points="179.5,-56.5 179.5,-75.5 267.5,-75.5 267.5,-56.5 179.5,-56.5"/>
<text text-anchor="middle" x="223.5" y="-63.5" font-family="Helvetica,sans-Serif" font-size="10.00">src/tracker.hpp</text>
</a>
</g>
</g>
<!-- Node1&#45;&gt;Node4 -->
<g id="edge3" class="edge">
<title>Node1&#45;&gt;Node4</title>
<path fill="none" stroke="midnightblue" d="M171.37,-106.1C184.32,-96.38 200.8,-84.03 211.72,-75.83"/>
<polygon fill="midnightblue" stroke="midnightblue" points="168.97,-103.52 163.07,-112.32 173.17,-109.12 168.97,-103.52"/>
</g>
<!-- Node4&#45;&gt;Node3 -->
<g id="edge4" class="edge">
<title>Node4&#45;&gt;Node3</title>
<path fill="none" stroke="midnightblue" d="M203.63,-50.1C190.68,-40.38 174.2,-28.03 163.28,-19.83"/>
<polygon fill="midnightblue" stroke="midnightblue" points="201.83,-53.12 211.93,-56.32 206.03,-47.52 201.83,-53.12"/>
</g>
<!-- Node5 -->
<g id="node5" class="node">
<title>Node5</title>
<g id="a_node5"><a xlink:href="tracker_8cpp.html" target="_top" xlink:title=" ">
<polygon fill="none" stroke="black" points="221,-0.5 221,-19.5 308,-19.5 308,-0.5 221,-0.5"/>
<text text-anchor="middle" x="264.5" y="-7.5" font-family="Helvetica,sans-Serif" font-size="10.00">src/tracker.cpp</text>
</a>
</g>
</g>
<!-- Node4&#45;&gt;Node5 -->
<g id="edge5" class="edge">
<title>Node4&#45;&gt;Node5</title>
<path fill="none" stroke="midnightblue" d="M236.52,-47.86C243.62,-38.5 252.1,-27.33 257.86,-19.75"/>
<polygon fill="midnightblue" stroke="midnightblue" points="233.53,-46 230.27,-56.08 239.11,-50.24 233.53,-46"/>
</g>
</g>
</svg>
