<?xml version="1.0" encoding="UTF-8" standalone="no"?>
<!DOCTYPE svg PUBLIC "-//W3C//DTD SVG 1.1//EN"
 "http://www.w3.org/Graphics/SVG/1.1/DTD/svg11.dtd">
<!-- Generated by graphviz version 2.43.0 (0)
 -->
<!-- Title: src/client_session.hpp Pages: 1 -->
<svg width="510pt" height="207pt"
 viewBox="0.00 0.00 509.85 207.00" xmlns="http://www.w3.org/2000/svg" xmlns:xlink="http://www.w3.org/1999/xlink">
<g id="graph0" class="graph" transform="scale(1 1) rotate(0) translate(4 203)">
<title>src/client_session.hpp</title>
<!-- Node1 -->
<g id="node1" class="node">
<title>Node1</title>
<g id="a_node1"><a xlink:title=" ">
<polygon fill="#bfbfbf" stroke="black" points="87.85,-179.5 87.85,-198.5 211.85,-198.5 211.85,-179.5 87.85,-179.5"/>
<text text-anchor="middle" x="149.85" y="-186.5" font-family="Helvetica,sans-Serif" font-size="10.00">src/client_session.hpp</text>
</a>
</g>
</g>
<!-- Node2 -->
<g id="node2" class="node">
<title>Node2</title>
<g id="a_node2"><a xlink:title=" ">
<polygon fill="none" stroke="#bfbfbf" points="52.85,-0.5 52.85,-19.5 96.85,-19.5 96.85,-0.5 52.85,-0.5"/>
<text text-anchor="middle" x="74.85" y="-7.5" font-family="Helvetica,sans-Serif" font-size="10.00">string</text>
</a>
</g>
</g>
<!-- Node1&#45;&gt;Node2 -->
<g id="edge1" class="edge">
<title>Node1&#45;&gt;Node2</title>
<path fill="none" stroke="midnightblue" d="M87.79,-184.41C58.89,-179.25 26.97,-167.79 8.85,-143 -19.35,-104.4 28.62,-51.95 56.71,-26.34"/>
<polygon fill="midnightblue" stroke="midnightblue" points="59.18,-28.83 64.35,-19.58 54.54,-23.58 59.18,-28.83"/>
</g>
<!-- Node3 -->
<g id="node3" class="node">
<title>Node3</title>
<g id="a_node3"><a xlink:title=" ">
<polygon fill="none" stroke="#bfbfbf" points="17.85,-118 17.85,-137 65.85,-137 65.85,-118 17.85,-118"/>
<text text-anchor="middle" x="41.85" y="-125" font-family="Helvetica,sans-Serif" font-size="10.00">mutex</text>
</a>
</g>
</g>
<!-- Node1&#45;&gt;Node3 -->
<g id="edge2" class="edge">
<title>Node1&#45;&gt;Node3</title>
<path fill="none" stroke="midnightblue" d="M134.38,-179.48C116.58,-169.67 87.11,-153.43 66.22,-141.92"/>
<polygon fill="midnightblue" stroke="midnightblue" points="67.75,-138.77 57.3,-137.01 64.37,-144.9 67.75,-138.77"/>
</g>
<!-- Node4 -->
<g id="node4" class="node">
<title>Node4</title>
<g id="a_node4"><a xlink:href="self__describing__json_8hpp.html" target="_top" xlink:title=" ">
<polygon fill="none" stroke="black" points="83.85,-112.5 83.85,-142.5 215.85,-142.5 215.85,-112.5 83.85,-112.5"/>
<text text-anchor="start" x="91.85" y="-130.5" font-family="Helvetica,sans-Serif" font-size="10.00">payload/self_describing</text>
<text text-anchor="middle" x="149.85" y="-119.5" font-family="Helvetica,sans-Serif" font-size="10.00">_json.hpp</text>
</a>
</g>
</g>
<!-- Node1&#45;&gt;Node4 -->
<g id="edge3" class="edge">
<title>Node1&#45;&gt;Node4</title>
<path fill="none" stroke="midnightblue" d="M149.85,-179.48C149.85,-172.47 149.85,-162.19 149.85,-152.7"/>
<polygon fill="midnightblue" stroke="midnightblue" points="153.35,-152.52 149.85,-142.52 146.35,-152.52 153.35,-152.52"/>
</g>
<!-- Node8 -->
<g id="node8" class="node">
<title>Node8</title>
<g id="a_node8"><a xlink:title=" ">
<polygon fill="none" stroke="#bfbfbf" points="234.35,-118 234.35,-137 339.35,-137 339.35,-118 234.35,-118"/>
<text text-anchor="middle" x="286.85" y="-125" font-family="Helvetica,sans-Serif" font-size="10.00">../include/json.hpp</text>
</a>
</g>
</g>
<!-- Node1&#45;&gt;Node8 -->
<g id="edge9" class="edge">
<title>Node1&#45;&gt;Node8</title>
<path fill="none" stroke="midnightblue" d="M169.48,-179.48C192.68,-169.4 231.47,-152.55 258.07,-141"/>
<polygon fill="midnightblue" stroke="midnightblue" points="259.48,-144.2 267.26,-137.01 256.7,-137.78 259.48,-144.2"/>
</g>
<!-- Node9 -->
<g id="node9" class="node">
<title>Node9</title>
<g id="a_node9"><a xlink:href="session__store_8hpp.html" target="_top" xlink:title=" ">
<polygon fill="none" stroke="black" points="357.85,-118 357.85,-137 501.85,-137 501.85,-118 357.85,-118"/>
<text text-anchor="middle" x="429.85" y="-125" font-family="Helvetica,sans-Serif" font-size="10.00">storage/session_store.hpp</text>
</a>
</g>
</g>
<!-- Node1&#45;&gt;Node9 -->
<g id="edge10" class="edge">
<title>Node1&#45;&gt;Node9</title>
<path fill="none" stroke="midnightblue" d="M189.97,-179.48C239.98,-168.85 325.46,-150.68 379.73,-139.15"/>
<polygon fill="midnightblue" stroke="midnightblue" points="380.76,-142.51 389.81,-137.01 379.3,-135.66 380.76,-142.51"/>
</g>
<!-- Node4&#45;&gt;Node2 -->
<g id="edge4" class="edge">
<title>Node4&#45;&gt;Node2</title>
<path fill="none" stroke="midnightblue" d="M129.09,-112.32C117.2,-103.21 102.9,-90.41 93.85,-76 84.97,-61.84 80.09,-43.36 77.51,-29.72"/>
<polygon fill="midnightblue" stroke="midnightblue" points="80.92,-28.91 75.85,-19.61 74.02,-30.05 80.92,-28.91"/>
</g>
<!-- Node5 -->
<g id="node5" class="node">
<title>Node5</title>
<g id="a_node5"><a xlink:href="constants_8hpp.html" target="_top" xlink:title=" ">
<polygon fill="none" stroke="black" points="102.85,-56.5 102.85,-75.5 196.85,-75.5 196.85,-56.5 102.85,-56.5"/>
<text text-anchor="middle" x="149.85" y="-63.5" font-family="Helvetica,sans-Serif" font-size="10.00">../constants.hpp</text>
</a>
</g>
</g>
<!-- Node4&#45;&gt;Node5 -->
<g id="edge5" class="edge">
<title>Node4&#45;&gt;Node5</title>
<path fill="none" stroke="midnightblue" d="M149.85,-112.4C149.85,-104.47 149.85,-94.46 149.85,-85.86"/>
<polygon fill="midnightblue" stroke="midnightblue" points="153.35,-85.66 149.85,-75.66 146.35,-85.66 153.35,-85.66"/>
</g>
<!-- Node7 -->
<g id="node7" class="node">
<title>Node7</title>
<g id="a_node7"><a xlink:title=" ">
<polygon fill="none" stroke="#bfbfbf" points="248.85,-56.5 248.85,-75.5 362.85,-75.5 362.85,-56.5 248.85,-56.5"/>
<text text-anchor="middle" x="305.85" y="-63.5" font-family="Helvetica,sans-Serif" font-size="10.00">../../include/json.hpp</text>
</a>
</g>
</g>
<!-- Node4&#45;&gt;Node7 -->
<g id="edge8" class="edge">
<title>Node4&#45;&gt;Node7</title>
<path fill="none" stroke="midnightblue" d="M186.82,-112.4C213.23,-102.33 248.41,-88.91 273.67,-79.28"/>
<polygon fill="midnightblue" stroke="midnightblue" points="275.06,-82.49 283.16,-75.66 272.56,-75.95 275.06,-82.49"/>
</g>
<!-- Node5&#45;&gt;Node2 -->
<g id="edge6" class="edge">
<title>Node5&#45;&gt;Node2</title>
<path fill="none" stroke="midnightblue" d="M137.8,-56.32C126.39,-48.11 109.02,-35.6 95.42,-25.81"/>
<polygon fill="midnightblue" stroke="midnightblue" points="97.28,-22.84 87.12,-19.83 93.19,-28.52 97.28,-22.84"/>
</g>
<!-- Node6 -->
<g id="node6" class="node">
<title>Node6</title>
<g id="a_node6"><a xlink:title=" ">
<polygon fill="none" stroke="#bfbfbf" points="133.85,-0.5 133.85,-19.5 165.85,-19.5 165.85,-0.5 133.85,-0.5"/>
<text text-anchor="middle" x="149.85" y="-7.5" font-family="Helvetica,sans-Serif" font-size="10.00">set</text>
</a>
</g>
</g>
<!-- Node5&#45;&gt;Node6 -->
<g id="edge7" class="edge">
<title>Node5&#45;&gt;Node6</title>
<path fill="none" stroke="midnightblue" d="M149.85,-56.08C149.85,-49.01 149.85,-38.86 149.85,-29.99"/>
<polygon fill="midnightblue" stroke="midnightblue" points="153.35,-29.75 149.85,-19.75 146.35,-29.75 153.35,-29.75"/>
</g>
<!-- Node9&#45;&gt;Node7 -->
<g id="edge11" class="edge">
<title>Node9&#45;&gt;Node7</title>
<path fill="none" stroke="midnightblue" d="M412.09,-117.98C391.37,-108.03 356.9,-91.49 332.87,-79.96"/>
<polygon fill="midnightblue" stroke="midnightblue" points="334.12,-76.68 323.59,-75.51 331.09,-82.99 334.12,-76.68"/>
</g>
<!-- Node10 -->
<g id="node10" class="node">
<title>Node10</title>
<g id="a_node10"><a xlink:title=" ">
<polygon fill="none" stroke="#bfbfbf" points="413.85,-56.5 413.85,-75.5 445.85,-75.5 445.85,-56.5 413.85,-56.5"/>
<text text-anchor="middle" x="429.85" y="-63.5" font-family="Helvetica,sans-Serif" font-size="10.00">list</text>
</a>
</g>
</g>
<!-- Node9&#45;&gt;Node10 -->
<g id="edge12" class="edge">
<title>Node9&#45;&gt;Node10</title>
<path fill="none" stroke="midnightblue" d="M429.85,-117.98C429.85,-109.58 429.85,-96.48 429.85,-85.66"/>
<polygon fill="midnightblue" stroke="midnightblue" points="433.35,-85.51 429.85,-75.51 426.35,-85.51 433.35,-85.51"/>
</g>
</g>
</svg>
