<?xml version="1.0" encoding="UTF-8" standalone="no"?>
<!DOCTYPE svg PUBLIC "-//W3C//DTD SVG 1.1//EN"
 "http://www.w3.org/Graphics/SVG/1.1/DTD/svg11.dtd">
<!-- Generated by graphviz version 2.43.0 (0)
 -->
<!-- Title: src/client_session.cpp Pages: 1 -->
<svg width="1324pt" height="263pt"
 viewBox="0.00 0.00 1323.50 263.00" xmlns="http://www.w3.org/2000/svg" xmlns:xlink="http://www.w3.org/1999/xlink">
<g id="graph0" class="graph" transform="scale(1 1) rotate(0) translate(4 259)">
<title>src/client_session.cpp</title>
<!-- Node1 -->
<g id="node1" class="node">
<title>Node1</title>
<g id="a_node1"><a xlink:title=" ">
<polygon fill="#bfbfbf" stroke="black" points="154.5,-235.5 154.5,-254.5 277.5,-254.5 277.5,-235.5 154.5,-235.5"/>
<text text-anchor="middle" x="216" y="-242.5" font-family="Helvetica,sans-Serif" font-size="10.00">src/client_session.cpp</text>
</a>
</g>
</g>
<!-- Node2 -->
<g id="node2" class="node">
<title>Node2</title>
<g id="a_node2"><a xlink:href="client__session_8hpp.html" target="_top" xlink:title=" ">
<polygon fill="none" stroke="black" points="162.5,-179.5 162.5,-198.5 269.5,-198.5 269.5,-179.5 162.5,-179.5"/>
<text text-anchor="middle" x="216" y="-186.5" font-family="Helvetica,sans-Serif" font-size="10.00">client_session.hpp</text>
</a>
</g>
</g>
<!-- Node1&#45;&gt;Node2 -->
<g id="edge1" class="edge">
<title>Node1&#45;&gt;Node2</title>
<path fill="none" stroke="midnightblue" d="M216,-235.08C216,-228.01 216,-217.86 216,-208.99"/>
<polygon fill="midnightblue" stroke="midnightblue" points="219.5,-208.75 216,-198.75 212.5,-208.75 219.5,-208.75"/>
</g>
<!-- Node6 -->
<g id="node6" class="node">
<title>Node6</title>
<g id="a_node6"><a xlink:href="constants_8hpp.html" target="_top" xlink:title=" ">
<polygon fill="none" stroke="black" points="0,-56.5 0,-75.5 94,-75.5 94,-56.5 0,-56.5"/>
<text text-anchor="middle" x="47" y="-63.5" font-family="Helvetica,sans-Serif" font-size="10.00">../constants.hpp</text>
</a>
</g>
</g>
<!-- Node1&#45;&gt;Node6 -->
<g id="edge14" class="edge">
<title>Node1&#45;&gt;Node6</title>
<path fill="none" stroke="midnightblue" d="M180.08,-235.42C137.3,-223.05 67.77,-195.69 37,-143 26.65,-125.28 32.4,-101.33 38.61,-85.08"/>
<polygon fill="midnightblue" stroke="midnightblue" points="41.92,-86.24 42.59,-75.66 35.47,-83.51 41.92,-86.24"/>
</g>
<!-- Node12 -->
<g id="node12" class="node">
<title>Node12</title>
<g id="a_node12"><a xlink:href="utils_8hpp.html" target="_top" xlink:title=" ">
<polygon fill="none" stroke="black" points="794.5,-179.5 794.5,-198.5 853.5,-198.5 853.5,-179.5 794.5,-179.5"/>
<text text-anchor="middle" x="824" y="-186.5" font-family="Helvetica,sans-Serif" font-size="10.00">utils.hpp</text>
</a>
</g>
</g>
<!-- Node1&#45;&gt;Node12 -->
<g id="edge15" class="edge">
<title>Node1&#45;&gt;Node12</title>
<path fill="none" stroke="midnightblue" d="M277.64,-238.53C402.27,-227.46 681.12,-202.69 784.47,-193.51"/>
<polygon fill="midnightblue" stroke="midnightblue" points="784.83,-196.99 794.48,-192.62 784.21,-190.02 784.83,-196.99"/>
</g>
<!-- Node3 -->
<g id="node3" class="node">
<title>Node3</title>
<g id="a_node3"><a xlink:title=" ">
<polygon fill="none" stroke="#bfbfbf" points="194,-0.5 194,-19.5 238,-19.5 238,-0.5 194,-0.5"/>
<text text-anchor="middle" x="216" y="-7.5" font-family="Helvetica,sans-Serif" font-size="10.00">string</text>
</a>
</g>
</g>
<!-- Node2&#45;&gt;Node3 -->
<g id="edge2" class="edge">
<title>Node2&#45;&gt;Node3</title>
<path fill="none" stroke="midnightblue" d="M188.72,-179.45C171.71,-172.55 151.17,-160.97 141,-143 134.21,-131.01 136.67,-125.08 141,-112 152.46,-77.34 180.92,-44.89 199.3,-26.54"/>
<polygon fill="midnightblue" stroke="midnightblue" points="201.74,-29.04 206.48,-19.57 196.87,-24.02 201.74,-29.04"/>
</g>
<!-- Node4 -->
<g id="node4" class="node">
<title>Node4</title>
<g id="a_node4"><a xlink:title=" ">
<polygon fill="none" stroke="#bfbfbf" points="46,-118 46,-137 94,-137 94,-118 46,-118"/>
<text text-anchor="middle" x="70" y="-125" font-family="Helvetica,sans-Serif" font-size="10.00">mutex</text>
</a>
</g>
</g>
<!-- Node2&#45;&gt;Node4 -->
<g id="edge3" class="edge">
<title>Node2&#45;&gt;Node4</title>
<path fill="none" stroke="midnightblue" d="M195.08,-179.48C170.25,-169.36 128.66,-152.4 100.31,-140.85"/>
<polygon fill="midnightblue" stroke="midnightblue" points="101.46,-137.54 90.88,-137.01 98.82,-144.02 101.46,-137.54"/>
</g>
<!-- Node5 -->
<g id="node5" class="node">
<title>Node5</title>
<g id="a_node5"><a xlink:href="self__describing__json_8hpp.html" target="_top" xlink:title=" ">
<polygon fill="none" stroke="black" points="150,-112.5 150,-142.5 282,-142.5 282,-112.5 150,-112.5"/>
<text text-anchor="start" x="158" y="-130.5" font-family="Helvetica,sans-Serif" font-size="10.00">payload/self_describing</text>
<text text-anchor="middle" x="216" y="-119.5" font-family="Helvetica,sans-Serif" font-size="10.00">_json.hpp</text>
</a>
</g>
</g>
<!-- Node2&#45;&gt;Node5 -->
<g id="edge4" class="edge">
<title>Node2&#45;&gt;Node5</title>
<path fill="none" stroke="midnightblue" d="M216,-179.48C216,-172.47 216,-162.19 216,-152.7"/>
<polygon fill="midnightblue" stroke="midnightblue" points="219.5,-152.52 216,-142.52 212.5,-152.52 219.5,-152.52"/>
</g>
<!-- Node9 -->
<g id="node9" class="node">
<title>Node9</title>
<g id="a_node9"><a xlink:title=" ">
<polygon fill="none" stroke="#bfbfbf" points="462.5,-118 462.5,-137 567.5,-137 567.5,-118 462.5,-118"/>
<text text-anchor="middle" x="515" y="-125" font-family="Helvetica,sans-Serif" font-size="10.00">../include/json.hpp</text>
</a>
</g>
</g>
<!-- Node2&#45;&gt;Node9 -->
<g id="edge10" class="edge">
<title>Node2&#45;&gt;Node9</title>
<path fill="none" stroke="midnightblue" d="M264.23,-179.46C312.21,-170.81 387.85,-156.8 453,-143 458.41,-141.85 464.07,-140.6 469.68,-139.33"/>
<polygon fill="midnightblue" stroke="midnightblue" points="470.69,-142.69 479.65,-137.04 469.12,-135.87 470.69,-142.69"/>
</g>
<!-- Node10 -->
<g id="node10" class="node">
<title>Node10</title>
<g id="a_node10"><a xlink:href="session__store_8hpp.html" target="_top" xlink:title=" ">
<polygon fill="none" stroke="black" points="300,-118 300,-137 444,-137 444,-118 300,-118"/>
<text text-anchor="middle" x="372" y="-125" font-family="Helvetica,sans-Serif" font-size="10.00">storage/session_store.hpp</text>
</a>
</g>
</g>
<!-- Node2&#45;&gt;Node10 -->
<g id="edge11" class="edge">
<title>Node2&#45;&gt;Node10</title>
<path fill="none" stroke="midnightblue" d="M238.35,-179.48C264.99,-169.31 309.71,-152.26 340.01,-140.7"/>
<polygon fill="midnightblue" stroke="midnightblue" points="341.59,-143.84 349.69,-137.01 339.1,-137.3 341.59,-143.84"/>
</g>
<!-- Node5&#45;&gt;Node3 -->
<g id="edge5" class="edge">
<title>Node5&#45;&gt;Node3</title>
<path fill="none" stroke="midnightblue" d="M216,-112.34C216,-91.62 216,-53.02 216,-29.9"/>
<polygon fill="midnightblue" stroke="midnightblue" points="219.5,-29.67 216,-19.67 212.5,-29.67 219.5,-29.67"/>
</g>
<!-- Node5&#45;&gt;Node6 -->
<g id="edge6" class="edge">
<title>Node5&#45;&gt;Node6</title>
<path fill="none" stroke="midnightblue" d="M175.95,-112.4C147.09,-102.24 108.55,-88.67 81.15,-79.02"/>
<polygon fill="midnightblue" stroke="midnightblue" points="82.19,-75.68 71.59,-75.66 79.86,-82.28 82.19,-75.68"/>
</g>
<!-- Node8 -->
<g id="node8" class="node">
<title>Node8</title>
<g id="a_node8"><a xlink:title=" ">
<polygon fill="none" stroke="#bfbfbf" points="315,-56.5 315,-75.5 429,-75.5 429,-56.5 315,-56.5"/>
<text text-anchor="middle" x="372" y="-63.5" font-family="Helvetica,sans-Serif" font-size="10.00">../../include/json.hpp</text>
</a>
</g>
</g>
<!-- Node5&#45;&gt;Node8 -->
<g id="edge9" class="edge">
<title>Node5&#45;&gt;Node8</title>
<path fill="none" stroke="midnightblue" d="M252.97,-112.4C279.38,-102.33 314.56,-88.91 339.81,-79.28"/>
<polygon fill="midnightblue" stroke="midnightblue" points="341.2,-82.49 349.3,-75.66 338.71,-75.95 341.2,-82.49"/>
</g>
<!-- Node6&#45;&gt;Node3 -->
<g id="edge7" class="edge">
<title>Node6&#45;&gt;Node3</title>
<path fill="none" stroke="midnightblue" d="M73.78,-56.44C103.76,-46.86 152.31,-31.35 184.2,-21.16"/>
<polygon fill="midnightblue" stroke="midnightblue" points="185.46,-24.43 193.92,-18.05 183.33,-17.76 185.46,-24.43"/>
</g>
<!-- Node7 -->
<g id="node7" class="node">
<title>Node7</title>
<g id="a_node7"><a xlink:title=" ">
<polygon fill="none" stroke="#bfbfbf" points="31,-0.5 31,-19.5 63,-19.5 63,-0.5 31,-0.5"/>
<text text-anchor="middle" x="47" y="-7.5" font-family="Helvetica,sans-Serif" font-size="10.00">set</text>
</a>
</g>
</g>
<!-- Node6&#45;&gt;Node7 -->
<g id="edge8" class="edge">
<title>Node6&#45;&gt;Node7</title>
<path fill="none" stroke="midnightblue" d="M47,-56.08C47,-49.01 47,-38.86 47,-29.99"/>
<polygon fill="midnightblue" stroke="midnightblue" points="50.5,-29.75 47,-19.75 43.5,-29.75 50.5,-29.75"/>
</g>
<!-- Node10&#45;&gt;Node8 -->
<g id="edge12" class="edge">
<title>Node10&#45;&gt;Node8</title>
<path fill="none" stroke="midnightblue" d="M372,-117.98C372,-109.58 372,-96.48 372,-85.66"/>
<polygon fill="midnightblue" stroke="midnightblue" points="375.5,-85.51 372,-75.51 368.5,-85.51 375.5,-85.51"/>
</g>
<!-- Node11 -->
<g id="node11" class="node">
<title>Node11</title>
<g id="a_node11"><a xlink:title=" ">
<polygon fill="none" stroke="#bfbfbf" points="514,-56.5 514,-75.5 546,-75.5 546,-56.5 514,-56.5"/>
<text text-anchor="middle" x="530" y="-63.5" font-family="Helvetica,sans-Serif" font-size="10.00">list</text>
</a>
</g>
</g>
<!-- Node10&#45;&gt;Node11 -->
<g id="edge13" class="edge">
<title>Node10&#45;&gt;Node11</title>
<path fill="none" stroke="midnightblue" d="M394.64,-117.98C423.62,-107.06 473.71,-88.2 504.15,-76.73"/>
<polygon fill="midnightblue" stroke="midnightblue" points="505.54,-79.95 513.67,-73.15 503.07,-73.4 505.54,-79.95"/>
</g>
<!-- Node12&#45;&gt;Node3 -->
<g id="edge17" class="edge">
<title>Node12&#45;&gt;Node3</title>
<path fill="none" stroke="midnightblue" d="M853.76,-186.85C941.54,-183.15 1194.73,-170.19 1219,-143 1228.17,-132.72 1226.77,-123.38 1219,-112 1180.53,-55.62 1142.72,-70.41 1076,-56 913.62,-20.92 385.08,-12.83 248.47,-11.31"/>
<polygon fill="midnightblue" stroke="midnightblue" points="248.28,-7.81 238.25,-11.2 248.21,-14.81 248.28,-7.81"/>
</g>
<!-- Node12&#45;&gt;Node5 -->
<g id="edge26" class="edge">
<title>Node12&#45;&gt;Node5</title>
<path fill="none" stroke="midnightblue" d="M794.41,-186.61C714.84,-182.65 489.52,-169.87 292.16,-143.06"/>
<polygon fill="midnightblue" stroke="midnightblue" points="292.57,-139.59 282.19,-141.69 291.62,-146.52 292.57,-139.59"/>
</g>
<!-- Node12&#45;&gt;Node9 -->
<g id="edge32" class="edge">
<title>Node12&#45;&gt;Node9</title>
<path fill="none" stroke="midnightblue" d="M794.14,-182.74C748.4,-174.61 658.25,-158.34 582,-143 576.1,-141.81 569.91,-140.53 563.78,-139.23"/>
<polygon fill="midnightblue" stroke="midnightblue" points="564.09,-135.72 553.58,-137.05 562.63,-142.56 564.09,-135.72"/>
</g>
<!-- Node12&#45;&gt;Node11 -->
<g id="edge16" class="edge">
<title>Node12&#45;&gt;Node11</title>
<path fill="none" stroke="midnightblue" d="M794.37,-186.39C752.36,-183.07 674.04,-173.05 615,-143 599.58,-135.15 565.59,-102.59 545.58,-82.72"/>
<polygon fill="midnightblue" stroke="midnightblue" points="547.97,-80.16 538.42,-75.57 543.02,-85.11 547.97,-80.16"/>
</g>
<!-- Node13 -->
<g id="node13" class="node">
<title>Node13</title>
<g id="a_node13"><a xlink:title=" ">
<polygon fill="none" stroke="#bfbfbf" points="1076,-118 1076,-137 1132,-137 1132,-118 1076,-118"/>
<text text-anchor="middle" x="1104" y="-125" font-family="Helvetica,sans-Serif" font-size="10.00">sstream</text>
</a>
</g>
</g>
<!-- Node12&#45;&gt;Node13 -->
<g id="edge18" class="edge">
<title>Node12&#45;&gt;Node13</title>
<path fill="none" stroke="midnightblue" d="M853.62,-183.82C898.94,-177.1 988.03,-162.65 1062,-143 1065.03,-142.19 1068.16,-141.28 1071.28,-140.31"/>
<polygon fill="midnightblue" stroke="midnightblue" points="1072.67,-143.54 1081.08,-137.09 1070.49,-136.89 1072.67,-143.54"/>
</g>
<!-- Node14 -->
<g id="node14" class="node">
<title>Node14</title>
<g id="a_node14"><a xlink:title=" ">
<polygon fill="none" stroke="#bfbfbf" points="1150,-118 1150,-137 1210,-137 1210,-118 1150,-118"/>
<text text-anchor="middle" x="1180" y="-125" font-family="Helvetica,sans-Serif" font-size="10.00">iostream</text>
</a>
</g>
</g>
<!-- Node12&#45;&gt;Node14 -->
<g id="edge19" class="edge">
<title>Node12&#45;&gt;Node14</title>
<path fill="none" stroke="midnightblue" d="M853.69,-185.92C910.3,-181.5 1037.28,-169.32 1141,-143 1143.98,-142.24 1147.06,-141.34 1150.1,-140.35"/>
<polygon fill="midnightblue" stroke="midnightblue" points="1151.34,-143.63 1159.62,-137.02 1149.02,-137.02 1151.34,-143.63"/>
</g>
<!-- Node15 -->
<g id="node15" class="node">
<title>Node15</title>
<g id="a_node15"><a xlink:title=" ">
<polygon fill="none" stroke="#bfbfbf" points="1029,-56.5 1029,-75.5 1067,-75.5 1067,-56.5 1029,-56.5"/>
<text text-anchor="middle" x="1048" y="-63.5" font-family="Helvetica,sans-Serif" font-size="10.00">map</text>
</a>
</g>
</g>
<!-- Node12&#45;&gt;Node15 -->
<g id="edge20" class="edge">
<title>Node12&#45;&gt;Node15</title>
<path fill="none" stroke="midnightblue" d="M853.7,-185.3C904.34,-180.09 1004.3,-166.99 1029,-143 1044.28,-128.15 1047.98,-103.01 1048.54,-85.74"/>
<polygon fill="midnightblue" stroke="midnightblue" points="1052.04,-85.71 1048.55,-75.71 1045.04,-85.71 1052.04,-85.71"/>
</g>
<!-- Node16 -->
<g id="node16" class="node">
<title>Node16</title>
<g id="a_node16"><a xlink:title=" ">
<polygon fill="none" stroke="#bfbfbf" points="1266.5,-118 1266.5,-137 1315.5,-137 1315.5,-118 1266.5,-118"/>
<text text-anchor="middle" x="1291" y="-125" font-family="Helvetica,sans-Serif" font-size="10.00">cctype</text>
</a>
</g>
</g>
<!-- Node12&#45;&gt;Node16 -->
<g id="edge21" class="edge">
<title>Node12&#45;&gt;Node16</title>
<path fill="none" stroke="midnightblue" d="M853.74,-187.43C923.98,-185.54 1105.24,-177.42 1252,-143 1255.07,-142.28 1258.22,-141.39 1261.34,-140.4"/>
<polygon fill="midnightblue" stroke="midnightblue" points="1262.76,-143.61 1271.06,-137.01 1260.46,-137 1262.76,-143.61"/>
</g>
<!-- Node17 -->
<g id="node17" class="node">
<title>Node17</title>
<g id="a_node17"><a xlink:title=" ">
<polygon fill="none" stroke="#bfbfbf" points="624,-118 624,-137 680,-137 680,-118 624,-118"/>
<text text-anchor="middle" x="652" y="-125" font-family="Helvetica,sans-Serif" font-size="10.00">iomanip</text>
</a>
</g>
</g>
<!-- Node12&#45;&gt;Node17 -->
<g id="edge22" class="edge">
<title>Node12&#45;&gt;Node17</title>
<path fill="none" stroke="midnightblue" d="M796.96,-179.44C769.61,-170.68 726.16,-156.47 689,-143 687.1,-142.31 685.16,-141.59 683.2,-140.86"/>
<polygon fill="midnightblue" stroke="midnightblue" points="684.04,-137.43 673.45,-137.12 681.54,-143.97 684.04,-137.43"/>
</g>
<!-- Node18 -->
<g id="node18" class="node">
<title>Node18</title>
<g id="a_node18"><a xlink:title=" ">
<polygon fill="none" stroke="#bfbfbf" points="698,-118 698,-137 748,-137 748,-118 698,-118"/>
<text text-anchor="middle" x="723" y="-125" font-family="Helvetica,sans-Serif" font-size="10.00">chrono</text>
</a>
</g>
</g>
<!-- Node12&#45;&gt;Node18 -->
<g id="edge23" class="edge">
<title>Node12&#45;&gt;Node18</title>
<path fill="none" stroke="midnightblue" d="M809.53,-179.48C793.03,-169.75 765.82,-153.73 746.32,-142.24"/>
<polygon fill="midnightblue" stroke="midnightblue" points="747.84,-139.07 737.44,-137.01 744.28,-145.1 747.84,-139.07"/>
</g>
<!-- Node19 -->
<g id="node19" class="node">
<title>Node19</title>
<g id="a_node19"><a xlink:title=" ">
<polygon fill="none" stroke="#bfbfbf" points="766,-118 766,-137 816,-137 816,-118 766,-118"/>
<text text-anchor="middle" x="791" y="-125" font-family="Helvetica,sans-Serif" font-size="10.00">cstdint</text>
</a>
</g>
</g>
<!-- Node12&#45;&gt;Node19 -->
<g id="edge24" class="edge">
<title>Node12&#45;&gt;Node19</title>
<path fill="none" stroke="midnightblue" d="M819.27,-179.48C814.42,-170.73 806.73,-156.87 800.6,-145.81"/>
<polygon fill="midnightblue" stroke="midnightblue" points="803.63,-144.06 795.72,-137.01 797.51,-147.45 803.63,-144.06"/>
</g>
<!-- Node20 -->
<g id="node20" class="node">
<title>Node20</title>
<g id="a_node20"><a xlink:title=" ">
<polygon fill="none" stroke="#bfbfbf" points="834,-118 834,-137 882,-137 882,-118 834,-118"/>
<text text-anchor="middle" x="858" y="-125" font-family="Helvetica,sans-Serif" font-size="10.00">thread</text>
</a>
</g>
</g>
<!-- Node12&#45;&gt;Node20 -->
<g id="edge25" class="edge">
<title>Node12&#45;&gt;Node20</title>
<path fill="none" stroke="midnightblue" d="M828.87,-179.48C833.87,-170.73 841.79,-156.87 848.11,-145.81"/>
<polygon fill="midnightblue" stroke="midnightblue" points="851.22,-147.43 853.14,-137.01 845.14,-143.96 851.22,-147.43"/>
</g>
<!-- Node21 -->
<g id="node21" class="node">
<title>Node21</title>
<g id="a_node21"><a xlink:href="payload_8hpp.html" target="_top" xlink:title=" ">
<polygon fill="none" stroke="black" points="900.5,-118 900.5,-137 1019.5,-137 1019.5,-118 900.5,-118"/>
<text text-anchor="middle" x="960" y="-125" font-family="Helvetica,sans-Serif" font-size="10.00">payload/payload.hpp</text>
</a>
</g>
</g>
<!-- Node12&#45;&gt;Node21 -->
<g id="edge27" class="edge">
<title>Node12&#45;&gt;Node21</title>
<path fill="none" stroke="midnightblue" d="M843.49,-179.48C866.41,-169.45 904.69,-152.7 931.08,-141.15"/>
<polygon fill="midnightblue" stroke="midnightblue" points="932.79,-144.22 940.55,-137.01 929.99,-137.81 932.79,-144.22"/>
</g>
<!-- Node21&#45;&gt;Node3 -->
<g id="edge31" class="edge">
<title>Node21&#45;&gt;Node3</title>
<path fill="none" stroke="midnightblue" d="M920.65,-117.93C910.97,-115.91 900.62,-113.81 891,-112 742.22,-83.98 704.73,-78.41 555,-56 442.56,-39.17 308.64,-22.34 248.3,-14.93"/>
<polygon fill="midnightblue" stroke="midnightblue" points="248.6,-11.44 238.25,-13.69 247.75,-18.38 248.6,-11.44"/>
</g>
<!-- Node21&#45;&gt;Node8 -->
<g id="edge29" class="edge">
<title>Node21&#45;&gt;Node8</title>
<path fill="none" stroke="midnightblue" d="M923.62,-118C913.14,-115.78 901.66,-113.58 891,-112 805.69,-99.39 559.5,-80.6 439.44,-71.83"/>
<polygon fill="midnightblue" stroke="midnightblue" points="439.5,-68.32 429.27,-71.09 438.99,-75.31 439.5,-68.32"/>
</g>
<!-- Node21&#45;&gt;Node15 -->
<g id="edge30" class="edge">
<title>Node21&#45;&gt;Node15</title>
<path fill="none" stroke="midnightblue" d="M972.61,-117.98C986.72,-108.43 1009.83,-92.81 1026.75,-81.37"/>
<polygon fill="midnightblue" stroke="midnightblue" points="1029.09,-84.01 1035.42,-75.51 1025.17,-78.21 1029.09,-84.01"/>
</g>
<!-- Node22 -->
<g id="node22" class="node">
<title>Node22</title>
<g id="a_node22"><a xlink:title=" ">
<polygon fill="none" stroke="#bfbfbf" points="881.5,-56.5 881.5,-75.5 1010.5,-75.5 1010.5,-56.5 881.5,-56.5"/>
<text text-anchor="middle" x="946" y="-63.5" font-family="Helvetica,sans-Serif" font-size="10.00">../../include/base64.hpp</text>
</a>
</g>
</g>
<!-- Node21&#45;&gt;Node22 -->
<g id="edge28" class="edge">
<title>Node21&#45;&gt;Node22</title>
<path fill="none" stroke="midnightblue" d="M957.99,-117.98C956,-109.49 952.87,-96.2 950.31,-85.32"/>
<polygon fill="midnightblue" stroke="midnightblue" points="953.7,-84.44 948,-75.51 946.89,-86.04 953.7,-84.44"/>
</g>
</g>
</svg>
