<?xml version="1.0" encoding="UTF-8" standalone="no"?>
<!DOCTYPE svg PUBLIC "-//W3C//DTD SVG 1.1//EN"
 "http://www.w3.org/Graphics/SVG/1.1/DTD/svg11.dtd">
<!-- Generated by graphviz version 2.43.0 (0)
 -->
<!-- Title: src/constants.hpp Pages: 1 -->
<svg width="1452pt" height="363pt"
 viewBox="0.00 0.00 1451.83 363.00" xmlns="http://www.w3.org/2000/svg" xmlns:xlink="http://www.w3.org/1999/xlink">
<g id="graph0" class="graph" transform="scale(1 1) rotate(0) translate(4 359)">
<title>src/constants.hpp</title>
<!-- Node1 -->
<g id="node1" class="node">
<title>Node1</title>
<g id="a_node1"><a xlink:title=" ">
<polygon fill="#bfbfbf" stroke="black" points="870,-335.5 870,-354.5 972,-354.5 972,-335.5 870,-335.5"/>
<text text-anchor="middle" x="921" y="-342.5" font-family="Helvetica,sans-Serif" font-size="10.00">src/constants.hpp</text>
</a>
</g>
</g>
<!-- Node2 -->
<g id="node2" class="node">
<title>Node2</title>
<g id="a_node2"><a xlink:href="client__session_8cpp.html" target="_top" xlink:title=" ">
<polygon fill="none" stroke="black" points="45.5,-140 45.5,-159 168.5,-159 168.5,-140 45.5,-140"/>
<text text-anchor="middle" x="107" y="-147" font-family="Helvetica,sans-Serif" font-size="10.00">src/client_session.cpp</text>
</a>
</g>
</g>
<!-- Node1&#45;&gt;Node2 -->
<g id="edge1" class="edge">
<title>Node1&#45;&gt;Node2</title>
<path fill="none" stroke="midnightblue" d="M875.25,-333.12C729,-298.36 274.77,-190.38 143.11,-159.08"/>
<polygon fill="midnightblue" stroke="midnightblue" points="874.7,-336.59 885.24,-335.5 876.32,-329.78 874.7,-336.59"/>
</g>
<!-- Node3 -->
<g id="node3" class="node">
<title>Node3</title>
<g id="a_node3"><a xlink:href="emitter_8hpp.html" target="_top" xlink:title=" ">
<polygon fill="none" stroke="black" points="737.5,-140 737.5,-159 866.5,-159 866.5,-140 737.5,-140"/>
<text text-anchor="middle" x="802" y="-147" font-family="Helvetica,sans-Serif" font-size="10.00">src/emitter/emitter.hpp</text>
</a>
</g>
</g>
<!-- Node1&#45;&gt;Node3 -->
<g id="edge2" class="edge">
<title>Node1&#45;&gt;Node3</title>
<path fill="none" stroke="midnightblue" d="M859.63,-339.11C832.77,-333.55 803.64,-322.14 787,-299 755.38,-255.03 785.39,-183.88 797.47,-159.23"/>
<polygon fill="midnightblue" stroke="midnightblue" points="859.31,-342.61 869.78,-340.96 860.57,-335.72 859.31,-342.61"/>
</g>
<!-- Node8 -->
<g id="node8" class="node">
<title>Node8</title>
<g id="a_node8"><a xlink:href="http__client__curl_8cpp.html" target="_top" xlink:title=" ">
<polygon fill="none" stroke="black" points="1000,-268.5 1000,-298.5 1108,-298.5 1108,-268.5 1000,-268.5"/>
<text text-anchor="start" x="1008" y="-286.5" font-family="Helvetica,sans-Serif" font-size="10.00">src/http/http_client</text>
<text text-anchor="middle" x="1054" y="-275.5" font-family="Helvetica,sans-Serif" font-size="10.00">_curl.cpp</text>
</a>
</g>
</g>
<!-- Node1&#45;&gt;Node8 -->
<g id="edge8" class="edge">
<title>Node1&#45;&gt;Node8</title>
<path fill="none" stroke="midnightblue" d="M949.32,-331.33C970.84,-321.7 1000.42,-308.47 1022.65,-298.52"/>
<polygon fill="midnightblue" stroke="midnightblue" points="947.75,-328.2 940.06,-335.48 950.61,-334.59 947.75,-328.2"/>
</g>
<!-- Node9 -->
<g id="node9" class="node">
<title>Node9</title>
<g id="a_node9"><a xlink:href="http__request__result_8cpp.html" target="_top" xlink:title=" ">
<polygon fill="none" stroke="black" points="1126,-268.5 1126,-298.5 1244,-298.5 1244,-268.5 1126,-268.5"/>
<text text-anchor="start" x="1134" y="-286.5" font-family="Helvetica,sans-Serif" font-size="10.00">src/http/http_request</text>
<text text-anchor="middle" x="1185" y="-275.5" font-family="Helvetica,sans-Serif" font-size="10.00">_result.cpp</text>
</a>
</g>
</g>
<!-- Node1&#45;&gt;Node9 -->
<g id="edge9" class="edge">
<title>Node1&#45;&gt;Node9</title>
<path fill="none" stroke="midnightblue" d="M968.71,-333.25C1012.79,-323.31 1078.41,-308.52 1125.81,-297.84"/>
<polygon fill="midnightblue" stroke="midnightblue" points="967.81,-329.86 958.82,-335.48 969.35,-336.69 967.81,-329.86"/>
</g>
<!-- Node10 -->
<g id="node10" class="node">
<title>Node10</title>
<g id="a_node10"><a xlink:href="self__describing__json_8hpp.html" target="_top" xlink:title=" ">
<polygon fill="none" stroke="black" points="795.5,-268.5 795.5,-298.5 944.5,-298.5 944.5,-268.5 795.5,-268.5"/>
<text text-anchor="start" x="803.5" y="-286.5" font-family="Helvetica,sans-Serif" font-size="10.00">src/payload/self_describing</text>
<text text-anchor="middle" x="870" y="-275.5" font-family="Helvetica,sans-Serif" font-size="10.00">_json.hpp</text>
</a>
</g>
</g>
<!-- Node1&#45;&gt;Node10 -->
<g id="edge10" class="edge">
<title>Node1&#45;&gt;Node10</title>
<path fill="none" stroke="midnightblue" d="M907.12,-327.81C899.27,-318.65 889.55,-307.3 882.02,-298.52"/>
<polygon fill="midnightblue" stroke="midnightblue" points="904.53,-330.16 913.69,-335.48 909.84,-325.6 904.53,-330.16"/>
</g>
<!-- Node28 -->
<g id="node28" class="node">
<title>Node28</title>
<g id="a_node28"><a xlink:href="subject_8hpp.html" target="_top" xlink:title=" ">
<polygon fill="none" stroke="black" points="1340,-207 1340,-226 1430,-226 1430,-207 1340,-207"/>
<text text-anchor="middle" x="1385" y="-214" font-family="Helvetica,sans-Serif" font-size="10.00">src/subject.hpp</text>
</a>
</g>
</g>
<!-- Node1&#45;&gt;Node28 -->
<g id="edge42" class="edge">
<title>Node1&#45;&gt;Node28</title>
<path fill="none" stroke="midnightblue" d="M934.08,-327.23C950.21,-307.04 977.19,-274.96 991,-268 1124.73,-200.61 1178.52,-257.93 1326,-232 1335.04,-230.41 1344.75,-228.23 1353.63,-226.04"/>
<polygon fill="midnightblue" stroke="midnightblue" points="931.16,-325.28 927.71,-335.29 936.66,-329.62 931.16,-325.28"/>
</g>
<!-- Node4 -->
<g id="node4" class="node">
<title>Node4</title>
<g id="a_node4"><a xlink:href="emitter_8cpp.html" target="_top" xlink:title=" ">
<polygon fill="none" stroke="black" points="324,-73 324,-92 452,-92 452,-73 324,-73"/>
<text text-anchor="middle" x="388" y="-80" font-family="Helvetica,sans-Serif" font-size="10.00">src/emitter/emitter.cpp</text>
</a>
</g>
</g>
<!-- Node3&#45;&gt;Node4 -->
<g id="edge3" class="edge">
<title>Node3&#45;&gt;Node4</title>
<path fill="none" stroke="midnightblue" d="M750.72,-138.04C743.12,-136.61 735.36,-135.22 728,-134 609.86,-114.48 579.11,-117.67 461,-98 450.42,-96.24 439.03,-94.09 428.46,-92"/>
<polygon fill="midnightblue" stroke="midnightblue" points="750.11,-141.49 760.59,-139.94 751.43,-134.61 750.11,-141.49"/>
</g>
<!-- Node5 -->
<g id="node5" class="node">
<title>Node5</title>
<g id="a_node5"><a xlink:href="snowplow_8hpp.html" target="_top" xlink:title=" ">
<polygon fill="none" stroke="black" points="998.5,-6 998.5,-25 1101.5,-25 1101.5,-6 998.5,-6"/>
<text text-anchor="middle" x="1050" y="-13" font-family="Helvetica,sans-Serif" font-size="10.00">src/snowplow.hpp</text>
</a>
</g>
</g>
<!-- Node3&#45;&gt;Node5 -->
<g id="edge4" class="edge">
<title>Node3&#45;&gt;Node5</title>
<path fill="none" stroke="midnightblue" d="M753.95,-137.73C697.15,-124.77 609.66,-104 605,-98 596.55,-87.12 595.72,-77.19 605,-67 633.93,-35.24 947.62,-38.06 990,-31 999.3,-29.45 1009.3,-27.25 1018.41,-25.03"/>
<polygon fill="midnightblue" stroke="midnightblue" points="753.3,-141.17 763.83,-139.98 754.85,-134.35 753.3,-141.17"/>
</g>
<!-- Node6 -->
<g id="node6" class="node">
<title>Node6</title>
<g id="a_node6"><a xlink:href="tracker_8hpp.html" target="_top" xlink:title=" ">
<polygon fill="none" stroke="black" points="470,-73 470,-92 558,-92 558,-73 470,-73"/>
<text text-anchor="middle" x="514" y="-80" font-family="Helvetica,sans-Serif" font-size="10.00">src/tracker.hpp</text>
</a>
</g>
</g>
<!-- Node3&#45;&gt;Node6 -->
<g id="edge5" class="edge">
<title>Node3&#45;&gt;Node6</title>
<path fill="none" stroke="midnightblue" d="M751.34,-137.82C704.67,-127.87 633.55,-112.45 572,-98 564.02,-96.13 555.44,-94.03 547.39,-92.02"/>
<polygon fill="midnightblue" stroke="midnightblue" points="750.69,-141.26 761.2,-139.91 752.15,-134.41 750.69,-141.26"/>
</g>
<!-- Node6&#45;&gt;Node5 -->
<g id="edge6" class="edge">
<title>Node6&#45;&gt;Node5</title>
<path fill="none" stroke="midnightblue" d="M554.07,-70.6C560.05,-69.23 566.16,-67.97 572,-67 755.92,-36.29 805.96,-60.99 990,-31 999.41,-29.47 1009.53,-27.25 1018.73,-25"/>
<polygon fill="midnightblue" stroke="midnightblue" points="553.11,-67.23 544.21,-72.98 554.75,-74.04 553.11,-67.23"/>
</g>
<!-- Node7 -->
<g id="node7" class="node">
<title>Node7</title>
<g id="a_node7"><a xlink:href="tracker_8cpp.html" target="_top" xlink:title=" ">
<polygon fill="none" stroke="black" points="470.5,-6 470.5,-25 557.5,-25 557.5,-6 470.5,-6"/>
<text text-anchor="middle" x="514" y="-13" font-family="Helvetica,sans-Serif" font-size="10.00">src/tracker.cpp</text>
</a>
</g>
</g>
<!-- Node6&#45;&gt;Node7 -->
<g id="edge7" class="edge">
<title>Node6&#45;&gt;Node7</title>
<path fill="none" stroke="midnightblue" d="M514,-62.54C514,-50.17 514,-34.62 514,-25.13"/>
<polygon fill="midnightblue" stroke="midnightblue" points="510.5,-62.73 514,-72.73 517.5,-62.73 510.5,-62.73"/>
</g>
<!-- Node10&#45;&gt;Node3 -->
<g id="edge15" class="edge">
<title>Node10&#45;&gt;Node3</title>
<path fill="none" stroke="midnightblue" d="M847.13,-261.21C839.17,-252.77 830.79,-242.56 825,-232 811.57,-207.51 805.41,-174.48 803.12,-159.07"/>
<polygon fill="midnightblue" stroke="midnightblue" points="844.72,-263.76 854.23,-268.43 849.71,-258.85 844.72,-263.76"/>
</g>
<!-- Node10&#45;&gt;Node5 -->
<g id="edge33" class="edge">
<title>Node10&#45;&gt;Node5</title>
<path fill="none" stroke="midnightblue" d="M924.76,-265.35C1057.49,-223.54 1386.57,-118.29 1401,-98 1455.71,-21.07 1426.59,-87.92 1111,-31 1101.89,-29.36 1092.11,-27.21 1083.1,-25.07"/>
<polygon fill="midnightblue" stroke="midnightblue" points="923.67,-262.03 915.18,-268.37 925.77,-268.71 923.67,-262.03"/>
</g>
<!-- Node11 -->
<g id="node11" class="node">
<title>Node11</title>
<g id="a_node11"><a xlink:href="client__session_8hpp.html" target="_top" xlink:title=" ">
<polygon fill="none" stroke="black" points="0,-207 0,-226 124,-226 124,-207 0,-207"/>
<text text-anchor="middle" x="62" y="-214" font-family="Helvetica,sans-Serif" font-size="10.00">src/client_session.hpp</text>
</a>
</g>
</g>
<!-- Node10&#45;&gt;Node11 -->
<g id="edge11" class="edge">
<title>Node10&#45;&gt;Node11</title>
<path fill="none" stroke="midnightblue" d="M785.45,-275.7C622.37,-262.58 267.83,-234.06 124.25,-222.51"/>
<polygon fill="midnightblue" stroke="midnightblue" points="785.19,-279.19 795.43,-276.5 785.75,-272.21 785.19,-279.19"/>
</g>
<!-- Node12 -->
<g id="node12" class="node">
<title>Node12</title>
<g id="a_node12"><a xlink:href="event_8hpp.html" target="_top" xlink:title=" ">
<polygon fill="none" stroke="black" points="961.5,-140 961.5,-159 1080.5,-159 1080.5,-140 961.5,-140"/>
<text text-anchor="middle" x="1021" y="-147" font-family="Helvetica,sans-Serif" font-size="10.00">src/events/event.hpp</text>
</a>
</g>
</g>
<!-- Node10&#45;&gt;Node12 -->
<g id="edge16" class="edge">
<title>Node10&#45;&gt;Node12</title>
<path fill="none" stroke="midnightblue" d="M940.36,-264.83C959.11,-257.29 978.02,-246.71 992,-232 1011.87,-211.1 1018.25,-175.71 1020.19,-159.32"/>
<polygon fill="midnightblue" stroke="midnightblue" points="939.02,-261.59 930.9,-268.4 941.49,-268.14 939.02,-261.59"/>
</g>
<!-- Node22 -->
<g id="node22" class="node">
<title>Node22</title>
<g id="a_node22"><a xlink:href="self__describing__json_8cpp.html" target="_top" xlink:title=" ">
<polygon fill="none" stroke="black" points="833.5,-201.5 833.5,-231.5 982.5,-231.5 982.5,-201.5 833.5,-201.5"/>
<text text-anchor="start" x="841.5" y="-219.5" font-family="Helvetica,sans-Serif" font-size="10.00">src/payload/self_describing</text>
<text text-anchor="middle" x="908" y="-208.5" font-family="Helvetica,sans-Serif" font-size="10.00">_json.cpp</text>
</a>
</g>
</g>
<!-- Node10&#45;&gt;Node22 -->
<g id="edge32" class="edge">
<title>Node10&#45;&gt;Node22</title>
<path fill="none" stroke="midnightblue" d="M883.4,-259.58C888.86,-250.24 894.99,-239.75 899.77,-231.58"/>
<polygon fill="midnightblue" stroke="midnightblue" points="880.27,-258 878.25,-268.4 886.31,-261.53 880.27,-258"/>
</g>
<!-- Node23 -->
<g id="node23" class="node">
<title>Node23</title>
<g id="a_node23"><a xlink:href="utils_8hpp.html" target="_top" xlink:title=" ">
<polygon fill="none" stroke="black" points="528,-207 528,-226 604,-226 604,-207 528,-207"/>
<text text-anchor="middle" x="566" y="-214" font-family="Helvetica,sans-Serif" font-size="10.00">src/utils.hpp</text>
</a>
</g>
</g>
<!-- Node10&#45;&gt;Node23 -->
<g id="edge34" class="edge">
<title>Node10&#45;&gt;Node23</title>
<path fill="none" stroke="midnightblue" d="M794.52,-266.36C734.04,-253.43 651.7,-235.82 604.15,-225.66"/>
<polygon fill="midnightblue" stroke="midnightblue" points="793.9,-269.81 804.41,-268.48 795.36,-262.96 793.9,-269.81"/>
</g>
<!-- Node11&#45;&gt;Node2 -->
<g id="edge12" class="edge">
<title>Node11&#45;&gt;Node2</title>
<path fill="none" stroke="midnightblue" d="M73.84,-198.4C82.58,-185.77 94.12,-169.1 101.03,-159.13"/>
<polygon fill="midnightblue" stroke="midnightblue" points="70.88,-196.52 68.07,-206.73 76.64,-200.5 70.88,-196.52"/>
</g>
<!-- Node11&#45;&gt;Node5 -->
<g id="edge13" class="edge">
<title>Node11&#45;&gt;Node5</title>
<path fill="none" stroke="midnightblue" d="M45.43,-199.73C29.18,-182.34 8.98,-154.14 25,-134 107.34,-30.47 184.01,-85.48 315,-67 612.48,-25.03 692.74,-74.47 990,-31 999.65,-29.59 1010.02,-27.35 1019.38,-25.05"/>
<polygon fill="midnightblue" stroke="midnightblue" points="42.97,-202.22 52.48,-206.9 47.96,-197.31 42.97,-202.22"/>
</g>
<!-- Node11&#45;&gt;Node6 -->
<g id="edge14" class="edge">
<title>Node11&#45;&gt;Node6</title>
<path fill="none" stroke="midnightblue" d="M48.19,-198.77C35.01,-180.69 19.42,-152.04 36,-134 68.07,-99.1 414.34,-106.29 461,-98 469.36,-96.52 478.31,-94.31 486.44,-92.07"/>
<polygon fill="midnightblue" stroke="midnightblue" points="45.44,-200.93 54.32,-206.7 50.98,-196.65 45.44,-200.93"/>
</g>
<!-- Node12&#45;&gt;Node5 -->
<g id="edge30" class="edge">
<title>Node12&#45;&gt;Node5</title>
<path fill="none" stroke="midnightblue" d="M1034.42,-131.92C1041.12,-122.56 1048.52,-110.3 1052,-98 1059.23,-72.39 1054.76,-40.44 1051.88,-25.28"/>
<polygon fill="midnightblue" stroke="midnightblue" points="1031.61,-129.83 1028.36,-139.91 1037.19,-134.06 1031.61,-129.83"/>
</g>
<!-- Node12&#45;&gt;Node6 -->
<g id="edge31" class="edge">
<title>Node12&#45;&gt;Node6</title>
<path fill="none" stroke="midnightblue" d="M970.86,-138.05C962.9,-136.57 954.74,-135.16 947,-134 795.86,-111.28 756.52,-118.03 605,-98 589.77,-95.99 573.17,-93.44 558.36,-91.05"/>
<polygon fill="midnightblue" stroke="midnightblue" points="970.31,-141.51 980.79,-139.95 971.62,-134.63 970.31,-141.51"/>
</g>
<!-- Node13 -->
<g id="node13" class="node">
<title>Node13</title>
<g id="a_node13"><a xlink:href="event_8cpp.html" target="_top" xlink:title=" ">
<polygon fill="none" stroke="black" points="614,-73 614,-92 732,-92 732,-73 614,-73"/>
<text text-anchor="middle" x="673" y="-80" font-family="Helvetica,sans-Serif" font-size="10.00">src/events/event.cpp</text>
</a>
</g>
</g>
<!-- Node12&#45;&gt;Node13 -->
<g id="edge17" class="edge">
<title>Node12&#45;&gt;Node13</title>
<path fill="none" stroke="midnightblue" d="M968.1,-138C961.01,-136.63 953.83,-135.27 947,-134 855.61,-117.06 832.24,-115.69 741,-98 731.52,-96.16 721.32,-94.06 711.79,-92.03"/>
<polygon fill="midnightblue" stroke="midnightblue" points="967.89,-141.52 978.38,-139.99 969.23,-134.65 967.89,-141.52"/>
</g>
<!-- Node14 -->
<g id="node14" class="node">
<title>Node14</title>
<g id="a_node14"><a xlink:href="screen__view__event_8hpp.html" target="_top" xlink:title=" ">
<polygon fill="none" stroke="black" points="750.5,-67.5 750.5,-97.5 881.5,-97.5 881.5,-67.5 750.5,-67.5"/>
<text text-anchor="start" x="758.5" y="-85.5" font-family="Helvetica,sans-Serif" font-size="10.00">src/events/screen_view</text>
<text text-anchor="middle" x="816" y="-74.5" font-family="Helvetica,sans-Serif" font-size="10.00">_event.hpp</text>
</a>
</g>
</g>
<!-- Node12&#45;&gt;Node14 -->
<g id="edge18" class="edge">
<title>Node12&#45;&gt;Node14</title>
<path fill="none" stroke="midnightblue" d="M984.02,-136.77C949.26,-125.75 897.19,-109.24 860.24,-97.53"/>
<polygon fill="midnightblue" stroke="midnightblue" points="983.19,-140.18 993.78,-139.87 985.3,-133.51 983.19,-140.18"/>
</g>
<!-- Node16 -->
<g id="node16" class="node">
<title>Node16</title>
<g id="a_node16"><a xlink:href="self__describing__event_8hpp.html" target="_top" xlink:title=" ">
<polygon fill="none" stroke="black" points="899.5,-67.5 899.5,-97.5 1042.5,-97.5 1042.5,-67.5 899.5,-67.5"/>
<text text-anchor="start" x="907.5" y="-85.5" font-family="Helvetica,sans-Serif" font-size="10.00">src/events/self_describing</text>
<text text-anchor="middle" x="971" y="-74.5" font-family="Helvetica,sans-Serif" font-size="10.00">_event.hpp</text>
</a>
</g>
</g>
<!-- Node12&#45;&gt;Node16 -->
<g id="edge21" class="edge">
<title>Node12&#45;&gt;Node16</title>
<path fill="none" stroke="midnightblue" d="M1008.06,-131.67C999.92,-121.09 989.54,-107.6 981.84,-97.59"/>
<polygon fill="midnightblue" stroke="midnightblue" points="1005.39,-133.94 1014.26,-139.73 1010.93,-129.67 1005.39,-133.94"/>
</g>
<!-- Node18 -->
<g id="node18" class="node">
<title>Node18</title>
<g id="a_node18"><a xlink:href="structured__event_8hpp.html" target="_top" xlink:title=" ">
<polygon fill="none" stroke="black" points="1099.5,-67.5 1099.5,-97.5 1218.5,-97.5 1218.5,-67.5 1099.5,-67.5"/>
<text text-anchor="start" x="1107.5" y="-85.5" font-family="Helvetica,sans-Serif" font-size="10.00">src/events/structured</text>
<text text-anchor="middle" x="1159" y="-74.5" font-family="Helvetica,sans-Serif" font-size="10.00">_event.hpp</text>
</a>
</g>
</g>
<!-- Node12&#45;&gt;Node18 -->
<g id="edge24" class="edge">
<title>Node12&#45;&gt;Node18</title>
<path fill="none" stroke="midnightblue" d="M1048.66,-135.47C1071.99,-124.49 1105.31,-108.79 1129.22,-97.53"/>
<polygon fill="midnightblue" stroke="midnightblue" points="1046.88,-132.44 1039.33,-139.87 1049.86,-138.77 1046.88,-132.44"/>
</g>
<!-- Node20 -->
<g id="node20" class="node">
<title>Node20</title>
<g id="a_node20"><a xlink:href="timing__event_8hpp.html" target="_top" xlink:title=" ">
<polygon fill="none" stroke="black" points="1236.5,-73 1236.5,-92 1391.5,-92 1391.5,-73 1236.5,-73"/>
<text text-anchor="middle" x="1314" y="-80" font-family="Helvetica,sans-Serif" font-size="10.00">src/events/timing_event.hpp</text>
</a>
</g>
</g>
<!-- Node12&#45;&gt;Node20 -->
<g id="edge27" class="edge">
<title>Node12&#45;&gt;Node20</title>
<path fill="none" stroke="midnightblue" d="M1069.58,-137.72C1127.27,-124.92 1222.34,-103.83 1275.31,-92.08"/>
<polygon fill="midnightblue" stroke="midnightblue" points="1068.61,-134.35 1059.61,-139.94 1070.13,-141.19 1068.61,-134.35"/>
</g>
<!-- Node14&#45;&gt;Node5 -->
<g id="edge20" class="edge">
<title>Node14&#45;&gt;Node5</title>
<path fill="none" stroke="midnightblue" d="M876.3,-64.75C922.06,-52.04 983.09,-35.09 1019.3,-25.03"/>
<polygon fill="midnightblue" stroke="midnightblue" points="875.18,-61.43 866.49,-67.48 877.06,-68.17 875.18,-61.43"/>
</g>
<!-- Node15 -->
<g id="node15" class="node">
<title>Node15</title>
<g id="a_node15"><a xlink:href="screen__view__event_8cpp.html" target="_top" xlink:title=" ">
<polygon fill="none" stroke="black" points="688.5,-0.5 688.5,-30.5 819.5,-30.5 819.5,-0.5 688.5,-0.5"/>
<text text-anchor="start" x="696.5" y="-18.5" font-family="Helvetica,sans-Serif" font-size="10.00">src/events/screen_view</text>
<text text-anchor="middle" x="754" y="-7.5" font-family="Helvetica,sans-Serif" font-size="10.00">_event.cpp</text>
</a>
</g>
</g>
<!-- Node14&#45;&gt;Node15 -->
<g id="edge19" class="edge">
<title>Node14&#45;&gt;Node15</title>
<path fill="none" stroke="midnightblue" d="M795.52,-60.02C786.28,-50.34 775.63,-39.17 767.43,-30.58"/>
<polygon fill="midnightblue" stroke="midnightblue" points="793.11,-62.58 802.55,-67.4 798.18,-57.74 793.11,-62.58"/>
</g>
<!-- Node16&#45;&gt;Node5 -->
<g id="edge23" class="edge">
<title>Node16&#45;&gt;Node5</title>
<path fill="none" stroke="midnightblue" d="M995.91,-61.01C1010.57,-48.94 1028.36,-34.3 1039.43,-25.19"/>
<polygon fill="midnightblue" stroke="midnightblue" points="993.64,-58.34 988.14,-67.4 998.09,-63.75 993.64,-58.34"/>
</g>
<!-- Node17 -->
<g id="node17" class="node">
<title>Node17</title>
<g id="a_node17"><a xlink:href="self__describing__event_8cpp.html" target="_top" xlink:title=" ">
<polygon fill="none" stroke="black" points="837.5,-0.5 837.5,-30.5 980.5,-30.5 980.5,-0.5 837.5,-0.5"/>
<text text-anchor="start" x="845.5" y="-18.5" font-family="Helvetica,sans-Serif" font-size="10.00">src/events/self_describing</text>
<text text-anchor="middle" x="909" y="-7.5" font-family="Helvetica,sans-Serif" font-size="10.00">_event.cpp</text>
</a>
</g>
</g>
<!-- Node16&#45;&gt;Node17 -->
<g id="edge22" class="edge">
<title>Node16&#45;&gt;Node17</title>
<path fill="none" stroke="midnightblue" d="M950.52,-60.02C941.28,-50.34 930.63,-39.17 922.43,-30.58"/>
<polygon fill="midnightblue" stroke="midnightblue" points="948.11,-62.58 957.55,-67.4 953.18,-57.74 948.11,-62.58"/>
</g>
<!-- Node18&#45;&gt;Node5 -->
<g id="edge26" class="edge">
<title>Node18&#45;&gt;Node5</title>
<path fill="none" stroke="midnightblue" d="M1126.54,-62.14C1105.82,-49.79 1080,-34.39 1064.27,-25.01"/>
<polygon fill="midnightblue" stroke="midnightblue" points="1124.97,-65.28 1135.35,-67.4 1128.55,-59.27 1124.97,-65.28"/>
</g>
<!-- Node19 -->
<g id="node19" class="node">
<title>Node19</title>
<g id="a_node19"><a xlink:href="structured__event_8cpp.html" target="_top" xlink:title=" ">
<polygon fill="none" stroke="black" points="1119.5,-0.5 1119.5,-30.5 1238.5,-30.5 1238.5,-0.5 1119.5,-0.5"/>
<text text-anchor="start" x="1127.5" y="-18.5" font-family="Helvetica,sans-Serif" font-size="10.00">src/events/structured</text>
<text text-anchor="middle" x="1179" y="-7.5" font-family="Helvetica,sans-Serif" font-size="10.00">_event.cpp</text>
</a>
</g>
</g>
<!-- Node18&#45;&gt;Node19 -->
<g id="edge25" class="edge">
<title>Node18&#45;&gt;Node19</title>
<path fill="none" stroke="midnightblue" d="M1166.32,-57.7C1169.13,-48.59 1172.23,-38.49 1174.67,-30.58"/>
<polygon fill="midnightblue" stroke="midnightblue" points="1162.94,-56.81 1163.34,-67.4 1169.63,-58.87 1162.94,-56.81"/>
</g>
<!-- Node20&#45;&gt;Node5 -->
<g id="edge29" class="edge">
<title>Node20&#45;&gt;Node5</title>
<path fill="none" stroke="midnightblue" d="M1269.26,-70.48C1217.18,-57.66 1132.29,-36.76 1084.86,-25.08"/>
<polygon fill="midnightblue" stroke="midnightblue" points="1268.67,-73.94 1279.22,-72.94 1270.34,-67.15 1268.67,-73.94"/>
</g>
<!-- Node21 -->
<g id="node21" class="node">
<title>Node21</title>
<g id="a_node21"><a xlink:href="timing__event_8cpp.html" target="_top" xlink:title=" ">
<polygon fill="none" stroke="black" points="1256.5,-6 1256.5,-25 1411.5,-25 1411.5,-6 1256.5,-6"/>
<text text-anchor="middle" x="1334" y="-13" font-family="Helvetica,sans-Serif" font-size="10.00">src/events/timing_event.cpp</text>
</a>
</g>
</g>
<!-- Node20&#45;&gt;Node21 -->
<g id="edge28" class="edge">
<title>Node20&#45;&gt;Node21</title>
<path fill="none" stroke="midnightblue" d="M1319.72,-62.91C1323.54,-50.49 1328.39,-34.72 1331.35,-25.13"/>
<polygon fill="midnightblue" stroke="midnightblue" points="1316.29,-62.15 1316.7,-72.73 1322.98,-64.21 1316.29,-62.15"/>
</g>
<!-- Node23&#45;&gt;Node2 -->
<g id="edge35" class="edge">
<title>Node23&#45;&gt;Node2</title>
<path fill="none" stroke="midnightblue" d="M517.4,-210.38C443.59,-202.33 298.94,-185.51 177,-165 166.84,-163.29 155.91,-161.17 145.78,-159.07"/>
<polygon fill="midnightblue" stroke="midnightblue" points="517.44,-213.9 527.76,-211.5 518.2,-206.94 517.44,-213.9"/>
</g>
<!-- Node23&#45;&gt;Node3 -->
<g id="edge36" class="edge">
<title>Node23&#45;&gt;Node3</title>
<path fill="none" stroke="midnightblue" d="M607.13,-204.17C653.8,-191.32 728.87,-170.64 770.91,-159.06"/>
<polygon fill="midnightblue" stroke="midnightblue" points="606.05,-200.84 597.34,-206.87 607.91,-207.59 606.05,-200.84"/>
</g>
<!-- Node23&#45;&gt;Node13 -->
<g id="edge37" class="edge">
<title>Node23&#45;&gt;Node13</title>
<path fill="none" stroke="midnightblue" d="M614.4,-214.93C693.01,-212.87 843,-203.81 876,-165 884.92,-154.5 884.49,-144.85 876,-134 870.91,-127.49 770.46,-104.71 712.8,-92.09"/>
<polygon fill="midnightblue" stroke="midnightblue" points="614.18,-211.44 604.26,-215.17 614.34,-218.43 614.18,-211.44"/>
</g>
<!-- Node24 -->
<g id="node24" class="node">
<title>Node24</title>
<g id="a_node24"><a xlink:href="event__payload_8cpp.html" target="_top" xlink:title=" ">
<polygon fill="none" stroke="black" points="551,-140 551,-159 719,-159 719,-140 551,-140"/>
<text text-anchor="middle" x="635" y="-147" font-family="Helvetica,sans-Serif" font-size="10.00">src/payload/event_payload.cpp</text>
</a>
</g>
</g>
<!-- Node23&#45;&gt;Node24 -->
<g id="edge38" class="edge">
<title>Node23&#45;&gt;Node24</title>
<path fill="none" stroke="midnightblue" d="M582.61,-199.86C596.17,-187.08 614.84,-169.49 625.84,-159.13"/>
<polygon fill="midnightblue" stroke="midnightblue" points="580.18,-197.33 575.31,-206.73 584.98,-202.42 580.18,-197.33"/>
</g>
<!-- Node25 -->
<g id="node25" class="node">
<title>Node25</title>
<g id="a_node25"><a xlink:href="payload_8cpp.html" target="_top" xlink:title=" ">
<polygon fill="none" stroke="black" points="186.5,-140 186.5,-159 321.5,-159 321.5,-140 186.5,-140"/>
<text text-anchor="middle" x="254" y="-147" font-family="Helvetica,sans-Serif" font-size="10.00">src/payload/payload.cpp</text>
</a>
</g>
</g>
<!-- Node23&#45;&gt;Node25 -->
<g id="edge39" class="edge">
<title>Node23&#45;&gt;Node25</title>
<path fill="none" stroke="midnightblue" d="M517.59,-205.41C456.48,-192.68 352.44,-171.01 295.05,-159.05"/>
<polygon fill="midnightblue" stroke="midnightblue" points="517.24,-208.92 527.74,-207.53 518.67,-202.06 517.24,-208.92"/>
</g>
<!-- Node26 -->
<g id="node26" class="node">
<title>Node26</title>
<g id="a_node26"><a xlink:href="sqlite__storage_8cpp.html" target="_top" xlink:title=" ">
<polygon fill="none" stroke="black" points="339.5,-134.5 339.5,-164.5 440.5,-164.5 440.5,-134.5 339.5,-134.5"/>
<text text-anchor="start" x="347.5" y="-152.5" font-family="Helvetica,sans-Serif" font-size="10.00">src/storage/sqlite</text>
<text text-anchor="middle" x="390" y="-141.5" font-family="Helvetica,sans-Serif" font-size="10.00">_storage.cpp</text>
</a>
</g>
</g>
<!-- Node23&#45;&gt;Node26 -->
<g id="edge40" class="edge">
<title>Node23&#45;&gt;Node26</title>
<path fill="none" stroke="midnightblue" d="M533.09,-203.35C503.26,-192.33 459.3,-176.09 427.98,-164.53"/>
<polygon fill="midnightblue" stroke="midnightblue" points="532.04,-206.69 542.63,-206.87 534.46,-200.12 532.04,-206.69"/>
</g>
<!-- Node27 -->
<g id="node27" class="node">
<title>Node27</title>
<g id="a_node27"><a xlink:href="utils_8cpp.html" target="_top" xlink:title=" ">
<polygon fill="none" stroke="black" points="458.5,-140 458.5,-159 533.5,-159 533.5,-140 458.5,-140"/>
<text text-anchor="middle" x="496" y="-147" font-family="Helvetica,sans-Serif" font-size="10.00">src/utils.cpp</text>
</a>
</g>
</g>
<!-- Node23&#45;&gt;Node27 -->
<g id="edge41" class="edge">
<title>Node23&#45;&gt;Node27</title>
<path fill="none" stroke="midnightblue" d="M549.15,-199.86C535.39,-187.08 516.45,-169.49 505.29,-159.13"/>
<polygon fill="midnightblue" stroke="midnightblue" points="546.85,-202.49 556.56,-206.73 551.61,-197.36 546.85,-202.49"/>
</g>
<!-- Node28&#45;&gt;Node5 -->
<g id="edge44" class="edge">
<title>Node28&#45;&gt;Node5</title>
<path fill="none" stroke="midnightblue" d="M1407.56,-201.21C1419.31,-192.37 1432.54,-179.88 1439,-165 1447.17,-146.16 1444.03,-77.4 1434,-67 1383.87,-15.01 1182.15,-43.37 1111,-31 1101.78,-29.4 1091.87,-27.23 1082.77,-25.07"/>
<polygon fill="midnightblue" stroke="midnightblue" points="1405.53,-198.35 1399.38,-206.98 1409.57,-204.07 1405.53,-198.35"/>
</g>
<!-- Node28&#45;&gt;Node6 -->
<g id="edge46" class="edge">
<title>Node28&#45;&gt;Node6</title>
<path fill="none" stroke="midnightblue" d="M1329.6,-213.73C1246.57,-210.02 1085.45,-198.76 953,-165 917.25,-155.89 911.68,-143.39 876,-134 758.5,-103.07 725.23,-115.56 605,-98 589.8,-95.78 573.21,-93.19 558.4,-90.81"/>
<polygon fill="midnightblue" stroke="midnightblue" points="1329.68,-217.23 1339.82,-214.16 1329.98,-210.24 1329.68,-217.23"/>
</g>
<!-- Node28&#45;&gt;Node12 -->
<g id="edge43" class="edge">
<title>Node28&#45;&gt;Node12</title>
<path fill="none" stroke="midnightblue" d="M1329.51,-205.59C1258.28,-192.87 1135.9,-171.02 1068.67,-159.01"/>
<polygon fill="midnightblue" stroke="midnightblue" points="1329.18,-209.09 1339.64,-207.4 1330.41,-202.2 1329.18,-209.09"/>
</g>
<!-- Node29 -->
<g id="node29" class="node">
<title>Node29</title>
<g id="a_node29"><a xlink:href="subject_8cpp.html" target="_top" xlink:title=" ">
<polygon fill="none" stroke="black" points="1340.5,-140 1340.5,-159 1429.5,-159 1429.5,-140 1340.5,-140"/>
<text text-anchor="middle" x="1385" y="-147" font-family="Helvetica,sans-Serif" font-size="10.00">src/subject.cpp</text>
</a>
</g>
</g>
<!-- Node28&#45;&gt;Node29 -->
<g id="edge45" class="edge">
<title>Node28&#45;&gt;Node29</title>
<path fill="none" stroke="midnightblue" d="M1385,-196.54C1385,-184.17 1385,-168.62 1385,-159.13"/>
<polygon fill="midnightblue" stroke="midnightblue" points="1381.5,-196.73 1385,-206.73 1388.5,-196.73 1381.5,-196.73"/>
</g>
</g>
</svg>
