<?xml version="1.0" encoding="UTF-8" standalone="no"?>
<!DOCTYPE svg PUBLIC "-//W3C//DTD SVG 1.1//EN"
 "http://www.w3.org/Graphics/SVG/1.1/DTD/svg11.dtd">
<!-- Generated by graphviz version 2.43.0 (0)
 -->
<!-- Title: src Pages: 1 -->
<svg width="226pt" height="292pt"
 viewBox="0.00 0.00 226.00 292.00" xmlns="http://www.w3.org/2000/svg" xmlns:xlink="http://www.w3.org/1999/xlink">
<g id="graph0" class="graph" transform="scale(1 1) rotate(0) translate(4 288)">
<title>src</title>
<g id="clust1" class="cluster">
<title>clusterdir_68267d1309a1af8e8297ef4c3efbcdba</title>
<g id="a_clust1"><a xlink:href="dir_68267d1309a1af8e8297ef4c3efbcdba.html" target="_top">
<polygon fill="#daedff" stroke="#404040" stroke-width="2" points="8,-8 8,-276 210,-276 210,-8 8,-8"/>
</a>
</g>
</g>
<!-- dir_68267d1309a1af8e8297ef4c3efbcdba -->
<g id="node1" class="node">
<title>dir_68267d1309a1af8e8297ef4c3efbcdba</title>
<text text-anchor="middle" x="135" y="-247.5" font-family="Helvetica,sans-Serif" font-size="10.00">src</text>
</g>
<!-- dir_83398469339f118019578a9c60ed7e53 -->
<g id="node2" class="node">
<title>dir_83398469339f118019578a9c60ed7e53</title>
<g id="a_node2"><a xlink:href="dir_83398469339f118019578a9c60ed7e53.html" target="_top" xlink:title="emitter">
<polygon fill="#4ea9ff" stroke="#404040" points="162,-196 108,-196 108,-160 162,-160 162,-196"/>
<text text-anchor="middle" x="135" y="-175.5" font-family="Helvetica,sans-Serif" font-size="10.00">emitter</text>
</a>
</g>
</g>
<!-- dir_68267d1309a1af8e8297ef4c3efbcdba&#45;&gt;dir_83398469339f118019578a9c60ed7e53 -->
<g id="edge5" class="edge">
<title>dir_68267d1309a1af8e8297ef4c3efbcdba&#45;&gt;dir_83398469339f118019578a9c60ed7e53</title>
<path fill="none" stroke="black" d="M135,-231.7C135,-223.98 135,-214.71 135,-206.11"/>
<polygon fill="black" stroke="black" points="138.5,-206.1 135,-196.1 131.5,-206.1 138.5,-206.1"/>
<g id="a_edge5&#45;headlabel"><a xlink:href="dir_000005_000001.html" target="_top" xlink:title="2">
<text text-anchor="middle" x="141.34" y="-207.2" font-family="Helvetica,sans-Serif" font-size="10.00">2</text>
</a>
</g>
</g>
<!-- dir_14e1e259e8275dc0c459acef3bbf05ae -->
<g id="node3" class="node">
<title>dir_14e1e259e8275dc0c459acef3bbf05ae</title>
<g id="a_node3"><a xlink:href="dir_14e1e259e8275dc0c459acef3bbf05ae.html" target="_top" xlink:title="events">
<polygon fill="#4ea9ff" stroke="#404040" points="70,-196 16,-196 16,-160 70,-160 70,-196"/>
<text text-anchor="middle" x="43" y="-175.5" font-family="Helvetica,sans-Serif" font-size="10.00">events</text>
</a>
</g>
</g>
<!-- dir_68267d1309a1af8e8297ef4c3efbcdba&#45;&gt;dir_14e1e259e8275dc0c459acef3bbf05ae -->
<g id="edge1" class="edge">
<title>dir_68267d1309a1af8e8297ef4c3efbcdba&#45;&gt;dir_14e1e259e8275dc0c459acef3bbf05ae</title>
<path fill="none" stroke="black" d="M112.26,-231.7C100.56,-222.8 86.14,-211.82 73.49,-202.2"/>
<polygon fill="black" stroke="black" points="75.56,-199.37 65.48,-196.1 71.32,-204.94 75.56,-199.37"/>
<g id="a_edge1&#45;headlabel"><a xlink:href="dir_000005_000002.html" target="_top" xlink:title="6">
<text text-anchor="middle" x="80.14" y="-196.79" font-family="Helvetica,sans-Serif" font-size="10.00">6</text>
</a>
</g>
</g>
<!-- dir_2d29d7dff7c7baf1180920f6796c23ae -->
<g id="node4" class="node">
<title>dir_2d29d7dff7c7baf1180920f6796c23ae</title>
<g id="a_node4"><a xlink:href="dir_2d29d7dff7c7baf1180920f6796c23ae.html" target="_top" xlink:title="http">
<polygon fill="#4ea9ff" stroke="#404040" points="90,-124 36,-124 36,-88 90,-88 90,-124"/>
<text text-anchor="middle" x="63" y="-103.5" font-family="Helvetica,sans-Serif" font-size="10.00">http</text>
</a>
</g>
</g>
<!-- dir_68267d1309a1af8e8297ef4c3efbcdba&#45;&gt;dir_2d29d7dff7c7baf1180920f6796c23ae -->
<g id="edge2" class="edge">
<title>dir_68267d1309a1af8e8297ef4c3efbcdba&#45;&gt;dir_2d29d7dff7c7baf1180920f6796c23ae</title>
<path fill="none" stroke="black" d="M122.03,-231.92C114.71,-221.81 105.71,-208.56 99,-196 88.25,-175.87 78.7,-151.82 72.15,-133.8"/>
<polygon fill="black" stroke="black" points="75.39,-132.46 68.73,-124.21 68.79,-134.81 75.39,-132.46"/>
<g id="a_edge2&#45;headlabel"><a xlink:href="dir_000005_000003.html" target="_top" xlink:title="7">
<text text-anchor="middle" x="79.27" y="-132.4" font-family="Helvetica,sans-Serif" font-size="10.00">7</text>
</a>
</g>
</g>
<!-- dir_421172fd7adc3978ddbc06d75938b153 -->
<g id="node5" class="node">
<title>dir_421172fd7adc3978ddbc06d75938b153</title>
<g id="a_node5"><a xlink:href="dir_421172fd7adc3978ddbc06d75938b153.html" target="_top" xlink:title="payload">
<polygon fill="#4ea9ff" stroke="#404040" points="160,-52 104,-52 104,-16 160,-16 160,-52"/>
<text text-anchor="middle" x="132" y="-31.5" font-family="Helvetica,sans-Serif" font-size="10.00">payload</text>
</a>
</g>
</g>
<!-- dir_68267d1309a1af8e8297ef4c3efbcdba&#45;&gt;dir_421172fd7adc3978ddbc06d75938b153 -->
<g id="edge3" class="edge">
<title>dir_68267d1309a1af8e8297ef4c3efbcdba&#45;&gt;dir_421172fd7adc3978ddbc06d75938b153</title>
<path fill="none" stroke="black" d="M152.13,-231.81C160.87,-222.07 170.92,-209.23 177,-196 197.22,-152.03 210.71,-132.21 191,-88 185.92,-76.6 177.04,-66.63 167.69,-58.51"/>
<polygon fill="black" stroke="black" points="169.78,-55.69 159.8,-52.13 165.37,-61.14 169.78,-55.69"/>
<g id="a_edge3&#45;headlabel"><a xlink:href="dir_000005_000004.html" target="_top" xlink:title="11">
<text text-anchor="middle" x="174.36" y="-53.25" font-family="Helvetica,sans-Serif" font-size="10.00">11</text>
</a>
</g>
</g>
<!-- dir_452baf35e1d7639c9f2a5ece4ec85855 -->
<g id="node6" class="node">
<title>dir_452baf35e1d7639c9f2a5ece4ec85855</title>
<g id="a_node6"><a xlink:href="dir_452baf35e1d7639c9f2a5ece4ec85855.html" target="_top" xlink:title="storage">
<polygon fill="#4ea9ff" stroke="#404040" points="182,-124 128,-124 128,-88 182,-88 182,-124"/>
<text text-anchor="middle" x="155" y="-103.5" font-family="Helvetica,sans-Serif" font-size="10.00">storage</text>
</a>
</g>
</g>
<!-- dir_68267d1309a1af8e8297ef4c3efbcdba&#45;&gt;dir_452baf35e1d7639c9f2a5ece4ec85855 -->
<g id="edge4" class="edge">
<title>dir_68267d1309a1af8e8297ef4c3efbcdba&#45;&gt;dir_452baf35e1d7639c9f2a5ece4ec85855</title>
<path fill="none" stroke="black" d="M150.61,-231.77C158.37,-222.03 166.95,-209.18 171,-196 177.32,-175.46 172.3,-151.44 166.27,-133.53"/>
<polygon fill="black" stroke="black" points="169.51,-132.2 162.78,-124.02 162.94,-134.61 169.51,-132.2"/>
<g id="a_edge4&#45;headlabel"><a xlink:href="dir_000005_000006.html" target="_top" xlink:title="6">
<text text-anchor="middle" x="173.41" y="-132.1" font-family="Helvetica,sans-Serif" font-size="10.00">6</text>
</a>
</g>
</g>
<!-- dir_83398469339f118019578a9c60ed7e53&#45;&gt;dir_2d29d7dff7c7baf1180920f6796c23ae -->
<g id="edge6" class="edge">
<title>dir_83398469339f118019578a9c60ed7e53&#45;&gt;dir_2d29d7dff7c7baf1180920f6796c23ae</title>
<path fill="none" stroke="black" d="M117.2,-159.7C108.4,-151.14 97.62,-140.66 88,-131.3"/>
<polygon fill="black" stroke="black" points="90.2,-128.57 80.59,-124.1 85.32,-133.58 90.2,-128.57"/>
<g id="a_edge6&#45;headlabel"><a xlink:href="dir_000001_000003.html" target="_top" xlink:title="3">
<text text-anchor="middle" x="94.76" y="-126.54" font-family="Helvetica,sans-Serif" font-size="10.00">3</text>
</a>
</g>
</g>
<!-- dir_83398469339f118019578a9c60ed7e53&#45;&gt;dir_421172fd7adc3978ddbc06d75938b153 -->
<g id="edge7" class="edge">
<title>dir_83398469339f118019578a9c60ed7e53&#45;&gt;dir_421172fd7adc3978ddbc06d75938b153</title>
<path fill="none" stroke="black" d="M128.35,-159.63C124.8,-149.42 120.8,-136.17 119,-124 116.66,-108.17 117.08,-103.88 119,-88 120.02,-79.53 121.93,-70.47 123.98,-62.28"/>
<polygon fill="black" stroke="black" points="127.4,-63.03 126.59,-52.47 120.64,-61.23 127.4,-63.03"/>
<g id="a_edge7&#45;headlabel"><a xlink:href="dir_000001_000004.html" target="_top" xlink:title="2">
<text text-anchor="middle" x="129.22" y="-64.74" font-family="Helvetica,sans-Serif" font-size="10.00">2</text>
</a>
</g>
</g>
<!-- dir_83398469339f118019578a9c60ed7e53&#45;&gt;dir_452baf35e1d7639c9f2a5ece4ec85855 -->
<g id="edge8" class="edge">
<title>dir_83398469339f118019578a9c60ed7e53&#45;&gt;dir_452baf35e1d7639c9f2a5ece4ec85855</title>
<path fill="none" stroke="black" d="M139.94,-159.7C142.17,-151.9 144.85,-142.51 147.33,-133.83"/>
<polygon fill="black" stroke="black" points="150.73,-134.68 150.11,-124.1 144,-132.76 150.73,-134.68"/>
<g id="a_edge8&#45;headlabel"><a xlink:href="dir_000001_000006.html" target="_top" xlink:title="1">
<text text-anchor="middle" x="152.47" y="-136.42" font-family="Helvetica,sans-Serif" font-size="10.00">1</text>
</a>
</g>
</g>
<!-- dir_14e1e259e8275dc0c459acef3bbf05ae&#45;&gt;dir_421172fd7adc3978ddbc06d75938b153 -->
<g id="edge9" class="edge">
<title>dir_14e1e259e8275dc0c459acef3bbf05ae&#45;&gt;dir_421172fd7adc3978ddbc06d75938b153</title>
<path fill="none" stroke="black" d="M33.39,-159.96C24.12,-141.03 13.34,-110.19 27,-88 41.51,-64.41 70.12,-50.94 93.81,-43.49"/>
<polygon fill="black" stroke="black" points="94.98,-46.8 103.61,-40.65 93.03,-40.07 94.98,-46.8"/>
<g id="a_edge9&#45;headlabel"><a xlink:href="dir_000002_000004.html" target="_top" xlink:title="2">
<text text-anchor="middle" x="92.32" y="-48.02" font-family="Helvetica,sans-Serif" font-size="10.00">2</text>
</a>
</g>
</g>
<!-- dir_452baf35e1d7639c9f2a5ece4ec85855&#45;&gt;dir_421172fd7adc3978ddbc06d75938b153 -->
<g id="edge10" class="edge">
<title>dir_452baf35e1d7639c9f2a5ece4ec85855&#45;&gt;dir_421172fd7adc3978ddbc06d75938b153</title>
<path fill="none" stroke="black" d="M149.31,-87.7C146.75,-79.9 143.67,-70.51 140.82,-61.83"/>
<polygon fill="black" stroke="black" points="144.07,-60.51 137.62,-52.1 137.42,-62.7 144.07,-60.51"/>
<g id="a_edge10&#45;headlabel"><a xlink:href="dir_000006_000004.html" target="_top" xlink:title="1">
<text text-anchor="middle" x="147.89" y="-60.54" font-family="Helvetica,sans-Serif" font-size="10.00">1</text>
</a>
</g>
</g>
</g>
</svg>
