<?xml version="1.0" encoding="UTF-8" standalone="no"?>
<!DOCTYPE svg PUBLIC "-//W3C//DTD SVG 1.1//EN"
 "http://www.w3.org/Graphics/SVG/1.1/DTD/svg11.dtd">
<!-- Generated by graphviz version 2.43.0 (0)
 -->
<!-- Title: src/emitter Pages: 1 -->
<svg width="240pt" height="167pt"
 viewBox="0.00 0.00 240.00 167.00" xmlns="http://www.w3.org/2000/svg" xmlns:xlink="http://www.w3.org/1999/xlink">
<g id="graph0" class="graph" transform="scale(1 1) rotate(0) translate(4 163)">
<title>src/emitter</title>
<g id="clust1" class="cluster">
<title>clusterdir_68267d1309a1af8e8297ef4c3efbcdba</title>
<g id="a_clust1"><a xlink:href="dir_68267d1309a1af8e8297ef4c3efbcdba.html" target="_top" xlink:title="src">
<polygon fill="#daedff" stroke="#404040" stroke-dasharray="5,2" points="8,-8 8,-151 224,-151 224,-8 8,-8"/>
<text text-anchor="middle" x="116" y="-139" font-family="Helvetica,sans-Serif" font-size="10.00">src</text>
</a>
</g>
</g>
<!-- dir_2d29d7dff7c7baf1180920f6796c23ae -->
<g id="node1" class="node">
<title>dir_2d29d7dff7c7baf1180920f6796c23ae</title>
<g id="a_node1"><a xlink:href="dir_2d29d7dff7c7baf1180920f6796c23ae.html" target="_top" xlink:title="http">
<polygon fill="#4ea9ff" stroke="#404040" points="70,-52 16,-52 16,-16 70,-16 70,-52"/>
<text text-anchor="middle" x="43" y="-31.5" font-family="Helvetica,sans-Serif" font-size="10.00">http</text>
</a>
</g>
</g>
<!-- dir_421172fd7adc3978ddbc06d75938b153 -->
<g id="node2" class="node">
<title>dir_421172fd7adc3978ddbc06d75938b153</title>
<g id="a_node2"><a xlink:href="dir_421172fd7adc3978ddbc06d75938b153.html" target="_top" xlink:title="payload">
<polygon fill="#4ea9ff" stroke="#404040" points="144,-52 88,-52 88,-16 144,-16 144,-52"/>
<text text-anchor="middle" x="116" y="-31.5" font-family="Helvetica,sans-Serif" font-size="10.00">payload</text>
</a>
</g>
</g>
<!-- dir_452baf35e1d7639c9f2a5ece4ec85855 -->
<g id="node3" class="node">
<title>dir_452baf35e1d7639c9f2a5ece4ec85855</title>
<g id="a_node3"><a xlink:href="dir_452baf35e1d7639c9f2a5ece4ec85855.html" target="_top" xlink:title="storage">
<polygon fill="#4ea9ff" stroke="#404040" points="216,-52 162,-52 162,-16 216,-16 216,-52"/>
<text text-anchor="middle" x="189" y="-31.5" font-family="Helvetica,sans-Serif" font-size="10.00">storage</text>
</a>
</g>
</g>
<!-- dir_83398469339f118019578a9c60ed7e53 -->
<g id="node4" class="node">
<title>dir_83398469339f118019578a9c60ed7e53</title>
<g id="a_node4"><a xlink:href="dir_83398469339f118019578a9c60ed7e53.html" target="_top" xlink:title="emitter">
<polygon fill="#daedff" stroke="#404040" stroke-width="2" points="143,-124 89,-124 89,-88 143,-88 143,-124"/>
<text text-anchor="middle" x="116" y="-103.5" font-family="Helvetica,sans-Serif" font-size="10.00">emitter</text>
</a>
</g>
</g>
<!-- dir_83398469339f118019578a9c60ed7e53&#45;&gt;dir_2d29d7dff7c7baf1180920f6796c23ae -->
<g id="edge1" class="edge">
<title>dir_83398469339f118019578a9c60ed7e53&#45;&gt;dir_2d29d7dff7c7baf1180920f6796c23ae</title>
<path fill="none" stroke="black" d="M97.96,-87.7C88.94,-79.05 77.88,-68.45 68.06,-59.03"/>
<polygon fill="black" stroke="black" points="70.48,-56.5 60.84,-52.1 65.63,-61.55 70.48,-56.5"/>
<g id="a_edge1&#45;headlabel"><a xlink:href="dir_000001_000003.html" target="_top" xlink:title="3">
<text text-anchor="middle" x="75.04" y="-54.44" font-family="Helvetica,sans-Serif" font-size="10.00">3</text>
</a>
</g>
</g>
<!-- dir_83398469339f118019578a9c60ed7e53&#45;&gt;dir_421172fd7adc3978ddbc06d75938b153 -->
<g id="edge2" class="edge">
<title>dir_83398469339f118019578a9c60ed7e53&#45;&gt;dir_421172fd7adc3978ddbc06d75938b153</title>
<path fill="none" stroke="black" d="M116,-87.7C116,-79.98 116,-70.71 116,-62.11"/>
<polygon fill="black" stroke="black" points="119.5,-62.1 116,-52.1 112.5,-62.1 119.5,-62.1"/>
<g id="a_edge2&#45;headlabel"><a xlink:href="dir_000001_000004.html" target="_top" xlink:title="2">
<text text-anchor="middle" x="122.34" y="-63.2" font-family="Helvetica,sans-Serif" font-size="10.00">2</text>
</a>
</g>
</g>
<!-- dir_83398469339f118019578a9c60ed7e53&#45;&gt;dir_452baf35e1d7639c9f2a5ece4ec85855 -->
<g id="edge3" class="edge">
<title>dir_83398469339f118019578a9c60ed7e53&#45;&gt;dir_452baf35e1d7639c9f2a5ece4ec85855</title>
<path fill="none" stroke="black" d="M134.04,-87.7C143.06,-79.05 154.12,-68.45 163.94,-59.03"/>
<polygon fill="black" stroke="black" points="166.37,-61.55 171.16,-52.1 161.52,-56.5 166.37,-61.55"/>
<g id="a_edge3&#45;headlabel"><a xlink:href="dir_000001_000006.html" target="_top" xlink:title="1">
<text text-anchor="middle" x="165.74" y="-63.59" font-family="Helvetica,sans-Serif" font-size="10.00">1</text>
</a>
</g>
</g>
</g>
</svg>
