<?xml version="1.0" encoding="UTF-8" standalone="no"?>
<!DOCTYPE svg PUBLIC "-//W3C//DTD SVG 1.1//EN"
 "http://www.w3.org/Graphics/SVG/1.1/DTD/svg11.dtd">
<!-- Generated by graphviz version 2.43.0 (0)
 -->
<!-- Title: src/emitter/emitter.hpp Pages: 1 -->
<svg width="1709pt" height="263pt"
 viewBox="0.00 0.00 1708.61 263.00" xmlns="http://www.w3.org/2000/svg" xmlns:xlink="http://www.w3.org/1999/xlink">
<g id="graph0" class="graph" transform="scale(1 1) rotate(0) translate(4 259)">
<title>src/emitter/emitter.hpp</title>
<!-- Node1 -->
<g id="node1" class="node">
<title>Node1</title>
<g id="a_node1"><a xlink:title=" ">
<polygon fill="#bfbfbf" stroke="black" points="774.11,-235.5 774.11,-254.5 903.11,-254.5 903.11,-235.5 774.11,-235.5"/>
<text text-anchor="middle" x="838.61" y="-242.5" font-family="Helvetica,sans-Serif" font-size="10.00">src/emitter/emitter.hpp</text>
</a>
</g>
</g>
<!-- Node2 -->
<g id="node2" class="node">
<title>Node2</title>
<g id="a_node2"><a xlink:title=" ">
<polygon fill="none" stroke="#bfbfbf" points="224.61,-0.5 224.61,-19.5 268.61,-19.5 268.61,-0.5 224.61,-0.5"/>
<text text-anchor="middle" x="246.61" y="-7.5" font-family="Helvetica,sans-Serif" font-size="10.00">string</text>
</a>
</g>
</g>
<!-- Node1&#45;&gt;Node2 -->
<g id="edge1" class="edge">
<title>Node1&#45;&gt;Node2</title>
<path fill="none" stroke="midnightblue" d="M773.91,-242.71C609.22,-239.02 183.03,-226.89 125.61,-199 53.48,-163.97 -35.38,-117.88 15.61,-56 28.17,-40.75 153.58,-22.86 214.17,-15.02"/>
<polygon fill="midnightblue" stroke="midnightblue" points="214.87,-18.46 224.35,-13.72 213.98,-11.52 214.87,-18.46"/>
</g>
<!-- Node3 -->
<g id="node3" class="node">
<title>Node3</title>
<g id="a_node3"><a xlink:title=" ">
<polygon fill="none" stroke="#bfbfbf" points="274.61,-56.5 274.61,-75.5 330.61,-75.5 330.61,-56.5 274.61,-56.5"/>
<text text-anchor="middle" x="302.61" y="-63.5" font-family="Helvetica,sans-Serif" font-size="10.00">sstream</text>
</a>
</g>
</g>
<!-- Node1&#45;&gt;Node3 -->
<g id="edge2" class="edge">
<title>Node1&#45;&gt;Node3</title>
<path fill="none" stroke="midnightblue" d="M773.95,-241.72C644.9,-235.66 362.66,-214.37 303.61,-143 290.5,-127.15 292.98,-102.43 296.93,-85.52"/>
<polygon fill="midnightblue" stroke="midnightblue" points="300.35,-86.27 299.59,-75.7 293.6,-84.44 300.35,-86.27"/>
</g>
<!-- Node4 -->
<g id="node4" class="node">
<title>Node4</title>
<g id="a_node4"><a xlink:title=" ">
<polygon fill="none" stroke="#bfbfbf" points="1447.11,-179.5 1447.11,-198.5 1554.11,-198.5 1554.11,-179.5 1447.11,-179.5"/>
<text text-anchor="middle" x="1500.61" y="-186.5" font-family="Helvetica,sans-Serif" font-size="10.00">condition_variable</text>
</a>
</g>
</g>
<!-- Node1&#45;&gt;Node4 -->
<g id="edge3" class="edge">
<title>Node1&#45;&gt;Node4</title>
<path fill="none" stroke="midnightblue" d="M903.32,-240.29C1012.58,-233.75 1240.51,-218.97 1432.61,-199 1433.91,-198.86 1435.22,-198.72 1436.55,-198.58"/>
<polygon fill="midnightblue" stroke="midnightblue" points="1437.29,-202.02 1446.82,-197.4 1436.49,-195.06 1437.29,-202.02"/>
</g>
<!-- Node5 -->
<g id="node5" class="node">
<title>Node5</title>
<g id="a_node5"><a xlink:title=" ">
<polygon fill="none" stroke="#bfbfbf" points="1572.61,-179.5 1572.61,-198.5 1618.61,-198.5 1618.61,-179.5 1572.61,-179.5"/>
<text text-anchor="middle" x="1595.61" y="-186.5" font-family="Helvetica,sans-Serif" font-size="10.00">future</text>
</a>
</g>
</g>
<!-- Node1&#45;&gt;Node5 -->
<g id="edge4" class="edge">
<title>Node1&#45;&gt;Node5</title>
<path fill="none" stroke="midnightblue" d="M903.14,-244.56C1028.75,-244.67 1314.73,-240.05 1562.42,-198.84"/>
<polygon fill="midnightblue" stroke="midnightblue" points="1563.04,-202.28 1572.32,-197.17 1561.88,-195.38 1563.04,-202.28"/>
</g>
<!-- Node6 -->
<g id="node6" class="node">
<title>Node6</title>
<g id="a_node6"><a xlink:title=" ">
<polygon fill="none" stroke="#bfbfbf" points="1152.61,-118 1152.61,-137 1200.61,-137 1200.61,-118 1152.61,-118"/>
<text text-anchor="middle" x="1176.61" y="-125" font-family="Helvetica,sans-Serif" font-size="10.00">thread</text>
</a>
</g>
</g>
<!-- Node1&#45;&gt;Node6 -->
<g id="edge5" class="edge">
<title>Node1&#45;&gt;Node6</title>
<path fill="none" stroke="midnightblue" d="M863.74,-235.41C923.55,-214.98 1074.43,-163.42 1142.43,-140.18"/>
<polygon fill="midnightblue" stroke="midnightblue" points="1143.9,-143.38 1152.23,-136.83 1141.64,-136.75 1143.9,-143.38"/>
</g>
<!-- Node7 -->
<g id="node7" class="node">
<title>Node7</title>
<g id="a_node7"><a xlink:title=" ">
<polygon fill="none" stroke="#bfbfbf" points="1636.61,-179.5 1636.61,-198.5 1700.61,-198.5 1700.61,-179.5 1636.61,-179.5"/>
<text text-anchor="middle" x="1668.61" y="-186.5" font-family="Helvetica,sans-Serif" font-size="10.00">algorithm</text>
</a>
</g>
</g>
<!-- Node1&#45;&gt;Node7 -->
<g id="edge6" class="edge">
<title>Node1&#45;&gt;Node7</title>
<path fill="none" stroke="midnightblue" d="M903.12,-243.79C1036.54,-242.59 1352.51,-235.88 1626.34,-198.95"/>
<polygon fill="midnightblue" stroke="midnightblue" points="1627.03,-202.38 1636.47,-197.56 1626.09,-195.45 1627.03,-202.38"/>
</g>
<!-- Node8 -->
<g id="node8" class="node">
<title>Node8</title>
<g id="a_node8"><a xlink:href="constants_8hpp.html" target="_top" xlink:title=" ">
<polygon fill="none" stroke="black" points="86.61,-56.5 86.61,-75.5 180.61,-75.5 180.61,-56.5 86.61,-56.5"/>
<text text-anchor="middle" x="133.61" y="-63.5" font-family="Helvetica,sans-Serif" font-size="10.00">../constants.hpp</text>
</a>
</g>
</g>
<!-- Node1&#45;&gt;Node8 -->
<g id="edge7" class="edge">
<title>Node1&#45;&gt;Node8</title>
<path fill="none" stroke="midnightblue" d="M773.89,-242.31C615.48,-237.79 217.23,-224.08 162.61,-199 130.91,-184.44 120.82,-175.29 107.61,-143 99.48,-123.12 110.55,-99.65 120.65,-84.1"/>
<polygon fill="midnightblue" stroke="midnightblue" points="123.77,-85.75 126.64,-75.55 118.04,-81.74 123.77,-85.75"/>
</g>
<!-- Node10 -->
<g id="node10" class="node">
<title>Node10</title>
<g id="a_node10"><a xlink:href="utils_8hpp.html" target="_top" xlink:title=" ">
<polygon fill="none" stroke="black" points="804.61,-179.5 804.61,-198.5 872.61,-198.5 872.61,-179.5 804.61,-179.5"/>
<text text-anchor="middle" x="838.61" y="-186.5" font-family="Helvetica,sans-Serif" font-size="10.00">../utils.hpp</text>
</a>
</g>
</g>
<!-- Node1&#45;&gt;Node10 -->
<g id="edge10" class="edge">
<title>Node1&#45;&gt;Node10</title>
<path fill="none" stroke="midnightblue" d="M838.61,-235.08C838.61,-228.01 838.61,-217.86 838.61,-208.99"/>
<polygon fill="midnightblue" stroke="midnightblue" points="842.11,-208.75 838.61,-198.75 835.11,-208.75 842.11,-208.75"/>
</g>
<!-- Node18 -->
<g id="node18" class="node">
<title>Node18</title>
<g id="a_node18"><a xlink:href="self__describing__json_8hpp.html" target="_top" xlink:title=" ">
<polygon fill="none" stroke="black" points="312.61,-112.5 312.61,-142.5 444.61,-142.5 444.61,-112.5 312.61,-112.5"/>
<text text-anchor="start" x="320.61" y="-130.5" font-family="Helvetica,sans-Serif" font-size="10.00">payload/self_describing</text>
<text text-anchor="middle" x="378.61" y="-119.5" font-family="Helvetica,sans-Serif" font-size="10.00">_json.hpp</text>
</a>
</g>
</g>
<!-- Node1&#45;&gt;Node18 -->
<g id="edge36" class="edge">
<title>Node1&#45;&gt;Node18</title>
<path fill="none" stroke="midnightblue" d="M804.41,-235.41C728.32,-216.31 543.92,-170.01 444.59,-145.07"/>
<polygon fill="midnightblue" stroke="midnightblue" points="445.22,-141.62 434.67,-142.58 443.52,-148.41 445.22,-141.62"/>
</g>
<!-- Node20 -->
<g id="node20" class="node">
<title>Node20</title>
<g id="a_node20"><a xlink:href="payload_8hpp.html" target="_top" xlink:title=" ">
<polygon fill="none" stroke="black" points="1115.11,-56.5 1115.11,-75.5 1234.11,-75.5 1234.11,-56.5 1115.11,-56.5"/>
<text text-anchor="middle" x="1174.61" y="-63.5" font-family="Helvetica,sans-Serif" font-size="10.00">payload/payload.hpp</text>
</a>
</g>
</g>
<!-- Node1&#45;&gt;Node20 -->
<g id="edge35" class="edge">
<title>Node1&#45;&gt;Node20</title>
<path fill="none" stroke="midnightblue" d="M903.28,-241.49C1037.39,-235.87 1336.74,-221.01 1377.61,-199 1405.48,-183.99 1411.26,-172.91 1421.61,-143 1426.11,-129.98 1430.44,-122.58 1421.61,-112 1399.41,-85.39 1309.51,-74.48 1244.57,-70.03"/>
<polygon fill="midnightblue" stroke="midnightblue" points="1244.58,-66.52 1234.37,-69.37 1244.13,-73.5 1244.58,-66.52"/>
</g>
<!-- Node23 -->
<g id="node23" class="node">
<title>Node23</title>
<g id="a_node23"><a xlink:href="event__store_8hpp.html" target="_top" xlink:title=" ">
<polygon fill="none" stroke="black" points="1224.61,-179.5 1224.61,-198.5 1368.61,-198.5 1368.61,-179.5 1224.61,-179.5"/>
<text text-anchor="middle" x="1296.61" y="-186.5" font-family="Helvetica,sans-Serif" font-size="10.00">../storage/event_store.hpp</text>
</a>
</g>
</g>
<!-- Node1&#45;&gt;Node23 -->
<g id="edge31" class="edge">
<title>Node1&#45;&gt;Node23</title>
<path fill="none" stroke="midnightblue" d="M903.26,-236.38C984.82,-226.76 1125.15,-210.22 1214.29,-199.71"/>
<polygon fill="midnightblue" stroke="midnightblue" points="1214.84,-203.17 1224.36,-198.52 1214.02,-196.21 1214.84,-203.17"/>
</g>
<!-- Node25 -->
<g id="node25" class="node">
<title>Node25</title>
<g id="a_node25"><a xlink:href="cracked__url_8hpp.html" target="_top" xlink:title=" ">
<polygon fill="none" stroke="black" points="116.61,-118 116.61,-137 218.61,-137 218.61,-118 116.61,-118"/>
<text text-anchor="middle" x="167.61" y="-125" font-family="Helvetica,sans-Serif" font-size="10.00">../cracked_url.hpp</text>
</a>
</g>
</g>
<!-- Node1&#45;&gt;Node25 -->
<g id="edge37" class="edge">
<title>Node1&#45;&gt;Node25</title>
<path fill="none" stroke="midnightblue" d="M773.93,-244.17C615.81,-243.96 219.44,-239.37 176.61,-199 162.9,-186.07 162.34,-163.47 164.13,-147.34"/>
<polygon fill="midnightblue" stroke="midnightblue" points="167.6,-147.82 165.61,-137.41 160.67,-146.79 167.6,-147.82"/>
</g>
<!-- Node27 -->
<g id="node27" class="node">
<title>Node27</title>
<g id="a_node27"><a xlink:href="http__request__result_8hpp.html" target="_top" xlink:title=" ">
<polygon fill="none" stroke="black" points="538.61,-112.5 538.61,-142.5 648.61,-142.5 648.61,-112.5 538.61,-112.5"/>
<text text-anchor="start" x="546.61" y="-130.5" font-family="Helvetica,sans-Serif" font-size="10.00">../http/http_request</text>
<text text-anchor="middle" x="593.61" y="-119.5" font-family="Helvetica,sans-Serif" font-size="10.00">_result.hpp</text>
</a>
</g>
</g>
<!-- Node1&#45;&gt;Node27 -->
<g id="edge41" class="edge">
<title>Node1&#45;&gt;Node27</title>
<path fill="none" stroke="midnightblue" d="M820.2,-235.32C780.51,-216.61 686.2,-172.15 632.6,-146.88"/>
<polygon fill="midnightblue" stroke="midnightblue" points="633.94,-143.64 623.4,-142.55 630.96,-149.98 633.94,-143.64"/>
</g>
<!-- Node28 -->
<g id="node28" class="node">
<title>Node28</title>
<g id="a_node28"><a xlink:href="http__client_8hpp.html" target="_top" xlink:title=" ">
<polygon fill="none" stroke="black" points="186.11,-179.5 186.11,-198.5 307.11,-198.5 307.11,-179.5 186.11,-179.5"/>
<text text-anchor="middle" x="246.61" y="-186.5" font-family="Helvetica,sans-Serif" font-size="10.00">../http/http_client.hpp</text>
</a>
</g>
</g>
<!-- Node1&#45;&gt;Node28 -->
<g id="edge45" class="edge">
<title>Node1&#45;&gt;Node28</title>
<path fill="none" stroke="midnightblue" d="M774.07,-239.06C676.16,-231.42 484.27,-215.83 321.61,-199 320.14,-198.85 318.66,-198.69 317.16,-198.53"/>
<polygon fill="midnightblue" stroke="midnightblue" points="317.5,-195.05 307.17,-197.44 316.73,-202.01 317.5,-195.05"/>
</g>
<!-- Node29 -->
<g id="node29" class="node">
<title>Node29</title>
<g id="a_node29"><a xlink:href="retry__delay_8hpp.html" target="_top" xlink:title=" ">
<polygon fill="none" stroke="black" points="1068.61,-179.5 1068.61,-198.5 1160.61,-198.5 1160.61,-179.5 1068.61,-179.5"/>
<text text-anchor="middle" x="1114.61" y="-186.5" font-family="Helvetica,sans-Serif" font-size="10.00">retry_delay.hpp</text>
</a>
</g>
</g>
<!-- Node1&#45;&gt;Node29 -->
<g id="edge49" class="edge">
<title>Node1&#45;&gt;Node29</title>
<path fill="none" stroke="midnightblue" d="M882.34,-235.44C930.79,-225.96 1008.94,-210.67 1061.03,-200.48"/>
<polygon fill="midnightblue" stroke="midnightblue" points="1061.94,-203.87 1071.08,-198.52 1060.6,-197 1061.94,-203.87"/>
</g>
<!-- Node8&#45;&gt;Node2 -->
<g id="edge8" class="edge">
<title>Node8&#45;&gt;Node2</title>
<path fill="none" stroke="midnightblue" d="M151.52,-56.44C169.86,-47.68 198.62,-33.94 219.7,-23.86"/>
<polygon fill="midnightblue" stroke="midnightblue" points="221.28,-26.99 228.79,-19.52 218.26,-20.67 221.28,-26.99"/>
</g>
<!-- Node9 -->
<g id="node9" class="node">
<title>Node9</title>
<g id="a_node9"><a xlink:title=" ">
<polygon fill="none" stroke="#bfbfbf" points="117.61,-0.5 117.61,-19.5 149.61,-19.5 149.61,-0.5 117.61,-0.5"/>
<text text-anchor="middle" x="133.61" y="-7.5" font-family="Helvetica,sans-Serif" font-size="10.00">set</text>
</a>
</g>
</g>
<!-- Node8&#45;&gt;Node9 -->
<g id="edge9" class="edge">
<title>Node8&#45;&gt;Node9</title>
<path fill="none" stroke="midnightblue" d="M133.61,-56.08C133.61,-49.01 133.61,-38.86 133.61,-29.99"/>
<polygon fill="midnightblue" stroke="midnightblue" points="137.11,-29.75 133.61,-19.75 130.11,-29.75 137.11,-29.75"/>
</g>
<!-- Node10&#45;&gt;Node2 -->
<g id="edge12" class="edge">
<title>Node10&#45;&gt;Node2</title>
<path fill="none" stroke="midnightblue" d="M804.17,-188.6C745.43,-188.42 623.16,-182.77 529.61,-143 508.91,-134.2 508.95,-123.48 489.61,-112 436.22,-80.3 418.98,-79.76 361.61,-56 333.53,-44.37 301.29,-31.82 278.1,-22.94"/>
<polygon fill="midnightblue" stroke="midnightblue" points="279.35,-19.67 268.76,-19.37 276.85,-26.21 279.35,-19.67"/>
</g>
<!-- Node10&#45;&gt;Node3 -->
<g id="edge13" class="edge">
<title>Node10&#45;&gt;Node3</title>
<path fill="none" stroke="midnightblue" d="M804.23,-188.93C740.98,-189.47 602.93,-185.19 496.61,-143 474.71,-134.31 474.75,-122.4 453.61,-112 417.11,-94.05 372.07,-81.77 340.72,-74.63"/>
<polygon fill="midnightblue" stroke="midnightblue" points="341.17,-71.14 330.65,-72.4 339.66,-77.98 341.17,-71.14"/>
</g>
<!-- Node10&#45;&gt;Node6 -->
<g id="edge20" class="edge">
<title>Node10&#45;&gt;Node6</title>
<path fill="none" stroke="midnightblue" d="M872.61,-183.84C940.12,-175.42 1088.82,-156.07 1138.61,-143 1141.27,-142.3 1144,-141.48 1146.72,-140.59"/>
<polygon fill="midnightblue" stroke="midnightblue" points="1148.12,-143.81 1156.37,-137.15 1145.77,-137.21 1148.12,-143.81"/>
</g>
<!-- Node11 -->
<g id="node11" class="node">
<title>Node11</title>
<g id="a_node11"><a xlink:title=" ">
<polygon fill="none" stroke="#bfbfbf" points="699.61,-56.5 699.61,-75.5 731.61,-75.5 731.61,-56.5 699.61,-56.5"/>
<text text-anchor="middle" x="715.61" y="-63.5" font-family="Helvetica,sans-Serif" font-size="10.00">list</text>
</a>
</g>
</g>
<!-- Node10&#45;&gt;Node11 -->
<g id="edge11" class="edge">
<title>Node10&#45;&gt;Node11</title>
<path fill="none" stroke="midnightblue" d="M804.48,-181.74C781.21,-175.72 751.48,-164.25 733.61,-143 720.14,-126.98 716.37,-102.64 715.5,-85.85"/>
<polygon fill="midnightblue" stroke="midnightblue" points="718.99,-85.54 715.28,-75.62 711.99,-85.69 718.99,-85.54"/>
</g>
<!-- Node12 -->
<g id="node12" class="node">
<title>Node12</title>
<g id="a_node12"><a xlink:title=" ">
<polygon fill="none" stroke="#bfbfbf" points="621.61,-56.5 621.61,-75.5 681.61,-75.5 681.61,-56.5 621.61,-56.5"/>
<text text-anchor="middle" x="651.61" y="-63.5" font-family="Helvetica,sans-Serif" font-size="10.00">iostream</text>
</a>
</g>
</g>
<!-- Node10&#45;&gt;Node12 -->
<g id="edge14" class="edge">
<title>Node10&#45;&gt;Node12</title>
<path fill="none" stroke="midnightblue" d="M804.52,-180.62C778.49,-173.84 742.62,-161.91 715.61,-143 692.96,-127.14 673.58,-101.34 662.26,-84.27"/>
<polygon fill="midnightblue" stroke="midnightblue" points="665.17,-82.33 656.83,-75.8 659.28,-86.11 665.17,-82.33"/>
</g>
<!-- Node13 -->
<g id="node13" class="node">
<title>Node13</title>
<g id="a_node13"><a xlink:title=" ">
<polygon fill="none" stroke="#bfbfbf" points="1060.61,-0.5 1060.61,-19.5 1098.61,-19.5 1098.61,-0.5 1060.61,-0.5"/>
<text text-anchor="middle" x="1079.61" y="-7.5" font-family="Helvetica,sans-Serif" font-size="10.00">map</text>
</a>
</g>
</g>
<!-- Node10&#45;&gt;Node13 -->
<g id="edge15" class="edge">
<title>Node10&#45;&gt;Node13</title>
<path fill="none" stroke="midnightblue" d="M872.64,-186.18C929.97,-182.35 1042.04,-171.36 1067.61,-143 1095.77,-111.77 1089.84,-57.86 1084.14,-29.57"/>
<polygon fill="midnightblue" stroke="midnightblue" points="1087.55,-28.77 1081.97,-19.77 1080.72,-30.29 1087.55,-28.77"/>
</g>
<!-- Node14 -->
<g id="node14" class="node">
<title>Node14</title>
<g id="a_node14"><a xlink:title=" ">
<polygon fill="none" stroke="#bfbfbf" points="743.11,-118 743.11,-137 792.11,-137 792.11,-118 743.11,-118"/>
<text text-anchor="middle" x="767.61" y="-125" font-family="Helvetica,sans-Serif" font-size="10.00">cctype</text>
</a>
</g>
</g>
<!-- Node10&#45;&gt;Node14 -->
<g id="edge16" class="edge">
<title>Node10&#45;&gt;Node14</title>
<path fill="none" stroke="midnightblue" d="M828.44,-179.48C817.26,-170.11 799.09,-154.88 785.52,-143.51"/>
<polygon fill="midnightblue" stroke="midnightblue" points="787.68,-140.75 777.76,-137.01 783.18,-146.11 787.68,-140.75"/>
</g>
<!-- Node15 -->
<g id="node15" class="node">
<title>Node15</title>
<g id="a_node15"><a xlink:title=" ">
<polygon fill="none" stroke="#bfbfbf" points="810.61,-118 810.61,-137 866.61,-137 866.61,-118 810.61,-118"/>
<text text-anchor="middle" x="838.61" y="-125" font-family="Helvetica,sans-Serif" font-size="10.00">iomanip</text>
</a>
</g>
</g>
<!-- Node10&#45;&gt;Node15 -->
<g id="edge17" class="edge">
<title>Node10&#45;&gt;Node15</title>
<path fill="none" stroke="midnightblue" d="M838.61,-179.48C838.61,-171.08 838.61,-157.98 838.61,-147.16"/>
<polygon fill="midnightblue" stroke="midnightblue" points="842.11,-147.01 838.61,-137.01 835.11,-147.01 842.11,-147.01"/>
</g>
<!-- Node16 -->
<g id="node16" class="node">
<title>Node16</title>
<g id="a_node16"><a xlink:title=" ">
<polygon fill="none" stroke="#bfbfbf" points="1218.61,-118 1218.61,-137 1268.61,-137 1268.61,-118 1218.61,-118"/>
<text text-anchor="middle" x="1243.61" y="-125" font-family="Helvetica,sans-Serif" font-size="10.00">chrono</text>
</a>
</g>
</g>
<!-- Node10&#45;&gt;Node16 -->
<g id="edge18" class="edge">
<title>Node10&#45;&gt;Node16</title>
<path fill="none" stroke="midnightblue" d="M872.73,-187.07C938.83,-184.56 1088.5,-175.47 1209.61,-143 1211.91,-142.38 1214.26,-141.64 1216.59,-140.82"/>
<polygon fill="midnightblue" stroke="midnightblue" points="1217.92,-144.06 1225.95,-137.15 1215.36,-137.55 1217.92,-144.06"/>
</g>
<!-- Node17 -->
<g id="node17" class="node">
<title>Node17</title>
<g id="a_node17"><a xlink:title=" ">
<polygon fill="none" stroke="#bfbfbf" points="884.61,-118 884.61,-137 934.61,-137 934.61,-118 884.61,-118"/>
<text text-anchor="middle" x="909.61" y="-125" font-family="Helvetica,sans-Serif" font-size="10.00">cstdint</text>
</a>
</g>
</g>
<!-- Node10&#45;&gt;Node17 -->
<g id="edge19" class="edge">
<title>Node10&#45;&gt;Node17</title>
<path fill="none" stroke="midnightblue" d="M848.78,-179.48C859.96,-170.11 878.13,-154.88 891.7,-143.51"/>
<polygon fill="midnightblue" stroke="midnightblue" points="894.04,-146.11 899.46,-137.01 889.54,-140.75 894.04,-146.11"/>
</g>
<!-- Node10&#45;&gt;Node18 -->
<g id="edge21" class="edge">
<title>Node10&#45;&gt;Node18</title>
<path fill="none" stroke="midnightblue" d="M804.45,-184.67C737.79,-178 585.74,-162.03 458.61,-143 457.35,-142.81 456.09,-142.62 454.81,-142.42"/>
<polygon fill="midnightblue" stroke="midnightblue" points="455.34,-138.96 444.91,-140.84 454.24,-145.87 455.34,-138.96"/>
</g>
<!-- Node10&#45;&gt;Node20 -->
<g id="edge25" class="edge">
<title>Node10&#45;&gt;Node20</title>
<path fill="none" stroke="midnightblue" d="M872.68,-184.79C934.3,-178.55 1061.5,-163.58 1100.61,-143 1127.26,-128.98 1150.05,-101.87 1163.05,-84.1"/>
<polygon fill="midnightblue" stroke="midnightblue" points="1166.01,-85.98 1168.92,-75.79 1160.29,-81.94 1166.01,-85.98"/>
</g>
<!-- Node22 -->
<g id="node22" class="node">
<title>Node22</title>
<g id="a_node22"><a xlink:title=" ">
<polygon fill="none" stroke="#bfbfbf" points="953.11,-118 953.11,-137 1058.11,-137 1058.11,-118 953.11,-118"/>
<text text-anchor="middle" x="1005.61" y="-125" font-family="Helvetica,sans-Serif" font-size="10.00">../include/json.hpp</text>
</a>
</g>
</g>
<!-- Node10&#45;&gt;Node22 -->
<g id="edge30" class="edge">
<title>Node10&#45;&gt;Node22</title>
<path fill="none" stroke="midnightblue" d="M862.54,-179.48C891.31,-169.22 939.77,-151.96 972.21,-140.4"/>
<polygon fill="midnightblue" stroke="midnightblue" points="973.48,-143.66 981.73,-137.01 971.13,-137.07 973.48,-143.66"/>
</g>
<!-- Node18&#45;&gt;Node2 -->
<g id="edge22" class="edge">
<title>Node18&#45;&gt;Node2</title>
<path fill="none" stroke="midnightblue" d="M373.79,-112.41C367.86,-96.87 356.47,-71.96 339.61,-56 322.31,-39.62 297.92,-28.12 278.46,-20.85"/>
<polygon fill="midnightblue" stroke="midnightblue" points="279.39,-17.47 268.8,-17.43 277.05,-24.06 279.39,-17.47"/>
</g>
<!-- Node18&#45;&gt;Node8 -->
<g id="edge23" class="edge">
<title>Node18&#45;&gt;Node8</title>
<path fill="none" stroke="midnightblue" d="M320.86,-112.47C277.3,-101.9 218.41,-87.59 178.39,-77.87"/>
<polygon fill="midnightblue" stroke="midnightblue" points="179.18,-74.47 168.64,-75.51 177.53,-81.27 179.18,-74.47"/>
</g>
<!-- Node19 -->
<g id="node19" class="node">
<title>Node19</title>
<g id="a_node19"><a xlink:title=" ">
<polygon fill="none" stroke="#bfbfbf" points="649.61,-0.5 649.61,-19.5 763.61,-19.5 763.61,-0.5 649.61,-0.5"/>
<text text-anchor="middle" x="706.61" y="-7.5" font-family="Helvetica,sans-Serif" font-size="10.00">../../include/json.hpp</text>
</a>
</g>
</g>
<!-- Node18&#45;&gt;Node19 -->
<g id="edge24" class="edge">
<title>Node18&#45;&gt;Node19</title>
<path fill="none" stroke="midnightblue" d="M418.5,-112.45C483.68,-89.5 611.83,-44.38 672.81,-22.9"/>
<polygon fill="midnightblue" stroke="midnightblue" points="674.08,-26.17 682.35,-19.54 671.76,-19.56 674.08,-26.17"/>
</g>
<!-- Node20&#45;&gt;Node2 -->
<g id="edge29" class="edge">
<title>Node20&#45;&gt;Node2</title>
<path fill="none" stroke="midnightblue" d="M1114.79,-61.52C936.83,-51.16 414.69,-20.78 279.09,-12.89"/>
<polygon fill="midnightblue" stroke="midnightblue" points="279.12,-9.39 268.94,-12.3 278.72,-16.37 279.12,-9.39"/>
</g>
<!-- Node20&#45;&gt;Node13 -->
<g id="edge28" class="edge">
<title>Node20&#45;&gt;Node13</title>
<path fill="none" stroke="midnightblue" d="M1159.35,-56.32C1144.39,-47.82 1121.36,-34.73 1103.88,-24.8"/>
<polygon fill="midnightblue" stroke="midnightblue" points="1105.26,-21.55 1094.84,-19.65 1101.8,-27.64 1105.26,-21.55"/>
</g>
<!-- Node20&#45;&gt;Node19 -->
<g id="edge27" class="edge">
<title>Node20&#45;&gt;Node19</title>
<path fill="none" stroke="midnightblue" d="M1114.86,-58.11C1027.46,-48.02 865.22,-29.3 773.78,-18.75"/>
<polygon fill="midnightblue" stroke="midnightblue" points="774.14,-15.27 763.81,-17.6 773.34,-22.22 774.14,-15.27"/>
</g>
<!-- Node21 -->
<g id="node21" class="node">
<title>Node21</title>
<g id="a_node21"><a xlink:title=" ">
<polygon fill="none" stroke="#bfbfbf" points="1117.11,-0.5 1117.11,-19.5 1246.11,-19.5 1246.11,-0.5 1117.11,-0.5"/>
<text text-anchor="middle" x="1181.61" y="-7.5" font-family="Helvetica,sans-Serif" font-size="10.00">../../include/base64.hpp</text>
</a>
</g>
</g>
<!-- Node20&#45;&gt;Node21 -->
<g id="edge26" class="edge">
<title>Node20&#45;&gt;Node21</title>
<path fill="none" stroke="midnightblue" d="M1175.77,-56.08C1176.69,-48.93 1178.03,-38.64 1179.19,-29.69"/>
<polygon fill="midnightblue" stroke="midnightblue" points="1182.66,-30.12 1180.48,-19.75 1175.72,-29.22 1182.66,-30.12"/>
</g>
<!-- Node23&#45;&gt;Node11 -->
<g id="edge34" class="edge">
<title>Node23&#45;&gt;Node11</title>
<path fill="none" stroke="midnightblue" d="M1297.38,-179.29C1298.26,-163.19 1297.53,-128.88 1277.61,-112 1236.32,-77.02 846.89,-68.89 741.69,-67.33"/>
<polygon fill="midnightblue" stroke="midnightblue" points="741.67,-63.83 731.62,-67.19 741.57,-70.83 741.67,-63.83"/>
</g>
<!-- Node24 -->
<g id="node24" class="node">
<title>Node24</title>
<g id="a_node24"><a xlink:href="event__row_8hpp.html" target="_top" xlink:title=" ">
<polygon fill="none" stroke="black" points="1324.61,-118 1324.61,-137 1412.61,-137 1412.61,-118 1324.61,-118"/>
<text text-anchor="middle" x="1368.61" y="-125" font-family="Helvetica,sans-Serif" font-size="10.00">event_row.hpp</text>
</a>
</g>
</g>
<!-- Node23&#45;&gt;Node24 -->
<g id="edge32" class="edge">
<title>Node23&#45;&gt;Node24</title>
<path fill="none" stroke="midnightblue" d="M1306.93,-179.48C1318.26,-170.11 1336.68,-154.88 1350.45,-143.51"/>
<polygon fill="midnightblue" stroke="midnightblue" points="1352.84,-146.08 1358.31,-137.01 1348.38,-140.68 1352.84,-146.08"/>
</g>
<!-- Node24&#45;&gt;Node20 -->
<g id="edge33" class="edge">
<title>Node24&#45;&gt;Node20</title>
<path fill="none" stroke="midnightblue" d="M1340.82,-117.98C1306.96,-107.59 1249.64,-90.01 1211.96,-78.45"/>
<polygon fill="midnightblue" stroke="midnightblue" points="1212.94,-75.1 1202.35,-75.51 1210.89,-81.79 1212.94,-75.1"/>
</g>
<!-- Node25&#45;&gt;Node2 -->
<g id="edge38" class="edge">
<title>Node25&#45;&gt;Node2</title>
<path fill="none" stroke="midnightblue" d="M173.55,-117.82C186.53,-98.84 217.65,-53.35 234.79,-28.29"/>
<polygon fill="midnightblue" stroke="midnightblue" points="237.85,-30.01 240.6,-19.78 232.07,-26.06 237.85,-30.01"/>
</g>
<!-- Node25&#45;&gt;Node3 -->
<g id="edge39" class="edge">
<title>Node25&#45;&gt;Node3</title>
<path fill="none" stroke="midnightblue" d="M186.95,-117.98C209.71,-107.95 247.7,-91.2 273.9,-79.65"/>
<polygon fill="midnightblue" stroke="midnightblue" points="275.57,-82.74 283.3,-75.51 272.74,-76.34 275.57,-82.74"/>
</g>
<!-- Node26 -->
<g id="node26" class="node">
<title>Node26</title>
<g id="a_node26"><a xlink:title=" ">
<polygon fill="none" stroke="#bfbfbf" points="24.61,-56.5 24.61,-75.5 68.61,-75.5 68.61,-56.5 24.61,-56.5"/>
<text text-anchor="middle" x="46.61" y="-63.5" font-family="Helvetica,sans-Serif" font-size="10.00">regex</text>
</a>
</g>
</g>
<!-- Node25&#45;&gt;Node26 -->
<g id="edge40" class="edge">
<title>Node25&#45;&gt;Node26</title>
<path fill="none" stroke="midnightblue" d="M150.27,-117.98C130.06,-108.03 96.42,-91.49 72.97,-79.96"/>
<polygon fill="midnightblue" stroke="midnightblue" points="74.43,-76.78 63.91,-75.51 71.34,-83.06 74.43,-76.78"/>
</g>
<!-- Node27&#45;&gt;Node11 -->
<g id="edge43" class="edge">
<title>Node27&#45;&gt;Node11</title>
<path fill="none" stroke="midnightblue" d="M622.52,-112.4C643.23,-102.3 670.84,-88.83 690.6,-79.2"/>
<polygon fill="midnightblue" stroke="midnightblue" points="692.15,-82.33 699.61,-74.8 689.09,-76.04 692.15,-82.33"/>
</g>
<!-- Node27&#45;&gt;Node12 -->
<g id="edge42" class="edge">
<title>Node27&#45;&gt;Node12</title>
<path fill="none" stroke="midnightblue" d="M607.36,-112.4C615.96,-103.58 627.06,-92.18 636,-83.02"/>
<polygon fill="midnightblue" stroke="midnightblue" points="638.7,-85.26 643.17,-75.66 633.68,-80.38 638.7,-85.26"/>
</g>
<!-- Node27&#45;&gt;Node13 -->
<g id="edge44" class="edge">
<title>Node27&#45;&gt;Node13</title>
<path fill="none" stroke="midnightblue" d="M593.03,-112.4C593.21,-96.12 596.25,-69.83 612.61,-56 646.07,-27.71 953.24,-15.18 1050.33,-11.91"/>
<polygon fill="midnightblue" stroke="midnightblue" points="1050.46,-15.41 1060.34,-11.58 1050.23,-8.41 1050.46,-15.41"/>
</g>
<!-- Node28&#45;&gt;Node2 -->
<g id="edge46" class="edge">
<title>Node28&#45;&gt;Node2</title>
<path fill="none" stroke="midnightblue" d="M246.61,-179.46C246.61,-152.43 246.61,-68.24 246.61,-30.11"/>
<polygon fill="midnightblue" stroke="midnightblue" points="250.11,-29.87 246.61,-19.87 243.11,-29.87 250.11,-29.87"/>
</g>
<!-- Node28&#45;&gt;Node25 -->
<g id="edge47" class="edge">
<title>Node28&#45;&gt;Node25</title>
<path fill="none" stroke="midnightblue" d="M235.29,-179.48C222.74,-170.02 202.26,-154.6 187.11,-143.19"/>
<polygon fill="midnightblue" stroke="midnightblue" points="189,-140.23 178.91,-137.01 184.79,-145.82 189,-140.23"/>
</g>
<!-- Node28&#45;&gt;Node27 -->
<g id="edge48" class="edge">
<title>Node28&#45;&gt;Node27</title>
<path fill="none" stroke="midnightblue" d="M296.33,-179.48C357.38,-169.01 461.09,-151.22 528.46,-139.67"/>
<polygon fill="midnightblue" stroke="midnightblue" points="529.28,-143.08 538.54,-137.94 528.09,-136.18 529.28,-143.08"/>
</g>
<!-- Node29&#45;&gt;Node16 -->
<g id="edge50" class="edge">
<title>Node29&#45;&gt;Node16</title>
<path fill="none" stroke="midnightblue" d="M1133.09,-179.48C1154.74,-169.49 1190.82,-152.85 1215.84,-141.31"/>
<polygon fill="midnightblue" stroke="midnightblue" points="1217.55,-144.38 1225.16,-137.01 1214.62,-138.02 1217.55,-144.38"/>
</g>
</g>
</svg>
