<?xml version="1.0" encoding="UTF-8" standalone="no"?>
<!DOCTYPE svg PUBLIC "-//W3C//DTD SVG 1.1//EN"
 "http://www.w3.org/Graphics/SVG/1.1/DTD/svg11.dtd">
<!-- Generated by graphviz version 2.43.0 (0)
 -->
<!-- Title: src/emitter/emitter.cpp Pages: 1 -->
<svg width="1414pt" height="330pt"
 viewBox="0.00 0.00 1414.29 330.00" xmlns="http://www.w3.org/2000/svg" xmlns:xlink="http://www.w3.org/1999/xlink">
<g id="graph0" class="graph" transform="scale(1 1) rotate(0) translate(4 326)">
<title>src/emitter/emitter.cpp</title>
<!-- Node1 -->
<g id="node1" class="node">
<title>Node1</title>
<g id="a_node1"><a xlink:title=" ">
<polygon fill="#bfbfbf" stroke="black" points="973.98,-302.5 973.98,-321.5 1101.98,-321.5 1101.98,-302.5 973.98,-302.5"/>
<text text-anchor="middle" x="1037.98" y="-309.5" font-family="Helvetica,sans-Serif" font-size="10.00">src/emitter/emitter.cpp</text>
</a>
</g>
</g>
<!-- Node2 -->
<g id="node2" class="node">
<title>Node2</title>
<g id="a_node2"><a xlink:href="emitter_8hpp.html" target="_top" xlink:title=" ">
<polygon fill="none" stroke="black" points="802.48,-241 802.48,-260 875.48,-260 875.48,-241 802.48,-241"/>
<text text-anchor="middle" x="838.98" y="-248" font-family="Helvetica,sans-Serif" font-size="10.00">emitter.hpp</text>
</a>
</g>
</g>
<!-- Node1&#45;&gt;Node2 -->
<g id="edge1" class="edge">
<title>Node1&#45;&gt;Node2</title>
<path fill="none" stroke="midnightblue" d="M1009.47,-302.48C974.74,-292.09 915.94,-274.51 877.29,-262.95"/>
<polygon fill="midnightblue" stroke="midnightblue" points="878.02,-259.52 867.44,-260.01 876.02,-266.23 878.02,-259.52"/>
</g>
<!-- Node31 -->
<g id="node31" class="node">
<title>Node31</title>
<g id="a_node31"><a xlink:href="http__client__curl_8hpp.html" target="_top" xlink:title=" ">
<polygon fill="none" stroke="black" points="1224.98,-235.5 1224.98,-265.5 1324.98,-265.5 1324.98,-235.5 1224.98,-235.5"/>
<text text-anchor="start" x="1232.98" y="-253.5" font-family="Helvetica,sans-Serif" font-size="10.00">../http/http_client</text>
<text text-anchor="middle" x="1274.98" y="-242.5" font-family="Helvetica,sans-Serif" font-size="10.00">_curl.hpp</text>
</a>
</g>
</g>
<!-- Node1&#45;&gt;Node31 -->
<g id="edge52" class="edge">
<title>Node1&#45;&gt;Node31</title>
<path fill="none" stroke="midnightblue" d="M1071.94,-302.48C1109.26,-293.1 1169.93,-277.87 1215.25,-266.5"/>
<polygon fill="midnightblue" stroke="midnightblue" points="1216.12,-269.89 1224.96,-264.06 1214.41,-263.1 1216.12,-269.89"/>
</g>
<!-- Node3 -->
<g id="node3" class="node">
<title>Node3</title>
<g id="a_node3"><a xlink:title=" ">
<polygon fill="none" stroke="#bfbfbf" points="1074.98,-0.5 1074.98,-19.5 1118.98,-19.5 1118.98,-0.5 1074.98,-0.5"/>
<text text-anchor="middle" x="1096.98" y="-7.5" font-family="Helvetica,sans-Serif" font-size="10.00">string</text>
</a>
</g>
</g>
<!-- Node2&#45;&gt;Node3 -->
<g id="edge2" class="edge">
<title>Node2&#45;&gt;Node3</title>
<path fill="none" stroke="midnightblue" d="M875.51,-248.62C986.41,-245.59 1313.54,-233.73 1344.98,-199 1379.07,-161.34 1458.38,-194.69 1298.98,-56 1273.93,-34.2 1179.74,-20.42 1129.31,-14.44"/>
<polygon fill="midnightblue" stroke="midnightblue" points="1129.59,-10.95 1119.26,-13.29 1128.79,-17.91 1129.59,-10.95"/>
</g>
<!-- Node4 -->
<g id="node4" class="node">
<title>Node4</title>
<g id="a_node4"><a xlink:title=" ">
<polygon fill="none" stroke="#bfbfbf" points="1112.98,-56.5 1112.98,-75.5 1168.98,-75.5 1168.98,-56.5 1112.98,-56.5"/>
<text text-anchor="middle" x="1140.98" y="-63.5" font-family="Helvetica,sans-Serif" font-size="10.00">sstream</text>
</a>
</g>
</g>
<!-- Node2&#45;&gt;Node4 -->
<g id="edge3" class="edge">
<title>Node2&#45;&gt;Node4</title>
<path fill="none" stroke="midnightblue" d="M843.22,-240.82C851.2,-225.49 870.03,-193.86 895.98,-179 989.59,-125.42 1062.95,-222.37 1135.98,-143 1150.01,-127.75 1148.74,-102.7 1145.64,-85.56"/>
<polygon fill="midnightblue" stroke="midnightblue" points="1149.03,-84.65 1143.49,-75.62 1142.19,-86.13 1149.03,-84.65"/>
</g>
<!-- Node5 -->
<g id="node5" class="node">
<title>Node5</title>
<g id="a_node5"><a xlink:title=" ">
<polygon fill="none" stroke="#bfbfbf" points="904.48,-179.5 904.48,-198.5 1011.48,-198.5 1011.48,-179.5 904.48,-179.5"/>
<text text-anchor="middle" x="957.98" y="-186.5" font-family="Helvetica,sans-Serif" font-size="10.00">condition_variable</text>
</a>
</g>
</g>
<!-- Node2&#45;&gt;Node5 -->
<g id="edge4" class="edge">
<title>Node2&#45;&gt;Node5</title>
<path fill="none" stroke="midnightblue" d="M856.03,-240.98C875.83,-231.08 908.7,-214.64 931.75,-203.12"/>
<polygon fill="midnightblue" stroke="midnightblue" points="933.58,-206.11 940.96,-198.51 930.45,-199.85 933.58,-206.11"/>
</g>
<!-- Node6 -->
<g id="node6" class="node">
<title>Node6</title>
<g id="a_node6"><a xlink:title=" ">
<polygon fill="none" stroke="#bfbfbf" points="1029.98,-179.5 1029.98,-198.5 1075.98,-198.5 1075.98,-179.5 1029.98,-179.5"/>
<text text-anchor="middle" x="1052.98" y="-186.5" font-family="Helvetica,sans-Serif" font-size="10.00">future</text>
</a>
</g>
</g>
<!-- Node2&#45;&gt;Node6 -->
<g id="edge5" class="edge">
<title>Node2&#45;&gt;Node6</title>
<path fill="none" stroke="midnightblue" d="M869.91,-240.95C904.21,-231.47 961.48,-215.61 1020.11,-199.24"/>
<polygon fill="midnightblue" stroke="midnightblue" points="1021.22,-202.56 1029.91,-196.5 1019.34,-195.82 1021.22,-202.56"/>
</g>
<!-- Node7 -->
<g id="node7" class="node">
<title>Node7</title>
<g id="a_node7"><a xlink:title=" ">
<polygon fill="none" stroke="#bfbfbf" points="27.98,-118 27.98,-137 75.98,-137 75.98,-118 27.98,-118"/>
<text text-anchor="middle" x="51.98" y="-125" font-family="Helvetica,sans-Serif" font-size="10.00">thread</text>
</a>
</g>
</g>
<!-- Node2&#45;&gt;Node7 -->
<g id="edge6" class="edge">
<title>Node2&#45;&gt;Node7</title>
<path fill="none" stroke="midnightblue" d="M802.29,-247.47C718.16,-242.46 505.04,-227.8 328.98,-199 219.18,-181.04 190.6,-177.98 84.98,-143 83.11,-142.38 81.2,-141.69 79.29,-140.97"/>
<polygon fill="midnightblue" stroke="midnightblue" points="80.48,-137.67 69.9,-137.1 77.81,-144.14 80.48,-137.67"/>
</g>
<!-- Node8 -->
<g id="node8" class="node">
<title>Node8</title>
<g id="a_node8"><a xlink:title=" ">
<polygon fill="none" stroke="#bfbfbf" points="1131.98,-179.5 1131.98,-198.5 1195.98,-198.5 1195.98,-179.5 1131.98,-179.5"/>
<text text-anchor="middle" x="1163.98" y="-186.5" font-family="Helvetica,sans-Serif" font-size="10.00">algorithm</text>
</a>
</g>
</g>
<!-- Node2&#45;&gt;Node8 -->
<g id="edge7" class="edge">
<title>Node2&#45;&gt;Node8</title>
<path fill="none" stroke="midnightblue" d="M875.57,-243.05C928.92,-233.6 1031.15,-215.35 1117.98,-199 1119.24,-198.76 1120.52,-198.52 1121.81,-198.28"/>
<polygon fill="midnightblue" stroke="midnightblue" points="1122.66,-201.68 1131.82,-196.35 1121.34,-194.8 1122.66,-201.68"/>
</g>
<!-- Node9 -->
<g id="node9" class="node">
<title>Node9</title>
<g id="a_node9"><a xlink:href="constants_8hpp.html" target="_top" xlink:title=" ">
<polygon fill="none" stroke="black" points="253.98,-56.5 253.98,-75.5 347.98,-75.5 347.98,-56.5 253.98,-56.5"/>
<text text-anchor="middle" x="300.98" y="-63.5" font-family="Helvetica,sans-Serif" font-size="10.00">../constants.hpp</text>
</a>
</g>
</g>
<!-- Node2&#45;&gt;Node9 -->
<g id="edge8" class="edge">
<title>Node2&#45;&gt;Node9</title>
<path fill="none" stroke="midnightblue" d="M802.42,-249.2C705.06,-247.83 431.77,-240.3 208.98,-199 122.42,-182.95 71.7,-213.5 18.98,-143 10.73,-131.97 10.04,-122.48 18.98,-112 26.24,-103.49 163.5,-84.6 243.8,-74.21"/>
<polygon fill="midnightblue" stroke="midnightblue" points="244.3,-77.67 253.77,-72.92 243.41,-70.73 244.3,-77.67"/>
</g>
<!-- Node11 -->
<g id="node11" class="node">
<title>Node11</title>
<g id="a_node11"><a xlink:href="utils_8hpp.html" target="_top" xlink:title=" ">
<polygon fill="none" stroke="black" points="631.98,-179.5 631.98,-198.5 699.98,-198.5 699.98,-179.5 631.98,-179.5"/>
<text text-anchor="middle" x="665.98" y="-186.5" font-family="Helvetica,sans-Serif" font-size="10.00">../utils.hpp</text>
</a>
</g>
</g>
<!-- Node2&#45;&gt;Node11 -->
<g id="edge11" class="edge">
<title>Node2&#45;&gt;Node11</title>
<path fill="none" stroke="midnightblue" d="M814.2,-240.98C784.39,-230.72 734.19,-213.46 700.58,-201.9"/>
<polygon fill="midnightblue" stroke="midnightblue" points="701.32,-198.45 690.72,-198.51 699.04,-205.07 701.32,-198.45"/>
</g>
<!-- Node19 -->
<g id="node19" class="node">
<title>Node19</title>
<g id="a_node19"><a xlink:href="self__describing__json_8hpp.html" target="_top" xlink:title=" ">
<polygon fill="none" stroke="black" points="237.98,-112.5 237.98,-142.5 369.98,-142.5 369.98,-112.5 237.98,-112.5"/>
<text text-anchor="start" x="245.98" y="-130.5" font-family="Helvetica,sans-Serif" font-size="10.00">payload/self_describing</text>
<text text-anchor="middle" x="303.98" y="-119.5" font-family="Helvetica,sans-Serif" font-size="10.00">_json.hpp</text>
</a>
</g>
</g>
<!-- Node2&#45;&gt;Node19 -->
<g id="edge37" class="edge">
<title>Node2&#45;&gt;Node19</title>
<path fill="none" stroke="midnightblue" d="M802.34,-249.48C703.02,-248.83 431.05,-242.98 354.98,-199 336.57,-188.35 322.99,-168.1 314.49,-152.02"/>
<polygon fill="midnightblue" stroke="midnightblue" points="317.43,-150.08 309.85,-142.67 311.16,-153.19 317.43,-150.08"/>
</g>
<!-- Node21 -->
<g id="node21" class="node">
<title>Node21</title>
<g id="a_node21"><a xlink:href="payload_8hpp.html" target="_top" xlink:title=" ">
<polygon fill="none" stroke="black" points="78.48,-56.5 78.48,-75.5 197.48,-75.5 197.48,-56.5 78.48,-56.5"/>
<text text-anchor="middle" x="137.98" y="-63.5" font-family="Helvetica,sans-Serif" font-size="10.00">payload/payload.hpp</text>
</a>
</g>
</g>
<!-- Node2&#45;&gt;Node21 -->
<g id="edge36" class="edge">
<title>Node2&#45;&gt;Node21</title>
<path fill="none" stroke="midnightblue" d="M802.35,-248.82C656.67,-245.9 123.06,-232.94 55.98,-199 16.77,-179.16 -16.47,-147.83 8.98,-112 22.86,-92.46 45.89,-81.33 68.68,-75.02"/>
<polygon fill="midnightblue" stroke="midnightblue" points="69.54,-78.41 78.4,-72.6 67.85,-71.62 69.54,-78.41"/>
</g>
<!-- Node24 -->
<g id="node24" class="node">
<title>Node24</title>
<g id="a_node24"><a xlink:href="event__store_8hpp.html" target="_top" xlink:title=" ">
<polygon fill="none" stroke="black" points="363.98,-179.5 363.98,-198.5 507.98,-198.5 507.98,-179.5 363.98,-179.5"/>
<text text-anchor="middle" x="435.98" y="-186.5" font-family="Helvetica,sans-Serif" font-size="10.00">../storage/event_store.hpp</text>
</a>
</g>
</g>
<!-- Node2&#45;&gt;Node24 -->
<g id="edge32" class="edge">
<title>Node2&#45;&gt;Node24</title>
<path fill="none" stroke="midnightblue" d="M802.15,-244.06C734.49,-234.07 589.49,-212.66 503.65,-199.99"/>
<polygon fill="midnightblue" stroke="midnightblue" points="504.14,-196.53 493.74,-198.53 503.12,-203.45 504.14,-196.53"/>
</g>
<!-- Node26 -->
<g id="node26" class="node">
<title>Node26</title>
<g id="a_node26"><a xlink:href="cracked__url_8hpp.html" target="_top" xlink:title=" ">
<polygon fill="none" stroke="black" points="1182.98,-118 1182.98,-137 1284.98,-137 1284.98,-118 1182.98,-118"/>
<text text-anchor="middle" x="1233.98" y="-125" font-family="Helvetica,sans-Serif" font-size="10.00">../cracked_url.hpp</text>
</a>
</g>
</g>
<!-- Node2&#45;&gt;Node26 -->
<g id="edge38" class="edge">
<title>Node2&#45;&gt;Node26</title>
<path fill="none" stroke="midnightblue" d="M875.7,-245.25C924.56,-238.86 1013.14,-224.69 1084.98,-199 1102.95,-192.57 1105.84,-187.4 1122.98,-179 1150.47,-165.53 1182.32,-151.16 1204.83,-141.21"/>
<polygon fill="midnightblue" stroke="midnightblue" points="1206.43,-144.33 1214.17,-137.1 1203.61,-137.93 1206.43,-144.33"/>
</g>
<!-- Node28 -->
<g id="node28" class="node">
<title>Node28</title>
<g id="a_node28"><a xlink:href="http__request__result_8hpp.html" target="_top" xlink:title=" ">
<polygon fill="none" stroke="black" points="872.98,-112.5 872.98,-142.5 982.98,-142.5 982.98,-112.5 872.98,-112.5"/>
<text text-anchor="start" x="880.98" y="-130.5" font-family="Helvetica,sans-Serif" font-size="10.00">../http/http_request</text>
<text text-anchor="middle" x="927.98" y="-119.5" font-family="Helvetica,sans-Serif" font-size="10.00">_result.hpp</text>
</a>
</g>
</g>
<!-- Node2&#45;&gt;Node28 -->
<g id="edge42" class="edge">
<title>Node2&#45;&gt;Node28</title>
<path fill="none" stroke="midnightblue" d="M809.9,-240.92C775.63,-229.3 725.87,-206.81 746.98,-179 754.29,-169.37 813.86,-153.95 862.7,-142.68"/>
<polygon fill="midnightblue" stroke="midnightblue" points="863.65,-146.06 872.62,-140.42 862.09,-139.23 863.65,-146.06"/>
</g>
<!-- Node29 -->
<g id="node29" class="node">
<title>Node29</title>
<g id="a_node29"><a xlink:href="http__client_8hpp.html" target="_top" xlink:title=" ">
<polygon fill="none" stroke="black" points="1214.48,-179.5 1214.48,-198.5 1335.48,-198.5 1335.48,-179.5 1214.48,-179.5"/>
<text text-anchor="middle" x="1274.98" y="-186.5" font-family="Helvetica,sans-Serif" font-size="10.00">../http/http_client.hpp</text>
</a>
</g>
</g>
<!-- Node2&#45;&gt;Node29 -->
<g id="edge46" class="edge">
<title>Node2&#45;&gt;Node29</title>
<path fill="none" stroke="midnightblue" d="M875.78,-244.48C948.28,-234.58 1110.67,-212.42 1204.47,-199.62"/>
<polygon fill="midnightblue" stroke="midnightblue" points="1205.01,-203.08 1214.44,-198.26 1204.06,-196.15 1205.01,-203.08"/>
</g>
<!-- Node30 -->
<g id="node30" class="node">
<title>Node30</title>
<g id="a_node30"><a xlink:href="retry__delay_8hpp.html" target="_top" xlink:title=" ">
<polygon fill="none" stroke="black" points="755.98,-179.5 755.98,-198.5 847.98,-198.5 847.98,-179.5 755.98,-179.5"/>
<text text-anchor="middle" x="801.98" y="-186.5" font-family="Helvetica,sans-Serif" font-size="10.00">retry_delay.hpp</text>
</a>
</g>
</g>
<!-- Node2&#45;&gt;Node30 -->
<g id="edge50" class="edge">
<title>Node2&#45;&gt;Node30</title>
<path fill="none" stroke="midnightblue" d="M833.68,-240.98C828.24,-232.23 819.62,-218.37 812.75,-207.31"/>
<polygon fill="midnightblue" stroke="midnightblue" points="815.53,-205.15 807.27,-198.51 809.58,-208.85 815.53,-205.15"/>
</g>
<!-- Node9&#45;&gt;Node3 -->
<g id="edge9" class="edge">
<title>Node9&#45;&gt;Node3</title>
<path fill="none" stroke="midnightblue" d="M348.22,-57.62C352.86,-57.02 357.51,-56.47 361.98,-56 633.08,-27.75 962.42,-15.34 1064.96,-11.98"/>
<polygon fill="midnightblue" stroke="midnightblue" points="1065.1,-15.48 1074.98,-11.66 1064.87,-8.49 1065.1,-15.48"/>
</g>
<!-- Node10 -->
<g id="node10" class="node">
<title>Node10</title>
<g id="a_node10"><a xlink:title=" ">
<polygon fill="none" stroke="#bfbfbf" points="292.98,-0.5 292.98,-19.5 324.98,-19.5 324.98,-0.5 292.98,-0.5"/>
<text text-anchor="middle" x="308.98" y="-7.5" font-family="Helvetica,sans-Serif" font-size="10.00">set</text>
</a>
</g>
</g>
<!-- Node9&#45;&gt;Node10 -->
<g id="edge10" class="edge">
<title>Node9&#45;&gt;Node10</title>
<path fill="none" stroke="midnightblue" d="M302.3,-56.08C303.36,-48.93 304.89,-38.64 306.21,-29.69"/>
<polygon fill="midnightblue" stroke="midnightblue" points="309.68,-30.16 307.69,-19.75 302.76,-29.13 309.68,-30.16"/>
</g>
<!-- Node11&#45;&gt;Node3 -->
<g id="edge13" class="edge">
<title>Node11&#45;&gt;Node3</title>
<path fill="none" stroke="midnightblue" d="M700.2,-183.97C781.29,-174.33 979.37,-150.19 991.98,-143 1016.64,-128.95 1064.17,-60.48 1085.79,-28.07"/>
<polygon fill="midnightblue" stroke="midnightblue" points="1088.78,-29.89 1091.38,-19.61 1082.94,-26.02 1088.78,-29.89"/>
</g>
<!-- Node11&#45;&gt;Node4 -->
<g id="edge14" class="edge">
<title>Node11&#45;&gt;Node4</title>
<path fill="none" stroke="midnightblue" d="M699.99,-184.2C786.64,-174.45 1009.93,-148.92 1024.98,-143 1046.91,-134.38 1048.39,-125.08 1067.98,-112 1084.23,-101.15 1103.01,-89.6 1117.45,-80.92"/>
<polygon fill="midnightblue" stroke="midnightblue" points="1119.46,-83.79 1126.24,-75.66 1115.86,-77.79 1119.46,-83.79"/>
</g>
<!-- Node11&#45;&gt;Node7 -->
<g id="edge21" class="edge">
<title>Node11&#45;&gt;Node7</title>
<path fill="none" stroke="midnightblue" d="M631.91,-185.68C511.47,-177.43 111.63,-149.68 84.98,-143 82.63,-142.41 80.23,-141.66 77.85,-140.83"/>
<polygon fill="midnightblue" stroke="midnightblue" points="78.97,-137.5 68.38,-137 76.35,-143.99 78.97,-137.5"/>
</g>
<!-- Node12 -->
<g id="node12" class="node">
<title>Node12</title>
<g id="a_node12"><a xlink:title=" ">
<polygon fill="none" stroke="#bfbfbf" points="789.98,-56.5 789.98,-75.5 821.98,-75.5 821.98,-56.5 789.98,-56.5"/>
<text text-anchor="middle" x="805.98" y="-63.5" font-family="Helvetica,sans-Serif" font-size="10.00">list</text>
</a>
</g>
</g>
<!-- Node11&#45;&gt;Node12 -->
<g id="edge12" class="edge">
<title>Node11&#45;&gt;Node12</title>
<path fill="none" stroke="midnightblue" d="M700.14,-184.23C727.75,-179.37 765.6,-168.26 787.98,-143 801.86,-127.33 805.55,-102.92 806.29,-86.01"/>
<polygon fill="midnightblue" stroke="midnightblue" points="809.79,-85.75 806.42,-75.7 802.79,-85.66 809.79,-85.75"/>
</g>
<!-- Node13 -->
<g id="node13" class="node">
<title>Node13</title>
<g id="a_node13"><a xlink:title=" ">
<polygon fill="none" stroke="#bfbfbf" points="839.98,-56.5 839.98,-75.5 899.98,-75.5 899.98,-56.5 839.98,-56.5"/>
<text text-anchor="middle" x="869.98" y="-63.5" font-family="Helvetica,sans-Serif" font-size="10.00">iostream</text>
</a>
</g>
</g>
<!-- Node11&#45;&gt;Node13 -->
<g id="edge15" class="edge">
<title>Node11&#45;&gt;Node13</title>
<path fill="none" stroke="midnightblue" d="M700.24,-183.03C730.87,-177.31 775.89,-165.62 808.98,-143 831.28,-127.75 849.49,-101.96 860.04,-84.71"/>
<polygon fill="midnightblue" stroke="midnightblue" points="863.3,-86.08 865.34,-75.68 857.26,-82.54 863.3,-86.08"/>
</g>
<!-- Node14 -->
<g id="node14" class="node">
<title>Node14</title>
<g id="a_node14"><a xlink:title=" ">
<polygon fill="none" stroke="#bfbfbf" points="394.98,-0.5 394.98,-19.5 432.98,-19.5 432.98,-0.5 394.98,-0.5"/>
<text text-anchor="middle" x="413.98" y="-7.5" font-family="Helvetica,sans-Serif" font-size="10.00">map</text>
</a>
</g>
</g>
<!-- Node11&#45;&gt;Node14 -->
<g id="edge16" class="edge">
<title>Node11&#45;&gt;Node14</title>
<path fill="none" stroke="midnightblue" d="M631.77,-184.88C578.83,-179.39 480.5,-166.3 454.98,-143 422.58,-113.42 415.55,-58.77 414.17,-29.95"/>
<polygon fill="midnightblue" stroke="midnightblue" points="417.66,-29.53 413.88,-19.63 410.67,-29.73 417.66,-29.53"/>
</g>
<!-- Node15 -->
<g id="node15" class="node">
<title>Node15</title>
<g id="a_node15"><a xlink:title=" ">
<polygon fill="none" stroke="#bfbfbf" points="655.48,-118 655.48,-137 704.48,-137 704.48,-118 655.48,-118"/>
<text text-anchor="middle" x="679.98" y="-125" font-family="Helvetica,sans-Serif" font-size="10.00">cctype</text>
</a>
</g>
</g>
<!-- Node11&#45;&gt;Node15 -->
<g id="edge17" class="edge">
<title>Node11&#45;&gt;Node15</title>
<path fill="none" stroke="midnightblue" d="M667.99,-179.48C669.98,-170.99 673.11,-157.7 675.67,-146.82"/>
<polygon fill="midnightblue" stroke="midnightblue" points="679.1,-147.54 677.98,-137.01 672.28,-145.94 679.1,-147.54"/>
</g>
<!-- Node16 -->
<g id="node16" class="node">
<title>Node16</title>
<g id="a_node16"><a xlink:title=" ">
<polygon fill="none" stroke="#bfbfbf" points="722.98,-118 722.98,-137 778.98,-137 778.98,-118 722.98,-118"/>
<text text-anchor="middle" x="750.98" y="-125" font-family="Helvetica,sans-Serif" font-size="10.00">iomanip</text>
</a>
</g>
</g>
<!-- Node11&#45;&gt;Node16 -->
<g id="edge18" class="edge">
<title>Node11&#45;&gt;Node16</title>
<path fill="none" stroke="midnightblue" d="M678.16,-179.48C691.79,-169.93 714.11,-154.31 730.46,-142.87"/>
<polygon fill="midnightblue" stroke="midnightblue" points="732.64,-145.61 738.83,-137.01 728.63,-139.88 732.64,-145.61"/>
</g>
<!-- Node17 -->
<g id="node17" class="node">
<title>Node17</title>
<g id="a_node17"><a xlink:title=" ">
<polygon fill="none" stroke="#bfbfbf" points="1076.98,-118 1076.98,-137 1126.98,-137 1126.98,-118 1076.98,-118"/>
<text text-anchor="middle" x="1101.98" y="-125" font-family="Helvetica,sans-Serif" font-size="10.00">chrono</text>
</a>
</g>
</g>
<!-- Node11&#45;&gt;Node17 -->
<g id="edge19" class="edge">
<title>Node11&#45;&gt;Node17</title>
<path fill="none" stroke="midnightblue" d="M700.08,-184.19C795.5,-173.52 1058.56,-144.05 1062.98,-143 1065.98,-142.28 1069.06,-141.41 1072.11,-140.44"/>
<polygon fill="midnightblue" stroke="midnightblue" points="1073.33,-143.72 1081.63,-137.13 1071.03,-137.11 1073.33,-143.72"/>
</g>
<!-- Node18 -->
<g id="node18" class="node">
<title>Node18</title>
<g id="a_node18"><a xlink:title=" ">
<polygon fill="none" stroke="#bfbfbf" points="463.98,-118 463.98,-137 513.98,-137 513.98,-118 463.98,-118"/>
<text text-anchor="middle" x="488.98" y="-125" font-family="Helvetica,sans-Serif" font-size="10.00">cstdint</text>
</a>
</g>
</g>
<!-- Node11&#45;&gt;Node18 -->
<g id="edge20" class="edge">
<title>Node11&#45;&gt;Node18</title>
<path fill="none" stroke="midnightblue" d="M636.36,-179.42C607.46,-170.86 562.37,-157 523.98,-143 522.13,-142.32 520.23,-141.61 518.32,-140.87"/>
<polygon fill="midnightblue" stroke="midnightblue" points="519.44,-137.55 508.85,-137.08 516.84,-144.05 519.44,-137.55"/>
</g>
<!-- Node11&#45;&gt;Node19 -->
<g id="edge22" class="edge">
<title>Node11&#45;&gt;Node19</title>
<path fill="none" stroke="midnightblue" d="M631.65,-182.76C578.51,-174.6 473.18,-158.2 383.98,-143 382.73,-142.79 381.47,-142.57 380.19,-142.35"/>
<polygon fill="midnightblue" stroke="midnightblue" points="380.77,-138.9 370.32,-140.63 379.57,-145.8 380.77,-138.9"/>
</g>
<!-- Node11&#45;&gt;Node21 -->
<g id="edge26" class="edge">
<title>Node11&#45;&gt;Node21</title>
<path fill="none" stroke="midnightblue" d="M631.95,-185.65C535.66,-178.83 265.83,-158.55 228.98,-143 226.82,-142.09 181.6,-103.95 155.74,-82.05"/>
<polygon fill="midnightblue" stroke="midnightblue" points="157.99,-79.38 148.1,-75.58 153.47,-84.72 157.99,-79.38"/>
</g>
<!-- Node23 -->
<g id="node23" class="node">
<title>Node23</title>
<g id="a_node23"><a xlink:title=" ">
<polygon fill="none" stroke="#bfbfbf" points="532.48,-118 532.48,-137 637.48,-137 637.48,-118 532.48,-118"/>
<text text-anchor="middle" x="584.98" y="-125" font-family="Helvetica,sans-Serif" font-size="10.00">../include/json.hpp</text>
</a>
</g>
</g>
<!-- Node11&#45;&gt;Node23 -->
<g id="edge31" class="edge">
<title>Node11&#45;&gt;Node23</title>
<path fill="none" stroke="midnightblue" d="M654.38,-179.48C641.5,-170.02 620.51,-154.6 604.98,-143.19"/>
<polygon fill="midnightblue" stroke="midnightblue" points="606.7,-140.11 596.57,-137.01 602.55,-145.75 606.7,-140.11"/>
</g>
<!-- Node19&#45;&gt;Node3 -->
<g id="edge23" class="edge">
<title>Node19&#45;&gt;Node3</title>
<path fill="none" stroke="midnightblue" d="M370.33,-116.58C462.45,-102.83 634.35,-77.28 780.98,-56 884.54,-40.97 1007.25,-23.63 1064.52,-15.56"/>
<polygon fill="midnightblue" stroke="midnightblue" points="1065.34,-18.98 1074.76,-14.12 1064.36,-12.05 1065.34,-18.98"/>
</g>
<!-- Node19&#45;&gt;Node9 -->
<g id="edge24" class="edge">
<title>Node19&#45;&gt;Node9</title>
<path fill="none" stroke="midnightblue" d="M303.27,-112.4C302.87,-104.47 302.37,-94.46 301.93,-85.86"/>
<polygon fill="midnightblue" stroke="midnightblue" points="305.42,-85.47 301.42,-75.66 298.43,-85.82 305.42,-85.47"/>
</g>
<!-- Node20 -->
<g id="node20" class="node">
<title>Node20</title>
<g id="a_node20"><a xlink:title=" ">
<polygon fill="none" stroke="#bfbfbf" points="160.98,-0.5 160.98,-19.5 274.98,-19.5 274.98,-0.5 160.98,-0.5"/>
<text text-anchor="middle" x="217.98" y="-7.5" font-family="Helvetica,sans-Serif" font-size="10.00">../../include/json.hpp</text>
</a>
</g>
</g>
<!-- Node19&#45;&gt;Node20 -->
<g id="edge25" class="edge">
<title>Node19&#45;&gt;Node20</title>
<path fill="none" stroke="midnightblue" d="M282.94,-112.36C270.57,-103.18 255.36,-90.29 244.98,-76 234.67,-61.8 227.43,-43.08 223.06,-29.38"/>
<polygon fill="midnightblue" stroke="midnightblue" points="226.37,-28.23 220.17,-19.64 219.66,-30.23 226.37,-28.23"/>
</g>
<!-- Node21&#45;&gt;Node3 -->
<g id="edge30" class="edge">
<title>Node21&#45;&gt;Node3</title>
<path fill="none" stroke="midnightblue" d="M197.66,-59.65C213.07,-58.36 229.64,-57.05 244.98,-56 564.58,-34.12 952.26,-17.09 1064.89,-12.33"/>
<polygon fill="midnightblue" stroke="midnightblue" points="1065.07,-15.83 1074.92,-11.91 1064.78,-8.84 1065.07,-15.83"/>
</g>
<!-- Node21&#45;&gt;Node14 -->
<g id="edge29" class="edge">
<title>Node21&#45;&gt;Node14</title>
<path fill="none" stroke="midnightblue" d="M181.71,-56.44C238.64,-45.31 336.57,-26.15 385.05,-16.66"/>
<polygon fill="midnightblue" stroke="midnightblue" points="385.75,-20.09 394.89,-14.74 384.4,-13.22 385.75,-20.09"/>
</g>
<!-- Node21&#45;&gt;Node20 -->
<g id="edge28" class="edge">
<title>Node21&#45;&gt;Node20</title>
<path fill="none" stroke="midnightblue" d="M150.84,-56.32C163.2,-47.98 182.11,-35.21 196.72,-25.35"/>
<polygon fill="midnightblue" stroke="midnightblue" points="198.83,-28.15 205.16,-19.65 194.91,-22.35 198.83,-28.15"/>
</g>
<!-- Node22 -->
<g id="node22" class="node">
<title>Node22</title>
<g id="a_node22"><a xlink:title=" ">
<polygon fill="none" stroke="#bfbfbf" points="13.48,-0.5 13.48,-19.5 142.48,-19.5 142.48,-0.5 13.48,-0.5"/>
<text text-anchor="middle" x="77.98" y="-7.5" font-family="Helvetica,sans-Serif" font-size="10.00">../../include/base64.hpp</text>
</a>
</g>
</g>
<!-- Node21&#45;&gt;Node22 -->
<g id="edge27" class="edge">
<title>Node21&#45;&gt;Node22</title>
<path fill="none" stroke="midnightblue" d="M128.34,-56.32C119.47,-48.34 106.11,-36.31 95.37,-26.65"/>
<polygon fill="midnightblue" stroke="midnightblue" points="97.57,-23.92 87.8,-19.83 92.89,-29.13 97.57,-23.92"/>
</g>
<!-- Node24&#45;&gt;Node12 -->
<g id="edge35" class="edge">
<title>Node24&#45;&gt;Node12</title>
<path fill="none" stroke="midnightblue" d="M435.29,-179.38C434.54,-163.42 435.47,-129.35 454.98,-112 502.92,-69.39 706.12,-66.35 779.46,-66.68"/>
<polygon fill="midnightblue" stroke="midnightblue" points="779.66,-70.18 789.68,-66.75 779.71,-63.18 779.66,-70.18"/>
</g>
<!-- Node25 -->
<g id="node25" class="node">
<title>Node25</title>
<g id="a_node25"><a xlink:href="event__row_8hpp.html" target="_top" xlink:title=" ">
<polygon fill="none" stroke="black" points="93.98,-118 93.98,-137 181.98,-137 181.98,-118 93.98,-118"/>
<text text-anchor="middle" x="137.98" y="-125" font-family="Helvetica,sans-Serif" font-size="10.00">event_row.hpp</text>
</a>
</g>
</g>
<!-- Node24&#45;&gt;Node25 -->
<g id="edge33" class="edge">
<title>Node24&#45;&gt;Node25</title>
<path fill="none" stroke="midnightblue" d="M385.7,-179.47C337.02,-171 261.21,-157.26 195.98,-143 190.98,-141.91 185.75,-140.7 180.56,-139.45"/>
<polygon fill="midnightblue" stroke="midnightblue" points="181.27,-136.02 170.72,-137.05 179.6,-142.82 181.27,-136.02"/>
</g>
<!-- Node25&#45;&gt;Node21 -->
<g id="edge34" class="edge">
<title>Node25&#45;&gt;Node21</title>
<path fill="none" stroke="midnightblue" d="M137.98,-117.98C137.98,-109.58 137.98,-96.48 137.98,-85.66"/>
<polygon fill="midnightblue" stroke="midnightblue" points="141.48,-85.51 137.98,-75.51 134.48,-85.51 141.48,-85.51"/>
</g>
<!-- Node26&#45;&gt;Node3 -->
<g id="edge39" class="edge">
<title>Node26&#45;&gt;Node3</title>
<path fill="none" stroke="midnightblue" d="M1228.68,-117.79C1219.67,-103.5 1200.16,-74.8 1177.98,-56 1162.49,-42.87 1142.59,-31.74 1126.38,-23.84"/>
<polygon fill="midnightblue" stroke="midnightblue" points="1127.87,-20.67 1117.33,-19.57 1124.88,-27.01 1127.87,-20.67"/>
</g>
<!-- Node26&#45;&gt;Node4 -->
<g id="edge40" class="edge">
<title>Node26&#45;&gt;Node4</title>
<path fill="none" stroke="midnightblue" d="M1220.66,-117.98C1205.6,-108.34 1180.87,-92.52 1162.94,-81.05"/>
<polygon fill="midnightblue" stroke="midnightblue" points="1164.59,-77.95 1154.28,-75.51 1160.82,-83.85 1164.59,-77.95"/>
</g>
<!-- Node27 -->
<g id="node27" class="node">
<title>Node27</title>
<g id="a_node27"><a xlink:title=" ">
<polygon fill="none" stroke="#bfbfbf" points="1224.98,-56.5 1224.98,-75.5 1268.98,-75.5 1268.98,-56.5 1224.98,-56.5"/>
<text text-anchor="middle" x="1246.98" y="-63.5" font-family="Helvetica,sans-Serif" font-size="10.00">regex</text>
</a>
</g>
</g>
<!-- Node26&#45;&gt;Node27 -->
<g id="edge41" class="edge">
<title>Node26&#45;&gt;Node27</title>
<path fill="none" stroke="midnightblue" d="M1235.84,-117.98C1237.7,-109.49 1240.6,-96.2 1242.98,-85.32"/>
<polygon fill="midnightblue" stroke="midnightblue" points="1246.41,-86.03 1245.12,-75.51 1239.57,-84.53 1246.41,-86.03"/>
</g>
<!-- Node28&#45;&gt;Node12 -->
<g id="edge44" class="edge">
<title>Node28&#45;&gt;Node12</title>
<path fill="none" stroke="midnightblue" d="M899.07,-112.4C878.36,-102.3 850.75,-88.83 830.99,-79.2"/>
<polygon fill="midnightblue" stroke="midnightblue" points="832.51,-76.04 821.98,-74.8 829.44,-82.33 832.51,-76.04"/>
</g>
<!-- Node28&#45;&gt;Node13 -->
<g id="edge43" class="edge">
<title>Node28&#45;&gt;Node13</title>
<path fill="none" stroke="midnightblue" d="M914.24,-112.4C905.63,-103.58 894.53,-92.18 885.6,-83.02"/>
<polygon fill="midnightblue" stroke="midnightblue" points="887.91,-80.38 878.42,-75.66 882.9,-85.26 887.91,-80.38"/>
</g>
<!-- Node28&#45;&gt;Node14 -->
<g id="edge45" class="edge">
<title>Node28&#45;&gt;Node14</title>
<path fill="none" stroke="midnightblue" d="M928.57,-112.38C928.41,-96.09 925.38,-69.79 908.98,-56 873.25,-25.96 544.33,-14.55 443.33,-11.74"/>
<polygon fill="midnightblue" stroke="midnightblue" points="443.32,-8.24 433.23,-11.47 443.13,-15.24 443.32,-8.24"/>
</g>
<!-- Node29&#45;&gt;Node3 -->
<g id="edge47" class="edge">
<title>Node29&#45;&gt;Node3</title>
<path fill="none" stroke="midnightblue" d="M1279.86,-179.37C1284.54,-170.55 1291.29,-156.3 1293.98,-143 1301.78,-104.47 1306.26,-83.31 1277.98,-56 1256.92,-35.65 1175.23,-21.59 1129.13,-15.09"/>
<polygon fill="midnightblue" stroke="midnightblue" points="1129.43,-11.6 1119.05,-13.71 1128.48,-18.54 1129.43,-11.6"/>
</g>
<!-- Node29&#45;&gt;Node26 -->
<g id="edge48" class="edge">
<title>Node29&#45;&gt;Node26</title>
<path fill="none" stroke="midnightblue" d="M1269.11,-179.48C1263.02,-170.64 1253.34,-156.59 1245.68,-145.48"/>
<polygon fill="midnightblue" stroke="midnightblue" points="1248.4,-143.26 1239.85,-137.01 1242.64,-147.23 1248.4,-143.26"/>
</g>
<!-- Node29&#45;&gt;Node28 -->
<g id="edge49" class="edge">
<title>Node29&#45;&gt;Node28</title>
<path fill="none" stroke="midnightblue" d="M1225.27,-179.48C1164.21,-169.01 1060.5,-151.22 993.13,-139.67"/>
<polygon fill="midnightblue" stroke="midnightblue" points="993.5,-136.18 983.05,-137.94 992.31,-143.08 993.5,-136.18"/>
</g>
<!-- Node30&#45;&gt;Node17 -->
<g id="edge51" class="edge">
<title>Node30&#45;&gt;Node17</title>
<path fill="none" stroke="midnightblue" d="M848.1,-181.1C911.79,-171.4 1023.3,-153.7 1062.98,-143 1065.79,-142.24 1068.69,-141.36 1071.57,-140.42"/>
<polygon fill="midnightblue" stroke="midnightblue" points="1072.89,-143.67 1081.16,-137.05 1070.57,-137.06 1072.89,-143.67"/>
</g>
<!-- Node31&#45;&gt;Node3 -->
<g id="edge54" class="edge">
<title>Node31&#45;&gt;Node3</title>
<path fill="none" stroke="midnightblue" d="M1325.16,-237.41C1345.18,-229.85 1366.23,-217.84 1377.98,-199 1411.61,-145.07 1419.22,-104.36 1377.98,-56 1346.34,-18.89 1196.36,-12.25 1129.4,-11.16"/>
<polygon fill="midnightblue" stroke="midnightblue" points="1129.44,-7.66 1119.4,-11.03 1129.35,-14.66 1129.44,-7.66"/>
</g>
<!-- Node31&#45;&gt;Node29 -->
<g id="edge53" class="edge">
<title>Node31&#45;&gt;Node29</title>
<path fill="none" stroke="midnightblue" d="M1274.98,-235.4C1274.98,-227.47 1274.98,-217.46 1274.98,-208.86"/>
<polygon fill="midnightblue" stroke="midnightblue" points="1278.48,-208.66 1274.98,-198.66 1271.48,-208.66 1278.48,-208.66"/>
</g>
</g>
</svg>
