<?xml version="1.0" encoding="UTF-8" standalone="no"?>
<!DOCTYPE svg PUBLIC "-//W3C//DTD SVG 1.1//EN"
 "http://www.w3.org/Graphics/SVG/1.1/DTD/svg11.dtd">
<!-- Generated by graphviz version 2.43.0 (0)
 -->
<!-- Title: src/payload/event_payload.cpp Pages: 1 -->
<svg width="1006pt" height="263pt"
 viewBox="0.00 0.00 1006.32 263.00" xmlns="http://www.w3.org/2000/svg" xmlns:xlink="http://www.w3.org/1999/xlink">
<g id="graph0" class="graph" transform="scale(1 1) rotate(0) translate(4 259)">
<title>src/payload/event_payload.cpp</title>
<!-- Node1 -->
<g id="node1" class="node">
<title>Node1</title>
<g id="a_node1"><a xlink:title=" ">
<polygon fill="#bfbfbf" stroke="black" points="159.32,-235.5 159.32,-254.5 327.32,-254.5 327.32,-235.5 159.32,-235.5"/>
<text text-anchor="middle" x="243.32" y="-242.5" font-family="Helvetica,sans-Serif" font-size="10.00">src/payload/event_payload.cpp</text>
</a>
</g>
</g>
<!-- Node2 -->
<g id="node2" class="node">
<title>Node2</title>
<g id="a_node2"><a xlink:href="event__payload_8hpp.html" target="_top" xlink:title=" ">
<polygon fill="none" stroke="black" points="9.32,-179.5 9.32,-198.5 119.32,-198.5 119.32,-179.5 9.32,-179.5"/>
<text text-anchor="middle" x="64.32" y="-186.5" font-family="Helvetica,sans-Serif" font-size="10.00">event_payload.hpp</text>
</a>
</g>
</g>
<!-- Node1&#45;&gt;Node2 -->
<g id="edge1" class="edge">
<title>Node1&#45;&gt;Node2</title>
<path fill="none" stroke="midnightblue" d="M214.96,-235.44C184.59,-226.28 136.21,-211.69 102.51,-201.52"/>
<polygon fill="midnightblue" stroke="midnightblue" points="103.14,-198.05 92.55,-198.52 101.12,-204.76 103.14,-198.05"/>
</g>
<!-- Node8 -->
<g id="node8" class="node">
<title>Node8</title>
<g id="a_node8"><a xlink:href="utils_8hpp.html" target="_top" xlink:title=" ">
<polygon fill="none" stroke="black" points="435.32,-179.5 435.32,-198.5 503.32,-198.5 503.32,-179.5 435.32,-179.5"/>
<text text-anchor="middle" x="469.32" y="-186.5" font-family="Helvetica,sans-Serif" font-size="10.00">../utils.hpp</text>
</a>
</g>
</g>
<!-- Node1&#45;&gt;Node8 -->
<g id="edge8" class="edge">
<title>Node1&#45;&gt;Node8</title>
<path fill="none" stroke="midnightblue" d="M279.13,-235.44C318.77,-225.97 382.68,-210.7 425.34,-200.51"/>
<polygon fill="midnightblue" stroke="midnightblue" points="426.25,-203.89 435.16,-198.16 424.62,-197.08 426.25,-203.89"/>
</g>
<!-- Node3 -->
<g id="node3" class="node">
<title>Node3</title>
<g id="a_node3"><a xlink:href="payload_8hpp.html" target="_top" xlink:title=" ">
<polygon fill="none" stroke="black" points="25.82,-118 25.82,-137 102.82,-137 102.82,-118 25.82,-118"/>
<text text-anchor="middle" x="64.32" y="-125" font-family="Helvetica,sans-Serif" font-size="10.00">payload.hpp</text>
</a>
</g>
</g>
<!-- Node2&#45;&gt;Node3 -->
<g id="edge2" class="edge">
<title>Node2&#45;&gt;Node3</title>
<path fill="none" stroke="midnightblue" d="M64.32,-179.48C64.32,-171.08 64.32,-157.98 64.32,-147.16"/>
<polygon fill="midnightblue" stroke="midnightblue" points="67.82,-147.01 64.32,-137.01 60.82,-147.01 67.82,-147.01"/>
</g>
<!-- Node7 -->
<g id="node7" class="node">
<title>Node7</title>
<g id="a_node7"><a xlink:title=" ">
<polygon fill="none" stroke="#bfbfbf" points="614.32,-0.5 614.32,-19.5 658.32,-19.5 658.32,-0.5 614.32,-0.5"/>
<text text-anchor="middle" x="636.32" y="-7.5" font-family="Helvetica,sans-Serif" font-size="10.00">string</text>
</a>
</g>
</g>
<!-- Node2&#45;&gt;Node7 -->
<g id="edge7" class="edge">
<title>Node2&#45;&gt;Node7</title>
<path fill="none" stroke="midnightblue" d="M49.95,-179.33C38.44,-171.47 23.14,-158.72 16.32,-143 0.95,-107.52 -10.01,-84.31 16.32,-56 56.59,-12.71 482.22,-10.56 603.96,-10.84"/>
<polygon fill="midnightblue" stroke="midnightblue" points="604.13,-14.34 614.14,-10.87 604.15,-7.34 604.13,-14.34"/>
</g>
<!-- Node4 -->
<g id="node4" class="node">
<title>Node4</title>
<g id="a_node4"><a xlink:title=" ">
<polygon fill="none" stroke="#bfbfbf" points="25.82,-56.5 25.82,-75.5 154.82,-75.5 154.82,-56.5 25.82,-56.5"/>
<text text-anchor="middle" x="90.32" y="-63.5" font-family="Helvetica,sans-Serif" font-size="10.00">../../include/base64.hpp</text>
</a>
</g>
</g>
<!-- Node3&#45;&gt;Node4 -->
<g id="edge3" class="edge">
<title>Node3&#45;&gt;Node4</title>
<path fill="none" stroke="midnightblue" d="M68.05,-117.98C71.8,-109.4 77.68,-95.93 82.47,-84.98"/>
<polygon fill="midnightblue" stroke="midnightblue" points="85.81,-86.07 86.61,-75.51 79.39,-83.27 85.81,-86.07"/>
</g>
<!-- Node5 -->
<g id="node5" class="node">
<title>Node5</title>
<g id="a_node5"><a xlink:title=" ">
<polygon fill="none" stroke="#bfbfbf" points="466.32,-56.5 466.32,-75.5 580.32,-75.5 580.32,-56.5 466.32,-56.5"/>
<text text-anchor="middle" x="523.32" y="-63.5" font-family="Helvetica,sans-Serif" font-size="10.00">../../include/json.hpp</text>
</a>
</g>
</g>
<!-- Node3&#45;&gt;Node5 -->
<g id="edge4" class="edge">
<title>Node3&#45;&gt;Node5</title>
<path fill="none" stroke="midnightblue" d="M88.97,-117.93C96.11,-115.71 103.97,-113.52 111.32,-112 175.38,-98.75 356.26,-81.62 455.72,-72.81"/>
<polygon fill="midnightblue" stroke="midnightblue" points="456.31,-76.27 465.96,-71.9 455.7,-69.3 456.31,-76.27"/>
</g>
<!-- Node6 -->
<g id="node6" class="node">
<title>Node6</title>
<g id="a_node6"><a xlink:title=" ">
<polygon fill="none" stroke="#bfbfbf" points="353.32,-56.5 353.32,-75.5 391.32,-75.5 391.32,-56.5 353.32,-56.5"/>
<text text-anchor="middle" x="372.32" y="-63.5" font-family="Helvetica,sans-Serif" font-size="10.00">map</text>
</a>
</g>
</g>
<!-- Node3&#45;&gt;Node6 -->
<g id="edge5" class="edge">
<title>Node3&#45;&gt;Node6</title>
<path fill="none" stroke="midnightblue" d="M90.02,-117.92C96.89,-115.81 104.35,-113.67 111.32,-112 194.47,-92.09 294.52,-77.36 343.06,-70.79"/>
<polygon fill="midnightblue" stroke="midnightblue" points="343.71,-74.24 353.16,-69.44 342.78,-67.3 343.71,-74.24"/>
</g>
<!-- Node3&#45;&gt;Node7 -->
<g id="edge6" class="edge">
<title>Node3&#45;&gt;Node7</title>
<path fill="none" stroke="midnightblue" d="M91.08,-117.92C97.68,-115.9 104.74,-113.81 111.32,-112 214.04,-83.84 239.83,-76.57 344.32,-56 438.22,-37.52 550.34,-22.07 604.25,-15.06"/>
<polygon fill="midnightblue" stroke="midnightblue" points="604.77,-18.52 614.24,-13.77 603.87,-11.58 604.77,-18.52"/>
</g>
<!-- Node8&#45;&gt;Node3 -->
<g id="edge25" class="edge">
<title>Node8&#45;&gt;Node3</title>
<path fill="none" stroke="midnightblue" d="M435.18,-185.7C371.12,-180.94 228.75,-168.29 111.32,-143 107.4,-142.15 103.33,-141.13 99.3,-140.02"/>
<polygon fill="midnightblue" stroke="midnightblue" points="100.06,-136.6 89.48,-137.14 98.09,-143.31 100.06,-136.6"/>
</g>
<!-- Node8&#45;&gt;Node6 -->
<g id="edge13" class="edge">
<title>Node8&#45;&gt;Node6</title>
<path fill="none" stroke="midnightblue" d="M503.46,-183.92C528.81,-178.91 561.76,-167.76 578.32,-143 585.99,-131.55 586.96,-122.73 578.32,-112 567.24,-98.23 455.64,-79.63 401.49,-71.32"/>
<polygon fill="midnightblue" stroke="midnightblue" points="401.89,-67.84 391.48,-69.8 400.84,-74.76 401.89,-67.84"/>
</g>
<!-- Node8&#45;&gt;Node7 -->
<g id="edge10" class="edge">
<title>Node8&#45;&gt;Node7</title>
<path fill="none" stroke="midnightblue" d="M503.58,-184.39C532.13,-179.61 571.93,-168.55 596.32,-143 626.41,-111.49 633.93,-58.1 635.77,-29.84"/>
<polygon fill="midnightblue" stroke="midnightblue" points="639.27,-29.87 636.25,-19.72 632.28,-29.54 639.27,-29.87"/>
</g>
<!-- Node9 -->
<g id="node9" class="node">
<title>Node9</title>
<g id="a_node9"><a xlink:title=" ">
<polygon fill="none" stroke="#bfbfbf" points="814.32,-118 814.32,-137 846.32,-137 846.32,-118 814.32,-118"/>
<text text-anchor="middle" x="830.32" y="-125" font-family="Helvetica,sans-Serif" font-size="10.00">list</text>
</a>
</g>
</g>
<!-- Node8&#45;&gt;Node9 -->
<g id="edge9" class="edge">
<title>Node8&#45;&gt;Node9</title>
<path fill="none" stroke="midnightblue" d="M503.71,-187.78C565.68,-186.44 699.51,-179.17 805.32,-143 806.39,-142.63 807.47,-142.22 808.54,-141.77"/>
<polygon fill="midnightblue" stroke="midnightblue" points="810.49,-144.7 817.81,-137.04 807.31,-138.47 810.49,-144.7"/>
</g>
<!-- Node10 -->
<g id="node10" class="node">
<title>Node10</title>
<g id="a_node10"><a xlink:title=" ">
<polygon fill="none" stroke="#bfbfbf" points="864.32,-118 864.32,-137 920.32,-137 920.32,-118 864.32,-118"/>
<text text-anchor="middle" x="892.32" y="-125" font-family="Helvetica,sans-Serif" font-size="10.00">sstream</text>
</a>
</g>
</g>
<!-- Node8&#45;&gt;Node10 -->
<g id="edge11" class="edge">
<title>Node8&#45;&gt;Node10</title>
<path fill="none" stroke="midnightblue" d="M503.41,-186.96C571.34,-184.26 728.01,-174.8 855.32,-143 857.99,-142.33 860.73,-141.52 863.44,-140.63"/>
<polygon fill="midnightblue" stroke="midnightblue" points="864.84,-143.84 873.05,-137.14 862.45,-137.27 864.84,-143.84"/>
</g>
<!-- Node11 -->
<g id="node11" class="node">
<title>Node11</title>
<g id="a_node11"><a xlink:title=" ">
<polygon fill="none" stroke="#bfbfbf" points="938.32,-118 938.32,-137 998.32,-137 998.32,-118 938.32,-118"/>
<text text-anchor="middle" x="968.32" y="-125" font-family="Helvetica,sans-Serif" font-size="10.00">iostream</text>
</a>
</g>
</g>
<!-- Node8&#45;&gt;Node11 -->
<g id="edge12" class="edge">
<title>Node8&#45;&gt;Node11</title>
<path fill="none" stroke="midnightblue" d="M503.57,-187.66C580.63,-186.23 773.14,-179.03 929.32,-143 932.39,-142.29 935.55,-141.4 938.67,-140.42"/>
<polygon fill="midnightblue" stroke="midnightblue" points="940.09,-143.63 948.39,-137.04 937.79,-137.02 940.09,-143.63"/>
</g>
<!-- Node12 -->
<g id="node12" class="node">
<title>Node12</title>
<g id="a_node12"><a xlink:title=" ">
<polygon fill="none" stroke="#bfbfbf" points="120.82,-118 120.82,-137 169.82,-137 169.82,-118 120.82,-118"/>
<text text-anchor="middle" x="145.32" y="-125" font-family="Helvetica,sans-Serif" font-size="10.00">cctype</text>
</a>
</g>
</g>
<!-- Node8&#45;&gt;Node12 -->
<g id="edge14" class="edge">
<title>Node8&#45;&gt;Node12</title>
<path fill="none" stroke="midnightblue" d="M435.25,-185.48C380.44,-180.81 269.7,-168.85 179.32,-143 177.03,-142.34 174.69,-141.58 172.36,-140.74"/>
<polygon fill="midnightblue" stroke="midnightblue" points="173.6,-137.46 163.02,-137.03 171.02,-143.97 173.6,-137.46"/>
</g>
<!-- Node13 -->
<g id="node13" class="node">
<title>Node13</title>
<g id="a_node13"><a xlink:title=" ">
<polygon fill="none" stroke="#bfbfbf" points="188.32,-118 188.32,-137 244.32,-137 244.32,-118 188.32,-118"/>
<text text-anchor="middle" x="216.32" y="-125" font-family="Helvetica,sans-Serif" font-size="10.00">iomanip</text>
</a>
</g>
</g>
<!-- Node8&#45;&gt;Node13 -->
<g id="edge15" class="edge">
<title>Node8&#45;&gt;Node13</title>
<path fill="none" stroke="midnightblue" d="M435.21,-182.72C392.27,-175.65 316.47,-161.8 253.32,-143 250.89,-142.28 248.4,-141.46 245.91,-140.6"/>
<polygon fill="midnightblue" stroke="midnightblue" points="247.06,-137.29 236.47,-137.1 244.63,-143.86 247.06,-137.29"/>
</g>
<!-- Node14 -->
<g id="node14" class="node">
<title>Node14</title>
<g id="a_node14"><a xlink:title=" ">
<polygon fill="none" stroke="#bfbfbf" points="262.32,-118 262.32,-137 312.32,-137 312.32,-118 262.32,-118"/>
<text text-anchor="middle" x="287.32" y="-125" font-family="Helvetica,sans-Serif" font-size="10.00">chrono</text>
</a>
</g>
</g>
<!-- Node8&#45;&gt;Node14 -->
<g id="edge16" class="edge">
<title>Node8&#45;&gt;Node14</title>
<path fill="none" stroke="midnightblue" d="M437.82,-179.49C407.63,-171.08 360.94,-157.42 321.32,-143 319.67,-142.4 317.97,-141.75 316.27,-141.09"/>
<polygon fill="midnightblue" stroke="midnightblue" points="317.18,-137.68 306.6,-137.15 314.54,-144.16 317.18,-137.68"/>
</g>
<!-- Node15 -->
<g id="node15" class="node">
<title>Node15</title>
<g id="a_node15"><a xlink:title=" ">
<polygon fill="none" stroke="#bfbfbf" points="330.32,-118 330.32,-137 380.32,-137 380.32,-118 330.32,-118"/>
<text text-anchor="middle" x="355.32" y="-125" font-family="Helvetica,sans-Serif" font-size="10.00">cstdint</text>
</a>
</g>
</g>
<!-- Node8&#45;&gt;Node15 -->
<g id="edge17" class="edge">
<title>Node8&#45;&gt;Node15</title>
<path fill="none" stroke="midnightblue" d="M452.99,-179.48C434.11,-169.62 402.82,-153.29 380.75,-141.77"/>
<polygon fill="midnightblue" stroke="midnightblue" points="382.11,-138.53 371.63,-137.01 378.87,-144.74 382.11,-138.53"/>
</g>
<!-- Node16 -->
<g id="node16" class="node">
<title>Node16</title>
<g id="a_node16"><a xlink:title=" ">
<polygon fill="none" stroke="#bfbfbf" points="398.32,-118 398.32,-137 446.32,-137 446.32,-118 398.32,-118"/>
<text text-anchor="middle" x="422.32" y="-125" font-family="Helvetica,sans-Serif" font-size="10.00">thread</text>
</a>
</g>
</g>
<!-- Node8&#45;&gt;Node16 -->
<g id="edge18" class="edge">
<title>Node8&#45;&gt;Node16</title>
<path fill="none" stroke="midnightblue" d="M462.59,-179.48C455.54,-170.55 444.29,-156.31 435.47,-145.14"/>
<polygon fill="midnightblue" stroke="midnightblue" points="437.99,-142.69 429.05,-137.01 432.5,-147.03 437.99,-142.69"/>
</g>
<!-- Node17 -->
<g id="node17" class="node">
<title>Node17</title>
<g id="a_node17"><a xlink:href="self__describing__json_8hpp.html" target="_top" xlink:title=" ">
<polygon fill="none" stroke="black" points="664.32,-112.5 664.32,-142.5 796.32,-142.5 796.32,-112.5 664.32,-112.5"/>
<text text-anchor="start" x="672.32" y="-130.5" font-family="Helvetica,sans-Serif" font-size="10.00">payload/self_describing</text>
<text text-anchor="middle" x="730.32" y="-119.5" font-family="Helvetica,sans-Serif" font-size="10.00">_json.hpp</text>
</a>
</g>
</g>
<!-- Node8&#45;&gt;Node17 -->
<g id="edge19" class="edge">
<title>Node8&#45;&gt;Node17</title>
<path fill="none" stroke="midnightblue" d="M503.45,-180.22C542.7,-171.27 608.23,-156.33 658.8,-144.81"/>
<polygon fill="midnightblue" stroke="midnightblue" points="659.73,-148.18 668.7,-142.55 658.18,-141.36 659.73,-148.18"/>
</g>
<!-- Node20 -->
<g id="node20" class="node">
<title>Node20</title>
<g id="a_node20"><a xlink:title=" ">
<polygon fill="none" stroke="#bfbfbf" points="464.82,-118 464.82,-137 569.82,-137 569.82,-118 464.82,-118"/>
<text text-anchor="middle" x="517.32" y="-125" font-family="Helvetica,sans-Serif" font-size="10.00">../include/json.hpp</text>
</a>
</g>
</g>
<!-- Node8&#45;&gt;Node20 -->
<g id="edge26" class="edge">
<title>Node8&#45;&gt;Node20</title>
<path fill="none" stroke="midnightblue" d="M476.2,-179.48C483.47,-170.46 495.12,-156.02 504.17,-144.81"/>
<polygon fill="midnightblue" stroke="midnightblue" points="506.91,-146.99 510.46,-137.01 501.46,-142.59 506.91,-146.99"/>
</g>
<!-- Node17&#45;&gt;Node5 -->
<g id="edge24" class="edge">
<title>Node17&#45;&gt;Node5</title>
<path fill="none" stroke="midnightblue" d="M681.53,-112.47C645.35,-102.08 596.66,-88.08 562.89,-78.37"/>
<polygon fill="midnightblue" stroke="midnightblue" points="563.5,-74.91 552.92,-75.51 561.56,-81.63 563.5,-74.91"/>
</g>
<!-- Node17&#45;&gt;Node7 -->
<g id="edge20" class="edge">
<title>Node17&#45;&gt;Node7</title>
<path fill="none" stroke="midnightblue" d="M718.8,-112.34C701.32,-90.86 668.2,-50.17 649.7,-27.43"/>
<polygon fill="midnightblue" stroke="midnightblue" points="652.41,-25.22 643.38,-19.67 646.98,-29.63 652.41,-25.22"/>
</g>
<!-- Node18 -->
<g id="node18" class="node">
<title>Node18</title>
<g id="a_node18"><a xlink:href="constants_8hpp.html" target="_top" xlink:title=" ">
<polygon fill="none" stroke="black" points="702.32,-56.5 702.32,-75.5 796.32,-75.5 796.32,-56.5 702.32,-56.5"/>
<text text-anchor="middle" x="749.32" y="-63.5" font-family="Helvetica,sans-Serif" font-size="10.00">../constants.hpp</text>
</a>
</g>
</g>
<!-- Node17&#45;&gt;Node18 -->
<g id="edge21" class="edge">
<title>Node17&#45;&gt;Node18</title>
<path fill="none" stroke="midnightblue" d="M734.83,-112.4C737.42,-104.29 740.7,-94.01 743.49,-85.28"/>
<polygon fill="midnightblue" stroke="midnightblue" points="746.85,-86.25 746.56,-75.66 740.18,-84.12 746.85,-86.25"/>
</g>
<!-- Node18&#45;&gt;Node7 -->
<g id="edge22" class="edge">
<title>Node18&#45;&gt;Node7</title>
<path fill="none" stroke="midnightblue" d="M731.42,-56.44C713.07,-47.68 684.32,-33.94 663.23,-23.86"/>
<polygon fill="midnightblue" stroke="midnightblue" points="664.68,-20.67 654.15,-19.52 661.66,-26.99 664.68,-20.67"/>
</g>
<!-- Node19 -->
<g id="node19" class="node">
<title>Node19</title>
<g id="a_node19"><a xlink:title=" ">
<polygon fill="none" stroke="#bfbfbf" points="733.32,-0.5 733.32,-19.5 765.32,-19.5 765.32,-0.5 733.32,-0.5"/>
<text text-anchor="middle" x="749.32" y="-7.5" font-family="Helvetica,sans-Serif" font-size="10.00">set</text>
</a>
</g>
</g>
<!-- Node18&#45;&gt;Node19 -->
<g id="edge23" class="edge">
<title>Node18&#45;&gt;Node19</title>
<path fill="none" stroke="midnightblue" d="M749.32,-56.08C749.32,-49.01 749.32,-38.86 749.32,-29.99"/>
<polygon fill="midnightblue" stroke="midnightblue" points="752.82,-29.75 749.32,-19.75 745.82,-29.75 752.82,-29.75"/>
</g>
</g>
</svg>
