<?xml version="1.0" encoding="UTF-8" standalone="no"?>
<!DOCTYPE svg PUBLIC "-//W3C//DTD SVG 1.1//EN"
 "http://www.w3.org/Graphics/SVG/1.1/DTD/svg11.dtd">
<!-- Generated by graphviz version 2.43.0 (0)
 -->
<!-- Title: src/storage/event_store.hpp Pages: 1 -->
<svg width="476pt" height="218pt"
 viewBox="0.00 0.00 475.50 218.00" xmlns="http://www.w3.org/2000/svg" xmlns:xlink="http://www.w3.org/1999/xlink">
<g id="graph0" class="graph" transform="scale(1 1) rotate(0) translate(4 214)">
<title>src/storage/event_store.hpp</title>
<!-- Node1 -->
<g id="node1" class="node">
<title>Node1</title>
<g id="a_node1"><a xlink:title=" ">
<polygon fill="#bfbfbf" stroke="black" points="224,-190.5 224,-209.5 376,-209.5 376,-190.5 224,-190.5"/>
<text text-anchor="middle" x="300" y="-197.5" font-family="Helvetica,sans-Serif" font-size="10.00">src/storage/event_store.hpp</text>
</a>
</g>
</g>
<!-- Node2 -->
<g id="node2" class="node">
<title>Node2</title>
<g id="a_node2"><a xlink:href="emitter_8hpp.html" target="_top" xlink:title=" ">
<polygon fill="none" stroke="black" points="134.5,-129 134.5,-148 263.5,-148 263.5,-129 134.5,-129"/>
<text text-anchor="middle" x="199" y="-136" font-family="Helvetica,sans-Serif" font-size="10.00">src/emitter/emitter.hpp</text>
</a>
</g>
</g>
<!-- Node1&#45;&gt;Node2 -->
<g id="edge1" class="edge">
<title>Node1&#45;&gt;Node2</title>
<path fill="none" stroke="midnightblue" d="M276.65,-185.24C257.14,-173.75 229.93,-157.72 213.44,-148.01"/>
<polygon fill="midnightblue" stroke="midnightblue" points="275.14,-188.41 285.53,-190.48 278.69,-182.38 275.14,-188.41"/>
</g>
<!-- Node4 -->
<g id="node4" class="node">
<title>Node4</title>
<g id="a_node4"><a xlink:href="snowplow_8hpp.html" target="_top" xlink:title=" ">
<polygon fill="none" stroke="black" points="248.5,-0.5 248.5,-19.5 351.5,-19.5 351.5,-0.5 248.5,-0.5"/>
<text text-anchor="middle" x="300" y="-7.5" font-family="Helvetica,sans-Serif" font-size="10.00">src/snowplow.hpp</text>
</a>
</g>
</g>
<!-- Node1&#45;&gt;Node4 -->
<g id="edge7" class="edge">
<title>Node1&#45;&gt;Node4</title>
<path fill="none" stroke="midnightblue" d="M300,-180.24C300,-140.31 300,-48.2 300,-19.62"/>
<polygon fill="midnightblue" stroke="midnightblue" points="296.5,-180.43 300,-190.43 303.5,-180.43 296.5,-180.43"/>
</g>
<!-- Node7 -->
<g id="node7" class="node">
<title>Node7</title>
<g id="a_node7"><a xlink:href="sqlite__storage_8hpp.html" target="_top" xlink:title=" ">
<polygon fill="none" stroke="black" points="328.5,-123.5 328.5,-153.5 429.5,-153.5 429.5,-123.5 328.5,-123.5"/>
<text text-anchor="start" x="336.5" y="-141.5" font-family="Helvetica,sans-Serif" font-size="10.00">src/storage/sqlite</text>
<text text-anchor="middle" x="379" y="-130.5" font-family="Helvetica,sans-Serif" font-size="10.00">_storage.hpp</text>
</a>
</g>
</g>
<!-- Node1&#45;&gt;Node7 -->
<g id="edge8" class="edge">
<title>Node1&#45;&gt;Node7</title>
<path fill="none" stroke="midnightblue" d="M319.66,-184.2C332.11,-174.81 348.13,-162.75 360.38,-153.52"/>
<polygon fill="midnightblue" stroke="midnightblue" points="317.2,-181.66 311.32,-190.48 321.41,-187.25 317.2,-181.66"/>
</g>
<!-- Node3 -->
<g id="node3" class="node">
<title>Node3</title>
<g id="a_node3"><a xlink:href="emitter_8cpp.html" target="_top" xlink:title=" ">
<polygon fill="none" stroke="black" points="0,-62 0,-81 128,-81 128,-62 0,-62"/>
<text text-anchor="middle" x="64" y="-69" font-family="Helvetica,sans-Serif" font-size="10.00">src/emitter/emitter.cpp</text>
</a>
</g>
</g>
<!-- Node2&#45;&gt;Node3 -->
<g id="edge2" class="edge">
<title>Node2&#45;&gt;Node3</title>
<path fill="none" stroke="midnightblue" d="M171.88,-124.44C145.14,-111.57 105.03,-92.26 82,-81.17"/>
<polygon fill="midnightblue" stroke="midnightblue" points="170.54,-127.68 181.07,-128.87 173.58,-121.38 170.54,-127.68"/>
</g>
<!-- Node2&#45;&gt;Node4 -->
<g id="edge3" class="edge">
<title>Node2&#45;&gt;Node4</title>
<path fill="none" stroke="midnightblue" d="M213.9,-121.02C222.57,-111.27 233.61,-98.61 243,-87 262.29,-63.15 283.64,-33.84 293.87,-19.59"/>
<polygon fill="midnightblue" stroke="midnightblue" points="211.06,-118.95 206.99,-128.73 216.27,-123.62 211.06,-118.95"/>
</g>
<!-- Node5 -->
<g id="node5" class="node">
<title>Node5</title>
<g id="a_node5"><a xlink:href="tracker_8hpp.html" target="_top" xlink:title=" ">
<polygon fill="none" stroke="black" points="146,-62 146,-81 234,-81 234,-62 146,-62"/>
<text text-anchor="middle" x="190" y="-69" font-family="Helvetica,sans-Serif" font-size="10.00">src/tracker.hpp</text>
</a>
</g>
</g>
<!-- Node2&#45;&gt;Node5 -->
<g id="edge4" class="edge">
<title>Node2&#45;&gt;Node5</title>
<path fill="none" stroke="midnightblue" d="M196.37,-118.54C194.66,-106.17 192.51,-90.62 191.19,-81.13"/>
<polygon fill="midnightblue" stroke="midnightblue" points="192.95,-119.31 197.79,-128.73 199.88,-118.35 192.95,-119.31"/>
</g>
<!-- Node5&#45;&gt;Node4 -->
<g id="edge5" class="edge">
<title>Node5&#45;&gt;Node4</title>
<path fill="none" stroke="midnightblue" d="M214.57,-57.21C235.87,-45.69 266.07,-29.36 284.27,-19.51"/>
<polygon fill="midnightblue" stroke="midnightblue" points="212.89,-54.14 205.76,-61.98 216.22,-60.3 212.89,-54.14"/>
</g>
<!-- Node6 -->
<g id="node6" class="node">
<title>Node6</title>
<g id="a_node6"><a xlink:href="tracker_8cpp.html" target="_top" xlink:title=" ">
<polygon fill="none" stroke="black" points="143.5,-0.5 143.5,-19.5 230.5,-19.5 230.5,-0.5 143.5,-0.5"/>
<text text-anchor="middle" x="187" y="-7.5" font-family="Helvetica,sans-Serif" font-size="10.00">src/tracker.cpp</text>
</a>
</g>
</g>
<!-- Node5&#45;&gt;Node6 -->
<g id="edge6" class="edge">
<title>Node5&#45;&gt;Node6</title>
<path fill="none" stroke="midnightblue" d="M189.06,-51.82C188.51,-41 187.85,-27.9 187.43,-19.51"/>
<polygon fill="midnightblue" stroke="midnightblue" points="185.57,-52.16 189.57,-61.98 192.56,-51.81 185.57,-52.16"/>
</g>
<!-- Node7&#45;&gt;Node4 -->
<g id="edge9" class="edge">
<title>Node7&#45;&gt;Node4</title>
<path fill="none" stroke="midnightblue" d="M364.72,-114.63C346.99,-86.24 317.61,-39.2 305.49,-19.79"/>
<polygon fill="midnightblue" stroke="midnightblue" points="361.98,-116.85 370.24,-123.48 367.92,-113.14 361.98,-116.85"/>
</g>
<!-- Node8 -->
<g id="node8" class="node">
<title>Node8</title>
<g id="a_node8"><a xlink:href="sqlite__storage_8cpp.html" target="_top" xlink:title=" ">
<polygon fill="none" stroke="black" points="366.5,-56.5 366.5,-86.5 467.5,-86.5 467.5,-56.5 366.5,-56.5"/>
<text text-anchor="start" x="374.5" y="-74.5" font-family="Helvetica,sans-Serif" font-size="10.00">src/storage/sqlite</text>
<text text-anchor="middle" x="417" y="-63.5" font-family="Helvetica,sans-Serif" font-size="10.00">_storage.cpp</text>
</a>
</g>
</g>
<!-- Node7&#45;&gt;Node8 -->
<g id="edge10" class="edge">
<title>Node7&#45;&gt;Node8</title>
<path fill="none" stroke="midnightblue" d="M392.4,-114.58C397.86,-105.24 403.99,-94.75 408.77,-86.58"/>
<polygon fill="midnightblue" stroke="midnightblue" points="389.27,-113 387.25,-123.4 395.31,-116.53 389.27,-113"/>
</g>
</g>
</svg>
