<?xml version="1.0" encoding="UTF-8" standalone="no"?>
<!DOCTYPE svg PUBLIC "-//W3C//DTD SVG 1.1//EN"
 "http://www.w3.org/Graphics/SVG/1.1/DTD/svg11.dtd">
<!-- Generated by graphviz version 2.43.0 (0)
 -->
<!-- Title: src/events/event.cpp Pages: 1 -->
<svg width="1297pt" height="263pt"
 viewBox="0.00 0.00 1296.77 263.00" xmlns="http://www.w3.org/2000/svg" xmlns:xlink="http://www.w3.org/1999/xlink">
<g id="graph0" class="graph" transform="scale(1 1) rotate(0) translate(4 259)">
<title>src/events/event.cpp</title>
<!-- Node1 -->
<g id="node1" class="node">
<title>Node1</title>
<g id="a_node1"><a xlink:title=" ">
<polygon fill="#bfbfbf" stroke="black" points="431.77,-235.5 431.77,-254.5 549.77,-254.5 549.77,-235.5 431.77,-235.5"/>
<text text-anchor="middle" x="490.77" y="-242.5" font-family="Helvetica,sans-Serif" font-size="10.00">src/events/event.cpp</text>
</a>
</g>
</g>
<!-- Node2 -->
<g id="node2" class="node">
<title>Node2</title>
<g id="a_node2"><a xlink:href="event_8hpp.html" target="_top" xlink:title=" ">
<polygon fill="none" stroke="black" points="217.27,-179.5 217.27,-198.5 282.27,-198.5 282.27,-179.5 217.27,-179.5"/>
<text text-anchor="middle" x="249.77" y="-186.5" font-family="Helvetica,sans-Serif" font-size="10.00">event.hpp</text>
</a>
</g>
</g>
<!-- Node1&#45;&gt;Node2 -->
<g id="edge1" class="edge">
<title>Node1&#45;&gt;Node2</title>
<path fill="none" stroke="midnightblue" d="M452.58,-235.44C408.9,-225.66 337.58,-209.67 292.2,-199.51"/>
<polygon fill="midnightblue" stroke="midnightblue" points="292.89,-196.08 282.37,-197.3 291.36,-202.91 292.89,-196.08"/>
</g>
<!-- Node14 -->
<g id="node14" class="node">
<title>Node14</title>
<g id="a_node14"><a xlink:href="utils_8hpp.html" target="_top" xlink:title=" ">
<polygon fill="none" stroke="black" points="824.77,-179.5 824.77,-198.5 892.77,-198.5 892.77,-179.5 824.77,-179.5"/>
<text text-anchor="middle" x="858.77" y="-186.5" font-family="Helvetica,sans-Serif" font-size="10.00">../utils.hpp</text>
</a>
</g>
</g>
<!-- Node1&#45;&gt;Node14 -->
<g id="edge22" class="edge">
<title>Node1&#45;&gt;Node14</title>
<path fill="none" stroke="midnightblue" d="M549.08,-235.44C622.76,-224.63 747.95,-206.26 814.35,-196.52"/>
<polygon fill="midnightblue" stroke="midnightblue" points="815.1,-199.95 824.48,-195.03 814.08,-193.02 815.1,-199.95"/>
</g>
<!-- Node3 -->
<g id="node3" class="node">
<title>Node3</title>
<g id="a_node3"><a xlink:href="self__describing__json_8hpp.html" target="_top" xlink:title=" ">
<polygon fill="none" stroke="black" points="263.27,-112.5 263.27,-142.5 404.27,-142.5 404.27,-112.5 263.27,-112.5"/>
<text text-anchor="start" x="271.27" y="-130.5" font-family="Helvetica,sans-Serif" font-size="10.00">../payload/self_describing</text>
<text text-anchor="middle" x="333.77" y="-119.5" font-family="Helvetica,sans-Serif" font-size="10.00">_json.hpp</text>
</a>
</g>
</g>
<!-- Node2&#45;&gt;Node3 -->
<g id="edge2" class="edge">
<title>Node2&#45;&gt;Node3</title>
<path fill="none" stroke="midnightblue" d="M261.81,-179.48C273.18,-171.42 290.68,-159.02 305.57,-148.47"/>
<polygon fill="midnightblue" stroke="midnightblue" points="307.84,-151.16 313.97,-142.52 303.79,-145.45 307.84,-151.16"/>
</g>
<!-- Node4 -->
<g id="node4" class="node">
<title>Node4</title>
<g id="a_node4"><a xlink:title=" ">
<polygon fill="none" stroke="#bfbfbf" points="353.77,-0.5 353.77,-19.5 397.77,-19.5 397.77,-0.5 353.77,-0.5"/>
<text text-anchor="middle" x="375.77" y="-7.5" font-family="Helvetica,sans-Serif" font-size="10.00">string</text>
</a>
</g>
</g>
<!-- Node2&#45;&gt;Node4 -->
<g id="edge20" class="edge">
<title>Node2&#45;&gt;Node4</title>
<path fill="none" stroke="midnightblue" d="M217.11,-188.64C139.76,-189.05 -44.22,-182.82 9.77,-112 101.37,8.15 192.2,-58.93 343.7,-20.14"/>
<polygon fill="midnightblue" stroke="midnightblue" points="345.02,-23.41 353.77,-17.43 343.2,-16.65 345.02,-23.41"/>
</g>
<!-- Node8 -->
<g id="node8" class="node">
<title>Node8</title>
<g id="a_node8"><a xlink:href="event__payload_8hpp.html" target="_top" xlink:title=" ">
<polygon fill="none" stroke="black" points="84.27,-118 84.27,-137 245.27,-137 245.27,-118 84.27,-118"/>
<text text-anchor="middle" x="164.77" y="-125" font-family="Helvetica,sans-Serif" font-size="10.00">../payload/event_payload.hpp</text>
</a>
</g>
</g>
<!-- Node2&#45;&gt;Node8 -->
<g id="edge8" class="edge">
<title>Node2&#45;&gt;Node8</title>
<path fill="none" stroke="midnightblue" d="M237.59,-179.48C223.96,-169.93 201.64,-154.31 185.3,-142.87"/>
<polygon fill="midnightblue" stroke="midnightblue" points="187.13,-139.88 176.93,-137.01 183.11,-145.61 187.13,-139.88"/>
</g>
<!-- Node12 -->
<g id="node12" class="node">
<title>Node12</title>
<g id="a_node12"><a xlink:href="subject_8hpp.html" target="_top" xlink:title=" ">
<polygon fill="none" stroke="black" points="422.77,-118 422.77,-137 504.77,-137 504.77,-118 422.77,-118"/>
<text text-anchor="middle" x="463.77" y="-125" font-family="Helvetica,sans-Serif" font-size="10.00">../subject.hpp</text>
</a>
</g>
</g>
<!-- Node2&#45;&gt;Node12 -->
<g id="edge15" class="edge">
<title>Node2&#45;&gt;Node12</title>
<path fill="none" stroke="midnightblue" d="M281.56,-179.42C314.62,-170.47 367.88,-155.95 413.77,-143 417.38,-141.98 421.12,-140.92 424.87,-139.84"/>
<polygon fill="midnightblue" stroke="midnightblue" points="426.07,-143.14 434.71,-137.01 424.13,-136.41 426.07,-143.14"/>
</g>
<!-- Node13 -->
<g id="node13" class="node">
<title>Node13</title>
<g id="a_node13"><a xlink:title=" ">
<polygon fill="none" stroke="#bfbfbf" points="19.27,-118 19.27,-137 66.27,-137 66.27,-118 19.27,-118"/>
<text text-anchor="middle" x="42.77" y="-125" font-family="Helvetica,sans-Serif" font-size="10.00">vector</text>
</a>
</g>
</g>
<!-- Node2&#45;&gt;Node13 -->
<g id="edge21" class="edge">
<title>Node2&#45;&gt;Node13</title>
<path fill="none" stroke="midnightblue" d="M217.01,-181.36C181.47,-173.75 123.3,-160.09 74.77,-143 73.11,-142.42 71.42,-141.78 69.72,-141.11"/>
<polygon fill="midnightblue" stroke="midnightblue" points="70.72,-137.73 60.15,-137.04 67.98,-144.17 70.72,-137.73"/>
</g>
<!-- Node3&#45;&gt;Node4 -->
<g id="edge3" class="edge">
<title>Node3&#45;&gt;Node4</title>
<path fill="none" stroke="midnightblue" d="M350.57,-112.47C360.25,-103.24 371.52,-90.26 376.77,-76 382.25,-61.11 381.41,-42.96 379.54,-29.63"/>
<polygon fill="midnightblue" stroke="midnightblue" points="382.98,-29.01 377.84,-19.74 376.08,-30.19 382.98,-29.01"/>
</g>
<!-- Node5 -->
<g id="node5" class="node">
<title>Node5</title>
<g id="a_node5"><a xlink:href="constants_8hpp.html" target="_top" xlink:title=" ">
<polygon fill="none" stroke="black" points="273.77,-56.5 273.77,-75.5 367.77,-75.5 367.77,-56.5 273.77,-56.5"/>
<text text-anchor="middle" x="320.77" y="-63.5" font-family="Helvetica,sans-Serif" font-size="10.00">../constants.hpp</text>
</a>
</g>
</g>
<!-- Node3&#45;&gt;Node5 -->
<g id="edge4" class="edge">
<title>Node3&#45;&gt;Node5</title>
<path fill="none" stroke="midnightblue" d="M330.69,-112.4C328.94,-104.38 326.72,-94.23 324.83,-85.57"/>
<polygon fill="midnightblue" stroke="midnightblue" points="328.22,-84.68 322.66,-75.66 321.38,-86.17 328.22,-84.68"/>
</g>
<!-- Node7 -->
<g id="node7" class="node">
<title>Node7</title>
<g id="a_node7"><a xlink:title=" ">
<polygon fill="none" stroke="#bfbfbf" points="415.77,-0.5 415.77,-19.5 529.77,-19.5 529.77,-0.5 415.77,-0.5"/>
<text text-anchor="middle" x="472.77" y="-7.5" font-family="Helvetica,sans-Serif" font-size="10.00">../../include/json.hpp</text>
</a>
</g>
</g>
<!-- Node3&#45;&gt;Node7 -->
<g id="edge7" class="edge">
<title>Node3&#45;&gt;Node7</title>
<path fill="none" stroke="midnightblue" d="M350.82,-112.34C377.11,-90.49 427.36,-48.73 454.43,-26.24"/>
<polygon fill="midnightblue" stroke="midnightblue" points="456.88,-28.75 462.34,-19.67 452.41,-23.37 456.88,-28.75"/>
</g>
<!-- Node5&#45;&gt;Node4 -->
<g id="edge5" class="edge">
<title>Node5&#45;&gt;Node4</title>
<path fill="none" stroke="midnightblue" d="M329.85,-56.08C337.94,-48.14 349.97,-36.34 359.68,-26.8"/>
<polygon fill="midnightblue" stroke="midnightblue" points="362.18,-29.25 366.86,-19.75 357.27,-24.26 362.18,-29.25"/>
</g>
<!-- Node6 -->
<g id="node6" class="node">
<title>Node6</title>
<g id="a_node6"><a xlink:title=" ">
<polygon fill="none" stroke="#bfbfbf" points="303.77,-0.5 303.77,-19.5 335.77,-19.5 335.77,-0.5 303.77,-0.5"/>
<text text-anchor="middle" x="319.77" y="-7.5" font-family="Helvetica,sans-Serif" font-size="10.00">set</text>
</a>
</g>
</g>
<!-- Node5&#45;&gt;Node6 -->
<g id="edge6" class="edge">
<title>Node5&#45;&gt;Node6</title>
<path fill="none" stroke="midnightblue" d="M320.61,-56.08C320.48,-49.01 320.29,-38.86 320.12,-29.99"/>
<polygon fill="midnightblue" stroke="midnightblue" points="323.62,-29.68 319.93,-19.75 316.62,-29.81 323.62,-29.68"/>
</g>
<!-- Node8&#45;&gt;Node4 -->
<g id="edge14" class="edge">
<title>Node8&#45;&gt;Node4</title>
<path fill="none" stroke="midnightblue" d="M175.33,-117.81C193.02,-103.57 230.09,-74.93 264.77,-56 290.37,-42.03 321.24,-29.86 343.91,-21.71"/>
<polygon fill="midnightblue" stroke="midnightblue" points="345.13,-24.99 353.4,-18.37 342.81,-18.39 345.13,-24.99"/>
</g>
<!-- Node9 -->
<g id="node9" class="node">
<title>Node9</title>
<g id="a_node9"><a xlink:href="payload_8hpp.html" target="_top" xlink:title=" ">
<polygon fill="none" stroke="black" points="561.27,-56.5 561.27,-75.5 638.27,-75.5 638.27,-56.5 561.27,-56.5"/>
<text text-anchor="middle" x="599.77" y="-63.5" font-family="Helvetica,sans-Serif" font-size="10.00">payload.hpp</text>
</a>
</g>
</g>
<!-- Node8&#45;&gt;Node9 -->
<g id="edge9" class="edge">
<title>Node8&#45;&gt;Node9</title>
<path fill="none" stroke="midnightblue" d="M215.56,-117.94C228.04,-115.91 241.38,-113.81 253.77,-112 359.45,-96.52 483.69,-81.02 550.79,-72.87"/>
<polygon fill="midnightblue" stroke="midnightblue" points="551.55,-76.3 561.06,-71.62 550.71,-69.35 551.55,-76.3"/>
</g>
<!-- Node9&#45;&gt;Node4 -->
<g id="edge13" class="edge">
<title>Node9&#45;&gt;Node4</title>
<path fill="none" stroke="midnightblue" d="M561.17,-56.64C524.17,-48.48 466.51,-35.4 407.88,-20.19"/>
<polygon fill="midnightblue" stroke="midnightblue" points="408.64,-16.77 398.08,-17.63 406.87,-23.55 408.64,-16.77"/>
</g>
<!-- Node9&#45;&gt;Node7 -->
<g id="edge11" class="edge">
<title>Node9&#45;&gt;Node7</title>
<path fill="none" stroke="midnightblue" d="M579.65,-56.44C558.75,-47.56 525.84,-33.56 502.06,-23.45"/>
<polygon fill="midnightblue" stroke="midnightblue" points="503.37,-20.21 492.8,-19.52 500.63,-26.65 503.37,-20.21"/>
</g>
<!-- Node10 -->
<g id="node10" class="node">
<title>Node10</title>
<g id="a_node10"><a xlink:title=" ">
<polygon fill="none" stroke="#bfbfbf" points="548.27,-0.5 548.27,-19.5 677.27,-19.5 677.27,-0.5 548.27,-0.5"/>
<text text-anchor="middle" x="612.77" y="-7.5" font-family="Helvetica,sans-Serif" font-size="10.00">../../include/base64.hpp</text>
</a>
</g>
</g>
<!-- Node9&#45;&gt;Node10 -->
<g id="edge10" class="edge">
<title>Node9&#45;&gt;Node10</title>
<path fill="none" stroke="midnightblue" d="M601.92,-56.08C603.64,-48.93 606.12,-38.64 608.27,-29.69"/>
<polygon fill="midnightblue" stroke="midnightblue" points="611.73,-30.29 610.67,-19.75 604.92,-28.65 611.73,-30.29"/>
</g>
<!-- Node11 -->
<g id="node11" class="node">
<title>Node11</title>
<g id="a_node11"><a xlink:title=" ">
<polygon fill="none" stroke="#bfbfbf" points="695.77,-0.5 695.77,-19.5 733.77,-19.5 733.77,-0.5 695.77,-0.5"/>
<text text-anchor="middle" x="714.77" y="-7.5" font-family="Helvetica,sans-Serif" font-size="10.00">map</text>
</a>
</g>
</g>
<!-- Node9&#45;&gt;Node11 -->
<g id="edge12" class="edge">
<title>Node9&#45;&gt;Node11</title>
<path fill="none" stroke="midnightblue" d="M617.99,-56.44C636.67,-47.68 665.93,-33.94 687.39,-23.86"/>
<polygon fill="midnightblue" stroke="midnightblue" points="689.07,-26.93 696.64,-19.52 686.1,-20.6 689.07,-26.93"/>
</g>
<!-- Node12&#45;&gt;Node4 -->
<g id="edge19" class="edge">
<title>Node12&#45;&gt;Node4</title>
<path fill="none" stroke="midnightblue" d="M457.16,-117.82C442.63,-98.76 407.73,-52.95 388.69,-27.96"/>
<polygon fill="midnightblue" stroke="midnightblue" points="391.31,-25.62 382.46,-19.78 385.74,-29.86 391.31,-25.62"/>
</g>
<!-- Node12&#45;&gt;Node5 -->
<g id="edge16" class="edge">
<title>Node12&#45;&gt;Node5</title>
<path fill="none" stroke="midnightblue" d="M443.28,-117.98C418.97,-107.86 378.22,-90.9 350.46,-79.35"/>
<polygon fill="midnightblue" stroke="midnightblue" points="351.8,-76.12 341.22,-75.51 349.11,-82.58 351.8,-76.12"/>
</g>
<!-- Node12&#45;&gt;Node9 -->
<g id="edge17" class="edge">
<title>Node12&#45;&gt;Node9</title>
<path fill="none" stroke="midnightblue" d="M483.26,-117.98C506.18,-107.95 544.46,-91.2 570.85,-79.65"/>
<polygon fill="midnightblue" stroke="midnightblue" points="572.56,-82.72 580.32,-75.51 569.76,-76.31 572.56,-82.72"/>
</g>
<!-- Node12&#45;&gt;Node11 -->
<g id="edge18" class="edge">
<title>Node12&#45;&gt;Node11</title>
<path fill="none" stroke="midnightblue" d="M504.78,-121.26C543.64,-114.95 602.61,-101.8 647.77,-76 669.65,-63.5 689.67,-42.21 702.02,-27.41"/>
<polygon fill="midnightblue" stroke="midnightblue" points="704.79,-29.55 708.35,-19.57 699.35,-25.15 704.79,-29.55"/>
</g>
<!-- Node14&#45;&gt;Node3 -->
<g id="edge33" class="edge">
<title>Node14&#45;&gt;Node3</title>
<path fill="none" stroke="midnightblue" d="M824.61,-185.47C751.42,-179.84 573.88,-165.13 414.39,-143.01"/>
<polygon fill="midnightblue" stroke="midnightblue" points="414.78,-139.53 404.39,-141.61 413.81,-146.46 414.78,-139.53"/>
</g>
<!-- Node14&#45;&gt;Node4 -->
<g id="edge24" class="edge">
<title>Node14&#45;&gt;Node4</title>
<path fill="none" stroke="midnightblue" d="M824.45,-188.8C765.93,-188.93 644.2,-183.72 551.77,-143 531.83,-134.21 531.02,-125.33 513.77,-112 472.83,-80.35 423.67,-44.98 396.46,-25.63"/>
<polygon fill="midnightblue" stroke="midnightblue" points="398.3,-22.64 388.12,-19.7 394.24,-28.35 398.3,-22.64"/>
</g>
<!-- Node14&#45;&gt;Node9 -->
<g id="edge34" class="edge">
<title>Node14&#45;&gt;Node9</title>
<path fill="none" stroke="midnightblue" d="M892.82,-182.8C945.35,-173.44 1036.63,-150.98 1001.77,-112 978.58,-86.06 750.35,-73.31 648.46,-68.88"/>
<polygon fill="midnightblue" stroke="midnightblue" points="648.56,-65.38 638.42,-68.45 648.26,-72.37 648.56,-65.38"/>
</g>
<!-- Node14&#45;&gt;Node11 -->
<g id="edge27" class="edge">
<title>Node14&#45;&gt;Node11</title>
<path fill="none" stroke="midnightblue" d="M892.9,-184.79C949.36,-178.1 1052.78,-159.13 1018.77,-112 954.17,-22.47 806.96,-11.06 744.1,-10.45"/>
<polygon fill="midnightblue" stroke="midnightblue" points="744.08,-6.95 734.07,-10.44 744.07,-13.95 744.08,-6.95"/>
</g>
<!-- Node15 -->
<g id="node15" class="node">
<title>Node15</title>
<g id="a_node15"><a xlink:title=" ">
<polygon fill="none" stroke="#bfbfbf" points="886.77,-118 886.77,-137 918.77,-137 918.77,-118 886.77,-118"/>
<text text-anchor="middle" x="902.77" y="-125" font-family="Helvetica,sans-Serif" font-size="10.00">list</text>
</a>
</g>
</g>
<!-- Node14&#45;&gt;Node15 -->
<g id="edge23" class="edge">
<title>Node14&#45;&gt;Node15</title>
<path fill="none" stroke="midnightblue" d="M865.08,-179.48C871.68,-170.55 882.21,-156.31 890.46,-145.14"/>
<polygon fill="midnightblue" stroke="midnightblue" points="893.35,-147.13 896.48,-137.01 887.72,-142.97 893.35,-147.13"/>
</g>
<!-- Node16 -->
<g id="node16" class="node">
<title>Node16</title>
<g id="a_node16"><a xlink:title=" ">
<polygon fill="none" stroke="#bfbfbf" points="936.77,-118 936.77,-137 992.77,-137 992.77,-118 936.77,-118"/>
<text text-anchor="middle" x="964.77" y="-125" font-family="Helvetica,sans-Serif" font-size="10.00">sstream</text>
</a>
</g>
</g>
<!-- Node14&#45;&gt;Node16 -->
<g id="edge25" class="edge">
<title>Node14&#45;&gt;Node16</title>
<path fill="none" stroke="midnightblue" d="M873.96,-179.48C891.43,-169.67 920.35,-153.43 940.86,-141.92"/>
<polygon fill="midnightblue" stroke="midnightblue" points="942.61,-144.96 949.61,-137.01 939.18,-138.85 942.61,-144.96"/>
</g>
<!-- Node17 -->
<g id="node17" class="node">
<title>Node17</title>
<g id="a_node17"><a xlink:title=" ">
<polygon fill="none" stroke="#bfbfbf" points="1086.77,-118 1086.77,-137 1146.77,-137 1146.77,-118 1086.77,-118"/>
<text text-anchor="middle" x="1116.77" y="-125" font-family="Helvetica,sans-Serif" font-size="10.00">iostream</text>
</a>
</g>
</g>
<!-- Node14&#45;&gt;Node17 -->
<g id="edge26" class="edge">
<title>Node14&#45;&gt;Node17</title>
<path fill="none" stroke="midnightblue" d="M892.78,-182.06C935.22,-174.36 1009.9,-159.91 1072.77,-143 1075.96,-142.14 1079.25,-141.19 1082.53,-140.19"/>
<polygon fill="midnightblue" stroke="midnightblue" points="1083.77,-143.47 1092.25,-137.12 1081.66,-136.8 1083.77,-143.47"/>
</g>
<!-- Node18 -->
<g id="node18" class="node">
<title>Node18</title>
<g id="a_node18"><a xlink:title=" ">
<polygon fill="none" stroke="#bfbfbf" points="1165.27,-118 1165.27,-137 1214.27,-137 1214.27,-118 1165.27,-118"/>
<text text-anchor="middle" x="1189.77" y="-125" font-family="Helvetica,sans-Serif" font-size="10.00">cctype</text>
</a>
</g>
</g>
<!-- Node14&#45;&gt;Node18 -->
<g id="edge28" class="edge">
<title>Node14&#45;&gt;Node18</title>
<path fill="none" stroke="midnightblue" d="M893.22,-185.62C949.19,-181.12 1062.96,-169.36 1155.77,-143 1158.06,-142.35 1160.41,-141.58 1162.74,-140.75"/>
<polygon fill="midnightblue" stroke="midnightblue" points="1164.07,-143.98 1172.08,-137.04 1161.49,-137.47 1164.07,-143.98"/>
</g>
<!-- Node19 -->
<g id="node19" class="node">
<title>Node19</title>
<g id="a_node19"><a xlink:title=" ">
<polygon fill="none" stroke="#bfbfbf" points="1232.77,-118 1232.77,-137 1288.77,-137 1288.77,-118 1232.77,-118"/>
<text text-anchor="middle" x="1260.77" y="-125" font-family="Helvetica,sans-Serif" font-size="10.00">iomanip</text>
</a>
</g>
</g>
<!-- Node14&#45;&gt;Node19 -->
<g id="edge29" class="edge">
<title>Node14&#45;&gt;Node19</title>
<path fill="none" stroke="midnightblue" d="M893.01,-186.64C958.28,-183.42 1104.63,-173.18 1223.77,-143 1226.44,-142.32 1229.17,-141.51 1231.89,-140.61"/>
<polygon fill="midnightblue" stroke="midnightblue" points="1233.29,-143.82 1241.49,-137.11 1230.89,-137.25 1233.29,-143.82"/>
</g>
<!-- Node20 -->
<g id="node20" class="node">
<title>Node20</title>
<g id="a_node20"><a xlink:title=" ">
<polygon fill="none" stroke="#bfbfbf" points="560.77,-118 560.77,-137 610.77,-137 610.77,-118 560.77,-118"/>
<text text-anchor="middle" x="585.77" y="-125" font-family="Helvetica,sans-Serif" font-size="10.00">chrono</text>
</a>
</g>
</g>
<!-- Node14&#45;&gt;Node20 -->
<g id="edge30" class="edge">
<title>Node14&#45;&gt;Node20</title>
<path fill="none" stroke="midnightblue" d="M824.57,-183.94C777.67,-177.83 691.08,-164.64 619.77,-143 617.63,-142.35 615.43,-141.61 613.25,-140.81"/>
<polygon fill="midnightblue" stroke="midnightblue" points="614.44,-137.51 603.85,-137.07 611.85,-144.02 614.44,-137.51"/>
</g>
<!-- Node21 -->
<g id="node21" class="node">
<title>Node21</title>
<g id="a_node21"><a xlink:title=" ">
<polygon fill="none" stroke="#bfbfbf" points="628.77,-118 628.77,-137 678.77,-137 678.77,-118 628.77,-118"/>
<text text-anchor="middle" x="653.77" y="-125" font-family="Helvetica,sans-Serif" font-size="10.00">cstdint</text>
</a>
</g>
</g>
<!-- Node14&#45;&gt;Node21 -->
<g id="edge31" class="edge">
<title>Node14&#45;&gt;Node21</title>
<path fill="none" stroke="midnightblue" d="M824.59,-180.56C789.76,-172.61 734.38,-158.98 687.77,-143 685.91,-142.36 684,-141.66 682.08,-140.94"/>
<polygon fill="midnightblue" stroke="midnightblue" points="683.23,-137.62 672.64,-137.13 680.61,-144.11 683.23,-137.62"/>
</g>
<!-- Node22 -->
<g id="node22" class="node">
<title>Node22</title>
<g id="a_node22"><a xlink:title=" ">
<polygon fill="none" stroke="#bfbfbf" points="696.77,-118 696.77,-137 744.77,-137 744.77,-118 696.77,-118"/>
<text text-anchor="middle" x="720.77" y="-125" font-family="Helvetica,sans-Serif" font-size="10.00">thread</text>
</a>
</g>
</g>
<!-- Node14&#45;&gt;Node22 -->
<g id="edge32" class="edge">
<title>Node14&#45;&gt;Node22</title>
<path fill="none" stroke="midnightblue" d="M839,-179.48C815.64,-169.4 776.56,-152.55 749.77,-141"/>
<polygon fill="midnightblue" stroke="midnightblue" points="751.08,-137.75 740.51,-137.01 748.3,-144.18 751.08,-137.75"/>
</g>
<!-- Node23 -->
<g id="node23" class="node">
<title>Node23</title>
<g id="a_node23"><a xlink:title=" ">
<polygon fill="none" stroke="#bfbfbf" points="763.27,-118 763.27,-137 868.27,-137 868.27,-118 763.27,-118"/>
<text text-anchor="middle" x="815.77" y="-125" font-family="Helvetica,sans-Serif" font-size="10.00">../include/json.hpp</text>
</a>
</g>
</g>
<!-- Node14&#45;&gt;Node23 -->
<g id="edge35" class="edge">
<title>Node14&#45;&gt;Node23</title>
<path fill="none" stroke="midnightblue" d="M852.61,-179.48C846.16,-170.55 835.87,-156.31 827.8,-145.14"/>
<polygon fill="midnightblue" stroke="midnightblue" points="830.62,-143.06 821.92,-137.01 824.94,-147.16 830.62,-143.06"/>
</g>
</g>
</svg>
