<?xml version="1.0" encoding="UTF-8" standalone="no"?>
<!DOCTYPE svg PUBLIC "-//W3C//DTD SVG 1.1//EN"
 "http://www.w3.org/Graphics/SVG/1.1/DTD/svg11.dtd">
<!-- Generated by graphviz version 2.43.0 (0)
 -->
<!-- Title: src/payload/event_payload.hpp Pages: 1 -->
<svg width="416pt" height="140pt"
 viewBox="0.00 0.00 416.00 140.00" xmlns="http://www.w3.org/2000/svg" xmlns:xlink="http://www.w3.org/1999/xlink">
<g id="graph0" class="graph" transform="scale(1 1) rotate(0) translate(4 136)">
<title>src/payload/event_payload.hpp</title>
<!-- Node1 -->
<g id="node1" class="node">
<title>Node1</title>
<g id="a_node1"><a xlink:title=" ">
<polygon fill="#bfbfbf" stroke="black" points="239,-112.5 239,-131.5 408,-131.5 408,-112.5 239,-112.5"/>
<text text-anchor="middle" x="323.5" y="-119.5" font-family="Helvetica,sans-Serif" font-size="10.00">src/payload/event_payload.hpp</text>
</a>
</g>
</g>
<!-- Node2 -->
<g id="node2" class="node">
<title>Node2</title>
<g id="a_node2"><a xlink:href="payload_8hpp.html" target="_top" xlink:title=" ">
<polygon fill="none" stroke="black" points="252,-56.5 252,-75.5 329,-75.5 329,-56.5 252,-56.5"/>
<text text-anchor="middle" x="290.5" y="-63.5" font-family="Helvetica,sans-Serif" font-size="10.00">payload.hpp</text>
</a>
</g>
</g>
<!-- Node1&#45;&gt;Node2 -->
<g id="edge1" class="edge">
<title>Node1&#45;&gt;Node2</title>
<path fill="none" stroke="midnightblue" d="M318.05,-112.08C313.49,-104.61 306.83,-93.72 301.21,-84.52"/>
<polygon fill="midnightblue" stroke="midnightblue" points="304.05,-82.46 295.85,-75.75 298.08,-86.11 304.05,-82.46"/>
</g>
<!-- Node6 -->
<g id="node6" class="node">
<title>Node6</title>
<g id="a_node6"><a xlink:title=" ">
<polygon fill="none" stroke="#bfbfbf" points="335.5,-0.5 335.5,-19.5 379.5,-19.5 379.5,-0.5 335.5,-0.5"/>
<text text-anchor="middle" x="357.5" y="-7.5" font-family="Helvetica,sans-Serif" font-size="10.00">string</text>
</a>
</g>
</g>
<!-- Node1&#45;&gt;Node6 -->
<g id="edge6" class="edge">
<title>Node1&#45;&gt;Node6</title>
<path fill="none" stroke="midnightblue" d="M326.47,-112.4C329.57,-103.37 334.52,-88.73 338.5,-76 343.38,-60.4 348.56,-42.56 352.28,-29.53"/>
<polygon fill="midnightblue" stroke="midnightblue" points="355.66,-30.44 355.02,-19.86 348.93,-28.53 355.66,-30.44"/>
</g>
<!-- Node3 -->
<g id="node3" class="node">
<title>Node3</title>
<g id="a_node3"><a xlink:title=" ">
<polygon fill="none" stroke="#bfbfbf" points="0,-0.5 0,-19.5 129,-19.5 129,-0.5 0,-0.5"/>
<text text-anchor="middle" x="64.5" y="-7.5" font-family="Helvetica,sans-Serif" font-size="10.00">../../include/base64.hpp</text>
</a>
</g>
</g>
<!-- Node2&#45;&gt;Node3 -->
<g id="edge2" class="edge">
<title>Node2&#45;&gt;Node3</title>
<path fill="none" stroke="midnightblue" d="M254.69,-56.44C215.51,-47.08 152.62,-32.06 109.98,-21.87"/>
<polygon fill="midnightblue" stroke="midnightblue" points="110.68,-18.44 100.14,-19.52 109.06,-25.24 110.68,-18.44"/>
</g>
<!-- Node4 -->
<g id="node4" class="node">
<title>Node4</title>
<g id="a_node4"><a xlink:title=" ">
<polygon fill="none" stroke="#bfbfbf" points="147.5,-0.5 147.5,-19.5 261.5,-19.5 261.5,-0.5 147.5,-0.5"/>
<text text-anchor="middle" x="204.5" y="-7.5" font-family="Helvetica,sans-Serif" font-size="10.00">../../include/json.hpp</text>
</a>
</g>
</g>
<!-- Node2&#45;&gt;Node4 -->
<g id="edge3" class="edge">
<title>Node2&#45;&gt;Node4</title>
<path fill="none" stroke="midnightblue" d="M276.68,-56.32C263.27,-47.9 242.68,-34.97 226.91,-25.07"/>
<polygon fill="midnightblue" stroke="midnightblue" points="228.61,-22.01 218.28,-19.65 224.89,-27.94 228.61,-22.01"/>
</g>
<!-- Node5 -->
<g id="node5" class="node">
<title>Node5</title>
<g id="a_node5"><a xlink:title=" ">
<polygon fill="none" stroke="#bfbfbf" points="279.5,-0.5 279.5,-19.5 317.5,-19.5 317.5,-0.5 279.5,-0.5"/>
<text text-anchor="middle" x="298.5" y="-7.5" font-family="Helvetica,sans-Serif" font-size="10.00">map</text>
</a>
</g>
</g>
<!-- Node2&#45;&gt;Node5 -->
<g id="edge4" class="edge">
<title>Node2&#45;&gt;Node5</title>
<path fill="none" stroke="midnightblue" d="M291.82,-56.08C292.88,-48.93 294.41,-38.64 295.73,-29.69"/>
<polygon fill="midnightblue" stroke="midnightblue" points="299.2,-30.16 297.2,-19.75 292.28,-29.13 299.2,-30.16"/>
</g>
<!-- Node2&#45;&gt;Node6 -->
<g id="edge5" class="edge">
<title>Node2&#45;&gt;Node6</title>
<path fill="none" stroke="midnightblue" d="M301.26,-56.32C311.27,-48.26 326.39,-36.08 338.43,-26.37"/>
<polygon fill="midnightblue" stroke="midnightblue" points="340.95,-28.83 346.54,-19.83 336.56,-23.38 340.95,-28.83"/>
</g>
</g>
</svg>
