<?xml version="1.0" encoding="UTF-8" standalone="no"?>
<!DOCTYPE svg PUBLIC "-//W3C//DTD SVG 1.1//EN"
 "http://www.w3.org/Graphics/SVG/1.1/DTD/svg11.dtd">
<!-- Generated by graphviz version 2.43.0 (0)
 -->
<!-- Title: src/storage/event_row.hpp Pages: 1 -->
<svg width="525pt" height="274pt"
 viewBox="0.00 0.00 524.50 274.00" xmlns="http://www.w3.org/2000/svg" xmlns:xlink="http://www.w3.org/1999/xlink">
<g id="graph0" class="graph" transform="scale(1 1) rotate(0) translate(4 270)">
<title>src/storage/event_row.hpp</title>
<!-- Node1 -->
<g id="node1" class="node">
<title>Node1</title>
<g id="a_node1"><a xlink:title=" ">
<polygon fill="#bfbfbf" stroke="black" points="0,-246.5 0,-265.5 145,-265.5 145,-246.5 0,-246.5"/>
<text text-anchor="middle" x="72.5" y="-253.5" font-family="Helvetica,sans-Serif" font-size="10.00">src/storage/event_row.hpp</text>
</a>
</g>
</g>
<!-- Node2 -->
<g id="node2" class="node">
<title>Node2</title>
<g id="a_node2"><a xlink:href="snowplow_8hpp.html" target="_top" xlink:title=" ">
<polygon fill="none" stroke="black" points="165,-0.5 165,-19.5 268,-19.5 268,-0.5 165,-0.5"/>
<text text-anchor="middle" x="216.5" y="-7.5" font-family="Helvetica,sans-Serif" font-size="10.00">src/snowplow.hpp</text>
</a>
</g>
</g>
<!-- Node1&#45;&gt;Node2 -->
<g id="edge1" class="edge">
<title>Node1&#45;&gt;Node2</title>
<path fill="none" stroke="midnightblue" d="M59.47,-238.23C54.01,-230.17 48.29,-220.08 45.5,-210 32.63,-163.55 -9.92,-138.06 58.5,-56 84.16,-25.22 129.25,-14.67 164.71,-11.42"/>
<polygon fill="midnightblue" stroke="midnightblue" points="56.65,-240.31 65.35,-246.36 62.32,-236.21 56.65,-240.31"/>
</g>
<!-- Node3 -->
<g id="node3" class="node">
<title>Node3</title>
<g id="a_node3"><a xlink:href="event__store_8hpp.html" target="_top" xlink:title=" ">
<polygon fill="none" stroke="black" points="54.5,-190.5 54.5,-209.5 206.5,-209.5 206.5,-190.5 54.5,-190.5"/>
<text text-anchor="middle" x="130.5" y="-197.5" font-family="Helvetica,sans-Serif" font-size="10.00">src/storage/event_store.hpp</text>
</a>
</g>
</g>
<!-- Node1&#45;&gt;Node3 -->
<g id="edge2" class="edge">
<title>Node1&#45;&gt;Node3</title>
<path fill="none" stroke="midnightblue" d="M89.41,-239.25C99.7,-229.67 112.47,-217.79 121.01,-209.83"/>
<polygon fill="midnightblue" stroke="midnightblue" points="86.75,-236.95 81.82,-246.32 91.52,-242.07 86.75,-236.95"/>
</g>
<!-- Node3&#45;&gt;Node2 -->
<g id="edge9" class="edge">
<title>Node3&#45;&gt;Node2</title>
<path fill="none" stroke="midnightblue" d="M105.78,-184.9C94.97,-177.28 83.42,-166.79 77.5,-154 59.21,-114.47 51.88,-91.22 77.5,-56 97.34,-28.72 134.09,-17.64 164.81,-13.29"/>
<polygon fill="midnightblue" stroke="midnightblue" points="103.88,-187.84 114.17,-190.39 107.71,-181.98 103.88,-187.84"/>
</g>
<!-- Node4 -->
<g id="node4" class="node">
<title>Node4</title>
<g id="a_node4"><a xlink:href="emitter_8hpp.html" target="_top" xlink:title=" ">
<polygon fill="none" stroke="black" points="290,-129 290,-148 419,-148 419,-129 290,-129"/>
<text text-anchor="middle" x="354.5" y="-136" font-family="Helvetica,sans-Serif" font-size="10.00">src/emitter/emitter.hpp</text>
</a>
</g>
</g>
<!-- Node3&#45;&gt;Node4 -->
<g id="edge3" class="edge">
<title>Node3&#45;&gt;Node4</title>
<path fill="none" stroke="midnightblue" d="M172.3,-187.9C215.81,-176.34 282.99,-158.5 322.47,-148.01"/>
<polygon fill="midnightblue" stroke="midnightblue" points="171.36,-184.53 162.59,-190.48 173.16,-191.29 171.36,-184.53"/>
</g>
<!-- Node8 -->
<g id="node8" class="node">
<title>Node8</title>
<g id="a_node8"><a xlink:href="sqlite__storage_8hpp.html" target="_top" xlink:title=" ">
<polygon fill="none" stroke="black" points="87,-123.5 87,-153.5 188,-153.5 188,-123.5 87,-123.5"/>
<text text-anchor="start" x="95" y="-141.5" font-family="Helvetica,sans-Serif" font-size="10.00">src/storage/sqlite</text>
<text text-anchor="middle" x="137.5" y="-130.5" font-family="Helvetica,sans-Serif" font-size="10.00">_storage.hpp</text>
</a>
</g>
</g>
<!-- Node3&#45;&gt;Node8 -->
<g id="edge10" class="edge">
<title>Node3&#45;&gt;Node8</title>
<path fill="none" stroke="midnightblue" d="M132.67,-180.53C133.7,-171.81 134.9,-161.59 135.85,-153.52"/>
<polygon fill="midnightblue" stroke="midnightblue" points="129.2,-180.13 131.5,-190.48 136.15,-180.95 129.2,-180.13"/>
</g>
<!-- Node4&#45;&gt;Node2 -->
<g id="edge5" class="edge">
<title>Node4&#45;&gt;Node2</title>
<path fill="none" stroke="midnightblue" d="M368.52,-120.58C381.33,-102.95 396.22,-75.27 381.5,-56 367.67,-37.89 311.1,-25.32 268.02,-18.16"/>
<polygon fill="midnightblue" stroke="midnightblue" points="365.53,-118.73 362.18,-128.78 371.07,-123.01 365.53,-118.73"/>
</g>
<!-- Node5 -->
<g id="node5" class="node">
<title>Node5</title>
<g id="a_node5"><a xlink:href="emitter_8cpp.html" target="_top" xlink:title=" ">
<polygon fill="none" stroke="black" points="244.5,-62 244.5,-81 372.5,-81 372.5,-62 244.5,-62"/>
<text text-anchor="middle" x="308.5" y="-69" font-family="Helvetica,sans-Serif" font-size="10.00">src/emitter/emitter.cpp</text>
</a>
</g>
</g>
<!-- Node4&#45;&gt;Node5 -->
<g id="edge4" class="edge">
<title>Node4&#45;&gt;Node5</title>
<path fill="none" stroke="midnightblue" d="M342.4,-120.4C333.46,-107.77 321.67,-91.1 314.61,-81.13"/>
<polygon fill="midnightblue" stroke="midnightblue" points="339.66,-122.59 348.3,-128.73 345.38,-118.55 339.66,-122.59"/>
</g>
<!-- Node6 -->
<g id="node6" class="node">
<title>Node6</title>
<g id="a_node6"><a xlink:href="tracker_8hpp.html" target="_top" xlink:title=" ">
<polygon fill="none" stroke="black" points="428.5,-62 428.5,-81 516.5,-81 516.5,-62 428.5,-62"/>
<text text-anchor="middle" x="472.5" y="-69" font-family="Helvetica,sans-Serif" font-size="10.00">src/tracker.hpp</text>
</a>
</g>
</g>
<!-- Node4&#45;&gt;Node6 -->
<g id="edge6" class="edge">
<title>Node4&#45;&gt;Node6</title>
<path fill="none" stroke="midnightblue" d="M379.39,-123.79C402.78,-110.9 437.06,-92.02 456.84,-81.13"/>
<polygon fill="midnightblue" stroke="midnightblue" points="377.48,-120.84 370.41,-128.73 380.86,-126.97 377.48,-120.84"/>
</g>
<!-- Node6&#45;&gt;Node2 -->
<g id="edge7" class="edge">
<title>Node6&#45;&gt;Node2</title>
<path fill="none" stroke="midnightblue" d="M428.92,-59.5C424.06,-58.3 419.18,-57.12 414.5,-56 359.29,-42.83 295.21,-28.43 255.26,-19.55"/>
<polygon fill="midnightblue" stroke="midnightblue" points="428.25,-62.94 438.79,-61.94 429.93,-56.14 428.25,-62.94"/>
</g>
<!-- Node7 -->
<g id="node7" class="node">
<title>Node7</title>
<g id="a_node7"><a xlink:href="tracker_8cpp.html" target="_top" xlink:title=" ">
<polygon fill="none" stroke="black" points="429,-0.5 429,-19.5 516,-19.5 516,-0.5 429,-0.5"/>
<text text-anchor="middle" x="472.5" y="-7.5" font-family="Helvetica,sans-Serif" font-size="10.00">src/tracker.cpp</text>
</a>
</g>
</g>
<!-- Node6&#45;&gt;Node7 -->
<g id="edge8" class="edge">
<title>Node6&#45;&gt;Node7</title>
<path fill="none" stroke="midnightblue" d="M472.5,-51.82C472.5,-41 472.5,-27.9 472.5,-19.51"/>
<polygon fill="midnightblue" stroke="midnightblue" points="469,-51.98 472.5,-61.98 476,-51.98 469,-51.98"/>
</g>
<!-- Node8&#45;&gt;Node2 -->
<g id="edge11" class="edge">
<title>Node8&#45;&gt;Node2</title>
<path fill="none" stroke="midnightblue" d="M168,-117.26C178.39,-108.99 189.21,-98.63 196.5,-87 210.13,-65.27 214.53,-34.47 215.9,-19.64"/>
<polygon fill="midnightblue" stroke="midnightblue" points="165.7,-114.61 159.83,-123.43 169.92,-120.19 165.7,-114.61"/>
</g>
<!-- Node9 -->
<g id="node9" class="node">
<title>Node9</title>
<g id="a_node9"><a xlink:href="sqlite__storage_8cpp.html" target="_top" xlink:title=" ">
<polygon fill="none" stroke="black" points="87,-56.5 87,-86.5 188,-86.5 188,-56.5 87,-56.5"/>
<text text-anchor="start" x="95" y="-74.5" font-family="Helvetica,sans-Serif" font-size="10.00">src/storage/sqlite</text>
<text text-anchor="middle" x="137.5" y="-63.5" font-family="Helvetica,sans-Serif" font-size="10.00">_storage.cpp</text>
</a>
</g>
</g>
<!-- Node8&#45;&gt;Node9 -->
<g id="edge12" class="edge">
<title>Node8&#45;&gt;Node9</title>
<path fill="none" stroke="midnightblue" d="M137.5,-113.11C137.5,-104.15 137.5,-94.32 137.5,-86.58"/>
<polygon fill="midnightblue" stroke="midnightblue" points="134,-113.4 137.5,-123.4 141,-113.4 134,-113.4"/>
</g>
</g>
</svg>
