<?xml version="1.0" encoding="UTF-8" standalone="no"?>
<!DOCTYPE svg PUBLIC "-//W3C//DTD SVG 1.1//EN"
 "http://www.w3.org/Graphics/SVG/1.1/DTD/svg11.dtd">
<!-- Generated by graphviz version 2.43.0 (0)
 -->
<!-- Title: src/events/event.hpp Pages: 1 -->
<svg width="932pt" height="162pt"
 viewBox="0.00 0.00 931.50 162.00" xmlns="http://www.w3.org/2000/svg" xmlns:xlink="http://www.w3.org/1999/xlink">
<g id="graph0" class="graph" transform="scale(1 1) rotate(0) translate(4 158)">
<title>src/events/event.hpp</title>
<!-- Node1 -->
<g id="node1" class="node">
<title>Node1</title>
<g id="a_node1"><a xlink:title=" ">
<polygon fill="#bfbfbf" stroke="black" points="397.5,-134.5 397.5,-153.5 516.5,-153.5 516.5,-134.5 397.5,-134.5"/>
<text text-anchor="middle" x="457" y="-141.5" font-family="Helvetica,sans-Serif" font-size="10.00">src/events/event.hpp</text>
</a>
</g>
</g>
<!-- Node2 -->
<g id="node2" class="node">
<title>Node2</title>
<g id="a_node2"><a xlink:href="event_8cpp.html" target="_top" xlink:title=" ">
<polygon fill="none" stroke="black" points="0,-73 0,-92 118,-92 118,-73 0,-73"/>
<text text-anchor="middle" x="59" y="-80" font-family="Helvetica,sans-Serif" font-size="10.00">src/events/event.cpp</text>
</a>
</g>
</g>
<!-- Node1&#45;&gt;Node2 -->
<g id="edge1" class="edge">
<title>Node1&#45;&gt;Node2</title>
<path fill="none" stroke="midnightblue" d="M387.47,-135.05C320.52,-127.03 216.53,-113.63 127,-98 117.13,-96.28 106.51,-94.15 96.67,-92.06"/>
<polygon fill="midnightblue" stroke="midnightblue" points="387.13,-138.53 397.48,-136.24 387.96,-131.58 387.13,-138.53"/>
</g>
<!-- Node3 -->
<g id="node3" class="node">
<title>Node3</title>
<g id="a_node3"><a xlink:href="screen__view__event_8hpp.html" target="_top" xlink:title=" ">
<polygon fill="none" stroke="black" points="136.5,-67.5 136.5,-97.5 267.5,-97.5 267.5,-67.5 136.5,-67.5"/>
<text text-anchor="start" x="144.5" y="-85.5" font-family="Helvetica,sans-Serif" font-size="10.00">src/events/screen_view</text>
<text text-anchor="middle" x="202" y="-74.5" font-family="Helvetica,sans-Serif" font-size="10.00">_event.hpp</text>
</a>
</g>
</g>
<!-- Node1&#45;&gt;Node3 -->
<g id="edge2" class="edge">
<title>Node1&#45;&gt;Node3</title>
<path fill="none" stroke="midnightblue" d="M410.58,-132.17C368.91,-122.45 307.5,-108.12 262.1,-97.52"/>
<polygon fill="midnightblue" stroke="midnightblue" points="409.93,-135.61 420.46,-134.48 411.52,-128.79 409.93,-135.61"/>
</g>
<!-- Node5 -->
<g id="node5" class="node">
<title>Node5</title>
<g id="a_node5"><a xlink:href="snowplow_8hpp.html" target="_top" xlink:title=" ">
<polygon fill="none" stroke="black" points="405.5,-6 405.5,-25 508.5,-25 508.5,-6 405.5,-6"/>
<text text-anchor="middle" x="457" y="-13" font-family="Helvetica,sans-Serif" font-size="10.00">src/snowplow.hpp</text>
</a>
</g>
</g>
<!-- Node1&#45;&gt;Node5 -->
<g id="edge14" class="edge">
<title>Node1&#45;&gt;Node5</title>
<path fill="none" stroke="midnightblue" d="M457,-123.94C457,-96.12 457,-45.54 457,-25.26"/>
<polygon fill="midnightblue" stroke="midnightblue" points="453.5,-124.31 457,-134.31 460.5,-124.31 453.5,-124.31"/>
</g>
<!-- Node6 -->
<g id="node6" class="node">
<title>Node6</title>
<g id="a_node6"><a xlink:href="self__describing__event_8hpp.html" target="_top" xlink:title=" ">
<polygon fill="none" stroke="black" points="285.5,-67.5 285.5,-97.5 428.5,-97.5 428.5,-67.5 285.5,-67.5"/>
<text text-anchor="start" x="293.5" y="-85.5" font-family="Helvetica,sans-Serif" font-size="10.00">src/events/self_describing</text>
<text text-anchor="middle" x="357" y="-74.5" font-family="Helvetica,sans-Serif" font-size="10.00">_event.hpp</text>
</a>
</g>
</g>
<!-- Node1&#45;&gt;Node6 -->
<g id="edge5" class="edge">
<title>Node1&#45;&gt;Node6</title>
<path fill="none" stroke="midnightblue" d="M433.93,-129.28C417.93,-119.75 396.68,-107.11 380.57,-97.52"/>
<polygon fill="midnightblue" stroke="midnightblue" points="432.29,-132.37 442.67,-134.48 435.87,-126.35 432.29,-132.37"/>
</g>
<!-- Node8 -->
<g id="node8" class="node">
<title>Node8</title>
<g id="a_node8"><a xlink:href="structured__event_8hpp.html" target="_top" xlink:title=" ">
<polygon fill="none" stroke="black" points="485.5,-67.5 485.5,-97.5 604.5,-97.5 604.5,-67.5 485.5,-67.5"/>
<text text-anchor="start" x="493.5" y="-85.5" font-family="Helvetica,sans-Serif" font-size="10.00">src/events/structured</text>
<text text-anchor="middle" x="545" y="-74.5" font-family="Helvetica,sans-Serif" font-size="10.00">_event.hpp</text>
</a>
</g>
</g>
<!-- Node1&#45;&gt;Node8 -->
<g id="edge8" class="edge">
<title>Node1&#45;&gt;Node8</title>
<path fill="none" stroke="midnightblue" d="M478.09,-128.74C492.08,-119.28 510.35,-106.93 524.26,-97.52"/>
<polygon fill="midnightblue" stroke="midnightblue" points="475.93,-125.97 469.61,-134.48 479.85,-131.77 475.93,-125.97"/>
</g>
<!-- Node10 -->
<g id="node10" class="node">
<title>Node10</title>
<g id="a_node10"><a xlink:href="timing__event_8hpp.html" target="_top" xlink:title=" ">
<polygon fill="none" stroke="black" points="622.5,-73 622.5,-92 777.5,-92 777.5,-73 622.5,-73"/>
<text text-anchor="middle" x="700" y="-80" font-family="Helvetica,sans-Serif" font-size="10.00">src/events/timing_event.hpp</text>
</a>
</g>
</g>
<!-- Node1&#45;&gt;Node10 -->
<g id="edge11" class="edge">
<title>Node1&#45;&gt;Node10</title>
<path fill="none" stroke="midnightblue" d="M501.76,-132.04C548.93,-120.49 622.24,-102.54 665.25,-92.01"/>
<polygon fill="midnightblue" stroke="midnightblue" points="500.7,-128.7 491.82,-134.48 502.36,-135.5 500.7,-128.7"/>
</g>
<!-- Node12 -->
<g id="node12" class="node">
<title>Node12</title>
<g id="a_node12"><a xlink:href="tracker_8hpp.html" target="_top" xlink:title=" ">
<polygon fill="none" stroke="black" points="796,-73 796,-92 884,-92 884,-73 796,-73"/>
<text text-anchor="middle" x="840" y="-80" font-family="Helvetica,sans-Serif" font-size="10.00">src/tracker.hpp</text>
</a>
</g>
</g>
<!-- Node1&#45;&gt;Node12 -->
<g id="edge15" class="edge">
<title>Node1&#45;&gt;Node12</title>
<path fill="none" stroke="midnightblue" d="M526.75,-136.18C593.85,-128.99 697.95,-116.17 787,-98 795.04,-96.36 803.66,-94.19 811.56,-92.02"/>
<polygon fill="midnightblue" stroke="midnightblue" points="526.29,-132.71 516.71,-137.25 527.03,-139.67 526.29,-132.71"/>
</g>
<!-- Node4 -->
<g id="node4" class="node">
<title>Node4</title>
<g id="a_node4"><a xlink:href="screen__view__event_8cpp.html" target="_top" xlink:title=" ">
<polygon fill="none" stroke="black" points="95.5,-0.5 95.5,-30.5 226.5,-30.5 226.5,-0.5 95.5,-0.5"/>
<text text-anchor="start" x="103.5" y="-18.5" font-family="Helvetica,sans-Serif" font-size="10.00">src/events/screen_view</text>
<text text-anchor="middle" x="161" y="-7.5" font-family="Helvetica,sans-Serif" font-size="10.00">_event.cpp</text>
</a>
</g>
</g>
<!-- Node3&#45;&gt;Node4 -->
<g id="edge3" class="edge">
<title>Node3&#45;&gt;Node4</title>
<path fill="none" stroke="midnightblue" d="M187.72,-58.87C181.79,-49.46 175.09,-38.83 169.88,-30.58"/>
<polygon fill="midnightblue" stroke="midnightblue" points="184.81,-60.81 193.1,-67.4 190.73,-57.07 184.81,-60.81"/>
</g>
<!-- Node3&#45;&gt;Node5 -->
<g id="edge4" class="edge">
<title>Node3&#45;&gt;Node5</title>
<path fill="none" stroke="midnightblue" d="M266.77,-64.99C316.74,-52.25 383.84,-35.15 423.54,-25.03"/>
<polygon fill="midnightblue" stroke="midnightblue" points="265.84,-61.61 257.02,-67.48 267.57,-68.4 265.84,-61.61"/>
</g>
<!-- Node6&#45;&gt;Node5 -->
<g id="edge7" class="edge">
<title>Node6&#45;&gt;Node5</title>
<path fill="none" stroke="midnightblue" d="M387.3,-61.81C406.21,-49.51 429.61,-34.3 443.91,-25.01"/>
<polygon fill="midnightblue" stroke="midnightblue" points="385.18,-59.01 378.7,-67.4 388.99,-64.88 385.18,-59.01"/>
</g>
<!-- Node7 -->
<g id="node7" class="node">
<title>Node7</title>
<g id="a_node7"><a xlink:href="self__describing__event_8cpp.html" target="_top" xlink:title=" ">
<polygon fill="none" stroke="black" points="244.5,-0.5 244.5,-30.5 387.5,-30.5 387.5,-0.5 244.5,-0.5"/>
<text text-anchor="start" x="252.5" y="-18.5" font-family="Helvetica,sans-Serif" font-size="10.00">src/events/self_describing</text>
<text text-anchor="middle" x="316" y="-7.5" font-family="Helvetica,sans-Serif" font-size="10.00">_event.cpp</text>
</a>
</g>
</g>
<!-- Node6&#45;&gt;Node7 -->
<g id="edge6" class="edge">
<title>Node6&#45;&gt;Node7</title>
<path fill="none" stroke="midnightblue" d="M342.72,-58.87C336.79,-49.46 330.09,-38.83 324.88,-30.58"/>
<polygon fill="midnightblue" stroke="midnightblue" points="339.81,-60.81 348.1,-67.4 345.73,-57.07 339.81,-60.81"/>
</g>
<!-- Node8&#45;&gt;Node5 -->
<g id="edge10" class="edge">
<title>Node8&#45;&gt;Node5</title>
<path fill="none" stroke="midnightblue" d="M517.66,-61.31C501.14,-49.1 480.93,-34.18 468.52,-25.01"/>
<polygon fill="midnightblue" stroke="midnightblue" points="515.78,-64.27 525.91,-67.4 519.94,-58.64 515.78,-64.27"/>
</g>
<!-- Node9 -->
<g id="node9" class="node">
<title>Node9</title>
<g id="a_node9"><a xlink:href="structured__event_8cpp.html" target="_top" xlink:title=" ">
<polygon fill="none" stroke="black" points="526.5,-0.5 526.5,-30.5 645.5,-30.5 645.5,-0.5 526.5,-0.5"/>
<text text-anchor="start" x="534.5" y="-18.5" font-family="Helvetica,sans-Serif" font-size="10.00">src/events/structured</text>
<text text-anchor="middle" x="586" y="-7.5" font-family="Helvetica,sans-Serif" font-size="10.00">_event.cpp</text>
</a>
</g>
</g>
<!-- Node8&#45;&gt;Node9 -->
<g id="edge9" class="edge">
<title>Node8&#45;&gt;Node9</title>
<path fill="none" stroke="midnightblue" d="M559.28,-58.87C565.21,-49.46 571.91,-38.83 577.12,-30.58"/>
<polygon fill="midnightblue" stroke="midnightblue" points="556.27,-57.07 553.9,-67.4 562.19,-60.81 556.27,-57.07"/>
</g>
<!-- Node10&#45;&gt;Node5 -->
<g id="edge13" class="edge">
<title>Node10&#45;&gt;Node5</title>
<path fill="none" stroke="midnightblue" d="M658.22,-70.32C610.23,-57.49 532.56,-36.71 489.09,-25.08"/>
<polygon fill="midnightblue" stroke="midnightblue" points="657.42,-73.73 667.98,-72.94 659.23,-66.97 657.42,-73.73"/>
</g>
<!-- Node11 -->
<g id="node11" class="node">
<title>Node11</title>
<g id="a_node11"><a xlink:href="timing__event_8cpp.html" target="_top" xlink:title=" ">
<polygon fill="none" stroke="black" points="663.5,-6 663.5,-25 818.5,-25 818.5,-6 663.5,-6"/>
<text text-anchor="middle" x="741" y="-13" font-family="Helvetica,sans-Serif" font-size="10.00">src/events/timing_event.cpp</text>
</a>
</g>
</g>
<!-- Node10&#45;&gt;Node11 -->
<g id="edge12" class="edge">
<title>Node10&#45;&gt;Node11</title>
<path fill="none" stroke="midnightblue" d="M711.02,-64.03C718.95,-51.45 729.33,-35.01 735.56,-25.13"/>
<polygon fill="midnightblue" stroke="midnightblue" points="707.9,-62.41 705.53,-72.73 713.82,-66.14 707.9,-62.41"/>
</g>
<!-- Node12&#45;&gt;Node5 -->
<g id="edge16" class="edge">
<title>Node12&#45;&gt;Node5</title>
<path fill="none" stroke="midnightblue" d="M801.66,-70.36C796.75,-69.13 791.77,-67.97 787,-67 668.78,-43.03 636.6,-52.98 518,-31 508.9,-29.31 499.12,-27.15 490.11,-25.01"/>
<polygon fill="midnightblue" stroke="midnightblue" points="801,-73.81 811.56,-72.97 802.78,-67.04 801,-73.81"/>
</g>
<!-- Node13 -->
<g id="node13" class="node">
<title>Node13</title>
<g id="a_node13"><a xlink:href="tracker_8cpp.html" target="_top" xlink:title=" ">
<polygon fill="none" stroke="black" points="836.5,-6 836.5,-25 923.5,-25 923.5,-6 836.5,-6"/>
<text text-anchor="middle" x="880" y="-13" font-family="Helvetica,sans-Serif" font-size="10.00">src/tracker.cpp</text>
</a>
</g>
</g>
<!-- Node12&#45;&gt;Node13 -->
<g id="edge17" class="edge">
<title>Node12&#45;&gt;Node13</title>
<path fill="none" stroke="midnightblue" d="M850.75,-64.03C858.49,-51.45 868.61,-35.01 874.69,-25.13"/>
<polygon fill="midnightblue" stroke="midnightblue" points="847.65,-62.38 845.39,-72.73 853.62,-66.05 847.65,-62.38"/>
</g>
</g>
</svg>
