<?xml version="1.0" encoding="UTF-8" standalone="no"?>
<!DOCTYPE svg PUBLIC "-//W3C//DTD SVG 1.1//EN"
 "http://www.w3.org/Graphics/SVG/1.1/DTD/svg11.dtd">
<!-- Generated by graphviz version 2.43.0 (0)
 -->
<!-- Title: src/http/http_client_curl.cpp Pages: 1 -->
<svg width="455pt" height="263pt"
 viewBox="0.00 0.00 455.00 263.00" xmlns="http://www.w3.org/2000/svg" xmlns:xlink="http://www.w3.org/1999/xlink">
<g id="graph0" class="graph" transform="scale(1 1) rotate(0) translate(4 259)">
<title>src/http/http_client_curl.cpp</title>
<!-- Node1 -->
<g id="node1" class="node">
<title>Node1</title>
<g id="a_node1"><a xlink:title=" ">
<polygon fill="#bfbfbf" stroke="black" points="249,-224.5 249,-254.5 357,-254.5 357,-224.5 249,-224.5"/>
<text text-anchor="start" x="257" y="-242.5" font-family="Helvetica,sans-Serif" font-size="10.00">src/http/http_client</text>
<text text-anchor="middle" x="303" y="-231.5" font-family="Helvetica,sans-Serif" font-size="10.00">_curl.cpp</text>
</a>
</g>
</g>
<!-- Node2 -->
<g id="node2" class="node">
<title>Node2</title>
<g id="a_node2"><a xlink:href="http__client__curl_8hpp.html" target="_top" xlink:title=" ">
<polygon fill="none" stroke="black" points="124.5,-168.5 124.5,-187.5 237.5,-187.5 237.5,-168.5 124.5,-168.5"/>
<text text-anchor="middle" x="181" y="-175.5" font-family="Helvetica,sans-Serif" font-size="10.00">http_client_curl.hpp</text>
</a>
</g>
</g>
<!-- Node1&#45;&gt;Node2 -->
<g id="edge1" class="edge">
<title>Node1&#45;&gt;Node2</title>
<path fill="none" stroke="midnightblue" d="M274.09,-224.4C253.98,-214.59 227.38,-201.62 207.76,-192.05"/>
<polygon fill="midnightblue" stroke="midnightblue" points="209.27,-188.9 198.75,-187.66 206.21,-195.19 209.27,-188.9"/>
</g>
<!-- Node12 -->
<g id="node12" class="node">
<title>Node12</title>
<g id="a_node12"><a xlink:href="constants_8hpp.html" target="_top" xlink:title=" ">
<polygon fill="none" stroke="black" points="256,-168.5 256,-187.5 350,-187.5 350,-168.5 256,-168.5"/>
<text text-anchor="middle" x="303" y="-175.5" font-family="Helvetica,sans-Serif" font-size="10.00">../constants.hpp</text>
</a>
</g>
</g>
<!-- Node1&#45;&gt;Node12 -->
<g id="edge13" class="edge">
<title>Node1&#45;&gt;Node12</title>
<path fill="none" stroke="midnightblue" d="M303,-224.4C303,-216.47 303,-206.46 303,-197.86"/>
<polygon fill="midnightblue" stroke="midnightblue" points="306.5,-197.66 303,-187.66 299.5,-197.66 306.5,-197.66"/>
</g>
<!-- Node14 -->
<g id="node14" class="node">
<title>Node14</title>
<g id="a_node14"><a xlink:title=" ">
<polygon fill="none" stroke="#bfbfbf" points="368.5,-168.5 368.5,-187.5 433.5,-187.5 433.5,-168.5 368.5,-168.5"/>
<text text-anchor="middle" x="401" y="-175.5" font-family="Helvetica,sans-Serif" font-size="10.00">curl/curl.h</text>
</a>
</g>
</g>
<!-- Node1&#45;&gt;Node14 -->
<g id="edge16" class="edge">
<title>Node1&#45;&gt;Node14</title>
<path fill="none" stroke="midnightblue" d="M326.22,-224.4C341.79,-214.95 362.2,-202.56 377.76,-193.11"/>
<polygon fill="midnightblue" stroke="midnightblue" points="380.01,-195.84 386.74,-187.66 376.38,-189.86 380.01,-195.84"/>
</g>
<!-- Node3 -->
<g id="node3" class="node">
<title>Node3</title>
<g id="a_node3"><a xlink:href="http__client_8hpp.html" target="_top" xlink:title=" ">
<polygon fill="none" stroke="black" points="163.5,-112.5 163.5,-131.5 252.5,-131.5 252.5,-112.5 163.5,-112.5"/>
<text text-anchor="middle" x="208" y="-119.5" font-family="Helvetica,sans-Serif" font-size="10.00">http_client.hpp</text>
</a>
</g>
</g>
<!-- Node2&#45;&gt;Node3 -->
<g id="edge2" class="edge">
<title>Node2&#45;&gt;Node3</title>
<path fill="none" stroke="midnightblue" d="M185.46,-168.08C189.15,-160.69 194.52,-149.95 199.09,-140.81"/>
<polygon fill="midnightblue" stroke="midnightblue" points="202.28,-142.26 203.62,-131.75 196.02,-139.13 202.28,-142.26"/>
</g>
<!-- Node4 -->
<g id="node4" class="node">
<title>Node4</title>
<g id="a_node4"><a xlink:title=" ">
<polygon fill="none" stroke="#bfbfbf" points="153,-0.5 153,-19.5 197,-19.5 197,-0.5 153,-0.5"/>
<text text-anchor="middle" x="175" y="-7.5" font-family="Helvetica,sans-Serif" font-size="10.00">string</text>
</a>
</g>
</g>
<!-- Node2&#45;&gt;Node4 -->
<g id="edge12" class="edge">
<title>Node2&#45;&gt;Node4</title>
<path fill="none" stroke="midnightblue" d="M173.85,-168.36C167.23,-159.76 157.84,-145.87 154,-132 144.08,-96.19 157.4,-53.05 166.92,-29.16"/>
<polygon fill="midnightblue" stroke="midnightblue" points="170.27,-30.21 170.92,-19.64 163.82,-27.5 170.27,-30.21"/>
</g>
<!-- Node3&#45;&gt;Node4 -->
<g id="edge3" class="edge">
<title>Node3&#45;&gt;Node4</title>
<path fill="none" stroke="midnightblue" d="M205.41,-112.37C200.06,-94.54 187.69,-53.3 180.48,-29.27"/>
<polygon fill="midnightblue" stroke="midnightblue" points="183.8,-28.16 177.58,-19.59 177.1,-30.18 183.8,-28.16"/>
</g>
<!-- Node5 -->
<g id="node5" class="node">
<title>Node5</title>
<g id="a_node5"><a xlink:href="cracked__url_8hpp.html" target="_top" xlink:title=" ">
<polygon fill="none" stroke="black" points="5,-56.5 5,-75.5 107,-75.5 107,-56.5 5,-56.5"/>
<text text-anchor="middle" x="56" y="-63.5" font-family="Helvetica,sans-Serif" font-size="10.00">../cracked_url.hpp</text>
</a>
</g>
</g>
<!-- Node3&#45;&gt;Node5 -->
<g id="edge4" class="edge">
<title>Node3&#45;&gt;Node5</title>
<path fill="none" stroke="midnightblue" d="M183.92,-112.44C158.46,-103.4 118.11,-89.06 89.54,-78.92"/>
<polygon fill="midnightblue" stroke="midnightblue" points="90.57,-75.57 79.97,-75.52 88.22,-82.16 90.57,-75.57"/>
</g>
<!-- Node8 -->
<g id="node8" class="node">
<title>Node8</title>
<g id="a_node8"><a xlink:href="http__request__result_8hpp.html" target="_top" xlink:title=" ">
<polygon fill="none" stroke="black" points="309,-56.5 309,-75.5 441,-75.5 441,-56.5 309,-56.5"/>
<text text-anchor="middle" x="375" y="-63.5" font-family="Helvetica,sans-Serif" font-size="10.00">http_request_result.hpp</text>
</a>
</g>
</g>
<!-- Node3&#45;&gt;Node8 -->
<g id="edge8" class="edge">
<title>Node3&#45;&gt;Node8</title>
<path fill="none" stroke="midnightblue" d="M234.46,-112.44C262.68,-103.32 307.54,-88.81 338.97,-78.65"/>
<polygon fill="midnightblue" stroke="midnightblue" points="340.22,-81.92 348.66,-75.52 338.07,-75.26 340.22,-81.92"/>
</g>
<!-- Node5&#45;&gt;Node4 -->
<g id="edge5" class="edge">
<title>Node5&#45;&gt;Node4</title>
<path fill="none" stroke="midnightblue" d="M74.86,-56.44C94.27,-47.64 124.73,-33.81 146.96,-23.72"/>
<polygon fill="midnightblue" stroke="midnightblue" points="148.57,-26.84 156.23,-19.52 145.68,-20.46 148.57,-26.84"/>
</g>
<!-- Node6 -->
<g id="node6" class="node">
<title>Node6</title>
<g id="a_node6"><a xlink:title=" ">
<polygon fill="none" stroke="#bfbfbf" points="62,-0.5 62,-19.5 118,-19.5 118,-0.5 62,-0.5"/>
<text text-anchor="middle" x="90" y="-7.5" font-family="Helvetica,sans-Serif" font-size="10.00">sstream</text>
</a>
</g>
</g>
<!-- Node5&#45;&gt;Node6 -->
<g id="edge6" class="edge">
<title>Node5&#45;&gt;Node6</title>
<path fill="none" stroke="midnightblue" d="M61.61,-56.08C66.37,-48.53 73.32,-37.49 79.15,-28.23"/>
<polygon fill="midnightblue" stroke="midnightblue" points="82.12,-30.08 84.49,-19.75 76.2,-26.35 82.12,-30.08"/>
</g>
<!-- Node7 -->
<g id="node7" class="node">
<title>Node7</title>
<g id="a_node7"><a xlink:title=" ">
<polygon fill="none" stroke="#bfbfbf" points="0,-0.5 0,-19.5 44,-19.5 44,-0.5 0,-0.5"/>
<text text-anchor="middle" x="22" y="-7.5" font-family="Helvetica,sans-Serif" font-size="10.00">regex</text>
</a>
</g>
</g>
<!-- Node5&#45;&gt;Node7 -->
<g id="edge7" class="edge">
<title>Node5&#45;&gt;Node7</title>
<path fill="none" stroke="midnightblue" d="M50.39,-56.08C45.63,-48.53 38.68,-37.49 32.85,-28.23"/>
<polygon fill="midnightblue" stroke="midnightblue" points="35.8,-26.35 27.51,-19.75 29.88,-30.08 35.8,-26.35"/>
</g>
<!-- Node9 -->
<g id="node9" class="node">
<title>Node9</title>
<g id="a_node9"><a xlink:title=" ">
<polygon fill="none" stroke="#bfbfbf" points="281,-0.5 281,-19.5 341,-19.5 341,-0.5 281,-0.5"/>
<text text-anchor="middle" x="311" y="-7.5" font-family="Helvetica,sans-Serif" font-size="10.00">iostream</text>
</a>
</g>
</g>
<!-- Node8&#45;&gt;Node9 -->
<g id="edge9" class="edge">
<title>Node8&#45;&gt;Node9</title>
<path fill="none" stroke="midnightblue" d="M364.72,-56.32C355.16,-48.26 340.72,-36.08 329.22,-26.37"/>
<polygon fill="midnightblue" stroke="midnightblue" points="331.37,-23.61 321.47,-19.83 326.86,-28.96 331.37,-23.61"/>
</g>
<!-- Node10 -->
<g id="node10" class="node">
<title>Node10</title>
<g id="a_node10"><a xlink:title=" ">
<polygon fill="none" stroke="#bfbfbf" points="359,-0.5 359,-19.5 391,-19.5 391,-0.5 359,-0.5"/>
<text text-anchor="middle" x="375" y="-7.5" font-family="Helvetica,sans-Serif" font-size="10.00">list</text>
</a>
</g>
</g>
<!-- Node8&#45;&gt;Node10 -->
<g id="edge10" class="edge">
<title>Node8&#45;&gt;Node10</title>
<path fill="none" stroke="midnightblue" d="M375,-56.08C375,-49.01 375,-38.86 375,-29.99"/>
<polygon fill="midnightblue" stroke="midnightblue" points="378.5,-29.75 375,-19.75 371.5,-29.75 378.5,-29.75"/>
</g>
<!-- Node11 -->
<g id="node11" class="node">
<title>Node11</title>
<g id="a_node11"><a xlink:title=" ">
<polygon fill="none" stroke="#bfbfbf" points="409,-0.5 409,-19.5 447,-19.5 447,-0.5 409,-0.5"/>
<text text-anchor="middle" x="428" y="-7.5" font-family="Helvetica,sans-Serif" font-size="10.00">map</text>
</a>
</g>
</g>
<!-- Node8&#45;&gt;Node11 -->
<g id="edge11" class="edge">
<title>Node8&#45;&gt;Node11</title>
<path fill="none" stroke="midnightblue" d="M383.75,-56.08C391.47,-48.22 402.9,-36.57 412.22,-27.08"/>
<polygon fill="midnightblue" stroke="midnightblue" points="414.9,-29.34 419.41,-19.75 409.91,-24.44 414.9,-29.34"/>
</g>
<!-- Node12&#45;&gt;Node4 -->
<g id="edge14" class="edge">
<title>Node12&#45;&gt;Node4</title>
<path fill="none" stroke="midnightblue" d="M297.91,-168.35C290.33,-155.66 275.43,-131.4 261,-112 237.67,-80.63 207.47,-46.46 189.76,-26.99"/>
<polygon fill="midnightblue" stroke="midnightblue" points="192.33,-24.61 183,-19.59 187.17,-29.33 192.33,-24.61"/>
</g>
<!-- Node13 -->
<g id="node13" class="node">
<title>Node13</title>
<g id="a_node13"><a xlink:title=" ">
<polygon fill="none" stroke="#bfbfbf" points="309,-112.5 309,-131.5 341,-131.5 341,-112.5 309,-112.5"/>
<text text-anchor="middle" x="325" y="-119.5" font-family="Helvetica,sans-Serif" font-size="10.00">set</text>
</a>
</g>
</g>
<!-- Node12&#45;&gt;Node13 -->
<g id="edge15" class="edge">
<title>Node12&#45;&gt;Node13</title>
<path fill="none" stroke="midnightblue" d="M306.63,-168.08C309.61,-160.77 313.93,-150.18 317.62,-141.1"/>
<polygon fill="midnightblue" stroke="midnightblue" points="320.9,-142.33 321.43,-131.75 314.42,-139.69 320.9,-142.33"/>
</g>
</g>
</svg>
