<?xml version="1.0" encoding="UTF-8" standalone="no"?>
<!DOCTYPE svg PUBLIC "-//W3C//DTD SVG 1.1//EN"
 "http://www.w3.org/Graphics/SVG/1.1/DTD/svg11.dtd">
<!-- Generated by graphviz version 2.43.0 (0)
 -->
<!-- Title: src/http/http_client_curl.hpp Pages: 1 -->
<svg width="387pt" height="207pt"
 viewBox="0.00 0.00 387.00 207.00" xmlns="http://www.w3.org/2000/svg" xmlns:xlink="http://www.w3.org/1999/xlink">
<g id="graph0" class="graph" transform="scale(1 1) rotate(0) translate(4 203)">
<title>src/http/http_client_curl.hpp</title>
<!-- Node1 -->
<g id="node1" class="node">
<title>Node1</title>
<g id="a_node1"><a xlink:title=" ">
<polygon fill="#bfbfbf" stroke="black" points="0,-168.5 0,-198.5 108,-198.5 108,-168.5 0,-168.5"/>
<text text-anchor="start" x="8" y="-186.5" font-family="Helvetica,sans-Serif" font-size="10.00">src/http/http_client</text>
<text text-anchor="middle" x="54" y="-175.5" font-family="Helvetica,sans-Serif" font-size="10.00">_curl.hpp</text>
</a>
</g>
</g>
<!-- Node2 -->
<g id="node2" class="node">
<title>Node2</title>
<g id="a_node2"><a xlink:href="http__client_8hpp.html" target="_top" xlink:title=" ">
<polygon fill="none" stroke="black" points="68.5,-112.5 68.5,-131.5 157.5,-131.5 157.5,-112.5 68.5,-112.5"/>
<text text-anchor="middle" x="113" y="-119.5" font-family="Helvetica,sans-Serif" font-size="10.00">http_client.hpp</text>
</a>
</g>
</g>
<!-- Node1&#45;&gt;Node2 -->
<g id="edge1" class="edge">
<title>Node1&#45;&gt;Node2</title>
<path fill="none" stroke="midnightblue" d="M67.98,-168.4C76.73,-159.58 88.03,-148.18 97.12,-139.02"/>
<polygon fill="midnightblue" stroke="midnightblue" points="99.86,-141.22 104.41,-131.66 94.89,-136.29 99.86,-141.22"/>
</g>
<!-- Node3 -->
<g id="node3" class="node">
<title>Node3</title>
<g id="a_node3"><a xlink:title=" ">
<polygon fill="none" stroke="#bfbfbf" points="15,-0.5 15,-19.5 59,-19.5 59,-0.5 15,-0.5"/>
<text text-anchor="middle" x="37" y="-7.5" font-family="Helvetica,sans-Serif" font-size="10.00">string</text>
</a>
</g>
</g>
<!-- Node1&#45;&gt;Node3 -->
<g id="edge11" class="edge">
<title>Node1&#45;&gt;Node3</title>
<path fill="none" stroke="midnightblue" d="M52.61,-168.47C49.56,-137.7 42.29,-64.33 38.85,-29.7"/>
<polygon fill="midnightblue" stroke="midnightblue" points="42.32,-29.17 37.85,-19.56 35.35,-29.86 42.32,-29.17"/>
</g>
<!-- Node2&#45;&gt;Node3 -->
<g id="edge2" class="edge">
<title>Node2&#45;&gt;Node3</title>
<path fill="none" stroke="midnightblue" d="M104.96,-112.4C96.92,-103.6 84.44,-89.36 75,-76 64.18,-60.69 53.56,-42.13 46.3,-28.77"/>
<polygon fill="midnightblue" stroke="midnightblue" points="49.26,-26.88 41.47,-19.7 43.09,-30.17 49.26,-26.88"/>
</g>
<!-- Node4 -->
<g id="node4" class="node">
<title>Node4</title>
<g id="a_node4"><a xlink:href="cracked__url_8hpp.html" target="_top" xlink:title=" ">
<polygon fill="none" stroke="black" points="84,-56.5 84,-75.5 186,-75.5 186,-56.5 84,-56.5"/>
<text text-anchor="middle" x="135" y="-63.5" font-family="Helvetica,sans-Serif" font-size="10.00">../cracked_url.hpp</text>
</a>
</g>
</g>
<!-- Node2&#45;&gt;Node4 -->
<g id="edge3" class="edge">
<title>Node2&#45;&gt;Node4</title>
<path fill="none" stroke="midnightblue" d="M116.63,-112.08C119.61,-104.77 123.93,-94.18 127.62,-85.1"/>
<polygon fill="midnightblue" stroke="midnightblue" points="130.9,-86.33 131.43,-75.75 124.42,-83.69 130.9,-86.33"/>
</g>
<!-- Node7 -->
<g id="node7" class="node">
<title>Node7</title>
<g id="a_node7"><a xlink:href="http__request__result_8hpp.html" target="_top" xlink:title=" ">
<polygon fill="none" stroke="black" points="222,-56.5 222,-75.5 354,-75.5 354,-56.5 222,-56.5"/>
<text text-anchor="middle" x="288" y="-63.5" font-family="Helvetica,sans-Serif" font-size="10.00">http_request_result.hpp</text>
</a>
</g>
</g>
<!-- Node2&#45;&gt;Node7 -->
<g id="edge7" class="edge">
<title>Node2&#45;&gt;Node7</title>
<path fill="none" stroke="midnightblue" d="M140.73,-112.44C170.43,-103.28 217.72,-88.69 250.67,-78.52"/>
<polygon fill="midnightblue" stroke="midnightblue" points="251.88,-81.81 260.4,-75.52 249.81,-75.12 251.88,-81.81"/>
</g>
<!-- Node4&#45;&gt;Node3 -->
<g id="edge4" class="edge">
<title>Node4&#45;&gt;Node3</title>
<path fill="none" stroke="midnightblue" d="M119.25,-56.32C103.68,-47.74 79.62,-34.49 61.54,-24.52"/>
<polygon fill="midnightblue" stroke="midnightblue" points="63.15,-21.42 52.71,-19.65 59.78,-27.55 63.15,-21.42"/>
</g>
<!-- Node5 -->
<g id="node5" class="node">
<title>Node5</title>
<g id="a_node5"><a xlink:title=" ">
<polygon fill="none" stroke="#bfbfbf" points="77,-0.5 77,-19.5 133,-19.5 133,-0.5 77,-0.5"/>
<text text-anchor="middle" x="105" y="-7.5" font-family="Helvetica,sans-Serif" font-size="10.00">sstream</text>
</a>
</g>
</g>
<!-- Node4&#45;&gt;Node5 -->
<g id="edge5" class="edge">
<title>Node4&#45;&gt;Node5</title>
<path fill="none" stroke="midnightblue" d="M130.05,-56.08C125.9,-48.61 119.85,-37.72 114.73,-28.52"/>
<polygon fill="midnightblue" stroke="midnightblue" points="117.78,-26.79 109.86,-19.75 111.66,-30.19 117.78,-26.79"/>
</g>
<!-- Node6 -->
<g id="node6" class="node">
<title>Node6</title>
<g id="a_node6"><a xlink:title=" ">
<polygon fill="none" stroke="#bfbfbf" points="151,-0.5 151,-19.5 195,-19.5 195,-0.5 151,-0.5"/>
<text text-anchor="middle" x="173" y="-7.5" font-family="Helvetica,sans-Serif" font-size="10.00">regex</text>
</a>
</g>
</g>
<!-- Node4&#45;&gt;Node6 -->
<g id="edge6" class="edge">
<title>Node4&#45;&gt;Node6</title>
<path fill="none" stroke="midnightblue" d="M141.27,-56.08C146.64,-48.46 154.52,-37.26 161.08,-27.94"/>
<polygon fill="midnightblue" stroke="midnightblue" points="163.95,-29.94 166.84,-19.75 158.22,-25.91 163.95,-29.94"/>
</g>
<!-- Node8 -->
<g id="node8" class="node">
<title>Node8</title>
<g id="a_node8"><a xlink:title=" ">
<polygon fill="none" stroke="#bfbfbf" points="213,-0.5 213,-19.5 273,-19.5 273,-0.5 213,-0.5"/>
<text text-anchor="middle" x="243" y="-7.5" font-family="Helvetica,sans-Serif" font-size="10.00">iostream</text>
</a>
</g>
</g>
<!-- Node7&#45;&gt;Node8 -->
<g id="edge8" class="edge">
<title>Node7&#45;&gt;Node8</title>
<path fill="none" stroke="midnightblue" d="M280.57,-56.08C274.15,-48.38 264.69,-37.03 256.88,-27.65"/>
<polygon fill="midnightblue" stroke="midnightblue" points="259.38,-25.19 250.29,-19.75 254.01,-29.67 259.38,-25.19"/>
</g>
<!-- Node9 -->
<g id="node9" class="node">
<title>Node9</title>
<g id="a_node9"><a xlink:title=" ">
<polygon fill="none" stroke="#bfbfbf" points="291,-0.5 291,-19.5 323,-19.5 323,-0.5 291,-0.5"/>
<text text-anchor="middle" x="307" y="-7.5" font-family="Helvetica,sans-Serif" font-size="10.00">list</text>
</a>
</g>
</g>
<!-- Node7&#45;&gt;Node9 -->
<g id="edge9" class="edge">
<title>Node7&#45;&gt;Node9</title>
<path fill="none" stroke="midnightblue" d="M291.14,-56.08C293.68,-48.85 297.36,-38.41 300.53,-29.4"/>
<polygon fill="midnightblue" stroke="midnightblue" points="303.9,-30.35 303.92,-19.75 297.3,-28.02 303.9,-30.35"/>
</g>
<!-- Node10 -->
<g id="node10" class="node">
<title>Node10</title>
<g id="a_node10"><a xlink:title=" ">
<polygon fill="none" stroke="#bfbfbf" points="341,-0.5 341,-19.5 379,-19.5 379,-0.5 341,-0.5"/>
<text text-anchor="middle" x="360" y="-7.5" font-family="Helvetica,sans-Serif" font-size="10.00">map</text>
</a>
</g>
</g>
<!-- Node7&#45;&gt;Node10 -->
<g id="edge10" class="edge">
<title>Node7&#45;&gt;Node10</title>
<path fill="none" stroke="midnightblue" d="M299.57,-56.32C310.42,-48.18 326.88,-35.84 339.88,-26.09"/>
<polygon fill="midnightblue" stroke="midnightblue" points="342.32,-28.63 348.22,-19.83 338.12,-23.03 342.32,-28.63"/>
</g>
</g>
</svg>
