<?xml version="1.0" encoding="UTF-8" standalone="no"?>
<!DOCTYPE svg PUBLIC "-//W3C//DTD SVG 1.1//EN"
 "http://www.w3.org/Graphics/SVG/1.1/DTD/svg11.dtd">
<!-- Generated by graphviz version 2.43.0 (0)
 -->
<!-- Title: src/http/http_client.hpp Pages: 1 -->
<svg width="482pt" height="218pt"
 viewBox="0.00 0.00 482.00 218.00" xmlns="http://www.w3.org/2000/svg" xmlns:xlink="http://www.w3.org/1999/xlink">
<g id="graph0" class="graph" transform="scale(1 1) rotate(0) translate(4 214)">
<title>src/http/http_client.hpp</title>
<!-- Node1 -->
<g id="node1" class="node">
<title>Node1</title>
<g id="a_node1"><a xlink:title=" ">
<polygon fill="#bfbfbf" stroke="black" points="235.5,-190.5 235.5,-209.5 364.5,-209.5 364.5,-190.5 235.5,-190.5"/>
<text text-anchor="middle" x="300" y="-197.5" font-family="Helvetica,sans-Serif" font-size="10.00">src/http/http_client.hpp</text>
</a>
</g>
</g>
<!-- Node2 -->
<g id="node2" class="node">
<title>Node2</title>
<g id="a_node2"><a xlink:href="emitter_8hpp.html" target="_top" xlink:title=" ">
<polygon fill="none" stroke="black" points="97.5,-129 97.5,-148 226.5,-148 226.5,-129 97.5,-129"/>
<text text-anchor="middle" x="162" y="-136" font-family="Helvetica,sans-Serif" font-size="10.00">src/emitter/emitter.hpp</text>
</a>
</g>
</g>
<!-- Node1&#45;&gt;Node2 -->
<g id="edge1" class="edge">
<title>Node1&#45;&gt;Node2</title>
<path fill="none" stroke="midnightblue" d="M270.96,-186.48C244.16,-174.92 205.08,-158.08 181.74,-148.01"/>
<polygon fill="midnightblue" stroke="midnightblue" points="269.66,-189.73 280.23,-190.48 272.43,-183.3 269.66,-189.73"/>
</g>
<!-- Node4 -->
<g id="node4" class="node">
<title>Node4</title>
<g id="a_node4"><a xlink:href="snowplow_8hpp.html" target="_top" xlink:title=" ">
<polygon fill="none" stroke="black" points="176.5,-0.5 176.5,-19.5 279.5,-19.5 279.5,-0.5 176.5,-0.5"/>
<text text-anchor="middle" x="228" y="-7.5" font-family="Helvetica,sans-Serif" font-size="10.00">src/snowplow.hpp</text>
</a>
</g>
</g>
<!-- Node1&#45;&gt;Node4 -->
<g id="edge11" class="edge">
<title>Node1&#45;&gt;Node4</title>
<path fill="none" stroke="midnightblue" d="M301.63,-180.06C303.22,-151.37 302.82,-96 281,-56 272.33,-40.11 255.62,-27.39 243.27,-19.58"/>
<polygon fill="midnightblue" stroke="midnightblue" points="298.12,-180.07 300.91,-190.29 305.1,-180.56 298.12,-180.07"/>
</g>
<!-- Node7 -->
<g id="node7" class="node">
<title>Node7</title>
<g id="a_node7"><a xlink:href="http__client__curl_8hpp.html" target="_top" xlink:title=" ">
<polygon fill="none" stroke="black" points="328,-123.5 328,-153.5 436,-153.5 436,-123.5 328,-123.5"/>
<text text-anchor="start" x="336" y="-141.5" font-family="Helvetica,sans-Serif" font-size="10.00">src/http/http_client</text>
<text text-anchor="middle" x="382" y="-130.5" font-family="Helvetica,sans-Serif" font-size="10.00">_curl.hpp</text>
</a>
</g>
</g>
<!-- Node1&#45;&gt;Node7 -->
<g id="edge7" class="edge">
<title>Node1&#45;&gt;Node7</title>
<path fill="none" stroke="midnightblue" d="M320.03,-184.47C333.01,-175.05 349.83,-162.84 362.67,-153.52"/>
<polygon fill="midnightblue" stroke="midnightblue" points="317.79,-181.77 311.75,-190.48 321.9,-187.43 317.79,-181.77"/>
</g>
<!-- Node3 -->
<g id="node3" class="node">
<title>Node3</title>
<g id="a_node3"><a xlink:href="emitter_8cpp.html" target="_top" xlink:title=" ">
<polygon fill="none" stroke="black" points="144,-62 144,-81 272,-81 272,-62 144,-62"/>
<text text-anchor="middle" x="208" y="-69" font-family="Helvetica,sans-Serif" font-size="10.00">src/emitter/emitter.cpp</text>
</a>
</g>
</g>
<!-- Node2&#45;&gt;Node3 -->
<g id="edge2" class="edge">
<title>Node2&#45;&gt;Node3</title>
<path fill="none" stroke="midnightblue" d="M174.1,-120.4C183.04,-107.77 194.83,-91.1 201.89,-81.13"/>
<polygon fill="midnightblue" stroke="midnightblue" points="171.12,-118.55 168.2,-128.73 176.84,-122.59 171.12,-118.55"/>
</g>
<!-- Node2&#45;&gt;Node4 -->
<g id="edge3" class="edge">
<title>Node2&#45;&gt;Node4</title>
<path fill="none" stroke="midnightblue" d="M148.52,-120.81C136.36,-103.59 122.19,-76.43 135,-56 146.82,-37.16 169,-26.01 188.75,-19.52"/>
<polygon fill="midnightblue" stroke="midnightblue" points="145.73,-122.94 154.54,-128.83 151.33,-118.73 145.73,-122.94"/>
</g>
<!-- Node5 -->
<g id="node5" class="node">
<title>Node5</title>
<g id="a_node5"><a xlink:href="tracker_8hpp.html" target="_top" xlink:title=" ">
<polygon fill="none" stroke="black" points="0,-62 0,-81 88,-81 88,-62 0,-62"/>
<text text-anchor="middle" x="44" y="-69" font-family="Helvetica,sans-Serif" font-size="10.00">src/tracker.hpp</text>
</a>
</g>
</g>
<!-- Node2&#45;&gt;Node5 -->
<g id="edge4" class="edge">
<title>Node2&#45;&gt;Node5</title>
<path fill="none" stroke="midnightblue" d="M137.11,-123.79C113.72,-110.9 79.44,-92.02 59.66,-81.13"/>
<polygon fill="midnightblue" stroke="midnightblue" points="135.64,-126.97 146.09,-128.73 139.02,-120.84 135.64,-126.97"/>
</g>
<!-- Node5&#45;&gt;Node4 -->
<g id="edge5" class="edge">
<title>Node5&#45;&gt;Node4</title>
<path fill="none" stroke="midnightblue" d="M79.93,-58.88C115.7,-47.32 169.74,-29.84 201.69,-19.51"/>
<polygon fill="midnightblue" stroke="midnightblue" points="78.8,-55.57 70.36,-61.98 80.95,-62.23 78.8,-55.57"/>
</g>
<!-- Node6 -->
<g id="node6" class="node">
<title>Node6</title>
<g id="a_node6"><a xlink:href="tracker_8cpp.html" target="_top" xlink:title=" ">
<polygon fill="none" stroke="black" points="0.5,-0.5 0.5,-19.5 87.5,-19.5 87.5,-0.5 0.5,-0.5"/>
<text text-anchor="middle" x="44" y="-7.5" font-family="Helvetica,sans-Serif" font-size="10.00">src/tracker.cpp</text>
</a>
</g>
</g>
<!-- Node5&#45;&gt;Node6 -->
<g id="edge6" class="edge">
<title>Node5&#45;&gt;Node6</title>
<path fill="none" stroke="midnightblue" d="M44,-51.82C44,-41 44,-27.9 44,-19.51"/>
<polygon fill="midnightblue" stroke="midnightblue" points="40.5,-51.98 44,-61.98 47.5,-51.98 40.5,-51.98"/>
</g>
<!-- Node7&#45;&gt;Node3 -->
<g id="edge8" class="edge">
<title>Node7&#45;&gt;Node3</title>
<path fill="none" stroke="midnightblue" d="M334.58,-119.78C300.84,-107.18 257.01,-90.81 230.77,-81.01"/>
<polygon fill="midnightblue" stroke="midnightblue" points="333.65,-123.18 344.24,-123.4 336.1,-116.62 333.65,-123.18"/>
</g>
<!-- Node7&#45;&gt;Node4 -->
<g id="edge10" class="edge">
<title>Node7&#45;&gt;Node4</title>
<path fill="none" stroke="midnightblue" d="M366.84,-114.81C354.24,-97.18 335.01,-72.95 314,-56 294.33,-40.13 268.18,-27.41 249.9,-19.59"/>
<polygon fill="midnightblue" stroke="midnightblue" points="364.22,-117.16 372.81,-123.36 369.96,-113.16 364.22,-117.16"/>
</g>
<!-- Node8 -->
<g id="node8" class="node">
<title>Node8</title>
<g id="a_node8"><a xlink:href="http__client__curl_8cpp.html" target="_top" xlink:title=" ">
<polygon fill="none" stroke="black" points="366,-56.5 366,-86.5 474,-86.5 474,-56.5 366,-56.5"/>
<text text-anchor="start" x="374" y="-74.5" font-family="Helvetica,sans-Serif" font-size="10.00">src/http/http_client</text>
<text text-anchor="middle" x="420" y="-63.5" font-family="Helvetica,sans-Serif" font-size="10.00">_curl.cpp</text>
</a>
</g>
</g>
<!-- Node7&#45;&gt;Node8 -->
<g id="edge9" class="edge">
<title>Node7&#45;&gt;Node8</title>
<path fill="none" stroke="midnightblue" d="M395.4,-114.58C400.86,-105.24 406.99,-94.75 411.77,-86.58"/>
<polygon fill="midnightblue" stroke="midnightblue" points="392.27,-113 390.25,-123.4 398.31,-116.53 392.27,-113"/>
</g>
</g>
</svg>
