<?xml version="1.0" encoding="UTF-8" standalone="no"?>
<!DOCTYPE svg PUBLIC "-//W3C//DTD SVG 1.1//EN"
 "http://www.w3.org/Graphics/SVG/1.1/DTD/svg11.dtd">
<!-- Generated by graphviz version 2.43.0 (0)
 -->
<!-- Title: src/http/http_request_result.hpp Pages: 1 -->
<svg width="542pt" height="296pt"
 viewBox="0.00 0.00 542.00 296.00" xmlns="http://www.w3.org/2000/svg" xmlns:xlink="http://www.w3.org/1999/xlink">
<g id="graph0" class="graph" transform="scale(1 1) rotate(0) translate(4 292)">
<title>src/http/http_request_result.hpp</title>
<!-- Node1 -->
<g id="node1" class="node">
<title>Node1</title>
<g id="a_node1"><a xlink:title=" ">
<polygon fill="#bfbfbf" stroke="black" points="274,-257.5 274,-287.5 392,-287.5 392,-257.5 274,-257.5"/>
<text text-anchor="start" x="282" y="-275.5" font-family="Helvetica,sans-Serif" font-size="10.00">src/http/http_request</text>
<text text-anchor="middle" x="333" y="-264.5" font-family="Helvetica,sans-Serif" font-size="10.00">_result.hpp</text>
</a>
</g>
</g>
<!-- Node2 -->
<g id="node2" class="node">
<title>Node2</title>
<g id="a_node2"><a xlink:href="emitter_8hpp.html" target="_top" xlink:title=" ">
<polygon fill="none" stroke="black" points="142.5,-129 142.5,-148 271.5,-148 271.5,-129 142.5,-129"/>
<text text-anchor="middle" x="207" y="-136" font-family="Helvetica,sans-Serif" font-size="10.00">src/emitter/emitter.hpp</text>
</a>
</g>
</g>
<!-- Node1&#45;&gt;Node2 -->
<g id="edge1" class="edge">
<title>Node1&#45;&gt;Node2</title>
<path fill="none" stroke="midnightblue" d="M298.23,-251.91C285.03,-243.45 270.44,-232.79 259,-221 236.69,-197.98 218.72,-163.94 211.04,-148.14"/>
<polygon fill="midnightblue" stroke="midnightblue" points="296.75,-255.1 307.1,-257.39 300.44,-249.15 296.75,-255.1"/>
</g>
<!-- Node7 -->
<g id="node7" class="node">
<title>Node7</title>
<g id="a_node7"><a xlink:href="http__client_8hpp.html" target="_top" xlink:title=" ">
<polygon fill="none" stroke="black" points="268.5,-196 268.5,-215 397.5,-215 397.5,-196 268.5,-196"/>
<text text-anchor="middle" x="333" y="-203" font-family="Helvetica,sans-Serif" font-size="10.00">src/http/http_client.hpp</text>
</a>
</g>
</g>
<!-- Node1&#45;&gt;Node7 -->
<g id="edge7" class="edge">
<title>Node1&#45;&gt;Node7</title>
<path fill="none" stroke="midnightblue" d="M333,-247.25C333,-236.02 333,-223.38 333,-215.19"/>
<polygon fill="midnightblue" stroke="midnightblue" points="329.5,-247.4 333,-257.4 336.5,-247.4 329.5,-247.4"/>
</g>
<!-- Node10 -->
<g id="node10" class="node">
<title>Node10</title>
<g id="a_node10"><a xlink:href="http__request__result_8cpp.html" target="_top" xlink:title=" ">
<polygon fill="none" stroke="black" points="416,-190.5 416,-220.5 534,-220.5 534,-190.5 416,-190.5"/>
<text text-anchor="start" x="424" y="-208.5" font-family="Helvetica,sans-Serif" font-size="10.00">src/http/http_request</text>
<text text-anchor="middle" x="475" y="-197.5" font-family="Helvetica,sans-Serif" font-size="10.00">_result.cpp</text>
</a>
</g>
</g>
<!-- Node1&#45;&gt;Node10 -->
<g id="edge14" class="edge">
<title>Node1&#45;&gt;Node10</title>
<path fill="none" stroke="midnightblue" d="M373.13,-253.13C395.69,-242.8 423.42,-230.11 444.25,-220.58"/>
<polygon fill="midnightblue" stroke="midnightblue" points="371.45,-250.05 363.81,-257.4 374.36,-256.42 371.45,-250.05"/>
</g>
<!-- Node3 -->
<g id="node3" class="node">
<title>Node3</title>
<g id="a_node3"><a xlink:href="emitter_8cpp.html" target="_top" xlink:title=" ">
<polygon fill="none" stroke="black" points="144,-62 144,-81 272,-81 272,-62 144,-62"/>
<text text-anchor="middle" x="208" y="-69" font-family="Helvetica,sans-Serif" font-size="10.00">src/emitter/emitter.cpp</text>
</a>
</g>
</g>
<!-- Node2&#45;&gt;Node3 -->
<g id="edge2" class="edge">
<title>Node2&#45;&gt;Node3</title>
<path fill="none" stroke="midnightblue" d="M207.29,-118.54C207.48,-106.17 207.72,-90.62 207.87,-81.13"/>
<polygon fill="midnightblue" stroke="midnightblue" points="203.79,-118.68 207.13,-128.73 210.79,-118.79 203.79,-118.68"/>
</g>
<!-- Node4 -->
<g id="node4" class="node">
<title>Node4</title>
<g id="a_node4"><a xlink:href="snowplow_8hpp.html" target="_top" xlink:title=" ">
<polygon fill="none" stroke="black" points="239.5,-0.5 239.5,-19.5 342.5,-19.5 342.5,-0.5 239.5,-0.5"/>
<text text-anchor="middle" x="291" y="-7.5" font-family="Helvetica,sans-Serif" font-size="10.00">src/snowplow.hpp</text>
</a>
</g>
</g>
<!-- Node2&#45;&gt;Node4 -->
<g id="edge3" class="edge">
<title>Node2&#45;&gt;Node4</title>
<path fill="none" stroke="midnightblue" d="M176.05,-124.34C160.73,-116.05 143.69,-103.71 135,-87 128.64,-74.78 126.72,-67.01 135,-56 147.71,-39.11 199.08,-26.56 239.45,-19.07"/>
<polygon fill="midnightblue" stroke="midnightblue" points="174.78,-127.62 185.28,-128.99 177.92,-121.36 174.78,-127.62"/>
</g>
<!-- Node5 -->
<g id="node5" class="node">
<title>Node5</title>
<g id="a_node5"><a xlink:href="tracker_8hpp.html" target="_top" xlink:title=" ">
<polygon fill="none" stroke="black" points="0,-62 0,-81 88,-81 88,-62 0,-62"/>
<text text-anchor="middle" x="44" y="-69" font-family="Helvetica,sans-Serif" font-size="10.00">src/tracker.hpp</text>
</a>
</g>
</g>
<!-- Node2&#45;&gt;Node5 -->
<g id="edge4" class="edge">
<title>Node2&#45;&gt;Node5</title>
<path fill="none" stroke="midnightblue" d="M175.92,-125.1C143.55,-112.2 93.72,-92.33 65.48,-81.06"/>
<polygon fill="midnightblue" stroke="midnightblue" points="174.77,-128.42 185.35,-128.87 177.36,-121.91 174.77,-128.42"/>
</g>
<!-- Node5&#45;&gt;Node4 -->
<g id="edge5" class="edge">
<title>Node5&#45;&gt;Node4</title>
<path fill="none" stroke="midnightblue" d="M87.78,-59.5C92.58,-58.31 97.39,-57.13 102,-56 155.08,-43.05 216.67,-28.47 254.74,-19.51"/>
<polygon fill="midnightblue" stroke="midnightblue" points="86.89,-56.11 78.03,-61.93 88.58,-62.91 86.89,-56.11"/>
</g>
<!-- Node6 -->
<g id="node6" class="node">
<title>Node6</title>
<g id="a_node6"><a xlink:href="tracker_8cpp.html" target="_top" xlink:title=" ">
<polygon fill="none" stroke="black" points="0.5,-0.5 0.5,-19.5 87.5,-19.5 87.5,-0.5 0.5,-0.5"/>
<text text-anchor="middle" x="44" y="-7.5" font-family="Helvetica,sans-Serif" font-size="10.00">src/tracker.cpp</text>
</a>
</g>
</g>
<!-- Node5&#45;&gt;Node6 -->
<g id="edge6" class="edge">
<title>Node5&#45;&gt;Node6</title>
<path fill="none" stroke="midnightblue" d="M44,-51.82C44,-41 44,-27.9 44,-19.51"/>
<polygon fill="midnightblue" stroke="midnightblue" points="40.5,-51.98 44,-61.98 47.5,-51.98 40.5,-51.98"/>
</g>
<!-- Node7&#45;&gt;Node2 -->
<g id="edge8" class="edge">
<title>Node7&#45;&gt;Node2</title>
<path fill="none" stroke="midnightblue" d="M307.36,-191.27C282.41,-178.4 245.2,-159.21 223.8,-148.17"/>
<polygon fill="midnightblue" stroke="midnightblue" points="305.78,-194.39 316.27,-195.87 308.99,-188.17 305.78,-194.39"/>
</g>
<!-- Node7&#45;&gt;Node4 -->
<g id="edge13" class="edge">
<title>Node7&#45;&gt;Node4</title>
<path fill="none" stroke="midnightblue" d="M362.31,-191.12C377.82,-182.6 395.89,-170.12 407,-154 432.03,-117.66 448.68,-91.89 423,-56 404.82,-30.6 371.45,-19.37 342.81,-14.48"/>
<polygon fill="midnightblue" stroke="midnightblue" points="360.34,-188.2 353.08,-195.91 363.56,-194.41 360.34,-188.2"/>
</g>
<!-- Node8 -->
<g id="node8" class="node">
<title>Node8</title>
<g id="a_node8"><a xlink:href="http__client__curl_8hpp.html" target="_top" xlink:title=" ">
<polygon fill="none" stroke="black" points="290,-123.5 290,-153.5 398,-153.5 398,-123.5 290,-123.5"/>
<text text-anchor="start" x="298" y="-141.5" font-family="Helvetica,sans-Serif" font-size="10.00">src/http/http_client</text>
<text text-anchor="middle" x="344" y="-130.5" font-family="Helvetica,sans-Serif" font-size="10.00">_curl.hpp</text>
</a>
</g>
</g>
<!-- Node7&#45;&gt;Node8 -->
<g id="edge9" class="edge">
<title>Node7&#45;&gt;Node8</title>
<path fill="none" stroke="midnightblue" d="M336.18,-185.74C337.91,-175.49 340.02,-163 341.62,-153.59"/>
<polygon fill="midnightblue" stroke="midnightblue" points="332.7,-185.29 334.48,-195.73 339.6,-186.46 332.7,-185.29"/>
</g>
<!-- Node8&#45;&gt;Node3 -->
<g id="edge10" class="edge">
<title>Node8&#45;&gt;Node3</title>
<path fill="none" stroke="midnightblue" d="M305.22,-118.97C279.1,-106.48 245.87,-90.6 225.8,-81.01"/>
<polygon fill="midnightblue" stroke="midnightblue" points="303.96,-122.24 314.49,-123.4 306.98,-115.93 303.96,-122.24"/>
</g>
<!-- Node8&#45;&gt;Node4 -->
<g id="edge12" class="edge">
<title>Node8&#45;&gt;Node4</title>
<path fill="none" stroke="midnightblue" d="M379.57,-117.69C390.43,-109.69 401.05,-99.39 407,-87 412.96,-74.58 414.78,-67.37 407,-56 392.48,-34.79 366.39,-23.57 342.63,-17.65"/>
<polygon fill="midnightblue" stroke="midnightblue" points="377.57,-114.82 371.3,-123.36 381.53,-120.59 377.57,-114.82"/>
</g>
<!-- Node9 -->
<g id="node9" class="node">
<title>Node9</title>
<g id="a_node9"><a xlink:href="http__client__curl_8cpp.html" target="_top" xlink:title=" ">
<polygon fill="none" stroke="black" points="290,-56.5 290,-86.5 398,-86.5 398,-56.5 290,-56.5"/>
<text text-anchor="start" x="298" y="-74.5" font-family="Helvetica,sans-Serif" font-size="10.00">src/http/http_client</text>
<text text-anchor="middle" x="344" y="-63.5" font-family="Helvetica,sans-Serif" font-size="10.00">_curl.cpp</text>
</a>
</g>
</g>
<!-- Node8&#45;&gt;Node9 -->
<g id="edge11" class="edge">
<title>Node8&#45;&gt;Node9</title>
<path fill="none" stroke="midnightblue" d="M344,-113.11C344,-104.15 344,-94.32 344,-86.58"/>
<polygon fill="midnightblue" stroke="midnightblue" points="340.5,-113.4 344,-123.4 347.5,-113.4 340.5,-113.4"/>
</g>
</g>
</svg>
