<?xml version="1.0" encoding="UTF-8" standalone="no"?>
<!DOCTYPE svg PUBLIC "-//W3C//DTD SVG 1.1//EN"
 "http://www.w3.org/Graphics/SVG/1.1/DTD/svg11.dtd">
<!-- Generated by graphviz version 2.43.0 (0)
 -->
<!-- Title: Graphical Class Hierarchy Pages: 1 -->
<svg width="314pt" height="66pt"
 viewBox="0.00 0.00 314.00 66.00" xmlns="http://www.w3.org/2000/svg" xmlns:xlink="http://www.w3.org/1999/xlink">
<g id="graph0" class="graph" transform="scale(1 1) rotate(0) translate(4 62)">
<title>Graphical Class Hierarchy</title>
<!-- Node0 -->
<g id="node1" class="node">
<title>Node0</title>
<g id="a_node1"><a xlink:href="structsnowplow_1_1_event_store.html" target="_top" xlink:title="Storage interface used by the Emitter to store and access events.">
<polygon fill="none" stroke="black" points="5,-38.5 5,-57.5 129,-57.5 129,-38.5 5,-38.5"/>
<text text-anchor="middle" x="67" y="-45.5" font-family="Helvetica,sans-Serif" font-size="10.00">snowplow::EventStore</text>
</a>
</g>
</g>
<!-- Node1 -->
<g id="node2" class="node">
<title>Node1</title>
<g id="a_node2"><a xlink:href="classsnowplow_1_1_sqlite_storage.html" target="_top" xlink:title="Tracker SQLite storage for events and session information.">
<polygon fill="none" stroke="black" points="170,-19.5 170,-38.5 306,-38.5 306,-19.5 170,-19.5"/>
<text text-anchor="middle" x="238" y="-26.5" font-family="Helvetica,sans-Serif" font-size="10.00">snowplow::SqliteStorage</text>
</a>
</g>
</g>
<!-- Node0&#45;&gt;Node1 -->
<g id="edge1" class="edge">
<title>Node0&#45;&gt;Node1</title>
<path fill="none" stroke="midnightblue" d="M139.07,-40.01C149.25,-38.87 159.69,-37.69 169.78,-36.56"/>
<polygon fill="midnightblue" stroke="midnightblue" points="138.56,-36.55 129.01,-41.14 139.34,-43.5 138.56,-36.55"/>
</g>
<!-- Node2 -->
<g id="node3" class="node">
<title>Node2</title>
<g id="a_node3"><a xlink:href="structsnowplow_1_1_session_store.html" target="_top" xlink:title="Storage interface used by the ClientSession to store and access sessions.">
<polygon fill="none" stroke="black" points="0,-0.5 0,-19.5 134,-19.5 134,-0.5 0,-0.5"/>
<text text-anchor="middle" x="67" y="-7.5" font-family="Helvetica,sans-Serif" font-size="10.00">snowplow::SessionStore</text>
</a>
</g>
</g>
<!-- Node2&#45;&gt;Node1 -->
<g id="edge2" class="edge">
<title>Node2&#45;&gt;Node1</title>
<path fill="none" stroke="midnightblue" d="M144.51,-18.6C152.94,-19.55 161.47,-20.51 169.77,-21.44"/>
<polygon fill="midnightblue" stroke="midnightblue" points="144.64,-15.09 134.31,-17.45 143.85,-22.05 144.64,-15.09"/>
</g>
</g>
</svg>
