<?xml version="1.0" encoding="UTF-8" standalone="no"?>
<!DOCTYPE svg PUBLIC "-//W3C//DTD SVG 1.1//EN"
 "http://www.w3.org/Graphics/SVG/1.1/DTD/svg11.dtd">
<!-- Generated by graphviz version 2.43.0 (0)
 -->
<!-- Title: Graphical Class Hierarchy Pages: 1 -->
<svg width="297pt" height="154pt"
 viewBox="0.00 0.00 297.00 154.00" xmlns="http://www.w3.org/2000/svg" xmlns:xlink="http://www.w3.org/1999/xlink">
<g id="graph0" class="graph" transform="scale(1 1) rotate(0) translate(4 150)">
<title>Graphical Class Hierarchy</title>
<!-- Node0 -->
<g id="node1" class="node">
<title>Node0</title>
<g id="a_node1"><a xlink:href="classsnowplow_1_1_event.html" target="_top" xlink:title="Base class for all event types that concrete event types inherit from.">
<polygon fill="none" stroke="black" points="0,-60.5 0,-79.5 98,-79.5 98,-60.5 0,-60.5"/>
<text text-anchor="middle" x="49" y="-67.5" font-family="Helvetica,sans-Serif" font-size="10.00">snowplow::Event</text>
</a>
</g>
</g>
<!-- Node1 -->
<g id="node2" class="node">
<title>Node1</title>
<g id="a_node2"><a xlink:href="classsnowplow_1_1_screen_view_event.html" target="_top" xlink:title="Event to track user viewing a screen within the application.">
<polygon fill="none" stroke="black" points="134,-126.5 134,-145.5 289,-145.5 289,-126.5 134,-126.5"/>
<text text-anchor="middle" x="211.5" y="-133.5" font-family="Helvetica,sans-Serif" font-size="10.00">snowplow::ScreenViewEvent</text>
</a>
</g>
</g>
<!-- Node0&#45;&gt;Node1 -->
<g id="edge1" class="edge">
<title>Node0&#45;&gt;Node1</title>
<path fill="none" stroke="midnightblue" d="M73.15,-85.17C89.57,-95.38 112.44,-108.47 134,-117 143.42,-120.73 153.78,-123.89 163.76,-126.49"/>
<polygon fill="midnightblue" stroke="midnightblue" points="74.6,-81.95 64.28,-79.56 70.86,-87.87 74.6,-81.95"/>
</g>
<!-- Node2 -->
<g id="node3" class="node">
<title>Node2</title>
<g id="a_node3"><a xlink:href="classsnowplow_1_1_self_describing_event.html" target="_top" xlink:title="Event to track custom information that does not fit into the out&#45;of&#45;the box events.">
<polygon fill="none" stroke="black" points="141,-77 141,-107 282,-107 282,-77 141,-77"/>
<text text-anchor="start" x="149" y="-95" font-family="Helvetica,sans-Serif" font-size="10.00">snowplow::SelfDescribing</text>
<text text-anchor="middle" x="211.5" y="-84" font-family="Helvetica,sans-Serif" font-size="10.00">Event</text>
</a>
</g>
</g>
<!-- Node0&#45;&gt;Node2 -->
<g id="edge2" class="edge">
<title>Node0&#45;&gt;Node2</title>
<path fill="none" stroke="midnightblue" d="M108.11,-77.96C118.69,-79.42 129.84,-80.94 140.72,-82.44"/>
<polygon fill="midnightblue" stroke="midnightblue" points="108.54,-74.49 98.16,-76.6 107.59,-81.43 108.54,-74.49"/>
</g>
<!-- Node3 -->
<g id="node4" class="node">
<title>Node3</title>
<g id="a_node4"><a xlink:href="classsnowplow_1_1_structured_event.html" target="_top" xlink:title="Event to capture custom consumer interactions without the need to define a custom schema.">
<polygon fill="none" stroke="black" points="137,-38.5 137,-57.5 286,-57.5 286,-38.5 137,-38.5"/>
<text text-anchor="middle" x="211.5" y="-45.5" font-family="Helvetica,sans-Serif" font-size="10.00">snowplow::StructuredEvent</text>
</a>
</g>
</g>
<!-- Node0&#45;&gt;Node3 -->
<g id="edge3" class="edge">
<title>Node0&#45;&gt;Node3</title>
<path fill="none" stroke="midnightblue" d="M108.18,-62.03C118.84,-60.56 130.06,-59.03 141.02,-57.52"/>
<polygon fill="midnightblue" stroke="midnightblue" points="107.59,-58.57 98.16,-63.4 108.54,-65.51 107.59,-58.57"/>
</g>
<!-- Node4 -->
<g id="node5" class="node">
<title>Node4</title>
<g id="a_node5"><a xlink:href="classsnowplow_1_1_timing_event.html" target="_top" xlink:title="Event used to track user timing events such as how long resources take to load.">
<polygon fill="none" stroke="black" points="145.5,-0.5 145.5,-19.5 277.5,-19.5 277.5,-0.5 145.5,-0.5"/>
<text text-anchor="middle" x="211.5" y="-7.5" font-family="Helvetica,sans-Serif" font-size="10.00">snowplow::TimingEvent</text>
</a>
</g>
</g>
<!-- Node0&#45;&gt;Node4 -->
<g id="edge4" class="edge">
<title>Node0&#45;&gt;Node4</title>
<path fill="none" stroke="midnightblue" d="M75.83,-55.63C92.14,-47 113.86,-36.32 134,-29 143.9,-25.4 154.77,-22.25 165.12,-19.6"/>
<polygon fill="midnightblue" stroke="midnightblue" points="74.06,-52.61 66.91,-60.43 77.38,-58.77 74.06,-52.61"/>
</g>
</g>
</svg>
