<?xml version="1.0" encoding="UTF-8" standalone="no"?>
<!DOCTYPE svg PUBLIC "-//W3C//DTD SVG 1.1//EN"
 "http://www.w3.org/Graphics/SVG/1.1/DTD/svg11.dtd">
<!-- Generated by graphviz version 2.43.0 (0)
 -->
<!-- Title: src/payload/payload.hpp Pages: 1 -->
<svg width="1375pt" height="341pt"
 viewBox="0.00 0.00 1375.00 341.00" xmlns="http://www.w3.org/2000/svg" xmlns:xlink="http://www.w3.org/1999/xlink">
<g id="graph0" class="graph" transform="scale(1 1) rotate(0) translate(4 337)">
<title>src/payload/payload.hpp</title>
<!-- Node1 -->
<g id="node1" class="node">
<title>Node1</title>
<g id="a_node1"><a xlink:title=" ">
<polygon fill="#bfbfbf" stroke="black" points="494,-313.5 494,-332.5 630,-332.5 630,-313.5 494,-313.5"/>
<text text-anchor="middle" x="562" y="-320.5" font-family="Helvetica,sans-Serif" font-size="10.00">src/payload/payload.hpp</text>
</a>
</g>
</g>
<!-- Node2 -->
<g id="node2" class="node">
<title>Node2</title>
<g id="a_node2"><a xlink:href="emitter_8hpp.html" target="_top" xlink:title=" ">
<polygon fill="none" stroke="black" points="297.5,-140 297.5,-159 426.5,-159 426.5,-140 297.5,-140"/>
<text text-anchor="middle" x="362" y="-147" font-family="Helvetica,sans-Serif" font-size="10.00">src/emitter/emitter.hpp</text>
</a>
</g>
</g>
<!-- Node1&#45;&gt;Node2 -->
<g id="edge1" class="edge">
<title>Node1&#45;&gt;Node2</title>
<path fill="none" stroke="midnightblue" d="M544.31,-306.83C503.51,-271.85 403.85,-186.39 371.98,-159.06"/>
<polygon fill="midnightblue" stroke="midnightblue" points="542.21,-309.64 552.08,-313.5 546.77,-304.33 542.21,-309.64"/>
</g>
<!-- Node4 -->
<g id="node4" class="node">
<title>Node4</title>
<g id="a_node4"><a xlink:href="snowplow_8hpp.html" target="_top" xlink:title=" ">
<polygon fill="none" stroke="black" points="402.5,-6 402.5,-25 505.5,-25 505.5,-6 402.5,-6"/>
<text text-anchor="middle" x="454" y="-13" font-family="Helvetica,sans-Serif" font-size="10.00">src/snowplow.hpp</text>
</a>
</g>
</g>
<!-- Node1&#45;&gt;Node4 -->
<g id="edge26" class="edge">
<title>Node1&#45;&gt;Node4</title>
<path fill="none" stroke="midnightblue" d="M483.56,-322.76C329.01,-322.14 0,-309.37 0,-212 0,-212 0,-212 0,-148.5 0,-100.75 28,-89.72 70,-67 126.26,-36.56 310.98,-23.47 402.15,-18.76"/>
<polygon fill="midnightblue" stroke="midnightblue" points="483.92,-326.26 493.93,-322.78 483.94,-319.26 483.92,-326.26"/>
</g>
<!-- Node7 -->
<g id="node7" class="node">
<title>Node7</title>
<g id="a_node7"><a xlink:href="event__payload_8hpp.html" target="_top" xlink:title=" ">
<polygon fill="none" stroke="black" points="625.5,-201.5 625.5,-220.5 794.5,-220.5 794.5,-201.5 625.5,-201.5"/>
<text text-anchor="middle" x="710" y="-208.5" font-family="Helvetica,sans-Serif" font-size="10.00">src/payload/event_payload.hpp</text>
</a>
</g>
</g>
<!-- Node1&#45;&gt;Node7 -->
<g id="edge7" class="edge">
<title>Node1&#45;&gt;Node7</title>
<path fill="none" stroke="midnightblue" d="M582.02,-307.12C613.44,-283.77 673.31,-239.27 698.44,-220.59"/>
<polygon fill="midnightblue" stroke="midnightblue" points="579.55,-304.59 573.61,-313.37 583.73,-310.21 579.55,-304.59"/>
</g>
<!-- Node19 -->
<g id="node19" class="node">
<title>Node19</title>
<g id="a_node19"><a xlink:href="payload_8cpp.html" target="_top" xlink:title=" ">
<polygon fill="none" stroke="black" points="1224.5,-140 1224.5,-159 1359.5,-159 1359.5,-140 1224.5,-140"/>
<text text-anchor="middle" x="1292" y="-147" font-family="Helvetica,sans-Serif" font-size="10.00">src/payload/payload.cpp</text>
</a>
</g>
</g>
<!-- Node1&#45;&gt;Node19 -->
<g id="edge25" class="edge">
<title>Node1&#45;&gt;Node19</title>
<path fill="none" stroke="midnightblue" d="M608.21,-311.14C743.04,-279.47 1134.13,-187.59 1255.58,-159.06"/>
<polygon fill="midnightblue" stroke="midnightblue" points="607.14,-307.8 598.2,-313.5 608.74,-314.62 607.14,-307.8"/>
</g>
<!-- Node20 -->
<g id="node20" class="node">
<title>Node20</title>
<g id="a_node20"><a xlink:href="event__row_8hpp.html" target="_top" xlink:title=" ">
<polygon fill="none" stroke="black" points="158.5,-257.5 158.5,-276.5 303.5,-276.5 303.5,-257.5 158.5,-257.5"/>
<text text-anchor="middle" x="231" y="-264.5" font-family="Helvetica,sans-Serif" font-size="10.00">src/storage/event_row.hpp</text>
</a>
</g>
</g>
<!-- Node1&#45;&gt;Node20 -->
<g id="edge27" class="edge">
<title>Node1&#45;&gt;Node20</title>
<path fill="none" stroke="midnightblue" d="M499.42,-311.79C436.88,-301.59 341.81,-286.08 283.2,-276.52"/>
<polygon fill="midnightblue" stroke="midnightblue" points="499.12,-315.29 509.55,-313.44 500.25,-308.38 499.12,-315.29"/>
</g>
<!-- Node24 -->
<g id="node24" class="node">
<title>Node24</title>
<g id="a_node24"><a xlink:href="subject_8hpp.html" target="_top" xlink:title=" ">
<polygon fill="none" stroke="black" points="517,-201.5 517,-220.5 607,-220.5 607,-201.5 517,-201.5"/>
<text text-anchor="middle" x="562" y="-208.5" font-family="Helvetica,sans-Serif" font-size="10.00">src/subject.hpp</text>
</a>
</g>
</g>
<!-- Node1&#45;&gt;Node24 -->
<g id="edge35" class="edge">
<title>Node1&#45;&gt;Node24</title>
<path fill="none" stroke="midnightblue" d="M562,-303.35C562,-279.25 562,-238.31 562,-220.59"/>
<polygon fill="midnightblue" stroke="midnightblue" points="558.5,-303.37 562,-313.37 565.5,-303.37 558.5,-303.37"/>
</g>
<!-- Node26 -->
<g id="node26" class="node">
<title>Node26</title>
<g id="a_node26"><a xlink:href="utils_8hpp.html" target="_top" xlink:title=" ">
<polygon fill="none" stroke="black" points="868,-201.5 868,-220.5 944,-220.5 944,-201.5 868,-201.5"/>
<text text-anchor="middle" x="906" y="-208.5" font-family="Helvetica,sans-Serif" font-size="10.00">src/utils.hpp</text>
</a>
</g>
</g>
<!-- Node1&#45;&gt;Node26 -->
<g id="edge40" class="edge">
<title>Node1&#45;&gt;Node26</title>
<path fill="none" stroke="midnightblue" d="M598.34,-310.38C667.77,-288.18 817.77,-240.21 879.07,-220.61"/>
<polygon fill="midnightblue" stroke="midnightblue" points="597.17,-307.08 588.71,-313.46 599.3,-313.75 597.17,-307.08"/>
</g>
<!-- Node3 -->
<g id="node3" class="node">
<title>Node3</title>
<g id="a_node3"><a xlink:href="emitter_8cpp.html" target="_top" xlink:title=" ">
<polygon fill="none" stroke="black" points="300,-73 300,-92 428,-92 428,-73 300,-73"/>
<text text-anchor="middle" x="364" y="-80" font-family="Helvetica,sans-Serif" font-size="10.00">src/emitter/emitter.cpp</text>
</a>
</g>
</g>
<!-- Node2&#45;&gt;Node3 -->
<g id="edge2" class="edge">
<title>Node2&#45;&gt;Node3</title>
<path fill="none" stroke="midnightblue" d="M362.58,-129.54C362.96,-117.17 363.44,-101.62 363.73,-92.13"/>
<polygon fill="midnightblue" stroke="midnightblue" points="359.08,-129.63 362.27,-139.73 366.08,-129.85 359.08,-129.63"/>
</g>
<!-- Node2&#45;&gt;Node4 -->
<g id="edge3" class="edge">
<title>Node2&#45;&gt;Node4</title>
<path fill="none" stroke="midnightblue" d="M331.47,-135.24C316.36,-126.92 299.56,-114.59 291,-98 284.68,-85.76 282.83,-78.09 291,-67 316.31,-32.66 364.72,-20.97 402.24,-17.32"/>
<polygon fill="midnightblue" stroke="midnightblue" points="330.08,-138.46 340.57,-139.91 333.27,-132.23 330.08,-138.46"/>
</g>
<!-- Node5 -->
<g id="node5" class="node">
<title>Node5</title>
<g id="a_node5"><a xlink:href="tracker_8hpp.html" target="_top" xlink:title=" ">
<polygon fill="none" stroke="black" points="484,-73 484,-92 572,-92 572,-73 484,-73"/>
<text text-anchor="middle" x="528" y="-80" font-family="Helvetica,sans-Serif" font-size="10.00">src/tracker.hpp</text>
</a>
</g>
</g>
<!-- Node2&#45;&gt;Node5 -->
<g id="edge4" class="edge">
<title>Node2&#45;&gt;Node5</title>
<path fill="none" stroke="midnightblue" d="M393.66,-136.1C426.62,-123.2 477.36,-103.33 506.13,-92.06"/>
<polygon fill="midnightblue" stroke="midnightblue" points="392.08,-132.96 384.04,-139.87 394.63,-139.48 392.08,-132.96"/>
</g>
<!-- Node5&#45;&gt;Node4 -->
<g id="edge5" class="edge">
<title>Node5&#45;&gt;Node4</title>
<path fill="none" stroke="midnightblue" d="M510.19,-65.86C495.64,-53.08 475.62,-35.49 463.82,-25.13"/>
<polygon fill="midnightblue" stroke="midnightblue" points="508.2,-68.76 518.02,-72.73 512.82,-63.5 508.2,-68.76"/>
</g>
<!-- Node6 -->
<g id="node6" class="node">
<title>Node6</title>
<g id="a_node6"><a xlink:href="tracker_8cpp.html" target="_top" xlink:title=" ">
<polygon fill="none" stroke="black" points="523.5,-6 523.5,-25 610.5,-25 610.5,-6 523.5,-6"/>
<text text-anchor="middle" x="567" y="-13" font-family="Helvetica,sans-Serif" font-size="10.00">src/tracker.cpp</text>
</a>
</g>
</g>
<!-- Node5&#45;&gt;Node6 -->
<g id="edge6" class="edge">
<title>Node5&#45;&gt;Node6</title>
<path fill="none" stroke="midnightblue" d="M538.48,-64.03C546.03,-51.45 555.9,-35.01 561.82,-25.13"/>
<polygon fill="midnightblue" stroke="midnightblue" points="535.4,-62.36 533.26,-72.73 541.41,-65.96 535.4,-62.36"/>
</g>
<!-- Node8 -->
<g id="node8" class="node">
<title>Node8</title>
<g id="a_node8"><a xlink:href="event_8hpp.html" target="_top" xlink:title=" ">
<polygon fill="none" stroke="black" points="628.5,-140 628.5,-159 747.5,-159 747.5,-140 628.5,-140"/>
<text text-anchor="middle" x="688" y="-147" font-family="Helvetica,sans-Serif" font-size="10.00">src/events/event.hpp</text>
</a>
</g>
</g>
<!-- Node7&#45;&gt;Node8 -->
<g id="edge8" class="edge">
<title>Node7&#45;&gt;Node8</title>
<path fill="none" stroke="midnightblue" d="M703.34,-192C699.3,-181.05 694.31,-167.57 691.15,-159.01"/>
<polygon fill="midnightblue" stroke="midnightblue" points="700.1,-193.31 706.85,-201.48 706.66,-190.88 700.1,-193.31"/>
</g>
<!-- Node18 -->
<g id="node18" class="node">
<title>Node18</title>
<g id="a_node18"><a xlink:href="event__payload_8cpp.html" target="_top" xlink:title=" ">
<polygon fill="none" stroke="black" points="766,-140 766,-159 934,-159 934,-140 766,-140"/>
<text text-anchor="middle" x="850" y="-147" font-family="Helvetica,sans-Serif" font-size="10.00">src/payload/event_payload.cpp</text>
</a>
</g>
</g>
<!-- Node7&#45;&gt;Node18 -->
<g id="edge24" class="edge">
<title>Node7&#45;&gt;Node18</title>
<path fill="none" stroke="midnightblue" d="M739.46,-197.48C766.65,-185.92 806.29,-169.08 829.98,-159.01"/>
<polygon fill="midnightblue" stroke="midnightblue" points="737.89,-194.34 730.06,-201.48 740.63,-200.78 737.89,-194.34"/>
</g>
<!-- Node8&#45;&gt;Node4 -->
<g id="edge22" class="edge">
<title>Node8&#45;&gt;Node4</title>
<path fill="none" stroke="midnightblue" d="M667.56,-133.97C653.72,-124.02 635.09,-110.44 619,-98 601.76,-84.67 599.79,-78.04 581,-67 549.09,-48.24 508.91,-33.59 482.39,-25.01"/>
<polygon fill="midnightblue" stroke="midnightblue" points="665.72,-136.96 675.89,-139.93 669.8,-131.26 665.72,-136.96"/>
</g>
<!-- Node8&#45;&gt;Node5 -->
<g id="edge23" class="edge">
<title>Node8&#45;&gt;Node5</title>
<path fill="none" stroke="midnightblue" d="M657.49,-136.1C625.72,-123.2 576.81,-103.33 549.08,-92.06"/>
<polygon fill="midnightblue" stroke="midnightblue" points="656.17,-139.35 666.75,-139.87 658.81,-132.86 656.17,-139.35"/>
</g>
<!-- Node9 -->
<g id="node9" class="node">
<title>Node9</title>
<g id="a_node9"><a xlink:href="event_8cpp.html" target="_top" xlink:title=" ">
<polygon fill="none" stroke="black" points="1249,-73 1249,-92 1367,-92 1367,-73 1249,-73"/>
<text text-anchor="middle" x="1308" y="-80" font-family="Helvetica,sans-Serif" font-size="10.00">src/events/event.cpp</text>
</a>
</g>
</g>
<!-- Node8&#45;&gt;Node9 -->
<g id="edge9" class="edge">
<title>Node8&#45;&gt;Node9</title>
<path fill="none" stroke="midnightblue" d="M733.92,-137.97C741.59,-136.46 749.5,-135.06 757,-134 970.13,-103.8 1026.91,-128.52 1240,-98 1250.63,-96.48 1262.09,-94.26 1272.52,-92.02"/>
<polygon fill="midnightblue" stroke="midnightblue" points="733.11,-134.56 724.01,-139.99 734.51,-141.42 733.11,-134.56"/>
</g>
<!-- Node10 -->
<g id="node10" class="node">
<title>Node10</title>
<g id="a_node10"><a xlink:href="screen__view__event_8hpp.html" target="_top" xlink:title=" ">
<polygon fill="none" stroke="black" points="938.5,-67.5 938.5,-97.5 1069.5,-97.5 1069.5,-67.5 938.5,-67.5"/>
<text text-anchor="start" x="946.5" y="-85.5" font-family="Helvetica,sans-Serif" font-size="10.00">src/events/screen_view</text>
<text text-anchor="middle" x="1004" y="-74.5" font-family="Helvetica,sans-Serif" font-size="10.00">_event.hpp</text>
</a>
</g>
</g>
<!-- Node8&#45;&gt;Node10 -->
<g id="edge10" class="edge">
<title>Node8&#45;&gt;Node10</title>
<path fill="none" stroke="midnightblue" d="M738.29,-137.9C744.59,-136.58 750.94,-135.26 757,-134 818.5,-121.25 888.66,-106.93 938.45,-96.8"/>
<polygon fill="midnightblue" stroke="midnightblue" points="737.56,-134.48 728.49,-139.95 739,-141.33 737.56,-134.48"/>
</g>
<!-- Node12 -->
<g id="node12" class="node">
<title>Node12</title>
<g id="a_node12"><a xlink:href="self__describing__event_8hpp.html" target="_top" xlink:title=" ">
<polygon fill="none" stroke="black" points="1087.5,-67.5 1087.5,-97.5 1230.5,-97.5 1230.5,-67.5 1087.5,-67.5"/>
<text text-anchor="start" x="1095.5" y="-85.5" font-family="Helvetica,sans-Serif" font-size="10.00">src/events/self_describing</text>
<text text-anchor="middle" x="1159" y="-74.5" font-family="Helvetica,sans-Serif" font-size="10.00">_event.hpp</text>
</a>
</g>
</g>
<!-- Node8&#45;&gt;Node12 -->
<g id="edge13" class="edge">
<title>Node8&#45;&gt;Node12</title>
<path fill="none" stroke="midnightblue" d="M735.73,-137.85C742.84,-136.44 750.1,-135.11 757,-134 899.18,-111.17 936.52,-118.85 1079,-98 1081.65,-97.61 1084.35,-97.2 1087.08,-96.77"/>
<polygon fill="midnightblue" stroke="midnightblue" points="734.58,-134.51 725.48,-139.94 735.98,-141.37 734.58,-134.51"/>
</g>
<!-- Node14 -->
<g id="node14" class="node">
<title>Node14</title>
<g id="a_node14"><a xlink:href="structured__event_8hpp.html" target="_top" xlink:title=" ">
<polygon fill="none" stroke="black" points="628.5,-67.5 628.5,-97.5 747.5,-97.5 747.5,-67.5 628.5,-67.5"/>
<text text-anchor="start" x="636.5" y="-85.5" font-family="Helvetica,sans-Serif" font-size="10.00">src/events/structured</text>
<text text-anchor="middle" x="688" y="-74.5" font-family="Helvetica,sans-Serif" font-size="10.00">_event.hpp</text>
</a>
</g>
</g>
<!-- Node8&#45;&gt;Node14 -->
<g id="edge16" class="edge">
<title>Node8&#45;&gt;Node14</title>
<path fill="none" stroke="midnightblue" d="M688,-129.41C688,-119.22 688,-106.9 688,-97.59"/>
<polygon fill="midnightblue" stroke="midnightblue" points="684.5,-129.73 688,-139.73 691.5,-129.73 684.5,-129.73"/>
</g>
<!-- Node16 -->
<g id="node16" class="node">
<title>Node16</title>
<g id="a_node16"><a xlink:href="timing__event_8hpp.html" target="_top" xlink:title=" ">
<polygon fill="none" stroke="black" points="765.5,-73 765.5,-92 920.5,-92 920.5,-73 765.5,-73"/>
<text text-anchor="middle" x="843" y="-80" font-family="Helvetica,sans-Serif" font-size="10.00">src/events/timing_event.hpp</text>
</a>
</g>
</g>
<!-- Node8&#45;&gt;Node16 -->
<g id="edge19" class="edge">
<title>Node8&#45;&gt;Node16</title>
<path fill="none" stroke="midnightblue" d="M717.93,-135.95C748.62,-123.08 795.54,-103.4 822.33,-92.17"/>
<polygon fill="midnightblue" stroke="midnightblue" points="716.45,-132.77 708.58,-139.87 719.16,-139.23 716.45,-132.77"/>
</g>
<!-- Node10&#45;&gt;Node4 -->
<g id="edge12" class="edge">
<title>Node10&#45;&gt;Node4</title>
<path fill="none" stroke="midnightblue" d="M928.3,-66.86C744.47,-41.8 693.94,-60.36 514,-31 504.59,-29.46 494.47,-27.24 485.27,-25"/>
<polygon fill="midnightblue" stroke="midnightblue" points="927.91,-70.34 938.29,-68.25 928.87,-63.4 927.91,-70.34"/>
</g>
<!-- Node11 -->
<g id="node11" class="node">
<title>Node11</title>
<g id="a_node11"><a xlink:href="screen__view__event_8cpp.html" target="_top" xlink:title=" ">
<polygon fill="none" stroke="black" points="938.5,-0.5 938.5,-30.5 1069.5,-30.5 1069.5,-0.5 938.5,-0.5"/>
<text text-anchor="start" x="946.5" y="-18.5" font-family="Helvetica,sans-Serif" font-size="10.00">src/events/screen_view</text>
<text text-anchor="middle" x="1004" y="-7.5" font-family="Helvetica,sans-Serif" font-size="10.00">_event.cpp</text>
</a>
</g>
</g>
<!-- Node10&#45;&gt;Node11 -->
<g id="edge11" class="edge">
<title>Node10&#45;&gt;Node11</title>
<path fill="none" stroke="midnightblue" d="M1004,-57.11C1004,-48.15 1004,-38.32 1004,-30.58"/>
<polygon fill="midnightblue" stroke="midnightblue" points="1000.5,-57.4 1004,-67.4 1007.5,-57.4 1000.5,-57.4"/>
</g>
<!-- Node12&#45;&gt;Node4 -->
<g id="edge15" class="edge">
<title>Node12&#45;&gt;Node4</title>
<path fill="none" stroke="midnightblue" d="M1077,-66.85C827.45,-37.35 759.5,-68.2 514,-31 504.46,-29.56 494.22,-27.33 484.94,-25.06"/>
<polygon fill="midnightblue" stroke="midnightblue" points="1076.76,-70.34 1087.1,-68.06 1077.59,-63.39 1076.76,-70.34"/>
</g>
<!-- Node13 -->
<g id="node13" class="node">
<title>Node13</title>
<g id="a_node13"><a xlink:href="self__describing__event_8cpp.html" target="_top" xlink:title=" ">
<polygon fill="none" stroke="black" points="1087.5,-0.5 1087.5,-30.5 1230.5,-30.5 1230.5,-0.5 1087.5,-0.5"/>
<text text-anchor="start" x="1095.5" y="-18.5" font-family="Helvetica,sans-Serif" font-size="10.00">src/events/self_describing</text>
<text text-anchor="middle" x="1159" y="-7.5" font-family="Helvetica,sans-Serif" font-size="10.00">_event.cpp</text>
</a>
</g>
</g>
<!-- Node12&#45;&gt;Node13 -->
<g id="edge14" class="edge">
<title>Node12&#45;&gt;Node13</title>
<path fill="none" stroke="midnightblue" d="M1159,-57.11C1159,-48.15 1159,-38.32 1159,-30.58"/>
<polygon fill="midnightblue" stroke="midnightblue" points="1155.5,-57.4 1159,-67.4 1162.5,-57.4 1155.5,-57.4"/>
</g>
<!-- Node14&#45;&gt;Node4 -->
<g id="edge18" class="edge">
<title>Node14&#45;&gt;Node4</title>
<path fill="none" stroke="midnightblue" d="M627.7,-64.75C581.94,-52.04 520.91,-35.09 484.7,-25.03"/>
<polygon fill="midnightblue" stroke="midnightblue" points="626.94,-68.17 637.51,-67.48 628.82,-61.43 626.94,-68.17"/>
</g>
<!-- Node15 -->
<g id="node15" class="node">
<title>Node15</title>
<g id="a_node15"><a xlink:href="structured__event_8cpp.html" target="_top" xlink:title=" ">
<polygon fill="none" stroke="black" points="628.5,-0.5 628.5,-30.5 747.5,-30.5 747.5,-0.5 628.5,-0.5"/>
<text text-anchor="start" x="636.5" y="-18.5" font-family="Helvetica,sans-Serif" font-size="10.00">src/events/structured</text>
<text text-anchor="middle" x="688" y="-7.5" font-family="Helvetica,sans-Serif" font-size="10.00">_event.cpp</text>
</a>
</g>
</g>
<!-- Node14&#45;&gt;Node15 -->
<g id="edge17" class="edge">
<title>Node14&#45;&gt;Node15</title>
<path fill="none" stroke="midnightblue" d="M688,-57.11C688,-48.15 688,-38.32 688,-30.58"/>
<polygon fill="midnightblue" stroke="midnightblue" points="684.5,-57.4 688,-67.4 691.5,-57.4 684.5,-57.4"/>
</g>
<!-- Node16&#45;&gt;Node4 -->
<g id="edge21" class="edge">
<title>Node16&#45;&gt;Node4</title>
<path fill="none" stroke="midnightblue" d="M782.83,-71.33C773.84,-69.85 764.68,-68.37 756,-67 648.59,-50.06 620.73,-51.79 514,-31 505.16,-29.28 495.67,-27.13 486.89,-25.01"/>
<polygon fill="midnightblue" stroke="midnightblue" points="782.44,-74.81 792.88,-72.99 783.58,-67.91 782.44,-74.81"/>
</g>
<!-- Node17 -->
<g id="node17" class="node">
<title>Node17</title>
<g id="a_node17"><a xlink:href="timing__event_8cpp.html" target="_top" xlink:title=" ">
<polygon fill="none" stroke="black" points="765.5,-6 765.5,-25 920.5,-25 920.5,-6 765.5,-6"/>
<text text-anchor="middle" x="843" y="-13" font-family="Helvetica,sans-Serif" font-size="10.00">src/events/timing_event.cpp</text>
</a>
</g>
</g>
<!-- Node16&#45;&gt;Node17 -->
<g id="edge20" class="edge">
<title>Node16&#45;&gt;Node17</title>
<path fill="none" stroke="midnightblue" d="M843,-62.54C843,-50.17 843,-34.62 843,-25.13"/>
<polygon fill="midnightblue" stroke="midnightblue" points="839.5,-62.73 843,-72.73 846.5,-62.73 839.5,-62.73"/>
</g>
<!-- Node20&#45;&gt;Node4 -->
<g id="edge28" class="edge">
<title>Node20&#45;&gt;Node4</title>
<path fill="none" stroke="midnightblue" d="M230.1,-247.01C229.31,-207.82 233.27,-117.45 282,-67 313.24,-34.65 364.02,-22.73 402.32,-18.49"/>
<polygon fill="midnightblue" stroke="midnightblue" points="226.61,-247.55 230.45,-257.43 233.61,-247.32 226.61,-247.55"/>
</g>
<!-- Node21 -->
<g id="node21" class="node">
<title>Node21</title>
<g id="a_node21"><a xlink:href="event__store_8hpp.html" target="_top" xlink:title=" ">
<polygon fill="none" stroke="black" points="51,-201.5 51,-220.5 203,-220.5 203,-201.5 51,-201.5"/>
<text text-anchor="middle" x="127" y="-208.5" font-family="Helvetica,sans-Serif" font-size="10.00">src/storage/event_store.hpp</text>
</a>
</g>
</g>
<!-- Node20&#45;&gt;Node21 -->
<g id="edge29" class="edge">
<title>Node20&#45;&gt;Node21</title>
<path fill="none" stroke="midnightblue" d="M205.17,-252.59C185.94,-242.61 160.26,-229.27 143.67,-220.65"/>
<polygon fill="midnightblue" stroke="midnightblue" points="203.8,-255.82 214.29,-257.32 207.03,-249.61 203.8,-255.82"/>
</g>
<!-- Node21&#45;&gt;Node2 -->
<g id="edge30" class="edge">
<title>Node21&#45;&gt;Node2</title>
<path fill="none" stroke="midnightblue" d="M170.57,-198.97C216.2,-187.41 286.89,-169.52 328.39,-159.01"/>
<polygon fill="midnightblue" stroke="midnightblue" points="169.5,-195.63 160.67,-201.48 171.22,-202.41 169.5,-195.63"/>
</g>
<!-- Node21&#45;&gt;Node4 -->
<g id="edge31" class="edge">
<title>Node21&#45;&gt;Node4</title>
<path fill="none" stroke="midnightblue" d="M98.71,-196.38C86.61,-188.93 73.73,-178.46 67,-165 54.1,-139.2 83.71,-68.14 85,-67 131.09,-26.4 312.03,-18.25 402.26,-16.74"/>
<polygon fill="midnightblue" stroke="midnightblue" points="97.28,-199.59 107.7,-201.48 100.73,-193.5 97.28,-199.59"/>
</g>
<!-- Node22 -->
<g id="node22" class="node">
<title>Node22</title>
<g id="a_node22"><a xlink:href="sqlite__storage_8hpp.html" target="_top" xlink:title=" ">
<polygon fill="none" stroke="black" points="76.5,-134.5 76.5,-164.5 177.5,-164.5 177.5,-134.5 76.5,-134.5"/>
<text text-anchor="start" x="84.5" y="-152.5" font-family="Helvetica,sans-Serif" font-size="10.00">src/storage/sqlite</text>
<text text-anchor="middle" x="127" y="-141.5" font-family="Helvetica,sans-Serif" font-size="10.00">_storage.hpp</text>
</a>
</g>
</g>
<!-- Node21&#45;&gt;Node22 -->
<g id="edge32" class="edge">
<title>Node21&#45;&gt;Node22</title>
<path fill="none" stroke="midnightblue" d="M127,-191.23C127,-182.59 127,-172.5 127,-164.52"/>
<polygon fill="midnightblue" stroke="midnightblue" points="123.5,-191.48 127,-201.48 130.5,-191.48 123.5,-191.48"/>
</g>
<!-- Node22&#45;&gt;Node4 -->
<g id="edge33" class="edge">
<title>Node22&#45;&gt;Node4</title>
<path fill="none" stroke="midnightblue" d="M106.79,-126.22C93.21,-108.5 80.26,-83.96 95,-67 134.17,-21.93 312.51,-15.93 402.19,-15.84"/>
<polygon fill="midnightblue" stroke="midnightblue" points="104.35,-128.77 113.39,-134.31 109.78,-124.35 104.35,-128.77"/>
</g>
<!-- Node23 -->
<g id="node23" class="node">
<title>Node23</title>
<g id="a_node23"><a xlink:href="sqlite__storage_8cpp.html" target="_top" xlink:title=" ">
<polygon fill="none" stroke="black" points="104.5,-67.5 104.5,-97.5 205.5,-97.5 205.5,-67.5 104.5,-67.5"/>
<text text-anchor="start" x="112.5" y="-85.5" font-family="Helvetica,sans-Serif" font-size="10.00">src/storage/sqlite</text>
<text text-anchor="middle" x="155" y="-74.5" font-family="Helvetica,sans-Serif" font-size="10.00">_storage.cpp</text>
</a>
</g>
</g>
<!-- Node22&#45;&gt;Node23 -->
<g id="edge34" class="edge">
<title>Node22&#45;&gt;Node23</title>
<path fill="none" stroke="midnightblue" d="M137.13,-124.99C141.08,-115.8 145.49,-105.58 148.94,-97.58"/>
<polygon fill="midnightblue" stroke="midnightblue" points="133.82,-123.83 133.08,-134.4 140.25,-126.6 133.82,-123.83"/>
</g>
<!-- Node24&#45;&gt;Node4 -->
<g id="edge37" class="edge">
<title>Node24&#45;&gt;Node4</title>
<path fill="none" stroke="midnightblue" d="M561.16,-190.87C559.53,-174.26 554.9,-150.37 542,-134 521.07,-107.45 495.86,-124.6 475,-98 457.69,-75.92 454.53,-41.12 454.04,-25.09"/>
<polygon fill="midnightblue" stroke="midnightblue" points="557.68,-191.3 561.88,-201.03 564.66,-190.8 557.68,-191.3"/>
</g>
<!-- Node24&#45;&gt;Node5 -->
<g id="edge39" class="edge">
<title>Node24&#45;&gt;Node5</title>
<path fill="none" stroke="midnightblue" d="M570.73,-192.12C577.16,-176.36 583.59,-153.01 576,-134 568.91,-116.25 552.29,-101.18 540.6,-92.23"/>
<polygon fill="midnightblue" stroke="midnightblue" points="567.53,-190.7 566.64,-201.26 573.92,-193.56 567.53,-190.7"/>
</g>
<!-- Node24&#45;&gt;Node8 -->
<g id="edge36" class="edge">
<title>Node24&#45;&gt;Node8</title>
<path fill="none" stroke="midnightblue" d="M589.16,-197.17C613.61,-185.63 648.85,-168.99 669.98,-159.01"/>
<polygon fill="midnightblue" stroke="midnightblue" points="587.6,-194.04 580.05,-201.48 590.59,-200.37 587.6,-194.04"/>
</g>
<!-- Node25 -->
<g id="node25" class="node">
<title>Node25</title>
<g id="a_node25"><a xlink:href="subject_8cpp.html" target="_top" xlink:title=" ">
<polygon fill="none" stroke="black" points="444.5,-140 444.5,-159 533.5,-159 533.5,-140 444.5,-140"/>
<text text-anchor="middle" x="489" y="-147" font-family="Helvetica,sans-Serif" font-size="10.00">src/subject.cpp</text>
</a>
</g>
</g>
<!-- Node24&#45;&gt;Node25 -->
<g id="edge38" class="edge">
<title>Node24&#45;&gt;Node25</title>
<path fill="none" stroke="midnightblue" d="M543.56,-194.97C529.6,-183.59 510.92,-168.37 499.44,-159.01"/>
<polygon fill="midnightblue" stroke="midnightblue" points="541.58,-197.87 551.54,-201.48 546,-192.44 541.58,-197.87"/>
</g>
<!-- Node26&#45;&gt;Node2 -->
<g id="edge42" class="edge">
<title>Node26&#45;&gt;Node2</title>
<path fill="none" stroke="midnightblue" d="M857.76,-205.67C746.07,-195.6 476.08,-171.03 435,-165 424.01,-163.39 412.16,-161.22 401.28,-159.06"/>
<polygon fill="midnightblue" stroke="midnightblue" points="857.47,-209.16 867.75,-206.57 858.1,-202.19 857.47,-209.16"/>
</g>
<!-- Node26&#45;&gt;Node9 -->
<g id="edge43" class="edge">
<title>Node26&#45;&gt;Node9</title>
<path fill="none" stroke="midnightblue" d="M920.15,-193.57C937.84,-173.47 967.53,-141.21 982,-134 1085.64,-82.39 1125.98,-118.09 1240,-98 1249.87,-96.26 1260.48,-94.13 1270.33,-92.03"/>
<polygon fill="midnightblue" stroke="midnightblue" points="917.32,-191.49 913.39,-201.33 922.6,-196.09 917.32,-191.49"/>
</g>
<!-- Node26&#45;&gt;Node18 -->
<g id="edge44" class="edge">
<title>Node26&#45;&gt;Node18</title>
<path fill="none" stroke="midnightblue" d="M890.94,-194C880.34,-182.74 866.57,-168.1 858.01,-159.01"/>
<polygon fill="midnightblue" stroke="midnightblue" points="888.57,-196.59 897.98,-201.48 893.67,-191.79 888.57,-196.59"/>
</g>
<!-- Node26&#45;&gt;Node19 -->
<g id="edge45" class="edge">
<title>Node26&#45;&gt;Node19</title>
<path fill="none" stroke="midnightblue" d="M954.38,-203.65C1015.46,-195.49 1123.73,-180.49 1216,-165 1226.73,-163.2 1238.28,-161.09 1249.05,-159.04"/>
<polygon fill="midnightblue" stroke="midnightblue" points="953.71,-200.21 944.26,-205 954.64,-207.15 953.71,-200.21"/>
</g>
<!-- Node26&#45;&gt;Node23 -->
<g id="edge46" class="edge">
<title>Node26&#45;&gt;Node23</title>
<path fill="none" stroke="midnightblue" d="M857.48,-205.59C840.28,-204.07 820.78,-202.4 803,-201 688.63,-192.01 397.26,-199.97 288,-165 242.35,-150.39 196.24,-117.02 172.14,-97.82"/>
<polygon fill="midnightblue" stroke="midnightblue" points="857.59,-209.11 867.86,-206.51 858.21,-202.14 857.59,-209.11"/>
</g>
<!-- Node27 -->
<g id="node27" class="node">
<title>Node27</title>
<g id="a_node27"><a xlink:href="client__session_8cpp.html" target="_top" xlink:title=" ">
<polygon fill="none" stroke="black" points="990.5,-140 990.5,-159 1113.5,-159 1113.5,-140 990.5,-140"/>
<text text-anchor="middle" x="1052" y="-147" font-family="Helvetica,sans-Serif" font-size="10.00">src/client_session.cpp</text>
</a>
</g>
</g>
<!-- Node26&#45;&gt;Node27 -->
<g id="edge41" class="edge">
<title>Node26&#45;&gt;Node27</title>
<path fill="none" stroke="midnightblue" d="M936.35,-197.63C964.71,-186.07 1006.31,-169.12 1031.12,-159.01"/>
<polygon fill="midnightblue" stroke="midnightblue" points="934.86,-194.46 926.92,-201.48 937.5,-200.94 934.86,-194.46"/>
</g>
<!-- Node28 -->
<g id="node28" class="node">
<title>Node28</title>
<g id="a_node28"><a xlink:href="utils_8cpp.html" target="_top" xlink:title=" ">
<polygon fill="none" stroke="black" points="1131.5,-140 1131.5,-159 1206.5,-159 1206.5,-140 1131.5,-140"/>
<text text-anchor="middle" x="1169" y="-147" font-family="Helvetica,sans-Serif" font-size="10.00">src/utils.cpp</text>
</a>
</g>
</g>
<!-- Node26&#45;&gt;Node28 -->
<g id="edge47" class="edge">
<title>Node26&#45;&gt;Node28</title>
<path fill="none" stroke="midnightblue" d="M954.19,-201.45C998.38,-193.27 1065.49,-179.99 1123,-165 1129.64,-163.27 1136.75,-161.16 1143.34,-159.09"/>
<polygon fill="midnightblue" stroke="midnightblue" points="953.5,-198.02 944.29,-203.27 954.76,-204.9 953.5,-198.02"/>
</g>
</g>
</svg>
