<?xml version="1.0" encoding="UTF-8" standalone="no"?>
<!DOCTYPE svg PUBLIC "-//W3C//DTD SVG 1.1//EN"
 "http://www.w3.org/Graphics/SVG/1.1/DTD/svg11.dtd">
<!-- Generated by graphviz version 2.43.0 (0)
 -->
<!-- Title: src/payload/payload.cpp Pages: 1 -->
<svg width="1208pt" height="263pt"
 viewBox="0.00 0.00 1207.50 263.00" xmlns="http://www.w3.org/2000/svg" xmlns:xlink="http://www.w3.org/1999/xlink">
<g id="graph0" class="graph" transform="scale(1 1) rotate(0) translate(4 259)">
<title>src/payload/payload.cpp</title>
<!-- Node1 -->
<g id="node1" class="node">
<title>Node1</title>
<g id="a_node1"><a xlink:title=" ">
<polygon fill="#bfbfbf" stroke="black" points="433.5,-235.5 433.5,-254.5 568.5,-254.5 568.5,-235.5 433.5,-235.5"/>
<text text-anchor="middle" x="501" y="-242.5" font-family="Helvetica,sans-Serif" font-size="10.00">src/payload/payload.cpp</text>
</a>
</g>
</g>
<!-- Node2 -->
<g id="node2" class="node">
<title>Node2</title>
<g id="a_node2"><a xlink:href="payload_8hpp.html" target="_top" xlink:title=" ">
<polygon fill="none" stroke="black" points="952.5,-118 952.5,-137 1029.5,-137 1029.5,-118 952.5,-118"/>
<text text-anchor="middle" x="991" y="-125" font-family="Helvetica,sans-Serif" font-size="10.00">payload.hpp</text>
</a>
</g>
</g>
<!-- Node1&#45;&gt;Node2 -->
<g id="edge1" class="edge">
<title>Node1&#45;&gt;Node2</title>
<path fill="none" stroke="midnightblue" d="M537.43,-235.41C625.15,-214.74 848,-162.21 944.86,-139.37"/>
<polygon fill="midnightblue" stroke="midnightblue" points="945.73,-142.77 954.66,-137.06 944.13,-135.95 945.73,-142.77"/>
</g>
<!-- Node7 -->
<g id="node7" class="node">
<title>Node7</title>
<g id="a_node7"><a xlink:href="utils_8hpp.html" target="_top" xlink:title=" ">
<polygon fill="none" stroke="black" points="436,-179.5 436,-198.5 504,-198.5 504,-179.5 436,-179.5"/>
<text text-anchor="middle" x="470" y="-186.5" font-family="Helvetica,sans-Serif" font-size="10.00">../utils.hpp</text>
</a>
</g>
</g>
<!-- Node1&#45;&gt;Node7 -->
<g id="edge6" class="edge">
<title>Node1&#45;&gt;Node7</title>
<path fill="none" stroke="midnightblue" d="M495.88,-235.08C491.59,-227.61 485.34,-216.72 480.06,-207.52"/>
<polygon fill="midnightblue" stroke="midnightblue" points="483.04,-205.68 475.02,-198.75 476.97,-209.17 483.04,-205.68"/>
</g>
<!-- Node3 -->
<g id="node3" class="node">
<title>Node3</title>
<g id="a_node3"><a xlink:title=" ">
<polygon fill="none" stroke="#bfbfbf" points="1070.5,-56.5 1070.5,-75.5 1199.5,-75.5 1199.5,-56.5 1070.5,-56.5"/>
<text text-anchor="middle" x="1135" y="-63.5" font-family="Helvetica,sans-Serif" font-size="10.00">../../include/base64.hpp</text>
</a>
</g>
</g>
<!-- Node2&#45;&gt;Node3 -->
<g id="edge2" class="edge">
<title>Node2&#45;&gt;Node3</title>
<path fill="none" stroke="midnightblue" d="M1011.63,-117.98C1036.12,-107.86 1077.15,-90.9 1105.11,-79.35"/>
<polygon fill="midnightblue" stroke="midnightblue" points="1106.5,-82.56 1114.41,-75.51 1103.83,-76.09 1106.5,-82.56"/>
</g>
<!-- Node4 -->
<g id="node4" class="node">
<title>Node4</title>
<g id="a_node4"><a xlink:title=" ">
<polygon fill="none" stroke="#bfbfbf" points="844,-56.5 844,-75.5 958,-75.5 958,-56.5 844,-56.5"/>
<text text-anchor="middle" x="901" y="-63.5" font-family="Helvetica,sans-Serif" font-size="10.00">../../include/json.hpp</text>
</a>
</g>
</g>
<!-- Node2&#45;&gt;Node4 -->
<g id="edge3" class="edge">
<title>Node2&#45;&gt;Node4</title>
<path fill="none" stroke="midnightblue" d="M978.11,-117.98C963.54,-108.34 939.6,-92.52 922.25,-81.05"/>
<polygon fill="midnightblue" stroke="midnightblue" points="924.14,-78.1 913.87,-75.51 920.28,-83.94 924.14,-78.1"/>
</g>
<!-- Node5 -->
<g id="node5" class="node">
<title>Node5</title>
<g id="a_node5"><a xlink:title=" ">
<polygon fill="none" stroke="#bfbfbf" points="976,-56.5 976,-75.5 1014,-75.5 1014,-56.5 976,-56.5"/>
<text text-anchor="middle" x="995" y="-63.5" font-family="Helvetica,sans-Serif" font-size="10.00">map</text>
</a>
</g>
</g>
<!-- Node2&#45;&gt;Node5 -->
<g id="edge4" class="edge">
<title>Node2&#45;&gt;Node5</title>
<path fill="none" stroke="midnightblue" d="M991.57,-117.98C992.14,-109.58 993.02,-96.48 993.75,-85.66"/>
<polygon fill="midnightblue" stroke="midnightblue" points="997.25,-85.72 994.43,-75.51 990.26,-85.25 997.25,-85.72"/>
</g>
<!-- Node6 -->
<g id="node6" class="node">
<title>Node6</title>
<g id="a_node6"><a xlink:title=" ">
<polygon fill="none" stroke="#bfbfbf" points="784,-0.5 784,-19.5 828,-19.5 828,-0.5 784,-0.5"/>
<text text-anchor="middle" x="806" y="-7.5" font-family="Helvetica,sans-Serif" font-size="10.00">string</text>
</a>
</g>
</g>
<!-- Node2&#45;&gt;Node6 -->
<g id="edge5" class="edge">
<title>Node2&#45;&gt;Node6</title>
<path fill="none" stroke="midnightblue" d="M1000.41,-117.92C1014.74,-103.82 1038.78,-75.39 1023,-56 1000.12,-27.88 893.35,-16.78 838.58,-12.87"/>
<polygon fill="midnightblue" stroke="midnightblue" points="838.58,-9.37 828.36,-12.19 838.11,-16.35 838.58,-9.37"/>
</g>
<!-- Node7&#45;&gt;Node2 -->
<g id="edge23" class="edge">
<title>Node7&#45;&gt;Node2</title>
<path fill="none" stroke="midnightblue" d="M504.17,-186.2C580.68,-181.82 771.4,-169.04 929,-143 935.23,-141.97 941.76,-140.68 948.15,-139.29"/>
<polygon fill="midnightblue" stroke="midnightblue" points="949.04,-142.68 958.02,-137.06 947.49,-135.86 949.04,-142.68"/>
</g>
<!-- Node7&#45;&gt;Node5 -->
<g id="edge11" class="edge">
<title>Node7&#45;&gt;Node5</title>
<path fill="none" stroke="midnightblue" d="M504.16,-186.24C589.19,-181.54 808.42,-167.35 877,-143 916.13,-129.11 955.44,-100.04 977.36,-82.15"/>
<polygon fill="midnightblue" stroke="midnightblue" points="979.69,-84.77 985.13,-75.68 975.21,-79.39 979.69,-84.77"/>
</g>
<!-- Node7&#45;&gt;Node6 -->
<g id="edge8" class="edge">
<title>Node7&#45;&gt;Node6</title>
<path fill="none" stroke="midnightblue" d="M504.05,-184.08C552.49,-177.83 637.86,-164.12 660,-143 689.11,-115.23 657.66,-85.51 685,-56 697.37,-42.65 742.75,-28.12 774.28,-19.29"/>
<polygon fill="midnightblue" stroke="midnightblue" points="775.25,-22.65 783.96,-16.63 773.39,-15.9 775.25,-22.65"/>
</g>
<!-- Node8 -->
<g id="node8" class="node">
<title>Node8</title>
<g id="a_node8"><a xlink:title=" ">
<polygon fill="none" stroke="#bfbfbf" points="0,-118 0,-137 32,-137 32,-118 0,-118"/>
<text text-anchor="middle" x="16" y="-125" font-family="Helvetica,sans-Serif" font-size="10.00">list</text>
</a>
</g>
</g>
<!-- Node7&#45;&gt;Node8 -->
<g id="edge7" class="edge">
<title>Node7&#45;&gt;Node8</title>
<path fill="none" stroke="midnightblue" d="M435.69,-186.26C347.43,-181.47 114.34,-166.9 41,-143 39.93,-142.65 38.85,-142.25 37.78,-141.81"/>
<polygon fill="midnightblue" stroke="midnightblue" points="38.99,-138.5 28.49,-137.12 35.83,-144.75 38.99,-138.5"/>
</g>
<!-- Node9 -->
<g id="node9" class="node">
<title>Node9</title>
<g id="a_node9"><a xlink:title=" ">
<polygon fill="none" stroke="#bfbfbf" points="50,-118 50,-137 106,-137 106,-118 50,-118"/>
<text text-anchor="middle" x="78" y="-125" font-family="Helvetica,sans-Serif" font-size="10.00">sstream</text>
</a>
</g>
</g>
<!-- Node7&#45;&gt;Node9 -->
<g id="edge9" class="edge">
<title>Node7&#45;&gt;Node9</title>
<path fill="none" stroke="midnightblue" d="M435.95,-186.48C372.11,-183.03 230.43,-172.45 115,-143 112.33,-142.32 109.6,-141.5 106.89,-140.6"/>
<polygon fill="midnightblue" stroke="midnightblue" points="107.88,-137.24 97.29,-137.1 105.48,-143.81 107.88,-137.24"/>
</g>
<!-- Node10 -->
<g id="node10" class="node">
<title>Node10</title>
<g id="a_node10"><a xlink:title=" ">
<polygon fill="none" stroke="#bfbfbf" points="124,-118 124,-137 184,-137 184,-118 124,-118"/>
<text text-anchor="middle" x="154" y="-125" font-family="Helvetica,sans-Serif" font-size="10.00">iostream</text>
</a>
</g>
</g>
<!-- Node7&#45;&gt;Node10 -->
<g id="edge10" class="edge">
<title>Node7&#45;&gt;Node10</title>
<path fill="none" stroke="midnightblue" d="M435.87,-184.62C383.14,-178.92 278.96,-165.73 193,-143 190.18,-142.26 187.29,-141.39 184.41,-140.45"/>
<polygon fill="midnightblue" stroke="midnightblue" points="185.4,-137.09 174.81,-137.09 183.09,-143.7 185.4,-137.09"/>
</g>
<!-- Node11 -->
<g id="node11" class="node">
<title>Node11</title>
<g id="a_node11"><a xlink:title=" ">
<polygon fill="none" stroke="#bfbfbf" points="202.5,-118 202.5,-137 251.5,-137 251.5,-118 202.5,-118"/>
<text text-anchor="middle" x="227" y="-125" font-family="Helvetica,sans-Serif" font-size="10.00">cctype</text>
</a>
</g>
</g>
<!-- Node7&#45;&gt;Node11 -->
<g id="edge12" class="edge">
<title>Node7&#45;&gt;Node11</title>
<path fill="none" stroke="midnightblue" d="M435.82,-182.71C393.99,-175.76 321.31,-162.16 261,-143 259.07,-142.39 257.11,-141.71 255.14,-140.98"/>
<polygon fill="midnightblue" stroke="midnightblue" points="256.05,-137.58 245.46,-137.13 253.46,-144.08 256.05,-137.58"/>
</g>
<!-- Node12 -->
<g id="node12" class="node">
<title>Node12</title>
<g id="a_node12"><a xlink:title=" ">
<polygon fill="none" stroke="#bfbfbf" points="270,-118 270,-137 326,-137 326,-118 270,-118"/>
<text text-anchor="middle" x="298" y="-125" font-family="Helvetica,sans-Serif" font-size="10.00">iomanip</text>
</a>
</g>
</g>
<!-- Node7&#45;&gt;Node12 -->
<g id="edge13" class="edge">
<title>Node7&#45;&gt;Node12</title>
<path fill="none" stroke="midnightblue" d="M442.96,-179.44C415.61,-170.68 372.16,-156.47 335,-143 333.1,-142.31 331.16,-141.59 329.2,-140.86"/>
<polygon fill="midnightblue" stroke="midnightblue" points="330.04,-137.43 319.45,-137.12 327.54,-143.97 330.04,-137.43"/>
</g>
<!-- Node13 -->
<g id="node13" class="node">
<title>Node13</title>
<g id="a_node13"><a xlink:title=" ">
<polygon fill="none" stroke="#bfbfbf" points="344,-118 344,-137 394,-137 394,-118 344,-118"/>
<text text-anchor="middle" x="369" y="-125" font-family="Helvetica,sans-Serif" font-size="10.00">chrono</text>
</a>
</g>
</g>
<!-- Node7&#45;&gt;Node13 -->
<g id="edge14" class="edge">
<title>Node7&#45;&gt;Node13</title>
<path fill="none" stroke="midnightblue" d="M455.53,-179.48C439.03,-169.75 411.82,-153.73 392.32,-142.24"/>
<polygon fill="midnightblue" stroke="midnightblue" points="393.84,-139.07 383.44,-137.01 390.28,-145.1 393.84,-139.07"/>
</g>
<!-- Node14 -->
<g id="node14" class="node">
<title>Node14</title>
<g id="a_node14"><a xlink:title=" ">
<polygon fill="none" stroke="#bfbfbf" points="412,-118 412,-137 462,-137 462,-118 412,-118"/>
<text text-anchor="middle" x="437" y="-125" font-family="Helvetica,sans-Serif" font-size="10.00">cstdint</text>
</a>
</g>
</g>
<!-- Node7&#45;&gt;Node14 -->
<g id="edge15" class="edge">
<title>Node7&#45;&gt;Node14</title>
<path fill="none" stroke="midnightblue" d="M465.27,-179.48C460.42,-170.73 452.73,-156.87 446.6,-145.81"/>
<polygon fill="midnightblue" stroke="midnightblue" points="449.63,-144.06 441.72,-137.01 443.51,-147.45 449.63,-144.06"/>
</g>
<!-- Node15 -->
<g id="node15" class="node">
<title>Node15</title>
<g id="a_node15"><a xlink:title=" ">
<polygon fill="none" stroke="#bfbfbf" points="480,-118 480,-137 528,-137 528,-118 480,-118"/>
<text text-anchor="middle" x="504" y="-125" font-family="Helvetica,sans-Serif" font-size="10.00">thread</text>
</a>
</g>
</g>
<!-- Node7&#45;&gt;Node15 -->
<g id="edge16" class="edge">
<title>Node7&#45;&gt;Node15</title>
<path fill="none" stroke="midnightblue" d="M474.87,-179.48C479.87,-170.73 487.79,-156.87 494.11,-145.81"/>
<polygon fill="midnightblue" stroke="midnightblue" points="497.22,-147.43 499.14,-137.01 491.14,-143.96 497.22,-147.43"/>
</g>
<!-- Node16 -->
<g id="node16" class="node">
<title>Node16</title>
<g id="a_node16"><a xlink:href="self__describing__json_8hpp.html" target="_top" xlink:title=" ">
<polygon fill="none" stroke="black" points="736,-112.5 736,-142.5 868,-142.5 868,-112.5 736,-112.5"/>
<text text-anchor="start" x="744" y="-130.5" font-family="Helvetica,sans-Serif" font-size="10.00">payload/self_describing</text>
<text text-anchor="middle" x="802" y="-119.5" font-family="Helvetica,sans-Serif" font-size="10.00">_json.hpp</text>
</a>
</g>
</g>
<!-- Node7&#45;&gt;Node16 -->
<g id="edge17" class="edge">
<title>Node7&#45;&gt;Node16</title>
<path fill="none" stroke="midnightblue" d="M504.28,-181.86C556.23,-172.55 656.22,-154.63 725.92,-142.13"/>
<polygon fill="midnightblue" stroke="midnightblue" points="726.75,-145.54 735.98,-140.33 725.52,-138.65 726.75,-145.54"/>
</g>
<!-- Node19 -->
<g id="node19" class="node">
<title>Node19</title>
<g id="a_node19"><a xlink:title=" ">
<polygon fill="none" stroke="#bfbfbf" points="546.5,-118 546.5,-137 651.5,-137 651.5,-118 546.5,-118"/>
<text text-anchor="middle" x="599" y="-125" font-family="Helvetica,sans-Serif" font-size="10.00">../include/json.hpp</text>
</a>
</g>
</g>
<!-- Node7&#45;&gt;Node19 -->
<g id="edge24" class="edge">
<title>Node7&#45;&gt;Node19</title>
<path fill="none" stroke="midnightblue" d="M488.48,-179.48C510.13,-169.49 546.21,-152.85 571.23,-141.31"/>
<polygon fill="midnightblue" stroke="midnightblue" points="572.94,-144.38 580.55,-137.01 570.01,-138.02 572.94,-144.38"/>
</g>
<!-- Node16&#45;&gt;Node4 -->
<g id="edge22" class="edge">
<title>Node16&#45;&gt;Node4</title>
<path fill="none" stroke="midnightblue" d="M825.46,-112.4C841.33,-102.86 862.19,-90.32 877.97,-80.84"/>
<polygon fill="midnightblue" stroke="midnightblue" points="879.83,-83.81 886.59,-75.66 876.22,-77.81 879.83,-83.81"/>
</g>
<!-- Node16&#45;&gt;Node6 -->
<g id="edge18" class="edge">
<title>Node16&#45;&gt;Node6</title>
<path fill="none" stroke="midnightblue" d="M802.49,-112.34C803.21,-91.62 804.54,-53.02 805.35,-29.9"/>
<polygon fill="midnightblue" stroke="midnightblue" points="808.85,-29.78 805.7,-19.67 801.86,-29.54 808.85,-29.78"/>
</g>
<!-- Node17 -->
<g id="node17" class="node">
<title>Node17</title>
<g id="a_node17"><a xlink:href="constants_8hpp.html" target="_top" xlink:title=" ">
<polygon fill="none" stroke="black" points="694,-56.5 694,-75.5 788,-75.5 788,-56.5 694,-56.5"/>
<text text-anchor="middle" x="741" y="-63.5" font-family="Helvetica,sans-Serif" font-size="10.00">../constants.hpp</text>
</a>
</g>
</g>
<!-- Node16&#45;&gt;Node17 -->
<g id="edge19" class="edge">
<title>Node16&#45;&gt;Node17</title>
<path fill="none" stroke="midnightblue" d="M787.54,-112.4C778.41,-103.49 766.58,-91.95 757.14,-82.74"/>
<polygon fill="midnightblue" stroke="midnightblue" points="759.48,-80.13 749.88,-75.66 754.59,-85.15 759.48,-80.13"/>
</g>
<!-- Node17&#45;&gt;Node6 -->
<g id="edge20" class="edge">
<title>Node17&#45;&gt;Node6</title>
<path fill="none" stroke="midnightblue" d="M751.44,-56.32C761.15,-48.26 775.82,-36.08 787.5,-26.37"/>
<polygon fill="midnightblue" stroke="midnightblue" points="789.91,-28.92 795.37,-19.83 785.44,-23.53 789.91,-28.92"/>
</g>
<!-- Node18 -->
<g id="node18" class="node">
<title>Node18</title>
<g id="a_node18"><a xlink:title=" ">
<polygon fill="none" stroke="#bfbfbf" points="725,-0.5 725,-19.5 757,-19.5 757,-0.5 725,-0.5"/>
<text text-anchor="middle" x="741" y="-7.5" font-family="Helvetica,sans-Serif" font-size="10.00">set</text>
</a>
</g>
</g>
<!-- Node17&#45;&gt;Node18 -->
<g id="edge21" class="edge">
<title>Node17&#45;&gt;Node18</title>
<path fill="none" stroke="midnightblue" d="M741,-56.08C741,-49.01 741,-38.86 741,-29.99"/>
<polygon fill="midnightblue" stroke="midnightblue" points="744.5,-29.75 741,-19.75 737.5,-29.75 744.5,-29.75"/>
</g>
</g>
</svg>
