<?xml version="1.0" encoding="UTF-8" standalone="no"?>
<!DOCTYPE svg PUBLIC "-//W3C//DTD SVG 1.1//EN"
 "http://www.w3.org/Graphics/SVG/1.1/DTD/svg11.dtd">
<!-- Generated by graphviz version 2.43.0 (0)
 -->
<!-- Title: src/emitter/retry_delay.hpp Pages: 1 -->
<svg width="394pt" height="196pt"
 viewBox="0.00 0.00 393.50 196.00" xmlns="http://www.w3.org/2000/svg" xmlns:xlink="http://www.w3.org/1999/xlink">
<g id="graph0" class="graph" transform="scale(1 1) rotate(0) translate(4 192)">
<title>src/emitter/retry_delay.hpp</title>
<!-- Node1 -->
<g id="node1" class="node">
<title>Node1</title>
<g id="a_node1"><a xlink:title=" ">
<polygon fill="#bfbfbf" stroke="black" points="160,-168.5 160,-187.5 308,-187.5 308,-168.5 160,-168.5"/>
<text text-anchor="middle" x="234" y="-175.5" font-family="Helvetica,sans-Serif" font-size="10.00">src/emitter/retry_delay.hpp</text>
</a>
</g>
</g>
<!-- Node2 -->
<g id="node2" class="node">
<title>Node2</title>
<g id="a_node2"><a xlink:href="emitter_8hpp.html" target="_top" xlink:title=" ">
<polygon fill="none" stroke="black" points="91.5,-112.5 91.5,-131.5 220.5,-131.5 220.5,-112.5 91.5,-112.5"/>
<text text-anchor="middle" x="156" y="-119.5" font-family="Helvetica,sans-Serif" font-size="10.00">src/emitter/emitter.hpp</text>
</a>
</g>
</g>
<!-- Node1&#45;&gt;Node2 -->
<g id="edge1" class="edge">
<title>Node1&#45;&gt;Node2</title>
<path fill="none" stroke="midnightblue" d="M213.23,-162.62C198.98,-152.76 180.54,-139.99 168.5,-131.65"/>
<polygon fill="midnightblue" stroke="midnightblue" points="211.25,-165.51 221.47,-168.32 215.24,-159.75 211.25,-165.51"/>
</g>
<!-- Node7 -->
<g id="node7" class="node">
<title>Node7</title>
<g id="a_node7"><a xlink:href="retry__delay_8cpp.html" target="_top" xlink:title=" ">
<polygon fill="none" stroke="black" points="238.5,-112.5 238.5,-131.5 385.5,-131.5 385.5,-112.5 238.5,-112.5"/>
<text text-anchor="middle" x="312" y="-119.5" font-family="Helvetica,sans-Serif" font-size="10.00">src/emitter/retry_delay.cpp</text>
</a>
</g>
</g>
<!-- Node1&#45;&gt;Node7 -->
<g id="edge7" class="edge">
<title>Node1&#45;&gt;Node7</title>
<path fill="none" stroke="midnightblue" d="M254.77,-162.62C269.02,-152.76 287.46,-139.99 299.5,-131.65"/>
<polygon fill="midnightblue" stroke="midnightblue" points="252.76,-159.75 246.53,-168.32 256.75,-165.51 252.76,-159.75"/>
</g>
<!-- Node3 -->
<g id="node3" class="node">
<title>Node3</title>
<g id="a_node3"><a xlink:href="emitter_8cpp.html" target="_top" xlink:title=" ">
<polygon fill="none" stroke="black" points="0,-56.5 0,-75.5 128,-75.5 128,-56.5 0,-56.5"/>
<text text-anchor="middle" x="64" y="-63.5" font-family="Helvetica,sans-Serif" font-size="10.00">src/emitter/emitter.cpp</text>
</a>
</g>
</g>
<!-- Node2&#45;&gt;Node3 -->
<g id="edge2" class="edge">
<title>Node2&#45;&gt;Node3</title>
<path fill="none" stroke="midnightblue" d="M132.45,-107.18C115.52,-97.24 93.22,-84.15 78.74,-75.65"/>
<polygon fill="midnightblue" stroke="midnightblue" points="130.82,-110.28 141.22,-112.32 134.37,-104.24 130.82,-110.28"/>
</g>
<!-- Node4 -->
<g id="node4" class="node">
<title>Node4</title>
<g id="a_node4"><a xlink:href="snowplow_8hpp.html" target="_top" xlink:title=" ">
<polygon fill="none" stroke="black" points="104.5,-0.5 104.5,-19.5 207.5,-19.5 207.5,-0.5 104.5,-0.5"/>
<text text-anchor="middle" x="156" y="-7.5" font-family="Helvetica,sans-Serif" font-size="10.00">src/snowplow.hpp</text>
</a>
</g>
</g>
<!-- Node2&#45;&gt;Node4 -->
<g id="edge3" class="edge">
<title>Node2&#45;&gt;Node4</title>
<path fill="none" stroke="midnightblue" d="M156,-102.35C156,-78.25 156,-37.31 156,-19.59"/>
<polygon fill="midnightblue" stroke="midnightblue" points="152.5,-102.37 156,-112.37 159.5,-102.37 152.5,-102.37"/>
</g>
<!-- Node5 -->
<g id="node5" class="node">
<title>Node5</title>
<g id="a_node5"><a xlink:href="tracker_8hpp.html" target="_top" xlink:title=" ">
<polygon fill="none" stroke="black" points="184,-56.5 184,-75.5 272,-75.5 272,-56.5 184,-56.5"/>
<text text-anchor="middle" x="228" y="-63.5" font-family="Helvetica,sans-Serif" font-size="10.00">src/tracker.hpp</text>
</a>
</g>
</g>
<!-- Node2&#45;&gt;Node5 -->
<g id="edge4" class="edge">
<title>Node2&#45;&gt;Node5</title>
<path fill="none" stroke="midnightblue" d="M175.87,-106.1C188.82,-96.38 205.3,-84.03 216.22,-75.83"/>
<polygon fill="midnightblue" stroke="midnightblue" points="173.47,-103.52 167.57,-112.32 177.67,-109.12 173.47,-103.52"/>
</g>
<!-- Node5&#45;&gt;Node4 -->
<g id="edge5" class="edge">
<title>Node5&#45;&gt;Node4</title>
<path fill="none" stroke="midnightblue" d="M208.13,-50.1C195.18,-40.38 178.7,-28.03 167.78,-19.83"/>
<polygon fill="midnightblue" stroke="midnightblue" points="206.33,-53.12 216.43,-56.32 210.53,-47.52 206.33,-53.12"/>
</g>
<!-- Node6 -->
<g id="node6" class="node">
<title>Node6</title>
<g id="a_node6"><a xlink:href="tracker_8cpp.html" target="_top" xlink:title=" ">
<polygon fill="none" stroke="black" points="225.5,-0.5 225.5,-19.5 312.5,-19.5 312.5,-0.5 225.5,-0.5"/>
<text text-anchor="middle" x="269" y="-7.5" font-family="Helvetica,sans-Serif" font-size="10.00">src/tracker.cpp</text>
</a>
</g>
</g>
<!-- Node5&#45;&gt;Node6 -->
<g id="edge6" class="edge">
<title>Node5&#45;&gt;Node6</title>
<path fill="none" stroke="midnightblue" d="M241.02,-47.86C248.12,-38.5 256.6,-27.33 262.36,-19.75"/>
<polygon fill="midnightblue" stroke="midnightblue" points="238.03,-46 234.77,-56.08 243.61,-50.24 238.03,-46"/>
</g>
</g>
</svg>
