<?xml version="1.0" encoding="UTF-8" standalone="no"?>
<!DOCTYPE svg PUBLIC "-//W3C//DTD SVG 1.1//EN"
 "http://www.w3.org/Graphics/SVG/1.1/DTD/svg11.dtd">
<!-- Generated by graphviz version 2.43.0 (0)
 -->
<!-- Title: src/payload/self_describing_json.hpp Pages: 1 -->
<svg width="1128pt" height="307pt"
 viewBox="0.00 0.00 1127.98 307.00" xmlns="http://www.w3.org/2000/svg" xmlns:xlink="http://www.w3.org/1999/xlink">
<g id="graph0" class="graph" transform="scale(1 1) rotate(0) translate(4 303)">
<title>src/payload/self_describing_json.hpp</title>
<!-- Node1 -->
<g id="node1" class="node">
<title>Node1</title>
<g id="a_node1"><a xlink:title=" ">
<polygon fill="#bfbfbf" stroke="black" points="315.48,-268.5 315.48,-298.5 464.48,-298.5 464.48,-268.5 315.48,-268.5"/>
<text text-anchor="start" x="323.48" y="-286.5" font-family="Helvetica,sans-Serif" font-size="10.00">src/payload/self_describing</text>
<text text-anchor="middle" x="389.98" y="-275.5" font-family="Helvetica,sans-Serif" font-size="10.00">_json.hpp</text>
</a>
</g>
</g>
<!-- Node2 -->
<g id="node2" class="node">
<title>Node2</title>
<g id="a_node2"><a xlink:href="client__session_8hpp.html" target="_top" xlink:title=" ">
<polygon fill="none" stroke="black" points="54.98,-207 54.98,-226 178.98,-226 178.98,-207 54.98,-207"/>
<text text-anchor="middle" x="116.98" y="-214" font-family="Helvetica,sans-Serif" font-size="10.00">src/client_session.hpp</text>
</a>
</g>
</g>
<!-- Node1&#45;&gt;Node2 -->
<g id="edge1" class="edge">
<title>Node1&#45;&gt;Node2</title>
<path fill="none" stroke="midnightblue" d="M321.3,-266.15C267.73,-253.39 195.48,-236.19 152.8,-226.03"/>
<polygon fill="midnightblue" stroke="midnightblue" points="320.54,-269.56 331.07,-268.48 322.16,-262.75 320.54,-269.56"/>
</g>
<!-- Node4 -->
<g id="node4" class="node">
<title>Node4</title>
<g id="a_node4"><a xlink:href="snowplow_8hpp.html" target="_top" xlink:title=" ">
<polygon fill="none" stroke="black" points="260.48,-6 260.48,-25 363.48,-25 363.48,-6 260.48,-6"/>
<text text-anchor="middle" x="311.98" y="-13" font-family="Helvetica,sans-Serif" font-size="10.00">src/snowplow.hpp</text>
</a>
</g>
</g>
<!-- Node1&#45;&gt;Node4 -->
<g id="edge28" class="edge">
<title>Node1&#45;&gt;Node4</title>
<path fill="none" stroke="midnightblue" d="M305.05,-281.47C214.96,-278.46 80.89,-267.87 45.98,-232 -5.42,-179.21 -17.31,-123.5 29.98,-67 44.62,-49.5 183.16,-31.14 260.46,-22.15"/>
<polygon fill="midnightblue" stroke="midnightblue" points="305.15,-284.97 315.26,-281.78 305.37,-277.98 305.15,-284.97"/>
</g>
<!-- Node7 -->
<g id="node7" class="node">
<title>Node7</title>
<g id="a_node7"><a xlink:href="emitter_8hpp.html" target="_top" xlink:title=" ">
<polygon fill="none" stroke="black" points="236.48,-140 236.48,-159 365.48,-159 365.48,-140 236.48,-140"/>
<text text-anchor="middle" x="300.98" y="-147" font-family="Helvetica,sans-Serif" font-size="10.00">src/emitter/emitter.hpp</text>
</a>
</g>
</g>
<!-- Node1&#45;&gt;Node7 -->
<g id="edge7" class="edge">
<title>Node1&#45;&gt;Node7</title>
<path fill="none" stroke="midnightblue" d="M374.72,-259.87C354.66,-230.12 320.37,-179.26 306.77,-159.1"/>
<polygon fill="midnightblue" stroke="midnightblue" points="371.96,-262.04 380.45,-268.37 377.76,-258.13 371.96,-262.04"/>
</g>
<!-- Node9 -->
<g id="node9" class="node">
<title>Node9</title>
<g id="a_node9"><a xlink:href="event_8hpp.html" target="_top" xlink:title=" ">
<polygon fill="none" stroke="black" points="383.48,-140 383.48,-159 502.48,-159 502.48,-140 383.48,-140"/>
<text text-anchor="middle" x="442.98" y="-147" font-family="Helvetica,sans-Serif" font-size="10.00">src/events/event.hpp</text>
</a>
</g>
</g>
<!-- Node1&#45;&gt;Node9 -->
<g id="edge11" class="edge">
<title>Node1&#45;&gt;Node9</title>
<path fill="none" stroke="midnightblue" d="M399.53,-258.71C411.53,-228.81 431.53,-179 439.52,-159.1"/>
<polygon fill="midnightblue" stroke="midnightblue" points="396.13,-257.79 395.65,-268.37 402.62,-260.4 396.13,-257.79"/>
</g>
<!-- Node19 -->
<g id="node19" class="node">
<title>Node19</title>
<g id="a_node19"><a xlink:href="self__describing__json_8cpp.html" target="_top" xlink:title=" ">
<polygon fill="none" stroke="black" points="587.48,-201.5 587.48,-231.5 736.48,-231.5 736.48,-201.5 587.48,-201.5"/>
<text text-anchor="start" x="595.48" y="-219.5" font-family="Helvetica,sans-Serif" font-size="10.00">src/payload/self_describing</text>
<text text-anchor="middle" x="661.98" y="-208.5" font-family="Helvetica,sans-Serif" font-size="10.00">_json.cpp</text>
</a>
</g>
</g>
<!-- Node1&#45;&gt;Node19 -->
<g id="edge27" class="edge">
<title>Node1&#45;&gt;Node19</title>
<path fill="none" stroke="midnightblue" d="M458.53,-266.12C503.03,-255.48 560.45,-241.76 602.93,-231.61"/>
<polygon fill="midnightblue" stroke="midnightblue" points="457.57,-262.75 448.66,-268.48 459.2,-269.56 457.57,-262.75"/>
</g>
<!-- Node20 -->
<g id="node20" class="node">
<title>Node20</title>
<g id="a_node20"><a xlink:href="utils_8hpp.html" target="_top" xlink:title=" ">
<polygon fill="none" stroke="black" points="492.98,-207 492.98,-226 568.98,-226 568.98,-207 492.98,-207"/>
<text text-anchor="middle" x="530.98" y="-214" font-family="Helvetica,sans-Serif" font-size="10.00">src/utils.hpp</text>
</a>
</g>
</g>
<!-- Node1&#45;&gt;Node20 -->
<g id="edge29" class="edge">
<title>Node1&#45;&gt;Node20</title>
<path fill="none" stroke="midnightblue" d="M429.82,-264.13C456.96,-251.62 491.63,-235.64 512.52,-226.01"/>
<polygon fill="midnightblue" stroke="midnightblue" points="428.19,-261.03 420.57,-268.4 431.12,-267.39 428.19,-261.03"/>
</g>
<!-- Node3 -->
<g id="node3" class="node">
<title>Node3</title>
<g id="a_node3"><a xlink:href="client__session_8cpp.html" target="_top" xlink:title=" ">
<polygon fill="none" stroke="black" points="95.48,-140 95.48,-159 218.48,-159 218.48,-140 95.48,-140"/>
<text text-anchor="middle" x="156.98" y="-147" font-family="Helvetica,sans-Serif" font-size="10.00">src/client_session.cpp</text>
</a>
</g>
</g>
<!-- Node2&#45;&gt;Node3 -->
<g id="edge2" class="edge">
<title>Node2&#45;&gt;Node3</title>
<path fill="none" stroke="midnightblue" d="M127.72,-198.03C135.47,-185.45 145.59,-169.01 151.67,-159.13"/>
<polygon fill="midnightblue" stroke="midnightblue" points="124.63,-196.38 122.37,-206.73 130.59,-200.05 124.63,-196.38"/>
</g>
<!-- Node2&#45;&gt;Node4 -->
<g id="edge3" class="edge">
<title>Node2&#45;&gt;Node4</title>
<path fill="none" stroke="midnightblue" d="M98.9,-200.19C67.35,-171.67 8.8,-109.43 43.98,-67 57.67,-50.48 186.31,-32.04 260.27,-22.68"/>
<polygon fill="midnightblue" stroke="midnightblue" points="96.8,-203.01 106.62,-207 101.43,-197.76 96.8,-203.01"/>
</g>
<!-- Node5 -->
<g id="node5" class="node">
<title>Node5</title>
<g id="a_node5"><a xlink:href="tracker_8hpp.html" target="_top" xlink:title=" ">
<polygon fill="none" stroke="black" points="52.98,-73 52.98,-92 140.98,-92 140.98,-73 52.98,-73"/>
<text text-anchor="middle" x="96.98" y="-80" font-family="Helvetica,sans-Serif" font-size="10.00">src/tracker.hpp</text>
</a>
</g>
</g>
<!-- Node2&#45;&gt;Node5 -->
<g id="edge4" class="edge">
<title>Node2&#45;&gt;Node5</title>
<path fill="none" stroke="midnightblue" d="M103.56,-198.92C96.86,-189.56 89.45,-177.3 85.98,-165 78.68,-139.17 88.03,-107.32 93.52,-92.23"/>
<polygon fill="midnightblue" stroke="midnightblue" points="100.79,-201.06 109.62,-206.91 106.37,-196.83 100.79,-201.06"/>
</g>
<!-- Node5&#45;&gt;Node4 -->
<g id="edge5" class="edge">
<title>Node5&#45;&gt;Node4</title>
<path fill="none" stroke="midnightblue" d="M135.25,-69.93C177.82,-57.06 245.59,-36.57 283.65,-25.06"/>
<polygon fill="midnightblue" stroke="midnightblue" points="134.09,-66.62 125.53,-72.87 136.11,-73.32 134.09,-66.62"/>
</g>
<!-- Node6 -->
<g id="node6" class="node">
<title>Node6</title>
<g id="a_node6"><a xlink:href="tracker_8cpp.html" target="_top" xlink:title=" ">
<polygon fill="none" stroke="black" points="53.48,-6 53.48,-25 140.48,-25 140.48,-6 53.48,-6"/>
<text text-anchor="middle" x="96.98" y="-13" font-family="Helvetica,sans-Serif" font-size="10.00">src/tracker.cpp</text>
</a>
</g>
</g>
<!-- Node5&#45;&gt;Node6 -->
<g id="edge6" class="edge">
<title>Node5&#45;&gt;Node6</title>
<path fill="none" stroke="midnightblue" d="M96.98,-62.54C96.98,-50.17 96.98,-34.62 96.98,-25.13"/>
<polygon fill="midnightblue" stroke="midnightblue" points="93.48,-62.73 96.98,-72.73 100.48,-62.73 93.48,-62.73"/>
</g>
<!-- Node7&#45;&gt;Node4 -->
<g id="edge9" class="edge">
<title>Node7&#45;&gt;Node4</title>
<path fill="none" stroke="midnightblue" d="M243.98,-136.9C222.67,-129.49 200.6,-117.47 187.98,-98 180.48,-86.44 180.29,-78.43 187.98,-67 204.13,-42.99 233.89,-30.38 260.22,-23.78"/>
<polygon fill="midnightblue" stroke="midnightblue" points="243.09,-140.29 253.68,-139.98 245.21,-133.62 243.09,-140.29"/>
</g>
<!-- Node7&#45;&gt;Node5 -->
<g id="edge10" class="edge">
<title>Node7&#45;&gt;Node5</title>
<path fill="none" stroke="midnightblue" d="M264.15,-136.77C223.73,-123.89 159.81,-103.52 123.85,-92.06"/>
<polygon fill="midnightblue" stroke="midnightblue" points="263.3,-140.17 273.89,-139.87 265.42,-133.5 263.3,-140.17"/>
</g>
<!-- Node8 -->
<g id="node8" class="node">
<title>Node8</title>
<g id="a_node8"><a xlink:href="emitter_8cpp.html" target="_top" xlink:title=" ">
<polygon fill="none" stroke="black" points="196.98,-73 196.98,-92 324.98,-92 324.98,-73 196.98,-73"/>
<text text-anchor="middle" x="260.98" y="-80" font-family="Helvetica,sans-Serif" font-size="10.00">src/emitter/emitter.cpp</text>
</a>
</g>
</g>
<!-- Node7&#45;&gt;Node8 -->
<g id="edge8" class="edge">
<title>Node7&#45;&gt;Node8</title>
<path fill="none" stroke="midnightblue" d="M290.23,-131.03C282.48,-118.45 272.36,-102.01 266.28,-92.13"/>
<polygon fill="midnightblue" stroke="midnightblue" points="287.36,-133.05 295.58,-139.73 293.32,-129.38 287.36,-133.05"/>
</g>
<!-- Node9&#45;&gt;Node4 -->
<g id="edge25" class="edge">
<title>Node9&#45;&gt;Node4</title>
<path fill="none" stroke="midnightblue" d="M419.84,-134.38C405.5,-125.03 387.18,-111.96 372.98,-98 348.9,-74.34 326.79,-40.62 317.12,-25.02"/>
<polygon fill="midnightblue" stroke="midnightblue" points="418.28,-137.54 428.6,-139.96 422.04,-131.63 418.28,-137.54"/>
</g>
<!-- Node9&#45;&gt;Node5 -->
<g id="edge26" class="edge">
<title>Node9&#45;&gt;Node5</title>
<path fill="none" stroke="midnightblue" d="M393.93,-137.86C387.56,-136.53 381.12,-135.21 374.98,-134 292.68,-117.76 196.29,-100.68 141.35,-91.13"/>
<polygon fill="midnightblue" stroke="midnightblue" points="393.32,-141.3 403.82,-139.94 394.76,-134.45 393.32,-141.3"/>
</g>
<!-- Node10 -->
<g id="node10" class="node">
<title>Node10</title>
<g id="a_node10"><a xlink:href="event_8cpp.html" target="_top" xlink:title=" ">
<polygon fill="none" stroke="black" points="1001.98,-73 1001.98,-92 1119.98,-92 1119.98,-73 1001.98,-73"/>
<text text-anchor="middle" x="1060.98" y="-80" font-family="Helvetica,sans-Serif" font-size="10.00">src/events/event.cpp</text>
</a>
</g>
</g>
<!-- Node9&#45;&gt;Node10 -->
<g id="edge12" class="edge">
<title>Node9&#45;&gt;Node10</title>
<path fill="none" stroke="midnightblue" d="M491.97,-138.06C500.29,-136.53 508.86,-135.1 516.98,-134 727.22,-105.55 782.97,-128.19 992.98,-98 1003.61,-96.47 1015.07,-94.25 1025.49,-92.01"/>
<polygon fill="midnightblue" stroke="midnightblue" points="491.17,-134.65 482,-139.96 492.48,-141.52 491.17,-134.65"/>
</g>
<!-- Node11 -->
<g id="node11" class="node">
<title>Node11</title>
<g id="a_node11"><a xlink:href="screen__view__event_8hpp.html" target="_top" xlink:title=" ">
<polygon fill="none" stroke="black" points="381.48,-67.5 381.48,-97.5 512.48,-97.5 512.48,-67.5 381.48,-67.5"/>
<text text-anchor="start" x="389.48" y="-85.5" font-family="Helvetica,sans-Serif" font-size="10.00">src/events/screen_view</text>
<text text-anchor="middle" x="446.98" y="-74.5" font-family="Helvetica,sans-Serif" font-size="10.00">_event.hpp</text>
</a>
</g>
</g>
<!-- Node9&#45;&gt;Node11 -->
<g id="edge13" class="edge">
<title>Node9&#45;&gt;Node11</title>
<path fill="none" stroke="midnightblue" d="M444.13,-129.74C444.76,-119.49 445.53,-107 446.11,-97.59"/>
<polygon fill="midnightblue" stroke="midnightblue" points="440.64,-129.54 443.52,-139.73 447.62,-129.97 440.64,-129.54"/>
</g>
<!-- Node13 -->
<g id="node13" class="node">
<title>Node13</title>
<g id="a_node13"><a xlink:href="self__describing__event_8hpp.html" target="_top" xlink:title=" ">
<polygon fill="none" stroke="black" points="530.48,-67.5 530.48,-97.5 673.48,-97.5 673.48,-67.5 530.48,-67.5"/>
<text text-anchor="start" x="538.48" y="-85.5" font-family="Helvetica,sans-Serif" font-size="10.00">src/events/self_describing</text>
<text text-anchor="middle" x="601.98" y="-74.5" font-family="Helvetica,sans-Serif" font-size="10.00">_event.hpp</text>
</a>
</g>
</g>
<!-- Node9&#45;&gt;Node13 -->
<g id="edge16" class="edge">
<title>Node9&#45;&gt;Node13</title>
<path fill="none" stroke="midnightblue" d="M473.41,-136.06C500.35,-125.05 539.62,-108.99 567.66,-97.53"/>
<polygon fill="midnightblue" stroke="midnightblue" points="472.02,-132.84 464.09,-139.87 474.67,-139.32 472.02,-132.84"/>
</g>
<!-- Node15 -->
<g id="node15" class="node">
<title>Node15</title>
<g id="a_node15"><a xlink:href="structured__event_8hpp.html" target="_top" xlink:title=" ">
<polygon fill="none" stroke="black" points="691.48,-67.5 691.48,-97.5 810.48,-97.5 810.48,-67.5 691.48,-67.5"/>
<text text-anchor="start" x="699.48" y="-85.5" font-family="Helvetica,sans-Serif" font-size="10.00">src/events/structured</text>
<text text-anchor="middle" x="750.98" y="-74.5" font-family="Helvetica,sans-Serif" font-size="10.00">_event.hpp</text>
</a>
</g>
</g>
<!-- Node9&#45;&gt;Node15 -->
<g id="edge19" class="edge">
<title>Node9&#45;&gt;Node15</title>
<path fill="none" stroke="midnightblue" d="M493.7,-137.87C542.28,-127.68 617.64,-111.84 682.98,-98 685.69,-97.42 688.47,-96.84 691.27,-96.24"/>
<polygon fill="midnightblue" stroke="midnightblue" points="492.82,-134.48 483.75,-139.96 494.25,-141.33 492.82,-134.48"/>
</g>
<!-- Node17 -->
<g id="node17" class="node">
<title>Node17</title>
<g id="a_node17"><a xlink:href="timing__event_8hpp.html" target="_top" xlink:title=" ">
<polygon fill="none" stroke="black" points="828.48,-73 828.48,-92 983.48,-92 983.48,-73 828.48,-73"/>
<text text-anchor="middle" x="905.98" y="-80" font-family="Helvetica,sans-Serif" font-size="10.00">src/events/timing_event.hpp</text>
</a>
</g>
</g>
<!-- Node9&#45;&gt;Node17 -->
<g id="edge22" class="edge">
<title>Node9&#45;&gt;Node17</title>
<path fill="none" stroke="midnightblue" d="M493.42,-138.09C501.28,-136.62 509.34,-135.2 516.98,-134 650.95,-112.95 685.74,-117.28 819.98,-98 832.27,-96.23 845.51,-94.11 857.83,-92.04"/>
<polygon fill="midnightblue" stroke="midnightblue" points="492.75,-134.65 483.59,-139.97 494.07,-141.53 492.75,-134.65"/>
</g>
<!-- Node11&#45;&gt;Node4 -->
<g id="edge15" class="edge">
<title>Node11&#45;&gt;Node4</title>
<path fill="none" stroke="midnightblue" d="M408.48,-62.97C382.55,-50.48 349.56,-34.6 329.64,-25.01"/>
<polygon fill="midnightblue" stroke="midnightblue" points="407.15,-66.21 417.68,-67.4 410.19,-59.9 407.15,-66.21"/>
</g>
<!-- Node12 -->
<g id="node12" class="node">
<title>Node12</title>
<g id="a_node12"><a xlink:href="screen__view__event_8cpp.html" target="_top" xlink:title=" ">
<polygon fill="none" stroke="black" points="381.48,-0.5 381.48,-30.5 512.48,-30.5 512.48,-0.5 381.48,-0.5"/>
<text text-anchor="start" x="389.48" y="-18.5" font-family="Helvetica,sans-Serif" font-size="10.00">src/events/screen_view</text>
<text text-anchor="middle" x="446.98" y="-7.5" font-family="Helvetica,sans-Serif" font-size="10.00">_event.cpp</text>
</a>
</g>
</g>
<!-- Node11&#45;&gt;Node12 -->
<g id="edge14" class="edge">
<title>Node11&#45;&gt;Node12</title>
<path fill="none" stroke="midnightblue" d="M446.98,-57.11C446.98,-48.15 446.98,-38.32 446.98,-30.58"/>
<polygon fill="midnightblue" stroke="midnightblue" points="443.48,-57.4 446.98,-67.4 450.48,-57.4 443.48,-57.4"/>
</g>
<!-- Node13&#45;&gt;Node4 -->
<g id="edge18" class="edge">
<title>Node13&#45;&gt;Node4</title>
<path fill="none" stroke="midnightblue" d="M526.85,-65.26C482.12,-55.5 424.26,-42.75 372.98,-31 364.7,-29.1 355.8,-27.02 347.43,-25.03"/>
<polygon fill="midnightblue" stroke="midnightblue" points="526.25,-68.71 536.76,-67.42 527.74,-61.87 526.25,-68.71"/>
</g>
<!-- Node14 -->
<g id="node14" class="node">
<title>Node14</title>
<g id="a_node14"><a xlink:href="self__describing__event_8cpp.html" target="_top" xlink:title=" ">
<polygon fill="none" stroke="black" points="530.48,-0.5 530.48,-30.5 673.48,-30.5 673.48,-0.5 530.48,-0.5"/>
<text text-anchor="start" x="538.48" y="-18.5" font-family="Helvetica,sans-Serif" font-size="10.00">src/events/self_describing</text>
<text text-anchor="middle" x="601.98" y="-7.5" font-family="Helvetica,sans-Serif" font-size="10.00">_event.cpp</text>
</a>
</g>
</g>
<!-- Node13&#45;&gt;Node14 -->
<g id="edge17" class="edge">
<title>Node13&#45;&gt;Node14</title>
<path fill="none" stroke="midnightblue" d="M601.98,-57.11C601.98,-48.15 601.98,-38.32 601.98,-30.58"/>
<polygon fill="midnightblue" stroke="midnightblue" points="598.48,-57.4 601.98,-67.4 605.48,-57.4 598.48,-57.4"/>
</g>
<!-- Node15&#45;&gt;Node4 -->
<g id="edge21" class="edge">
<title>Node15&#45;&gt;Node4</title>
<path fill="none" stroke="midnightblue" d="M681.3,-66.82C544.34,-44.99 506.37,-54.52 372.98,-31 363.76,-29.37 353.85,-27.21 344.75,-25.04"/>
<polygon fill="midnightblue" stroke="midnightblue" points="680.9,-70.3 691.33,-68.45 682.02,-63.39 680.9,-70.3"/>
</g>
<!-- Node16 -->
<g id="node16" class="node">
<title>Node16</title>
<g id="a_node16"><a xlink:href="structured__event_8cpp.html" target="_top" xlink:title=" ">
<polygon fill="none" stroke="black" points="691.48,-0.5 691.48,-30.5 810.48,-30.5 810.48,-0.5 691.48,-0.5"/>
<text text-anchor="start" x="699.48" y="-18.5" font-family="Helvetica,sans-Serif" font-size="10.00">src/events/structured</text>
<text text-anchor="middle" x="750.98" y="-7.5" font-family="Helvetica,sans-Serif" font-size="10.00">_event.cpp</text>
</a>
</g>
</g>
<!-- Node15&#45;&gt;Node16 -->
<g id="edge20" class="edge">
<title>Node15&#45;&gt;Node16</title>
<path fill="none" stroke="midnightblue" d="M750.98,-57.11C750.98,-48.15 750.98,-38.32 750.98,-30.58"/>
<polygon fill="midnightblue" stroke="midnightblue" points="747.48,-57.4 750.98,-67.4 754.48,-57.4 747.48,-57.4"/>
</g>
<!-- Node17&#45;&gt;Node4 -->
<g id="edge24" class="edge">
<title>Node17&#45;&gt;Node4</title>
<path fill="none" stroke="midnightblue" d="M849.56,-71.27C839.72,-69.69 829.57,-68.19 819.98,-67 622.19,-42.41 569.84,-62.14 372.98,-31 363.41,-29.49 353.12,-27.27 343.77,-25.03"/>
<polygon fill="midnightblue" stroke="midnightblue" points="849.23,-74.76 859.67,-72.94 850.37,-67.86 849.23,-74.76"/>
</g>
<!-- Node18 -->
<g id="node18" class="node">
<title>Node18</title>
<g id="a_node18"><a xlink:href="timing__event_8cpp.html" target="_top" xlink:title=" ">
<polygon fill="none" stroke="black" points="828.48,-6 828.48,-25 983.48,-25 983.48,-6 828.48,-6"/>
<text text-anchor="middle" x="905.98" y="-13" font-family="Helvetica,sans-Serif" font-size="10.00">src/events/timing_event.cpp</text>
</a>
</g>
</g>
<!-- Node17&#45;&gt;Node18 -->
<g id="edge23" class="edge">
<title>Node17&#45;&gt;Node18</title>
<path fill="none" stroke="midnightblue" d="M905.98,-62.54C905.98,-50.17 905.98,-34.62 905.98,-25.13"/>
<polygon fill="midnightblue" stroke="midnightblue" points="902.48,-62.73 905.98,-72.73 909.48,-62.73 902.48,-62.73"/>
</g>
<!-- Node20&#45;&gt;Node3 -->
<g id="edge30" class="edge">
<title>Node20&#45;&gt;Node3</title>
<path fill="none" stroke="midnightblue" d="M482.54,-208.06C422.46,-198.69 316.96,-181.79 226.98,-165 217.22,-163.18 206.72,-161.08 196.9,-159.06"/>
<polygon fill="midnightblue" stroke="midnightblue" points="482.08,-211.53 492.5,-209.61 483.15,-204.61 482.08,-211.53"/>
</g>
<!-- Node20&#45;&gt;Node7 -->
<g id="edge31" class="edge">
<title>Node20&#45;&gt;Node7</title>
<path fill="none" stroke="midnightblue" d="M490.61,-204.09C445.1,-191.23 372.16,-170.62 331.28,-159.06"/>
<polygon fill="midnightblue" stroke="midnightblue" points="489.86,-207.52 500.43,-206.87 491.76,-200.78 489.86,-207.52"/>
</g>
<!-- Node20&#45;&gt;Node10 -->
<g id="edge32" class="edge">
<title>Node20&#45;&gt;Node10</title>
<path fill="none" stroke="midnightblue" d="M529.57,-196.91C529.27,-178.01 532.12,-149.39 549.98,-134 587.38,-101.76 944.11,-105.16 992.98,-98 1003.49,-96.46 1014.81,-94.26 1025.14,-92.05"/>
<polygon fill="midnightblue" stroke="midnightblue" points="526.08,-197.15 530.04,-206.97 533.07,-196.82 526.08,-197.15"/>
</g>
<!-- Node21 -->
<g id="node21" class="node">
<title>Node21</title>
<g id="a_node21"><a xlink:href="event__payload_8cpp.html" target="_top" xlink:title=" ">
<polygon fill="none" stroke="black" points="558.98,-140 558.98,-159 726.98,-159 726.98,-140 558.98,-140"/>
<text text-anchor="middle" x="642.98" y="-147" font-family="Helvetica,sans-Serif" font-size="10.00">src/payload/event_payload.cpp</text>
</a>
</g>
</g>
<!-- Node20&#45;&gt;Node21 -->
<g id="edge33" class="edge">
<title>Node20&#45;&gt;Node21</title>
<path fill="none" stroke="midnightblue" d="M554.9,-201.62C577.09,-188.74 609.42,-169.98 628.11,-159.13"/>
<polygon fill="midnightblue" stroke="midnightblue" points="552.97,-198.69 546.08,-206.73 556.49,-204.74 552.97,-198.69"/>
</g>
<!-- Node22 -->
<g id="node22" class="node">
<title>Node22</title>
<g id="a_node22"><a xlink:href="payload_8cpp.html" target="_top" xlink:title=" ">
<polygon fill="none" stroke="black" points="745.48,-140 745.48,-159 880.48,-159 880.48,-140 745.48,-140"/>
<text text-anchor="middle" x="812.98" y="-147" font-family="Helvetica,sans-Serif" font-size="10.00">src/payload/payload.cpp</text>
</a>
</g>
</g>
<!-- Node20&#45;&gt;Node22 -->
<g id="edge34" class="edge">
<title>Node20&#45;&gt;Node22</title>
<path fill="none" stroke="midnightblue" d="M567.69,-204.08C571.49,-203 575.3,-201.95 578.98,-201 644.36,-184.1 721.02,-168.31 768.3,-159.02"/>
<polygon fill="midnightblue" stroke="midnightblue" points="566.39,-200.81 557.78,-206.99 568.36,-207.53 566.39,-200.81"/>
</g>
<!-- Node23 -->
<g id="node23" class="node">
<title>Node23</title>
<g id="a_node23"><a xlink:href="sqlite__storage_8cpp.html" target="_top" xlink:title=" ">
<polygon fill="none" stroke="black" points="898.48,-134.5 898.48,-164.5 999.48,-164.5 999.48,-134.5 898.48,-134.5"/>
<text text-anchor="start" x="906.48" y="-152.5" font-family="Helvetica,sans-Serif" font-size="10.00">src/storage/sqlite</text>
<text text-anchor="middle" x="948.98" y="-141.5" font-family="Helvetica,sans-Serif" font-size="10.00">_storage.cpp</text>
</a>
</g>
</g>
<!-- Node20&#45;&gt;Node23 -->
<g id="edge35" class="edge">
<title>Node20&#45;&gt;Node23</title>
<path fill="none" stroke="midnightblue" d="M566.05,-204.12C570.37,-202.95 574.76,-201.87 578.98,-201 715.23,-172.77 753.03,-189.65 889.98,-165 892.67,-164.51 895.43,-163.98 898.21,-163.41"/>
<polygon fill="midnightblue" stroke="midnightblue" points="564.81,-200.84 556.17,-206.97 566.75,-207.56 564.81,-200.84"/>
</g>
<!-- Node24 -->
<g id="node24" class="node">
<title>Node24</title>
<g id="a_node24"><a xlink:href="utils_8cpp.html" target="_top" xlink:title=" ">
<polygon fill="none" stroke="black" points="1017.48,-140 1017.48,-159 1092.48,-159 1092.48,-140 1017.48,-140"/>
<text text-anchor="middle" x="1054.98" y="-147" font-family="Helvetica,sans-Serif" font-size="10.00">src/utils.cpp</text>
</a>
</g>
</g>
<!-- Node20&#45;&gt;Node24 -->
<g id="edge36" class="edge">
<title>Node20&#45;&gt;Node24</title>
<path fill="none" stroke="midnightblue" d="M565.36,-204.17C569.9,-202.95 574.53,-201.85 578.98,-201 767.36,-165.07 820.81,-202.06 1008.98,-165 1016.37,-163.54 1024.25,-161.32 1031.36,-159.05"/>
<polygon fill="midnightblue" stroke="midnightblue" points="564.28,-200.84 555.64,-206.97 566.22,-207.56 564.28,-200.84"/>
</g>
</g>
</svg>
