<?xml version="1.0" encoding="UTF-8" standalone="no"?>
<!DOCTYPE svg PUBLIC "-//W3C//DTD SVG 1.1//EN"
 "http://www.w3.org/Graphics/SVG/1.1/DTD/svg11.dtd">
<!-- Generated by graphviz version 2.43.0 (0)
 -->
<!-- Title: src/storage/session_store.hpp Pages: 1 -->
<svg width="471pt" height="229pt"
 viewBox="0.00 0.00 471.00 229.00" xmlns="http://www.w3.org/2000/svg" xmlns:xlink="http://www.w3.org/1999/xlink">
<g id="graph0" class="graph" transform="scale(1 1) rotate(0) translate(4 225)">
<title>src/storage/session_store.hpp</title>
<!-- Node1 -->
<g id="node1" class="node">
<title>Node1</title>
<g id="a_node1"><a xlink:title=" ">
<polygon fill="#bfbfbf" stroke="black" points="240.5,-190.5 240.5,-220.5 350.5,-220.5 350.5,-190.5 240.5,-190.5"/>
<text text-anchor="start" x="248.5" y="-208.5" font-family="Helvetica,sans-Serif" font-size="10.00">src/storage/session</text>
<text text-anchor="middle" x="295.5" y="-197.5" font-family="Helvetica,sans-Serif" font-size="10.00">_store.hpp</text>
</a>
</g>
</g>
<!-- Node2 -->
<g id="node2" class="node">
<title>Node2</title>
<g id="a_node2"><a xlink:href="client__session_8hpp.html" target="_top" xlink:title=" ">
<polygon fill="none" stroke="black" points="133.5,-129 133.5,-148 257.5,-148 257.5,-129 133.5,-129"/>
<text text-anchor="middle" x="195.5" y="-136" font-family="Helvetica,sans-Serif" font-size="10.00">src/client_session.hpp</text>
</a>
</g>
</g>
<!-- Node1&#45;&gt;Node2 -->
<g id="edge1" class="edge">
<title>Node1&#45;&gt;Node2</title>
<path fill="none" stroke="midnightblue" d="M265.2,-184.81C246.29,-172.51 222.89,-157.3 208.59,-148.01"/>
<polygon fill="midnightblue" stroke="midnightblue" points="263.51,-187.88 273.8,-190.4 267.32,-182.01 263.51,-187.88"/>
</g>
<!-- Node4 -->
<g id="node4" class="node">
<title>Node4</title>
<g id="a_node4"><a xlink:href="snowplow_8hpp.html" target="_top" xlink:title=" ">
<polygon fill="none" stroke="black" points="244,-0.5 244,-19.5 347,-19.5 347,-0.5 244,-0.5"/>
<text text-anchor="middle" x="295.5" y="-7.5" font-family="Helvetica,sans-Serif" font-size="10.00">src/snowplow.hpp</text>
</a>
</g>
</g>
<!-- Node1&#45;&gt;Node4 -->
<g id="edge7" class="edge">
<title>Node1&#45;&gt;Node4</title>
<path fill="none" stroke="midnightblue" d="M295.5,-180C295.5,-136.44 295.5,-47.49 295.5,-19.58"/>
<polygon fill="midnightblue" stroke="midnightblue" points="292,-180.27 295.5,-190.27 299,-180.27 292,-180.27"/>
</g>
<!-- Node7 -->
<g id="node7" class="node">
<title>Node7</title>
<g id="a_node7"><a xlink:href="sqlite__storage_8hpp.html" target="_top" xlink:title=" ">
<polygon fill="none" stroke="black" points="324,-123.5 324,-153.5 425,-153.5 425,-123.5 324,-123.5"/>
<text text-anchor="start" x="332" y="-141.5" font-family="Helvetica,sans-Serif" font-size="10.00">src/storage/sqlite</text>
<text text-anchor="middle" x="374.5" y="-130.5" font-family="Helvetica,sans-Serif" font-size="10.00">_storage.hpp</text>
</a>
</g>
</g>
<!-- Node1&#45;&gt;Node7 -->
<g id="edge8" class="edge">
<title>Node1&#45;&gt;Node7</title>
<path fill="none" stroke="midnightblue" d="M320.56,-183.88C332.56,-174.01 346.63,-162.43 357.39,-153.58"/>
<polygon fill="midnightblue" stroke="midnightblue" points="318.14,-181.34 312.64,-190.4 322.59,-186.75 318.14,-181.34"/>
</g>
<!-- Node3 -->
<g id="node3" class="node">
<title>Node3</title>
<g id="a_node3"><a xlink:href="client__session_8cpp.html" target="_top" xlink:title=" ">
<polygon fill="none" stroke="black" points="0,-62 0,-81 123,-81 123,-62 0,-62"/>
<text text-anchor="middle" x="61.5" y="-69" font-family="Helvetica,sans-Serif" font-size="10.00">src/client_session.cpp</text>
</a>
</g>
</g>
<!-- Node2&#45;&gt;Node3 -->
<g id="edge2" class="edge">
<title>Node2&#45;&gt;Node3</title>
<path fill="none" stroke="midnightblue" d="M168.58,-124.44C142.04,-111.57 102.23,-92.26 79.37,-81.17"/>
<polygon fill="midnightblue" stroke="midnightblue" points="167.18,-127.65 177.71,-128.87 170.24,-121.35 167.18,-127.65"/>
</g>
<!-- Node2&#45;&gt;Node4 -->
<g id="edge3" class="edge">
<title>Node2&#45;&gt;Node4</title>
<path fill="none" stroke="midnightblue" d="M210.02,-120.97C218.48,-111.21 229.27,-98.55 238.5,-87 257.66,-63.04 279.07,-33.78 289.34,-19.57"/>
<polygon fill="midnightblue" stroke="midnightblue" points="207.22,-118.86 203.28,-128.7 212.49,-123.46 207.22,-118.86"/>
</g>
<!-- Node5 -->
<g id="node5" class="node">
<title>Node5</title>
<g id="a_node5"><a xlink:href="tracker_8hpp.html" target="_top" xlink:title=" ">
<polygon fill="none" stroke="black" points="141.5,-62 141.5,-81 229.5,-81 229.5,-62 141.5,-62"/>
<text text-anchor="middle" x="185.5" y="-69" font-family="Helvetica,sans-Serif" font-size="10.00">src/tracker.hpp</text>
</a>
</g>
</g>
<!-- Node2&#45;&gt;Node5 -->
<g id="edge4" class="edge">
<title>Node2&#45;&gt;Node5</title>
<path fill="none" stroke="midnightblue" d="M192.58,-118.54C190.68,-106.17 188.29,-90.62 186.83,-81.13"/>
<polygon fill="midnightblue" stroke="midnightblue" points="189.17,-119.38 194.15,-128.73 196.09,-118.32 189.17,-119.38"/>
</g>
<!-- Node5&#45;&gt;Node4 -->
<g id="edge5" class="edge">
<title>Node5&#45;&gt;Node4</title>
<path fill="none" stroke="midnightblue" d="M210.07,-57.21C231.37,-45.69 261.57,-29.36 279.77,-19.51"/>
<polygon fill="midnightblue" stroke="midnightblue" points="208.39,-54.14 201.26,-61.98 211.72,-60.3 208.39,-54.14"/>
</g>
<!-- Node6 -->
<g id="node6" class="node">
<title>Node6</title>
<g id="a_node6"><a xlink:href="tracker_8cpp.html" target="_top" xlink:title=" ">
<polygon fill="none" stroke="black" points="139,-0.5 139,-19.5 226,-19.5 226,-0.5 139,-0.5"/>
<text text-anchor="middle" x="182.5" y="-7.5" font-family="Helvetica,sans-Serif" font-size="10.00">src/tracker.cpp</text>
</a>
</g>
</g>
<!-- Node5&#45;&gt;Node6 -->
<g id="edge6" class="edge">
<title>Node5&#45;&gt;Node6</title>
<path fill="none" stroke="midnightblue" d="M184.56,-51.82C184.01,-41 183.35,-27.9 182.93,-19.51"/>
<polygon fill="midnightblue" stroke="midnightblue" points="181.07,-52.16 185.07,-61.98 188.06,-51.81 181.07,-52.16"/>
</g>
<!-- Node7&#45;&gt;Node4 -->
<g id="edge9" class="edge">
<title>Node7&#45;&gt;Node4</title>
<path fill="none" stroke="midnightblue" d="M360.22,-114.63C342.49,-86.24 313.11,-39.2 300.99,-19.79"/>
<polygon fill="midnightblue" stroke="midnightblue" points="357.48,-116.85 365.74,-123.48 363.42,-113.14 357.48,-116.85"/>
</g>
<!-- Node8 -->
<g id="node8" class="node">
<title>Node8</title>
<g id="a_node8"><a xlink:href="sqlite__storage_8cpp.html" target="_top" xlink:title=" ">
<polygon fill="none" stroke="black" points="362,-56.5 362,-86.5 463,-86.5 463,-56.5 362,-56.5"/>
<text text-anchor="start" x="370" y="-74.5" font-family="Helvetica,sans-Serif" font-size="10.00">src/storage/sqlite</text>
<text text-anchor="middle" x="412.5" y="-63.5" font-family="Helvetica,sans-Serif" font-size="10.00">_storage.cpp</text>
</a>
</g>
</g>
<!-- Node7&#45;&gt;Node8 -->
<g id="edge10" class="edge">
<title>Node7&#45;&gt;Node8</title>
<path fill="none" stroke="midnightblue" d="M387.9,-114.58C393.36,-105.24 399.49,-94.75 404.27,-86.58"/>
<polygon fill="midnightblue" stroke="midnightblue" points="384.77,-113 382.75,-123.4 390.81,-116.53 384.77,-113"/>
</g>
</g>
</svg>
