<?xml version="1.0" encoding="UTF-8" standalone="no"?>
<!DOCTYPE svg PUBLIC "-//W3C//DTD SVG 1.1//EN"
 "http://www.w3.org/Graphics/SVG/1.1/DTD/svg11.dtd">
<!-- Generated by graphviz version 2.43.0 (0)
 -->
<!-- Title: src/storage/sqlite_storage.cpp Pages: 1 -->
<svg width="1273pt" height="330pt"
 viewBox="0.00 0.00 1273.03 330.00" xmlns="http://www.w3.org/2000/svg" xmlns:xlink="http://www.w3.org/1999/xlink">
<g id="graph0" class="graph" transform="scale(1 1) rotate(0) translate(4 326)">
<title>src/storage/sqlite_storage.cpp</title>
<!-- Node1 -->
<g id="node1" class="node">
<title>Node1</title>
<g id="a_node1"><a xlink:title=" ">
<polygon fill="#bfbfbf" stroke="black" points="457.53,-291.5 457.53,-321.5 558.53,-321.5 558.53,-291.5 457.53,-291.5"/>
<text text-anchor="start" x="465.53" y="-309.5" font-family="Helvetica,sans-Serif" font-size="10.00">src/storage/sqlite</text>
<text text-anchor="middle" x="508.03" y="-298.5" font-family="Helvetica,sans-Serif" font-size="10.00">_storage.cpp</text>
</a>
</g>
</g>
<!-- Node2 -->
<g id="node2" class="node">
<title>Node2</title>
<g id="a_node2"><a xlink:href="sqlite__storage_8hpp.html" target="_top" xlink:title=" ">
<polygon fill="none" stroke="black" points="280.53,-235.5 280.53,-254.5 387.53,-254.5 387.53,-235.5 280.53,-235.5"/>
<text text-anchor="middle" x="334.03" y="-242.5" font-family="Helvetica,sans-Serif" font-size="10.00">sqlite_storage.hpp</text>
</a>
</g>
</g>
<!-- Node1&#45;&gt;Node2 -->
<g id="edge1" class="edge">
<title>Node1&#45;&gt;Node2</title>
<path fill="none" stroke="midnightblue" d="M466.79,-291.4C436.85,-281.16 396.81,-267.47 368.56,-257.81"/>
<polygon fill="midnightblue" stroke="midnightblue" points="369.69,-254.49 359.09,-254.57 367.42,-261.12 369.69,-254.49"/>
</g>
<!-- Node14 -->
<g id="node14" class="node">
<title>Node14</title>
<g id="a_node14"><a xlink:title=" ">
<polygon fill="none" stroke="#bfbfbf" points="249.03,-118 249.03,-137 309.03,-137 309.03,-118 249.03,-118"/>
<text text-anchor="middle" x="279.03" y="-125" font-family="Helvetica,sans-Serif" font-size="10.00">iostream</text>
</a>
</g>
</g>
<!-- Node1&#45;&gt;Node14 -->
<g id="edge18" class="edge">
<title>Node1&#45;&gt;Node14</title>
<path fill="none" stroke="midnightblue" d="M507.86,-291.37C506.74,-265.19 500.45,-209.07 468.03,-179 416.81,-131.49 381.62,-164.11 315.03,-143 312.75,-142.28 310.41,-141.48 308.08,-140.64"/>
<polygon fill="midnightblue" stroke="midnightblue" points="309.23,-137.33 298.64,-137.02 306.73,-143.87 309.23,-137.33"/>
</g>
<!-- Node15 -->
<g id="node15" class="node">
<title>Node15</title>
<g id="a_node15"><a xlink:href="utils_8hpp.html" target="_top" xlink:title=" ">
<polygon fill="none" stroke="black" points="536.03,-179.5 536.03,-198.5 604.03,-198.5 604.03,-179.5 536.03,-179.5"/>
<text text-anchor="middle" x="570.03" y="-186.5" font-family="Helvetica,sans-Serif" font-size="10.00">../utils.hpp</text>
</a>
</g>
</g>
<!-- Node1&#45;&gt;Node15 -->
<g id="edge19" class="edge">
<title>Node1&#45;&gt;Node15</title>
<path fill="none" stroke="midnightblue" d="M515.63,-291.34C526.95,-270.24 548.23,-230.6 560.55,-207.65"/>
<polygon fill="midnightblue" stroke="midnightblue" points="563.73,-209.14 565.37,-198.67 557.56,-205.82 563.73,-209.14"/>
</g>
<!-- Node3 -->
<g id="node3" class="node">
<title>Node3</title>
<g id="a_node3"><a xlink:href="event__store_8hpp.html" target="_top" xlink:title=" ">
<polygon fill="none" stroke="black" points="146.53,-179.5 146.53,-198.5 241.53,-198.5 241.53,-179.5 146.53,-179.5"/>
<text text-anchor="middle" x="194.03" y="-186.5" font-family="Helvetica,sans-Serif" font-size="10.00">event_store.hpp</text>
</a>
</g>
</g>
<!-- Node2&#45;&gt;Node3 -->
<g id="edge2" class="edge">
<title>Node2&#45;&gt;Node3</title>
<path fill="none" stroke="midnightblue" d="M311.84,-235.44C288.6,-226.48 251.88,-212.31 225.61,-202.18"/>
<polygon fill="midnightblue" stroke="midnightblue" points="226.7,-198.85 216.11,-198.52 224.18,-205.38 226.7,-198.85"/>
</g>
<!-- Node7 -->
<g id="node7" class="node">
<title>Node7</title>
<g id="a_node7"><a xlink:title=" ">
<polygon fill="none" stroke="#bfbfbf" points="42.03,-0.5 42.03,-19.5 156.03,-19.5 156.03,-0.5 42.03,-0.5"/>
<text text-anchor="middle" x="99.03" y="-7.5" font-family="Helvetica,sans-Serif" font-size="10.00">../../include/json.hpp</text>
</a>
</g>
</g>
<!-- Node2&#45;&gt;Node7 -->
<g id="edge16" class="edge">
<title>Node2&#45;&gt;Node7</title>
<path fill="none" stroke="midnightblue" d="M280.19,-244.54C198.4,-244.08 48.73,-237.79 15.03,-199 -31.62,-145.31 44.97,-61.52 81.42,-26.85"/>
<polygon fill="midnightblue" stroke="midnightblue" points="84,-29.23 88.93,-19.86 79.23,-24.11 84,-29.23"/>
</g>
<!-- Node9 -->
<g id="node9" class="node">
<title>Node9</title>
<g id="a_node9"><a xlink:title=" ">
<polygon fill="none" stroke="#bfbfbf" points="885.03,-0.5 885.03,-19.5 929.03,-19.5 929.03,-0.5 885.03,-0.5"/>
<text text-anchor="middle" x="907.03" y="-7.5" font-family="Helvetica,sans-Serif" font-size="10.00">string</text>
</a>
</g>
</g>
<!-- Node2&#45;&gt;Node9 -->
<g id="edge13" class="edge">
<title>Node2&#45;&gt;Node9</title>
<path fill="none" stroke="midnightblue" d="M387.79,-241.17C557.76,-231.68 1075.23,-198.43 1124.03,-143 1183.04,-75.96 1012.84,-32.38 939.18,-17.09"/>
<polygon fill="midnightblue" stroke="midnightblue" points="939.55,-13.6 929.06,-15.05 938.16,-20.46 939.55,-13.6"/>
</g>
<!-- Node10 -->
<g id="node10" class="node">
<title>Node10</title>
<g id="a_node10"><a xlink:title=" ">
<polygon fill="none" stroke="#bfbfbf" points="199.03,-118 199.03,-137 231.03,-137 231.03,-118 199.03,-118"/>
<text text-anchor="middle" x="215.03" y="-125" font-family="Helvetica,sans-Serif" font-size="10.00">list</text>
</a>
</g>
</g>
<!-- Node2&#45;&gt;Node10 -->
<g id="edge14" class="edge">
<title>Node2&#45;&gt;Node10</title>
<path fill="none" stroke="midnightblue" d="M380.38,-235.44C422.25,-225.68 473.91,-207.33 450.03,-179 388.99,-106.6 329.05,-175.26 240.03,-143 238.99,-142.62 237.94,-142.21 236.9,-141.75"/>
<polygon fill="midnightblue" stroke="midnightblue" points="238.33,-138.55 227.83,-137.09 235.13,-144.78 238.33,-138.55"/>
</g>
<!-- Node11 -->
<g id="node11" class="node">
<title>Node11</title>
<g id="a_node11"><a xlink:href="session__store_8hpp.html" target="_top" xlink:title=" ">
<polygon fill="none" stroke="black" points="24.03,-179.5 24.03,-198.5 128.03,-198.5 128.03,-179.5 24.03,-179.5"/>
<text text-anchor="middle" x="76.03" y="-186.5" font-family="Helvetica,sans-Serif" font-size="10.00">session_store.hpp</text>
</a>
</g>
</g>
<!-- Node2&#45;&gt;Node11 -->
<g id="edge10" class="edge">
<title>Node2&#45;&gt;Node11</title>
<path fill="none" stroke="midnightblue" d="M293.15,-235.44C248.04,-226 175.41,-210.8 126.72,-200.61"/>
<polygon fill="midnightblue" stroke="midnightblue" points="127.22,-197.14 116.72,-198.52 125.79,-203.99 127.22,-197.14"/>
</g>
<!-- Node12 -->
<g id="node12" class="node">
<title>Node12</title>
<g id="a_node12"><a xlink:title=" ">
<polygon fill="none" stroke="#bfbfbf" points="260.03,-179.5 260.03,-198.5 308.03,-198.5 308.03,-179.5 260.03,-179.5"/>
<text text-anchor="middle" x="284.03" y="-186.5" font-family="Helvetica,sans-Serif" font-size="10.00">mutex</text>
</a>
</g>
</g>
<!-- Node2&#45;&gt;Node12 -->
<g id="edge15" class="edge">
<title>Node2&#45;&gt;Node12</title>
<path fill="none" stroke="midnightblue" d="M325.77,-235.08C318.56,-227.3 307.92,-215.8 299.18,-206.37"/>
<polygon fill="midnightblue" stroke="midnightblue" points="301.49,-203.71 292.13,-198.75 296.35,-208.47 301.49,-203.71"/>
</g>
<!-- Node13 -->
<g id="node13" class="node">
<title>Node13</title>
<g id="a_node13"><a xlink:title=" ">
<polygon fill="none" stroke="#bfbfbf" points="326.53,-179.5 326.53,-198.5 441.53,-198.5 441.53,-179.5 326.53,-179.5"/>
<text text-anchor="middle" x="384.03" y="-186.5" font-family="Helvetica,sans-Serif" font-size="10.00">../../include/sqlite3.h</text>
</a>
</g>
</g>
<!-- Node2&#45;&gt;Node13 -->
<g id="edge17" class="edge">
<title>Node2&#45;&gt;Node13</title>
<path fill="none" stroke="midnightblue" d="M342.28,-235.08C349.49,-227.3 360.14,-215.8 368.87,-206.37"/>
<polygon fill="midnightblue" stroke="midnightblue" points="371.7,-208.47 375.92,-198.75 366.56,-203.71 371.7,-208.47"/>
</g>
<!-- Node4 -->
<g id="node4" class="node">
<title>Node4</title>
<g id="a_node4"><a xlink:href="event__row_8hpp.html" target="_top" xlink:title=" ">
<polygon fill="none" stroke="black" points="93.03,-118 93.03,-137 181.03,-137 181.03,-118 93.03,-118"/>
<text text-anchor="middle" x="137.03" y="-125" font-family="Helvetica,sans-Serif" font-size="10.00">event_row.hpp</text>
</a>
</g>
</g>
<!-- Node3&#45;&gt;Node4 -->
<g id="edge3" class="edge">
<title>Node3&#45;&gt;Node4</title>
<path fill="none" stroke="midnightblue" d="M185.86,-179.48C177.14,-170.37 163.12,-155.74 152.34,-144.48"/>
<polygon fill="midnightblue" stroke="midnightblue" points="154.62,-141.81 145.18,-137.01 149.57,-146.65 154.62,-141.81"/>
</g>
<!-- Node3&#45;&gt;Node10 -->
<g id="edge9" class="edge">
<title>Node3&#45;&gt;Node10</title>
<path fill="none" stroke="midnightblue" d="M197.03,-179.48C200.06,-170.9 204.82,-157.43 208.68,-146.48"/>
<polygon fill="midnightblue" stroke="midnightblue" points="212,-147.6 212.02,-137.01 205.39,-145.27 212,-147.6"/>
</g>
<!-- Node5 -->
<g id="node5" class="node">
<title>Node5</title>
<g id="a_node5"><a xlink:href="payload_8hpp.html" target="_top" xlink:title=" ">
<polygon fill="none" stroke="black" points="214.03,-56.5 214.03,-75.5 342.03,-75.5 342.03,-56.5 214.03,-56.5"/>
<text text-anchor="middle" x="278.03" y="-63.5" font-family="Helvetica,sans-Serif" font-size="10.00">../payload/payload.hpp</text>
</a>
</g>
</g>
<!-- Node4&#45;&gt;Node5 -->
<g id="edge4" class="edge">
<title>Node4&#45;&gt;Node5</title>
<path fill="none" stroke="midnightblue" d="M157.23,-117.98C181.1,-107.9 221.03,-91.05 248.4,-79.5"/>
<polygon fill="midnightblue" stroke="midnightblue" points="250.01,-82.62 257.86,-75.51 247.29,-76.17 250.01,-82.62"/>
</g>
<!-- Node6 -->
<g id="node6" class="node">
<title>Node6</title>
<g id="a_node6"><a xlink:title=" ">
<polygon fill="none" stroke="#bfbfbf" points="208.53,-0.5 208.53,-19.5 337.53,-19.5 337.53,-0.5 208.53,-0.5"/>
<text text-anchor="middle" x="273.03" y="-7.5" font-family="Helvetica,sans-Serif" font-size="10.00">../../include/base64.hpp</text>
</a>
</g>
</g>
<!-- Node5&#45;&gt;Node6 -->
<g id="edge5" class="edge">
<title>Node5&#45;&gt;Node6</title>
<path fill="none" stroke="midnightblue" d="M277.2,-56.08C276.55,-49.01 275.61,-38.86 274.78,-29.99"/>
<polygon fill="midnightblue" stroke="midnightblue" points="278.24,-29.39 273.84,-19.75 271.27,-30.03 278.24,-29.39"/>
</g>
<!-- Node5&#45;&gt;Node7 -->
<g id="edge6" class="edge">
<title>Node5&#45;&gt;Node7</title>
<path fill="none" stroke="midnightblue" d="M249.66,-56.44C219.29,-47.28 170.92,-32.69 137.21,-22.52"/>
<polygon fill="midnightblue" stroke="midnightblue" points="137.84,-19.05 127.26,-19.52 135.82,-25.76 137.84,-19.05"/>
</g>
<!-- Node8 -->
<g id="node8" class="node">
<title>Node8</title>
<g id="a_node8"><a xlink:title=" ">
<polygon fill="none" stroke="#bfbfbf" points="356.03,-0.5 356.03,-19.5 394.03,-19.5 394.03,-0.5 356.03,-0.5"/>
<text text-anchor="middle" x="375.03" y="-7.5" font-family="Helvetica,sans-Serif" font-size="10.00">map</text>
</a>
</g>
</g>
<!-- Node5&#45;&gt;Node8 -->
<g id="edge7" class="edge">
<title>Node5&#45;&gt;Node8</title>
<path fill="none" stroke="midnightblue" d="M293.61,-56.32C309.03,-47.74 332.84,-34.49 350.74,-24.52"/>
<polygon fill="midnightblue" stroke="midnightblue" points="352.45,-27.58 359.48,-19.65 349.04,-21.46 352.45,-27.58"/>
</g>
<!-- Node5&#45;&gt;Node9 -->
<g id="edge8" class="edge">
<title>Node5&#45;&gt;Node9</title>
<path fill="none" stroke="midnightblue" d="M342.09,-59.5C474.85,-48.1 775.85,-22.26 874.82,-13.76"/>
<polygon fill="midnightblue" stroke="midnightblue" points="875.15,-17.25 884.82,-12.91 874.55,-10.28 875.15,-17.25"/>
</g>
<!-- Node11&#45;&gt;Node7 -->
<g id="edge11" class="edge">
<title>Node11&#45;&gt;Node7</title>
<path fill="none" stroke="midnightblue" d="M76.84,-179.09C78.17,-164.88 80.95,-136.22 84.03,-112 87.68,-83.2 92.8,-49.91 96.01,-29.67"/>
<polygon fill="midnightblue" stroke="midnightblue" points="99.49,-30.06 97.62,-19.63 92.58,-28.95 99.49,-30.06"/>
</g>
<!-- Node11&#45;&gt;Node10 -->
<g id="edge12" class="edge">
<title>Node11&#45;&gt;Node10</title>
<path fill="none" stroke="midnightblue" d="M100.94,-179.38C124.35,-171.01 160.15,-157.46 190.03,-143 190.72,-142.66 191.42,-142.32 192.13,-141.96"/>
<polygon fill="midnightblue" stroke="midnightblue" points="194.11,-144.87 201.21,-137.01 190.76,-138.72 194.11,-144.87"/>
</g>
<!-- Node15&#45;&gt;Node5 -->
<g id="edge36" class="edge">
<title>Node15&#45;&gt;Node5</title>
<path fill="none" stroke="midnightblue" d="M535.72,-181.1C478.44,-169.51 368.8,-147.01 361.03,-143 332.38,-128.21 306.18,-100.91 291.18,-83.37"/>
<polygon fill="midnightblue" stroke="midnightblue" points="293.83,-81.1 284.75,-75.65 288.45,-85.57 293.83,-81.1"/>
</g>
<!-- Node15&#45;&gt;Node8 -->
<g id="edge24" class="edge">
<title>Node15&#45;&gt;Node8</title>
<path fill="none" stroke="midnightblue" d="M536.01,-181.41C487.59,-171.72 403.56,-153.62 394.03,-143 365.88,-111.66 368.14,-58.2 371.81,-29.88"/>
<polygon fill="midnightblue" stroke="midnightblue" points="375.31,-30.15 373.33,-19.74 368.39,-29.11 375.31,-30.15"/>
</g>
<!-- Node15&#45;&gt;Node9 -->
<g id="edge21" class="edge">
<title>Node15&#45;&gt;Node9</title>
<path fill="none" stroke="midnightblue" d="M604.34,-187.91C650.52,-186.35 733.81,-178.32 794.03,-143 819.25,-128.2 871.07,-60.12 894.74,-27.94"/>
<polygon fill="midnightblue" stroke="midnightblue" points="897.8,-29.68 900.88,-19.55 892.15,-25.55 897.8,-29.68"/>
</g>
<!-- Node15&#45;&gt;Node10 -->
<g id="edge20" class="edge">
<title>Node15&#45;&gt;Node10</title>
<path fill="none" stroke="midnightblue" d="M535.86,-184.1C457.14,-175.02 267.65,-152.48 240.03,-143 238.96,-142.63 237.88,-142.22 236.82,-141.77"/>
<polygon fill="midnightblue" stroke="midnightblue" points="238.04,-138.46 227.54,-137.03 234.86,-144.7 238.04,-138.46"/>
</g>
<!-- Node15&#45;&gt;Node14 -->
<g id="edge23" class="edge">
<title>Node15&#45;&gt;Node14</title>
<path fill="none" stroke="midnightblue" d="M535.94,-181.58C531.27,-180.71 526.53,-179.83 522.03,-179 433.63,-162.72 410.14,-165.12 323.03,-143 319.65,-142.14 316.16,-141.16 312.68,-140.12"/>
<polygon fill="midnightblue" stroke="midnightblue" points="313.64,-136.75 303.05,-137.09 311.54,-143.43 313.64,-136.75"/>
</g>
<!-- Node16 -->
<g id="node16" class="node">
<title>Node16</title>
<g id="a_node16"><a xlink:title=" ">
<polygon fill="none" stroke="#bfbfbf" points="991.03,-118 991.03,-137 1047.03,-137 1047.03,-118 991.03,-118"/>
<text text-anchor="middle" x="1019.03" y="-125" font-family="Helvetica,sans-Serif" font-size="10.00">sstream</text>
</a>
</g>
</g>
<!-- Node15&#45;&gt;Node16 -->
<g id="edge22" class="edge">
<title>Node15&#45;&gt;Node16</title>
<path fill="none" stroke="midnightblue" d="M604.2,-187.31C675.46,-185.21 844.73,-176.77 982.03,-143 984.85,-142.3 987.75,-141.45 990.62,-140.49"/>
<polygon fill="midnightblue" stroke="midnightblue" points="991.95,-143.74 1000.14,-137.01 989.54,-137.16 991.95,-143.74"/>
</g>
<!-- Node17 -->
<g id="node17" class="node">
<title>Node17</title>
<g id="a_node17"><a xlink:title=" ">
<polygon fill="none" stroke="#bfbfbf" points="1065.53,-118 1065.53,-137 1114.53,-137 1114.53,-118 1065.53,-118"/>
<text text-anchor="middle" x="1090.03" y="-125" font-family="Helvetica,sans-Serif" font-size="10.00">cctype</text>
</a>
</g>
</g>
<!-- Node15&#45;&gt;Node17 -->
<g id="edge25" class="edge">
<title>Node15&#45;&gt;Node17</title>
<path fill="none" stroke="midnightblue" d="M604.22,-188.44C684.45,-188.7 890.5,-184.87 1056.03,-143 1058.39,-142.4 1060.8,-141.66 1063.19,-140.84"/>
<polygon fill="midnightblue" stroke="midnightblue" points="1064.71,-144 1072.74,-137.1 1062.15,-137.48 1064.71,-144"/>
</g>
<!-- Node18 -->
<g id="node18" class="node">
<title>Node18</title>
<g id="a_node18"><a xlink:title=" ">
<polygon fill="none" stroke="#bfbfbf" points="403.03,-118 403.03,-137 459.03,-137 459.03,-118 403.03,-118"/>
<text text-anchor="middle" x="431.03" y="-125" font-family="Helvetica,sans-Serif" font-size="10.00">iomanip</text>
</a>
</g>
</g>
<!-- Node15&#45;&gt;Node18 -->
<g id="edge26" class="edge">
<title>Node15&#45;&gt;Node18</title>
<path fill="none" stroke="midnightblue" d="M550.11,-179.48C526.58,-169.4 487.22,-152.55 460.23,-141"/>
<polygon fill="midnightblue" stroke="midnightblue" points="461.47,-137.73 450.9,-137.01 458.72,-144.16 461.47,-137.73"/>
</g>
<!-- Node19 -->
<g id="node19" class="node">
<title>Node19</title>
<g id="a_node19"><a xlink:title=" ">
<polygon fill="none" stroke="#bfbfbf" points="477.03,-118 477.03,-137 527.03,-137 527.03,-118 477.03,-118"/>
<text text-anchor="middle" x="502.03" y="-125" font-family="Helvetica,sans-Serif" font-size="10.00">chrono</text>
</a>
</g>
</g>
<!-- Node15&#45;&gt;Node19 -->
<g id="edge27" class="edge">
<title>Node15&#45;&gt;Node19</title>
<path fill="none" stroke="midnightblue" d="M560.28,-179.48C549.68,-170.2 532.51,-155.17 519.55,-143.83"/>
<polygon fill="midnightblue" stroke="midnightblue" points="521.58,-140.96 511.75,-137.01 516.97,-146.23 521.58,-140.96"/>
</g>
<!-- Node20 -->
<g id="node20" class="node">
<title>Node20</title>
<g id="a_node20"><a xlink:title=" ">
<polygon fill="none" stroke="#bfbfbf" points="545.03,-118 545.03,-137 595.03,-137 595.03,-118 545.03,-118"/>
<text text-anchor="middle" x="570.03" y="-125" font-family="Helvetica,sans-Serif" font-size="10.00">cstdint</text>
</a>
</g>
</g>
<!-- Node15&#45;&gt;Node20 -->
<g id="edge28" class="edge">
<title>Node15&#45;&gt;Node20</title>
<path fill="none" stroke="midnightblue" d="M570.03,-179.48C570.03,-171.08 570.03,-157.98 570.03,-147.16"/>
<polygon fill="midnightblue" stroke="midnightblue" points="573.53,-147.01 570.03,-137.01 566.53,-147.01 573.53,-147.01"/>
</g>
<!-- Node21 -->
<g id="node21" class="node">
<title>Node21</title>
<g id="a_node21"><a xlink:title=" ">
<polygon fill="none" stroke="#bfbfbf" points="613.03,-118 613.03,-137 661.03,-137 661.03,-118 613.03,-118"/>
<text text-anchor="middle" x="637.03" y="-125" font-family="Helvetica,sans-Serif" font-size="10.00">thread</text>
</a>
</g>
</g>
<!-- Node15&#45;&gt;Node21 -->
<g id="edge29" class="edge">
<title>Node15&#45;&gt;Node21</title>
<path fill="none" stroke="midnightblue" d="M579.63,-179.48C590.07,-170.2 606.99,-155.17 619.76,-143.83"/>
<polygon fill="midnightblue" stroke="midnightblue" points="622.29,-146.27 627.44,-137.01 617.64,-141.03 622.29,-146.27"/>
</g>
<!-- Node22 -->
<g id="node22" class="node">
<title>Node22</title>
<g id="a_node22"><a xlink:href="self__describing__json_8hpp.html" target="_top" xlink:title=" ">
<polygon fill="none" stroke="black" points="841.03,-112.5 841.03,-142.5 973.03,-142.5 973.03,-112.5 841.03,-112.5"/>
<text text-anchor="start" x="849.03" y="-130.5" font-family="Helvetica,sans-Serif" font-size="10.00">payload/self_describing</text>
<text text-anchor="middle" x="907.03" y="-119.5" font-family="Helvetica,sans-Serif" font-size="10.00">_json.hpp</text>
</a>
</g>
</g>
<!-- Node15&#45;&gt;Node22 -->
<g id="edge30" class="edge">
<title>Node15&#45;&gt;Node22</title>
<path fill="none" stroke="midnightblue" d="M604.13,-182.1C653.36,-173.56 747.2,-157.22 827.03,-143 828.28,-142.78 829.54,-142.55 830.81,-142.33"/>
<polygon fill="midnightblue" stroke="midnightblue" points="831.45,-145.77 840.68,-140.56 830.22,-138.88 831.45,-145.77"/>
</g>
<!-- Node25 -->
<g id="node25" class="node">
<title>Node25</title>
<g id="a_node25"><a xlink:title=" ">
<polygon fill="none" stroke="#bfbfbf" points="679.53,-118 679.53,-137 784.53,-137 784.53,-118 679.53,-118"/>
<text text-anchor="middle" x="732.03" y="-125" font-family="Helvetica,sans-Serif" font-size="10.00">../include/json.hpp</text>
</a>
</g>
</g>
<!-- Node15&#45;&gt;Node25 -->
<g id="edge37" class="edge">
<title>Node15&#45;&gt;Node25</title>
<path fill="none" stroke="midnightblue" d="M593.24,-179.48C621.03,-169.27 667.75,-152.11 699.22,-140.55"/>
<polygon fill="midnightblue" stroke="midnightblue" points="700.68,-143.74 708.86,-137.01 698.26,-137.17 700.68,-143.74"/>
</g>
<!-- Node22&#45;&gt;Node7 -->
<g id="edge35" class="edge">
<title>Node22&#45;&gt;Node7</title>
<path fill="none" stroke="midnightblue" d="M840.78,-117.25C825.45,-115.32 809.19,-113.43 794.03,-112 663.48,-99.65 330.08,-115.45 205.03,-76 171.13,-65.31 136.99,-41.49 116.94,-25.84"/>
<polygon fill="midnightblue" stroke="midnightblue" points="119.01,-23.01 109.01,-19.5 114.64,-28.48 119.01,-23.01"/>
</g>
<!-- Node22&#45;&gt;Node9 -->
<g id="edge31" class="edge">
<title>Node22&#45;&gt;Node9</title>
<path fill="none" stroke="midnightblue" d="M907.03,-112.34C907.03,-91.62 907.03,-53.02 907.03,-29.9"/>
<polygon fill="midnightblue" stroke="midnightblue" points="910.53,-29.67 907.03,-19.67 903.53,-29.67 910.53,-29.67"/>
</g>
<!-- Node23 -->
<g id="node23" class="node">
<title>Node23</title>
<g id="a_node23"><a xlink:href="constants_8hpp.html" target="_top" xlink:title=" ">
<polygon fill="none" stroke="black" points="1171.03,-56.5 1171.03,-75.5 1265.03,-75.5 1265.03,-56.5 1171.03,-56.5"/>
<text text-anchor="middle" x="1218.03" y="-63.5" font-family="Helvetica,sans-Serif" font-size="10.00">../constants.hpp</text>
</a>
</g>
</g>
<!-- Node22&#45;&gt;Node23 -->
<g id="edge32" class="edge">
<title>Node22&#45;&gt;Node23</title>
<path fill="none" stroke="midnightblue" d="M973.28,-113.68C976.23,-113.11 979.16,-112.55 982.03,-112 1044.17,-100.07 1115.54,-86.47 1163.38,-77.38"/>
<polygon fill="midnightblue" stroke="midnightblue" points="1164.05,-80.82 1173.22,-75.51 1162.74,-73.94 1164.05,-80.82"/>
</g>
<!-- Node23&#45;&gt;Node9 -->
<g id="edge33" class="edge">
<title>Node23&#45;&gt;Node9</title>
<path fill="none" stroke="midnightblue" d="M1170.79,-56.8C1106.78,-45.68 994.17,-26.13 939.13,-16.57"/>
<polygon fill="midnightblue" stroke="midnightblue" points="939.69,-13.12 929.23,-14.86 938.49,-20.02 939.69,-13.12"/>
</g>
<!-- Node24 -->
<g id="node24" class="node">
<title>Node24</title>
<g id="a_node24"><a xlink:title=" ">
<polygon fill="none" stroke="#bfbfbf" points="1202.03,-0.5 1202.03,-19.5 1234.03,-19.5 1234.03,-0.5 1202.03,-0.5"/>
<text text-anchor="middle" x="1218.03" y="-7.5" font-family="Helvetica,sans-Serif" font-size="10.00">set</text>
</a>
</g>
</g>
<!-- Node23&#45;&gt;Node24 -->
<g id="edge34" class="edge">
<title>Node23&#45;&gt;Node24</title>
<path fill="none" stroke="midnightblue" d="M1218.03,-56.08C1218.03,-49.01 1218.03,-38.86 1218.03,-29.99"/>
<polygon fill="midnightblue" stroke="midnightblue" points="1221.53,-29.75 1218.03,-19.75 1214.53,-29.75 1221.53,-29.75"/>
</g>
</g>
</svg>
