<?xml version="1.0" encoding="UTF-8" standalone="no"?>
<!DOCTYPE svg PUBLIC "-//W3C//DTD SVG 1.1//EN"
 "http://www.w3.org/Graphics/SVG/1.1/DTD/svg11.dtd">
<!-- Generated by graphviz version 2.43.0 (0)
 -->
<!-- Title: src/storage/sqlite_storage.hpp Pages: 1 -->
<svg width="572pt" height="263pt"
 viewBox="0.00 0.00 571.50 263.00" xmlns="http://www.w3.org/2000/svg" xmlns:xlink="http://www.w3.org/1999/xlink">
<g id="graph0" class="graph" transform="scale(1 1) rotate(0) translate(4 259)">
<title>src/storage/sqlite_storage.hpp</title>
<!-- Node1 -->
<g id="node1" class="node">
<title>Node1</title>
<g id="a_node1"><a xlink:title=" ">
<polygon fill="#bfbfbf" stroke="black" points="223.5,-224.5 223.5,-254.5 324.5,-254.5 324.5,-224.5 223.5,-224.5"/>
<text text-anchor="start" x="231.5" y="-242.5" font-family="Helvetica,sans-Serif" font-size="10.00">src/storage/sqlite</text>
<text text-anchor="middle" x="274" y="-231.5" font-family="Helvetica,sans-Serif" font-size="10.00">_storage.hpp</text>
</a>
</g>
</g>
<!-- Node2 -->
<g id="node2" class="node">
<title>Node2</title>
<g id="a_node2"><a xlink:href="event__store_8hpp.html" target="_top" xlink:title=" ">
<polygon fill="none" stroke="black" points="70.5,-168.5 70.5,-187.5 165.5,-187.5 165.5,-168.5 70.5,-168.5"/>
<text text-anchor="middle" x="118" y="-175.5" font-family="Helvetica,sans-Serif" font-size="10.00">event_store.hpp</text>
</a>
</g>
</g>
<!-- Node1&#45;&gt;Node2 -->
<g id="edge1" class="edge">
<title>Node1&#45;&gt;Node2</title>
<path fill="none" stroke="midnightblue" d="M237.03,-224.4C210.62,-214.33 175.44,-200.91 150.19,-191.28"/>
<polygon fill="midnightblue" stroke="midnightblue" points="151.29,-187.95 140.7,-187.66 148.8,-194.49 151.29,-187.95"/>
</g>
<!-- Node6 -->
<g id="node6" class="node">
<title>Node6</title>
<g id="a_node6"><a xlink:title=" ">
<polygon fill="none" stroke="#bfbfbf" points="266,-0.5 266,-19.5 380,-19.5 380,-0.5 266,-0.5"/>
<text text-anchor="middle" x="323" y="-7.5" font-family="Helvetica,sans-Serif" font-size="10.00">../../include/json.hpp</text>
</a>
</g>
</g>
<!-- Node1&#45;&gt;Node6 -->
<g id="edge15" class="edge">
<title>Node1&#45;&gt;Node6</title>
<path fill="none" stroke="midnightblue" d="M300.14,-224.37C313.21,-215.76 327.74,-203.43 335,-188 359.97,-134.91 341.14,-62.84 329.86,-29.42"/>
<polygon fill="midnightblue" stroke="midnightblue" points="333.04,-27.91 326.4,-19.65 326.44,-30.25 333.04,-27.91"/>
</g>
<!-- Node8 -->
<g id="node8" class="node">
<title>Node8</title>
<g id="a_node8"><a xlink:title=" ">
<polygon fill="none" stroke="#bfbfbf" points="0,-0.5 0,-19.5 44,-19.5 44,-0.5 0,-0.5"/>
<text text-anchor="middle" x="22" y="-7.5" font-family="Helvetica,sans-Serif" font-size="10.00">string</text>
</a>
</g>
</g>
<!-- Node1&#45;&gt;Node8 -->
<g id="edge12" class="edge">
<title>Node1&#45;&gt;Node8</title>
<path fill="none" stroke="midnightblue" d="M223.24,-232.7C167.62,-225.3 83.33,-210.68 61,-188 18.38,-144.69 17.87,-66.01 20.19,-29.96"/>
<polygon fill="midnightblue" stroke="midnightblue" points="23.69,-30.1 20.99,-19.85 16.71,-29.55 23.69,-30.1"/>
</g>
<!-- Node9 -->
<g id="node9" class="node">
<title>Node9</title>
<g id="a_node9"><a xlink:title=" ">
<polygon fill="none" stroke="#bfbfbf" points="180,-112.5 180,-131.5 212,-131.5 212,-112.5 180,-112.5"/>
<text text-anchor="middle" x="196" y="-119.5" font-family="Helvetica,sans-Serif" font-size="10.00">list</text>
</a>
</g>
</g>
<!-- Node1&#45;&gt;Node9 -->
<g id="edge13" class="edge">
<title>Node1&#45;&gt;Node9</title>
<path fill="none" stroke="midnightblue" d="M250.6,-224.38C237.71,-215.46 222.46,-202.84 213,-188 204.08,-174.02 199.83,-155.51 197.81,-141.83"/>
<polygon fill="midnightblue" stroke="midnightblue" points="201.25,-141.17 196.58,-131.67 194.3,-142.01 201.25,-141.17"/>
</g>
<!-- Node10 -->
<g id="node10" class="node">
<title>Node10</title>
<g id="a_node10"><a xlink:href="session__store_8hpp.html" target="_top" xlink:title=" ">
<polygon fill="none" stroke="black" points="222,-168.5 222,-187.5 326,-187.5 326,-168.5 222,-168.5"/>
<text text-anchor="middle" x="274" y="-175.5" font-family="Helvetica,sans-Serif" font-size="10.00">session_store.hpp</text>
</a>
</g>
</g>
<!-- Node1&#45;&gt;Node10 -->
<g id="edge9" class="edge">
<title>Node1&#45;&gt;Node10</title>
<path fill="none" stroke="midnightblue" d="M274,-224.4C274,-216.47 274,-206.46 274,-197.86"/>
<polygon fill="midnightblue" stroke="midnightblue" points="277.5,-197.66 274,-187.66 270.5,-197.66 277.5,-197.66"/>
</g>
<!-- Node11 -->
<g id="node11" class="node">
<title>Node11</title>
<g id="a_node11"><a xlink:title=" ">
<polygon fill="none" stroke="#bfbfbf" points="382,-168.5 382,-187.5 430,-187.5 430,-168.5 382,-168.5"/>
<text text-anchor="middle" x="406" y="-175.5" font-family="Helvetica,sans-Serif" font-size="10.00">mutex</text>
</a>
</g>
</g>
<!-- Node1&#45;&gt;Node11 -->
<g id="edge14" class="edge">
<title>Node1&#45;&gt;Node11</title>
<path fill="none" stroke="midnightblue" d="M305.28,-224.4C327.23,-214.51 356.34,-201.38 377.62,-191.79"/>
<polygon fill="midnightblue" stroke="midnightblue" points="379.11,-194.96 386.79,-187.66 376.24,-188.58 379.11,-194.96"/>
</g>
<!-- Node12 -->
<g id="node12" class="node">
<title>Node12</title>
<g id="a_node12"><a xlink:title=" ">
<polygon fill="none" stroke="#bfbfbf" points="448.5,-168.5 448.5,-187.5 563.5,-187.5 563.5,-168.5 448.5,-168.5"/>
<text text-anchor="middle" x="506" y="-175.5" font-family="Helvetica,sans-Serif" font-size="10.00">../../include/sqlite3.h</text>
</a>
</g>
</g>
<!-- Node1&#45;&gt;Node12 -->
<g id="edge16" class="edge">
<title>Node1&#45;&gt;Node12</title>
<path fill="none" stroke="midnightblue" d="M324.63,-225.52C365.96,-214.92 423.73,-200.1 462.89,-190.06"/>
<polygon fill="midnightblue" stroke="midnightblue" points="463.85,-193.42 472.67,-187.55 462.11,-186.64 463.85,-193.42"/>
</g>
<!-- Node3 -->
<g id="node3" class="node">
<title>Node3</title>
<g id="a_node3"><a xlink:href="event__row_8hpp.html" target="_top" xlink:title=" ">
<polygon fill="none" stroke="black" points="74,-112.5 74,-131.5 162,-131.5 162,-112.5 74,-112.5"/>
<text text-anchor="middle" x="118" y="-119.5" font-family="Helvetica,sans-Serif" font-size="10.00">event_row.hpp</text>
</a>
</g>
</g>
<!-- Node2&#45;&gt;Node3 -->
<g id="edge2" class="edge">
<title>Node2&#45;&gt;Node3</title>
<path fill="none" stroke="midnightblue" d="M118,-168.08C118,-161.01 118,-150.86 118,-141.99"/>
<polygon fill="midnightblue" stroke="midnightblue" points="121.5,-141.75 118,-131.75 114.5,-141.75 121.5,-141.75"/>
</g>
<!-- Node2&#45;&gt;Node9 -->
<g id="edge8" class="edge">
<title>Node2&#45;&gt;Node9</title>
<path fill="none" stroke="midnightblue" d="M130.53,-168.32C142.59,-159.98 161.03,-147.21 175.27,-137.35"/>
<polygon fill="midnightblue" stroke="midnightblue" points="177.27,-140.22 183.5,-131.65 173.28,-134.47 177.27,-140.22"/>
</g>
<!-- Node4 -->
<g id="node4" class="node">
<title>Node4</title>
<g id="a_node4"><a xlink:href="payload_8hpp.html" target="_top" xlink:title=" ">
<polygon fill="none" stroke="black" points="63,-56.5 63,-75.5 191,-75.5 191,-56.5 63,-56.5"/>
<text text-anchor="middle" x="127" y="-63.5" font-family="Helvetica,sans-Serif" font-size="10.00">../payload/payload.hpp</text>
</a>
</g>
</g>
<!-- Node3&#45;&gt;Node4 -->
<g id="edge3" class="edge">
<title>Node3&#45;&gt;Node4</title>
<path fill="none" stroke="midnightblue" d="M119.49,-112.08C120.68,-104.93 122.39,-94.64 123.88,-85.69"/>
<polygon fill="midnightblue" stroke="midnightblue" points="127.35,-86.19 125.54,-75.75 120.45,-85.04 127.35,-86.19"/>
</g>
<!-- Node5 -->
<g id="node5" class="node">
<title>Node5</title>
<g id="a_node5"><a xlink:title=" ">
<polygon fill="none" stroke="#bfbfbf" points="62.5,-0.5 62.5,-19.5 191.5,-19.5 191.5,-0.5 62.5,-0.5"/>
<text text-anchor="middle" x="127" y="-7.5" font-family="Helvetica,sans-Serif" font-size="10.00">../../include/base64.hpp</text>
</a>
</g>
</g>
<!-- Node4&#45;&gt;Node5 -->
<g id="edge4" class="edge">
<title>Node4&#45;&gt;Node5</title>
<path fill="none" stroke="midnightblue" d="M127,-56.08C127,-49.01 127,-38.86 127,-29.99"/>
<polygon fill="midnightblue" stroke="midnightblue" points="130.5,-29.75 127,-19.75 123.5,-29.75 130.5,-29.75"/>
</g>
<!-- Node4&#45;&gt;Node6 -->
<g id="edge5" class="edge">
<title>Node4&#45;&gt;Node6</title>
<path fill="none" stroke="midnightblue" d="M158.06,-56.44C191.6,-47.2 245.2,-32.44 282.14,-22.26"/>
<polygon fill="midnightblue" stroke="midnightblue" points="283.38,-25.55 292.09,-19.52 281.52,-18.8 283.38,-25.55"/>
</g>
<!-- Node7 -->
<g id="node7" class="node">
<title>Node7</title>
<g id="a_node7"><a xlink:title=" ">
<polygon fill="none" stroke="#bfbfbf" points="210,-0.5 210,-19.5 248,-19.5 248,-0.5 210,-0.5"/>
<text text-anchor="middle" x="229" y="-7.5" font-family="Helvetica,sans-Serif" font-size="10.00">map</text>
</a>
</g>
</g>
<!-- Node4&#45;&gt;Node7 -->
<g id="edge6" class="edge">
<title>Node4&#45;&gt;Node7</title>
<path fill="none" stroke="midnightblue" d="M143.39,-56.32C159.67,-47.7 184.87,-34.36 203.72,-24.39"/>
<polygon fill="midnightblue" stroke="midnightblue" points="205.45,-27.43 212.65,-19.65 202.18,-21.24 205.45,-27.43"/>
</g>
<!-- Node4&#45;&gt;Node8 -->
<g id="edge7" class="edge">
<title>Node4&#45;&gt;Node8</title>
<path fill="none" stroke="midnightblue" d="M110.13,-56.32C93.29,-47.66 67.19,-34.24 47.76,-24.25"/>
<polygon fill="midnightblue" stroke="midnightblue" points="49.32,-21.12 38.83,-19.65 46.12,-27.34 49.32,-21.12"/>
</g>
<!-- Node10&#45;&gt;Node6 -->
<g id="edge10" class="edge">
<title>Node10&#45;&gt;Node6</title>
<path fill="none" stroke="midnightblue" d="M276.63,-168.08C284.35,-141.95 307,-65.21 317.52,-29.58"/>
<polygon fill="midnightblue" stroke="midnightblue" points="321,-30.15 320.47,-19.57 314.28,-28.17 321,-30.15"/>
</g>
<!-- Node10&#45;&gt;Node9 -->
<g id="edge11" class="edge">
<title>Node10&#45;&gt;Node9</title>
<path fill="none" stroke="midnightblue" d="M261.47,-168.32C249.41,-159.98 230.97,-147.21 216.73,-137.35"/>
<polygon fill="midnightblue" stroke="midnightblue" points="218.72,-134.47 208.5,-131.65 214.73,-140.22 218.72,-134.47"/>
</g>
</g>
</svg>
