<?xml version="1.0" encoding="UTF-8" standalone="no"?>
<!DOCTYPE svg PUBLIC "-//W3C//DTD SVG 1.1//EN"
 "http://www.w3.org/Graphics/SVG/1.1/DTD/svg11.dtd">
<!-- Generated by graphviz version 2.43.0 (0)
 -->
<!-- Title: src/events/structured_event.hpp Pages: 1 -->
<svg width="248pt" height="106pt"
 viewBox="0.00 0.00 248.00 106.00" xmlns="http://www.w3.org/2000/svg" xmlns:xlink="http://www.w3.org/1999/xlink">
<g id="graph0" class="graph" transform="scale(1 1) rotate(0) translate(4 102)">
<title>src/events/structured_event.hpp</title>
<!-- Node1 -->
<g id="node1" class="node">
<title>Node1</title>
<g id="a_node1"><a xlink:title=" ">
<polygon fill="#bfbfbf" stroke="black" points="64,-67.5 64,-97.5 183,-97.5 183,-67.5 64,-67.5"/>
<text text-anchor="start" x="72" y="-85.5" font-family="Helvetica,sans-Serif" font-size="10.00">src/events/structured</text>
<text text-anchor="middle" x="123.5" y="-74.5" font-family="Helvetica,sans-Serif" font-size="10.00">_event.hpp</text>
</a>
</g>
</g>
<!-- Node2 -->
<g id="node2" class="node">
<title>Node2</title>
<g id="a_node2"><a xlink:href="structured__event_8cpp.html" target="_top" xlink:title=" ">
<polygon fill="none" stroke="black" points="0,-0.5 0,-30.5 119,-30.5 119,-0.5 0,-0.5"/>
<text text-anchor="start" x="8" y="-18.5" font-family="Helvetica,sans-Serif" font-size="10.00">src/events/structured</text>
<text text-anchor="middle" x="59.5" y="-7.5" font-family="Helvetica,sans-Serif" font-size="10.00">_event.cpp</text>
</a>
</g>
</g>
<!-- Node1&#45;&gt;Node2 -->
<g id="edge1" class="edge">
<title>Node1&#45;&gt;Node2</title>
<path fill="none" stroke="midnightblue" d="M102.35,-60.02C92.82,-50.34 81.83,-39.17 73.36,-30.58"/>
<polygon fill="midnightblue" stroke="midnightblue" points="100.1,-62.73 109.61,-67.4 105.09,-57.81 100.1,-62.73"/>
</g>
<!-- Node3 -->
<g id="node3" class="node">
<title>Node3</title>
<g id="a_node3"><a xlink:href="snowplow_8hpp.html" target="_top" xlink:title=" ">
<polygon fill="none" stroke="black" points="137,-6 137,-25 240,-25 240,-6 137,-6"/>
<text text-anchor="middle" x="188.5" y="-13" font-family="Helvetica,sans-Serif" font-size="10.00">src/snowplow.hpp</text>
</a>
</g>
</g>
<!-- Node1&#45;&gt;Node3 -->
<g id="edge2" class="edge">
<title>Node1&#45;&gt;Node3</title>
<path fill="none" stroke="midnightblue" d="M145,-60C156.87,-48.13 170.95,-34.05 179.81,-25.19"/>
<polygon fill="midnightblue" stroke="midnightblue" points="142.2,-57.85 137.6,-67.4 147.15,-62.8 142.2,-57.85"/>
</g>
</g>
</svg>
