<?xml version="1.0" encoding="UTF-8" standalone="no"?>
<!DOCTYPE svg PUBLIC "-//W3C//DTD SVG 1.1//EN"
 "http://www.w3.org/Graphics/SVG/1.1/DTD/svg11.dtd">
<!-- Generated by graphviz version 2.43.0 (0)
 -->
<!-- Title: src/subject.cpp Pages: 1 -->
<svg width="438pt" height="196pt"
 viewBox="0.00 0.00 438.00 196.00" xmlns="http://www.w3.org/2000/svg" xmlns:xlink="http://www.w3.org/1999/xlink">
<g id="graph0" class="graph" transform="scale(1 1) rotate(0) translate(4 192)">
<title>src/subject.cpp</title>
<!-- Node1 -->
<g id="node1" class="node">
<title>Node1</title>
<g id="a_node1"><a xlink:title=" ">
<polygon fill="#bfbfbf" stroke="black" points="114.5,-168.5 114.5,-187.5 203.5,-187.5 203.5,-168.5 114.5,-168.5"/>
<text text-anchor="middle" x="159" y="-175.5" font-family="Helvetica,sans-Serif" font-size="10.00">src/subject.cpp</text>
</a>
</g>
</g>
<!-- Node2 -->
<g id="node2" class="node">
<title>Node2</title>
<g id="a_node2"><a xlink:href="subject_8hpp.html" target="_top" xlink:title=" ">
<polygon fill="none" stroke="black" points="122.5,-112.5 122.5,-131.5 195.5,-131.5 195.5,-112.5 122.5,-112.5"/>
<text text-anchor="middle" x="159" y="-119.5" font-family="Helvetica,sans-Serif" font-size="10.00">subject.hpp</text>
</a>
</g>
</g>
<!-- Node1&#45;&gt;Node2 -->
<g id="edge1" class="edge">
<title>Node1&#45;&gt;Node2</title>
<path fill="none" stroke="midnightblue" d="M159,-168.08C159,-161.01 159,-150.86 159,-141.99"/>
<polygon fill="midnightblue" stroke="midnightblue" points="162.5,-141.75 159,-131.75 155.5,-141.75 162.5,-141.75"/>
</g>
<!-- Node3 -->
<g id="node3" class="node">
<title>Node3</title>
<g id="a_node3"><a xlink:href="constants_8hpp.html" target="_top" xlink:title=" ">
<polygon fill="none" stroke="black" points="1.5,-56.5 1.5,-75.5 86.5,-75.5 86.5,-56.5 1.5,-56.5"/>
<text text-anchor="middle" x="44" y="-63.5" font-family="Helvetica,sans-Serif" font-size="10.00">constants.hpp</text>
</a>
</g>
</g>
<!-- Node2&#45;&gt;Node3 -->
<g id="edge2" class="edge">
<title>Node2&#45;&gt;Node3</title>
<path fill="none" stroke="midnightblue" d="M140.78,-112.44C122.1,-103.68 92.84,-89.94 71.38,-79.86"/>
<polygon fill="midnightblue" stroke="midnightblue" points="72.68,-76.6 62.14,-75.52 69.7,-82.93 72.68,-76.6"/>
</g>
<!-- Node4 -->
<g id="node4" class="node">
<title>Node4</title>
<g id="a_node4"><a xlink:title=" ">
<polygon fill="none" stroke="#bfbfbf" points="50,-0.5 50,-19.5 94,-19.5 94,-0.5 50,-0.5"/>
<text text-anchor="middle" x="72" y="-7.5" font-family="Helvetica,sans-Serif" font-size="10.00">string</text>
</a>
</g>
</g>
<!-- Node2&#45;&gt;Node4 -->
<g id="edge11" class="edge">
<title>Node2&#45;&gt;Node4</title>
<path fill="none" stroke="midnightblue" d="M152.17,-112.37C137.75,-94.14 103.97,-51.43 85.19,-27.68"/>
<polygon fill="midnightblue" stroke="midnightblue" points="87.74,-25.26 78.8,-19.59 82.25,-29.61 87.74,-25.26"/>
</g>
<!-- Node6 -->
<g id="node6" class="node">
<title>Node6</title>
<g id="a_node6"><a xlink:href="payload_8hpp.html" target="_top" xlink:title=" ">
<polygon fill="none" stroke="black" points="143.5,-56.5 143.5,-75.5 262.5,-75.5 262.5,-56.5 143.5,-56.5"/>
<text text-anchor="middle" x="203" y="-63.5" font-family="Helvetica,sans-Serif" font-size="10.00">payload/payload.hpp</text>
</a>
</g>
</g>
<!-- Node2&#45;&gt;Node6 -->
<g id="edge5" class="edge">
<title>Node2&#45;&gt;Node6</title>
<path fill="none" stroke="midnightblue" d="M166.27,-112.08C172.54,-104.38 181.79,-93.03 189.43,-83.65"/>
<polygon fill="midnightblue" stroke="midnightblue" points="192.27,-85.71 195.87,-75.75 186.84,-81.29 192.27,-85.71"/>
</g>
<!-- Node9 -->
<g id="node9" class="node">
<title>Node9</title>
<g id="a_node9"><a xlink:title=" ">
<polygon fill="none" stroke="#bfbfbf" points="392,-0.5 392,-19.5 430,-19.5 430,-0.5 392,-0.5"/>
<text text-anchor="middle" x="411" y="-7.5" font-family="Helvetica,sans-Serif" font-size="10.00">map</text>
</a>
</g>
</g>
<!-- Node2&#45;&gt;Node9 -->
<g id="edge10" class="edge">
<title>Node2&#45;&gt;Node9</title>
<path fill="none" stroke="midnightblue" d="M181.67,-112.42C204.6,-103.64 240.99,-89.41 272,-76 311.59,-58.88 356.7,-37.41 384.52,-23.95"/>
<polygon fill="midnightblue" stroke="midnightblue" points="386.13,-27.06 393.59,-19.54 383.07,-20.76 386.13,-27.06"/>
</g>
<!-- Node3&#45;&gt;Node4 -->
<g id="edge3" class="edge">
<title>Node3&#45;&gt;Node4</title>
<path fill="none" stroke="midnightblue" d="M48.62,-56.08C52.46,-48.69 58.02,-37.95 62.76,-28.81"/>
<polygon fill="midnightblue" stroke="midnightblue" points="65.97,-30.24 67.46,-19.75 59.75,-27.02 65.97,-30.24"/>
</g>
<!-- Node5 -->
<g id="node5" class="node">
<title>Node5</title>
<g id="a_node5"><a xlink:title=" ">
<polygon fill="none" stroke="#bfbfbf" points="0,-0.5 0,-19.5 32,-19.5 32,-0.5 0,-0.5"/>
<text text-anchor="middle" x="16" y="-7.5" font-family="Helvetica,sans-Serif" font-size="10.00">set</text>
</a>
</g>
</g>
<!-- Node3&#45;&gt;Node5 -->
<g id="edge4" class="edge">
<title>Node3&#45;&gt;Node5</title>
<path fill="none" stroke="midnightblue" d="M39.38,-56.08C35.54,-48.69 29.98,-37.95 25.24,-28.81"/>
<polygon fill="midnightblue" stroke="midnightblue" points="28.25,-27.02 20.54,-19.75 22.03,-30.24 28.25,-27.02"/>
</g>
<!-- Node6&#45;&gt;Node4 -->
<g id="edge9" class="edge">
<title>Node6&#45;&gt;Node4</title>
<path fill="none" stroke="midnightblue" d="M182.24,-56.44C160.68,-47.56 126.74,-33.56 102.21,-23.45"/>
<polygon fill="midnightblue" stroke="midnightblue" points="103.24,-20.09 92.66,-19.52 100.57,-26.56 103.24,-20.09"/>
</g>
<!-- Node7 -->
<g id="node7" class="node">
<title>Node7</title>
<g id="a_node7"><a xlink:title=" ">
<polygon fill="none" stroke="#bfbfbf" points="244.5,-0.5 244.5,-19.5 373.5,-19.5 373.5,-0.5 244.5,-0.5"/>
<text text-anchor="middle" x="309" y="-7.5" font-family="Helvetica,sans-Serif" font-size="10.00">../../include/base64.hpp</text>
</a>
</g>
</g>
<!-- Node6&#45;&gt;Node7 -->
<g id="edge6" class="edge">
<title>Node6&#45;&gt;Node7</title>
<path fill="none" stroke="midnightblue" d="M220.03,-56.32C237.03,-47.66 263.38,-34.24 282.99,-24.25"/>
<polygon fill="midnightblue" stroke="midnightblue" points="284.69,-27.31 292.01,-19.65 281.51,-21.08 284.69,-27.31"/>
</g>
<!-- Node8 -->
<g id="node8" class="node">
<title>Node8</title>
<g id="a_node8"><a xlink:title=" ">
<polygon fill="none" stroke="#bfbfbf" points="112,-0.5 112,-19.5 226,-19.5 226,-0.5 112,-0.5"/>
<text text-anchor="middle" x="169" y="-7.5" font-family="Helvetica,sans-Serif" font-size="10.00">../../include/json.hpp</text>
</a>
</g>
</g>
<!-- Node6&#45;&gt;Node8 -->
<g id="edge7" class="edge">
<title>Node6&#45;&gt;Node8</title>
<path fill="none" stroke="midnightblue" d="M197.39,-56.08C192.63,-48.53 185.68,-37.49 179.85,-28.23"/>
<polygon fill="midnightblue" stroke="midnightblue" points="182.8,-26.35 174.51,-19.75 176.88,-30.08 182.8,-26.35"/>
</g>
<!-- Node6&#45;&gt;Node9 -->
<g id="edge8" class="edge">
<title>Node6&#45;&gt;Node9</title>
<path fill="none" stroke="midnightblue" d="M240.08,-56.49C274.53,-48.41 327.48,-35.57 381.95,-20.17"/>
<polygon fill="midnightblue" stroke="midnightblue" points="383.11,-23.47 391.77,-17.36 381.19,-16.74 383.11,-23.47"/>
</g>
</g>
</svg>
