<?xml version="1.0" encoding="UTF-8" standalone="no"?>
<!DOCTYPE svg PUBLIC "-//W3C//DTD SVG 1.1//EN"
 "http://www.w3.org/Graphics/SVG/1.1/DTD/svg11.dtd">
<!-- Generated by graphviz version 2.43.0 (0)
 -->
<!-- Title: src/subject.hpp Pages: 1 -->
<svg width="931pt" height="218pt"
 viewBox="0.00 0.00 930.50 218.00" xmlns="http://www.w3.org/2000/svg" xmlns:xlink="http://www.w3.org/1999/xlink">
<g id="graph0" class="graph" transform="scale(1 1) rotate(0) translate(4 214)">
<title>src/subject.hpp</title>
<!-- Node1 -->
<g id="node1" class="node">
<title>Node1</title>
<g id="a_node1"><a xlink:title=" ">
<polygon fill="#bfbfbf" stroke="black" points="482.5,-190.5 482.5,-209.5 572.5,-209.5 572.5,-190.5 482.5,-190.5"/>
<text text-anchor="middle" x="527.5" y="-197.5" font-family="Helvetica,sans-Serif" font-size="10.00">src/subject.hpp</text>
</a>
</g>
</g>
<!-- Node2 -->
<g id="node2" class="node">
<title>Node2</title>
<g id="a_node2"><a xlink:href="event_8hpp.html" target="_top" xlink:title=" ">
<polygon fill="none" stroke="black" points="424,-134.5 424,-153.5 543,-153.5 543,-134.5 424,-134.5"/>
<text text-anchor="middle" x="483.5" y="-141.5" font-family="Helvetica,sans-Serif" font-size="10.00">src/events/event.hpp</text>
</a>
</g>
</g>
<!-- Node1&#45;&gt;Node2 -->
<g id="edge1" class="edge">
<title>Node1&#45;&gt;Node2</title>
<path fill="none" stroke="midnightblue" d="M513.77,-182.14C506.1,-172.74 496.87,-161.4 490.63,-153.75"/>
<polygon fill="midnightblue" stroke="midnightblue" points="511.2,-184.54 520.23,-190.08 516.63,-180.12 511.2,-184.54"/>
</g>
<!-- Node6 -->
<g id="node6" class="node">
<title>Node6</title>
<g id="a_node6"><a xlink:href="snowplow_8hpp.html" target="_top" xlink:title=" ">
<polygon fill="none" stroke="black" points="391,-6 391,-25 494,-25 494,-6 391,-6"/>
<text text-anchor="middle" x="442.5" y="-13" font-family="Helvetica,sans-Serif" font-size="10.00">src/snowplow.hpp</text>
</a>
</g>
</g>
<!-- Node1&#45;&gt;Node6 -->
<g id="edge19" class="edge">
<title>Node1&#45;&gt;Node6</title>
<path fill="none" stroke="midnightblue" d="M472.47,-190.56C385.91,-176.03 224.31,-143.42 190.5,-98 182.27,-86.95 181.77,-77.66 190.5,-67 203.14,-51.58 320.99,-33.07 390.96,-23.31"/>
<polygon fill="midnightblue" stroke="midnightblue" points="471.95,-194.02 482.39,-192.2 473.09,-187.11 471.95,-194.02"/>
</g>
<!-- Node13 -->
<g id="node13" class="node">
<title>Node13</title>
<g id="a_node13"><a xlink:href="tracker_8hpp.html" target="_top" xlink:title=" ">
<polygon fill="none" stroke="black" points="834.5,-73 834.5,-92 922.5,-92 922.5,-73 834.5,-73"/>
<text text-anchor="middle" x="878.5" y="-80" font-family="Helvetica,sans-Serif" font-size="10.00">src/tracker.hpp</text>
</a>
</g>
</g>
<!-- Node1&#45;&gt;Node13 -->
<g id="edge21" class="edge">
<title>Node1&#45;&gt;Node13</title>
<path fill="none" stroke="midnightblue" d="M539.29,-181.57C550.56,-166.38 568.99,-145.11 590.5,-134 683.99,-85.71 721.53,-119.68 824.5,-98 832.48,-96.32 841.04,-94.18 848.93,-92.07"/>
<polygon fill="midnightblue" stroke="midnightblue" points="536.17,-179.91 533.23,-190.09 541.88,-183.96 536.17,-179.91"/>
</g>
<!-- Node15 -->
<g id="node15" class="node">
<title>Node15</title>
<g id="a_node15"><a xlink:href="subject_8cpp.html" target="_top" xlink:title=" ">
<polygon fill="none" stroke="black" points="600,-134.5 600,-153.5 689,-153.5 689,-134.5 600,-134.5"/>
<text text-anchor="middle" x="644.5" y="-141.5" font-family="Helvetica,sans-Serif" font-size="10.00">src/subject.cpp</text>
</a>
</g>
</g>
<!-- Node1&#45;&gt;Node15 -->
<g id="edge20" class="edge">
<title>Node1&#45;&gt;Node15</title>
<path fill="none" stroke="midnightblue" d="M555.16,-186.23C577.05,-176.13 607,-162.31 626.05,-153.52"/>
<polygon fill="midnightblue" stroke="midnightblue" points="553.65,-183.08 546.04,-190.44 556.59,-189.43 553.65,-183.08"/>
</g>
<!-- Node3 -->
<g id="node3" class="node">
<title>Node3</title>
<g id="a_node3"><a xlink:href="event_8cpp.html" target="_top" xlink:title=" ">
<polygon fill="none" stroke="black" points="337.5,-73 337.5,-92 455.5,-92 455.5,-73 337.5,-73"/>
<text text-anchor="middle" x="396.5" y="-80" font-family="Helvetica,sans-Serif" font-size="10.00">src/events/event.cpp</text>
</a>
</g>
</g>
<!-- Node2&#45;&gt;Node3 -->
<g id="edge2" class="edge">
<title>Node2&#45;&gt;Node3</title>
<path fill="none" stroke="midnightblue" d="M462.46,-128.61C445.73,-117.17 422.89,-101.55 408.94,-92.01"/>
<polygon fill="midnightblue" stroke="midnightblue" points="460.8,-131.72 471.04,-134.48 464.76,-125.94 460.8,-131.72"/>
</g>
<!-- Node4 -->
<g id="node4" class="node">
<title>Node4</title>
<g id="a_node4"><a xlink:href="screen__view__event_8hpp.html" target="_top" xlink:title=" ">
<polygon fill="none" stroke="black" points="685,-67.5 685,-97.5 816,-97.5 816,-67.5 685,-67.5"/>
<text text-anchor="start" x="693" y="-85.5" font-family="Helvetica,sans-Serif" font-size="10.00">src/events/screen_view</text>
<text text-anchor="middle" x="750.5" y="-74.5" font-family="Helvetica,sans-Serif" font-size="10.00">_event.hpp</text>
</a>
</g>
</g>
<!-- Node2&#45;&gt;Node4 -->
<g id="edge3" class="edge">
<title>Node2&#45;&gt;Node4</title>
<path fill="none" stroke="midnightblue" d="M531.55,-132.29C575.19,-122.57 639.83,-108.16 687.57,-97.52"/>
<polygon fill="midnightblue" stroke="midnightblue" points="530.75,-128.88 521.75,-134.48 532.28,-135.72 530.75,-128.88"/>
</g>
<!-- Node2&#45;&gt;Node6 -->
<g id="edge15" class="edge">
<title>Node2&#45;&gt;Node6</title>
<path fill="none" stroke="midnightblue" d="M479.78,-124.53C476.44,-108.99 471.06,-86.27 464.5,-67 459.39,-51.97 451.65,-35.2 446.85,-25.26"/>
<polygon fill="midnightblue" stroke="midnightblue" points="476.38,-125.36 481.84,-134.43 483.23,-123.93 476.38,-125.36"/>
</g>
<!-- Node7 -->
<g id="node7" class="node">
<title>Node7</title>
<g id="a_node7"><a xlink:href="self__describing__event_8hpp.html" target="_top" xlink:title=" ">
<polygon fill="none" stroke="black" points="0,-67.5 0,-97.5 143,-97.5 143,-67.5 0,-67.5"/>
<text text-anchor="start" x="8" y="-85.5" font-family="Helvetica,sans-Serif" font-size="10.00">src/events/self_describing</text>
<text text-anchor="middle" x="71.5" y="-74.5" font-family="Helvetica,sans-Serif" font-size="10.00">_event.hpp</text>
</a>
</g>
</g>
<!-- Node2&#45;&gt;Node7 -->
<g id="edge6" class="edge">
<title>Node2&#45;&gt;Node7</title>
<path fill="none" stroke="midnightblue" d="M414.16,-132.99C338.93,-122.12 219.39,-104.86 143.23,-93.86"/>
<polygon fill="midnightblue" stroke="midnightblue" points="414.07,-136.51 424.47,-134.48 415.07,-129.58 414.07,-136.51"/>
</g>
<!-- Node9 -->
<g id="node9" class="node">
<title>Node9</title>
<g id="a_node9"><a xlink:href="structured__event_8hpp.html" target="_top" xlink:title=" ">
<polygon fill="none" stroke="black" points="200,-67.5 200,-97.5 319,-97.5 319,-67.5 200,-67.5"/>
<text text-anchor="start" x="208" y="-85.5" font-family="Helvetica,sans-Serif" font-size="10.00">src/events/structured</text>
<text text-anchor="middle" x="259.5" y="-74.5" font-family="Helvetica,sans-Serif" font-size="10.00">_event.hpp</text>
</a>
</g>
</g>
<!-- Node2&#45;&gt;Node9 -->
<g id="edge9" class="edge">
<title>Node2&#45;&gt;Node9</title>
<path fill="none" stroke="midnightblue" d="M441.56,-131.86C404.98,-122.14 351.76,-108.01 312.29,-97.52"/>
<polygon fill="midnightblue" stroke="midnightblue" points="440.84,-135.29 451.41,-134.48 442.64,-128.53 440.84,-135.29"/>
</g>
<!-- Node11 -->
<g id="node11" class="node">
<title>Node11</title>
<g id="a_node11"><a xlink:href="timing__event_8hpp.html" target="_top" xlink:title=" ">
<polygon fill="none" stroke="black" points="512,-73 512,-92 667,-92 667,-73 512,-73"/>
<text text-anchor="middle" x="589.5" y="-80" font-family="Helvetica,sans-Serif" font-size="10.00">src/events/timing_event.hpp</text>
</a>
</g>
</g>
<!-- Node2&#45;&gt;Node11 -->
<g id="edge12" class="edge">
<title>Node2&#45;&gt;Node11</title>
<path fill="none" stroke="midnightblue" d="M507.45,-129.56C527.96,-118.04 556.88,-101.81 574.34,-92.01"/>
<polygon fill="midnightblue" stroke="midnightblue" points="505.69,-126.53 498.69,-134.48 509.12,-132.63 505.69,-126.53"/>
</g>
<!-- Node2&#45;&gt;Node13 -->
<g id="edge16" class="edge">
<title>Node2&#45;&gt;Node13</title>
<path fill="none" stroke="midnightblue" d="M553.3,-134.29C645.3,-122.72 798.57,-103.17 824.5,-98 832.69,-96.37 841.47,-94.2 849.52,-92.03"/>
<polygon fill="midnightblue" stroke="midnightblue" points="552.71,-130.83 543.22,-135.55 553.58,-137.78 552.71,-130.83"/>
</g>
<!-- Node5 -->
<g id="node5" class="node">
<title>Node5</title>
<g id="a_node5"><a xlink:href="screen__view__event_8cpp.html" target="_top" xlink:title=" ">
<polygon fill="none" stroke="black" points="685,-0.5 685,-30.5 816,-30.5 816,-0.5 685,-0.5"/>
<text text-anchor="start" x="693" y="-18.5" font-family="Helvetica,sans-Serif" font-size="10.00">src/events/screen_view</text>
<text text-anchor="middle" x="750.5" y="-7.5" font-family="Helvetica,sans-Serif" font-size="10.00">_event.cpp</text>
</a>
</g>
</g>
<!-- Node4&#45;&gt;Node5 -->
<g id="edge4" class="edge">
<title>Node4&#45;&gt;Node5</title>
<path fill="none" stroke="midnightblue" d="M750.5,-57.11C750.5,-48.15 750.5,-38.32 750.5,-30.58"/>
<polygon fill="midnightblue" stroke="midnightblue" points="747,-57.4 750.5,-67.4 754,-57.4 747,-57.4"/>
</g>
<!-- Node4&#45;&gt;Node6 -->
<g id="edge5" class="edge">
<title>Node4&#45;&gt;Node6</title>
<path fill="none" stroke="midnightblue" d="M674.9,-66.84C625.7,-57.12 560.18,-43.84 502.5,-31 494.24,-29.16 485.36,-27.08 477.03,-25.07"/>
<polygon fill="midnightblue" stroke="midnightblue" points="674.34,-70.3 684.83,-68.8 675.7,-63.43 674.34,-70.3"/>
</g>
<!-- Node7&#45;&gt;Node6 -->
<g id="edge8" class="edge">
<title>Node7&#45;&gt;Node6</title>
<path fill="none" stroke="midnightblue" d="M153.21,-67.18C226.9,-54.27 332.81,-35.72 393.94,-25.01"/>
<polygon fill="midnightblue" stroke="midnightblue" points="152.28,-63.79 143.03,-68.97 153.49,-70.69 152.28,-63.79"/>
</g>
<!-- Node8 -->
<g id="node8" class="node">
<title>Node8</title>
<g id="a_node8"><a xlink:href="self__describing__event_8cpp.html" target="_top" xlink:title=" ">
<polygon fill="none" stroke="black" points="0,-0.5 0,-30.5 143,-30.5 143,-0.5 0,-0.5"/>
<text text-anchor="start" x="8" y="-18.5" font-family="Helvetica,sans-Serif" font-size="10.00">src/events/self_describing</text>
<text text-anchor="middle" x="71.5" y="-7.5" font-family="Helvetica,sans-Serif" font-size="10.00">_event.cpp</text>
</a>
</g>
</g>
<!-- Node7&#45;&gt;Node8 -->
<g id="edge7" class="edge">
<title>Node7&#45;&gt;Node8</title>
<path fill="none" stroke="midnightblue" d="M71.5,-57.11C71.5,-48.15 71.5,-38.32 71.5,-30.58"/>
<polygon fill="midnightblue" stroke="midnightblue" points="68,-57.4 71.5,-67.4 75,-57.4 68,-57.4"/>
</g>
<!-- Node9&#45;&gt;Node6 -->
<g id="edge11" class="edge">
<title>Node9&#45;&gt;Node6</title>
<path fill="none" stroke="midnightblue" d="M308.92,-63.95C344.46,-51.32 390.84,-34.85 418.55,-25.01"/>
<polygon fill="midnightblue" stroke="midnightblue" points="307.46,-60.75 299.21,-67.4 309.8,-67.35 307.46,-60.75"/>
</g>
<!-- Node10 -->
<g id="node10" class="node">
<title>Node10</title>
<g id="a_node10"><a xlink:href="structured__event_8cpp.html" target="_top" xlink:title=" ">
<polygon fill="none" stroke="black" points="200,-0.5 200,-30.5 319,-30.5 319,-0.5 200,-0.5"/>
<text text-anchor="start" x="208" y="-18.5" font-family="Helvetica,sans-Serif" font-size="10.00">src/events/structured</text>
<text text-anchor="middle" x="259.5" y="-7.5" font-family="Helvetica,sans-Serif" font-size="10.00">_event.cpp</text>
</a>
</g>
</g>
<!-- Node9&#45;&gt;Node10 -->
<g id="edge10" class="edge">
<title>Node9&#45;&gt;Node10</title>
<path fill="none" stroke="midnightblue" d="M259.5,-57.11C259.5,-48.15 259.5,-38.32 259.5,-30.58"/>
<polygon fill="midnightblue" stroke="midnightblue" points="256,-57.4 259.5,-67.4 263,-57.4 256,-57.4"/>
</g>
<!-- Node11&#45;&gt;Node6 -->
<g id="edge14" class="edge">
<title>Node11&#45;&gt;Node6</title>
<path fill="none" stroke="midnightblue" d="M560.74,-68.78C531.62,-55.91 487.4,-36.35 462.1,-25.17"/>
<polygon fill="midnightblue" stroke="midnightblue" points="559.42,-72.03 569.98,-72.87 562.25,-65.62 559.42,-72.03"/>
</g>
<!-- Node12 -->
<g id="node12" class="node">
<title>Node12</title>
<g id="a_node12"><a xlink:href="timing__event_8cpp.html" target="_top" xlink:title=" ">
<polygon fill="none" stroke="black" points="512,-6 512,-25 667,-25 667,-6 512,-6"/>
<text text-anchor="middle" x="589.5" y="-13" font-family="Helvetica,sans-Serif" font-size="10.00">src/events/timing_event.cpp</text>
</a>
</g>
</g>
<!-- Node11&#45;&gt;Node12 -->
<g id="edge13" class="edge">
<title>Node11&#45;&gt;Node12</title>
<path fill="none" stroke="midnightblue" d="M589.5,-62.54C589.5,-50.17 589.5,-34.62 589.5,-25.13"/>
<polygon fill="midnightblue" stroke="midnightblue" points="586,-62.73 589.5,-72.73 593,-62.73 586,-62.73"/>
</g>
<!-- Node13&#45;&gt;Node6 -->
<g id="edge17" class="edge">
<title>Node13&#45;&gt;Node6</title>
<path fill="none" stroke="midnightblue" d="M840.03,-70.41C834.83,-69.14 829.56,-67.96 824.5,-67 683,-40.25 644.32,-55.96 502.5,-31 493.32,-29.38 483.45,-27.19 474.42,-25"/>
<polygon fill="midnightblue" stroke="midnightblue" points="839.26,-73.83 849.82,-72.94 841.01,-67.05 839.26,-73.83"/>
</g>
<!-- Node14 -->
<g id="node14" class="node">
<title>Node14</title>
<g id="a_node14"><a xlink:href="tracker_8cpp.html" target="_top" xlink:title=" ">
<polygon fill="none" stroke="black" points="835,-6 835,-25 922,-25 922,-6 835,-6"/>
<text text-anchor="middle" x="878.5" y="-13" font-family="Helvetica,sans-Serif" font-size="10.00">src/tracker.cpp</text>
</a>
</g>
</g>
<!-- Node13&#45;&gt;Node14 -->
<g id="edge18" class="edge">
<title>Node13&#45;&gt;Node14</title>
<path fill="none" stroke="midnightblue" d="M878.5,-62.54C878.5,-50.17 878.5,-34.62 878.5,-25.13"/>
<polygon fill="midnightblue" stroke="midnightblue" points="875,-62.73 878.5,-72.73 882,-62.73 875,-62.73"/>
</g>
</g>
</svg>
