<?xml version="1.0" encoding="UTF-8" standalone="no"?>
<!DOCTYPE svg PUBLIC "-//W3C//DTD SVG 1.1//EN"
 "http://www.w3.org/Graphics/SVG/1.1/DTD/svg11.dtd">
<!-- Generated by graphviz version 2.43.0 (0)
 -->
<!-- Title: src/events/timing_event.cpp Pages: 1 -->
<svg width="515pt" height="319pt"
 viewBox="0.00 0.00 514.72 319.00" xmlns="http://www.w3.org/2000/svg" xmlns:xlink="http://www.w3.org/1999/xlink">
<g id="graph0" class="graph" transform="scale(1 1) rotate(0) translate(4 315)">
<title>src/events/timing_event.cpp</title>
<!-- Node1 -->
<g id="node1" class="node">
<title>Node1</title>
<g id="a_node1"><a xlink:title=" ">
<polygon fill="#bfbfbf" stroke="black" points="181.22,-291.5 181.22,-310.5 336.22,-310.5 336.22,-291.5 181.22,-291.5"/>
<text text-anchor="middle" x="258.72" y="-298.5" font-family="Helvetica,sans-Serif" font-size="10.00">src/events/timing_event.cpp</text>
</a>
</g>
</g>
<!-- Node2 -->
<g id="node2" class="node">
<title>Node2</title>
<g id="a_node2"><a xlink:href="timing__event_8hpp.html" target="_top" xlink:title=" ">
<polygon fill="none" stroke="black" points="207.72,-235.5 207.72,-254.5 309.72,-254.5 309.72,-235.5 207.72,-235.5"/>
<text text-anchor="middle" x="258.72" y="-242.5" font-family="Helvetica,sans-Serif" font-size="10.00">timing_event.hpp</text>
</a>
</g>
</g>
<!-- Node1&#45;&gt;Node2 -->
<g id="edge1" class="edge">
<title>Node1&#45;&gt;Node2</title>
<path fill="none" stroke="midnightblue" d="M258.72,-291.08C258.72,-284.01 258.72,-273.86 258.72,-264.99"/>
<polygon fill="midnightblue" stroke="midnightblue" points="262.22,-264.75 258.72,-254.75 255.22,-264.75 262.22,-264.75"/>
</g>
<!-- Node3 -->
<g id="node3" class="node">
<title>Node3</title>
<g id="a_node3"><a xlink:href="event_8hpp.html" target="_top" xlink:title=" ">
<polygon fill="none" stroke="black" points="226.22,-179.5 226.22,-198.5 291.22,-198.5 291.22,-179.5 226.22,-179.5"/>
<text text-anchor="middle" x="258.72" y="-186.5" font-family="Helvetica,sans-Serif" font-size="10.00">event.hpp</text>
</a>
</g>
</g>
<!-- Node2&#45;&gt;Node3 -->
<g id="edge2" class="edge">
<title>Node2&#45;&gt;Node3</title>
<path fill="none" stroke="midnightblue" d="M258.72,-235.08C258.72,-228.01 258.72,-217.86 258.72,-208.99"/>
<polygon fill="midnightblue" stroke="midnightblue" points="262.22,-208.75 258.72,-198.75 255.22,-208.75 262.22,-208.75"/>
</g>
<!-- Node4 -->
<g id="node4" class="node">
<title>Node4</title>
<g id="a_node4"><a xlink:href="self__describing__json_8hpp.html" target="_top" xlink:title=" ">
<polygon fill="none" stroke="black" points="19.22,-112.5 19.22,-142.5 160.22,-142.5 160.22,-112.5 19.22,-112.5"/>
<text text-anchor="start" x="27.22" y="-130.5" font-family="Helvetica,sans-Serif" font-size="10.00">../payload/self_describing</text>
<text text-anchor="middle" x="89.72" y="-119.5" font-family="Helvetica,sans-Serif" font-size="10.00">_json.hpp</text>
</a>
</g>
</g>
<!-- Node3&#45;&gt;Node4 -->
<g id="edge3" class="edge">
<title>Node3&#45;&gt;Node4</title>
<path fill="none" stroke="midnightblue" d="M234.51,-179.48C209.7,-170.74 170.41,-156.91 139.02,-145.86"/>
<polygon fill="midnightblue" stroke="midnightblue" points="140.15,-142.54 129.55,-142.52 137.82,-149.15 140.15,-142.54"/>
</g>
<!-- Node5 -->
<g id="node5" class="node">
<title>Node5</title>
<g id="a_node5"><a xlink:title=" ">
<polygon fill="none" stroke="#bfbfbf" points="71.72,-0.5 71.72,-19.5 115.72,-19.5 115.72,-0.5 71.72,-0.5"/>
<text text-anchor="middle" x="93.72" y="-7.5" font-family="Helvetica,sans-Serif" font-size="10.00">string</text>
</a>
</g>
</g>
<!-- Node3&#45;&gt;Node5 -->
<g id="edge21" class="edge">
<title>Node3&#45;&gt;Node5</title>
<path fill="none" stroke="midnightblue" d="M225.84,-187.08C164.63,-184.59 36.9,-175.53 9.72,-143 -23.05,-103.77 37.75,-50.89 72.26,-25.62"/>
<polygon fill="midnightblue" stroke="midnightblue" points="74.69,-28.19 80.8,-19.54 70.62,-22.49 74.69,-28.19"/>
</g>
<!-- Node9 -->
<g id="node9" class="node">
<title>Node9</title>
<g id="a_node9"><a xlink:href="event__payload_8hpp.html" target="_top" xlink:title=" ">
<polygon fill="none" stroke="black" points="178.22,-118 178.22,-137 339.22,-137 339.22,-118 178.22,-118"/>
<text text-anchor="middle" x="258.72" y="-125" font-family="Helvetica,sans-Serif" font-size="10.00">../payload/event_payload.hpp</text>
</a>
</g>
</g>
<!-- Node3&#45;&gt;Node9 -->
<g id="edge9" class="edge">
<title>Node3&#45;&gt;Node9</title>
<path fill="none" stroke="midnightblue" d="M258.72,-179.48C258.72,-171.08 258.72,-157.98 258.72,-147.16"/>
<polygon fill="midnightblue" stroke="midnightblue" points="262.22,-147.01 258.72,-137.01 255.22,-147.01 262.22,-147.01"/>
</g>
<!-- Node13 -->
<g id="node13" class="node">
<title>Node13</title>
<g id="a_node13"><a xlink:href="subject_8hpp.html" target="_top" xlink:title=" ">
<polygon fill="none" stroke="black" points="357.72,-118 357.72,-137 439.72,-137 439.72,-118 357.72,-118"/>
<text text-anchor="middle" x="398.72" y="-125" font-family="Helvetica,sans-Serif" font-size="10.00">../subject.hpp</text>
</a>
</g>
</g>
<!-- Node3&#45;&gt;Node13 -->
<g id="edge16" class="edge">
<title>Node3&#45;&gt;Node13</title>
<path fill="none" stroke="midnightblue" d="M278.78,-179.48C302.49,-169.4 342.13,-152.55 369.31,-141"/>
<polygon fill="midnightblue" stroke="midnightblue" points="370.87,-144.14 378.7,-137.01 368.13,-137.7 370.87,-144.14"/>
</g>
<!-- Node14 -->
<g id="node14" class="node">
<title>Node14</title>
<g id="a_node14"><a xlink:title=" ">
<polygon fill="none" stroke="#bfbfbf" points="458.22,-118 458.22,-137 505.22,-137 505.22,-118 458.22,-118"/>
<text text-anchor="middle" x="481.72" y="-125" font-family="Helvetica,sans-Serif" font-size="10.00">vector</text>
</a>
</g>
</g>
<!-- Node3&#45;&gt;Node14 -->
<g id="edge22" class="edge">
<title>Node3&#45;&gt;Node14</title>
<path fill="none" stroke="midnightblue" d="M291.5,-182.12C329.77,-174.82 394.72,-161.09 448.72,-143 450.59,-142.37 452.5,-141.68 454.41,-140.95"/>
<polygon fill="midnightblue" stroke="midnightblue" points="455.89,-144.13 463.8,-137.08 453.22,-137.66 455.89,-144.13"/>
</g>
<!-- Node4&#45;&gt;Node5 -->
<g id="edge4" class="edge">
<title>Node4&#45;&gt;Node5</title>
<path fill="none" stroke="midnightblue" d="M81.58,-112.25C74.48,-98.05 66.01,-75.6 70.72,-56 73.03,-46.42 77.74,-36.58 82.3,-28.56"/>
<polygon fill="midnightblue" stroke="midnightblue" points="85.42,-30.17 87.62,-19.81 79.43,-26.54 85.42,-30.17"/>
</g>
<!-- Node6 -->
<g id="node6" class="node">
<title>Node6</title>
<g id="a_node6"><a xlink:href="constants_8hpp.html" target="_top" xlink:title=" ">
<polygon fill="none" stroke="black" points="112.72,-56.5 112.72,-75.5 206.72,-75.5 206.72,-56.5 112.72,-56.5"/>
<text text-anchor="middle" x="159.72" y="-63.5" font-family="Helvetica,sans-Serif" font-size="10.00">../constants.hpp</text>
</a>
</g>
</g>
<!-- Node4&#45;&gt;Node6 -->
<g id="edge5" class="edge">
<title>Node4&#45;&gt;Node6</title>
<path fill="none" stroke="midnightblue" d="M106.31,-112.4C117.01,-103.31 130.91,-91.49 141.85,-82.19"/>
<polygon fill="midnightblue" stroke="midnightblue" points="144.19,-84.8 149.54,-75.66 139.65,-79.47 144.19,-84.8"/>
</g>
<!-- Node8 -->
<g id="node8" class="node">
<title>Node8</title>
<g id="a_node8"><a xlink:title=" ">
<polygon fill="none" stroke="#bfbfbf" points="188.72,-0.5 188.72,-19.5 302.72,-19.5 302.72,-0.5 188.72,-0.5"/>
<text text-anchor="middle" x="245.72" y="-7.5" font-family="Helvetica,sans-Serif" font-size="10.00">../../include/json.hpp</text>
</a>
</g>
</g>
<!-- Node4&#45;&gt;Node8 -->
<g id="edge8" class="edge">
<title>Node4&#45;&gt;Node8</title>
<path fill="none" stroke="midnightblue" d="M150.47,-112.42C173.13,-104.71 197.7,-93.12 215.72,-76 228.94,-63.45 236.85,-43.95 241.21,-29.58"/>
<polygon fill="midnightblue" stroke="midnightblue" points="244.62,-30.36 243.87,-19.79 237.87,-28.52 244.62,-30.36"/>
</g>
<!-- Node6&#45;&gt;Node5 -->
<g id="edge6" class="edge">
<title>Node6&#45;&gt;Node5</title>
<path fill="none" stroke="midnightblue" d="M149.12,-56.32C139.27,-48.26 124.37,-36.08 112.51,-26.37"/>
<polygon fill="midnightblue" stroke="midnightblue" points="114.48,-23.46 104.52,-19.83 110.04,-28.88 114.48,-23.46"/>
</g>
<!-- Node7 -->
<g id="node7" class="node">
<title>Node7</title>
<g id="a_node7"><a xlink:title=" ">
<polygon fill="none" stroke="#bfbfbf" points="138.72,-0.5 138.72,-19.5 170.72,-19.5 170.72,-0.5 138.72,-0.5"/>
<text text-anchor="middle" x="154.72" y="-7.5" font-family="Helvetica,sans-Serif" font-size="10.00">set</text>
</a>
</g>
</g>
<!-- Node6&#45;&gt;Node7 -->
<g id="edge7" class="edge">
<title>Node6&#45;&gt;Node7</title>
<path fill="none" stroke="midnightblue" d="M158.9,-56.08C158.24,-49.01 157.3,-38.86 156.48,-29.99"/>
<polygon fill="midnightblue" stroke="midnightblue" points="159.94,-29.39 155.53,-19.75 152.97,-30.03 159.94,-29.39"/>
</g>
<!-- Node9&#45;&gt;Node5 -->
<g id="edge15" class="edge">
<title>Node9&#45;&gt;Node5</title>
<path fill="none" stroke="midnightblue" d="M216.62,-117.97C175.98,-108.86 118.47,-93.36 103.72,-76 92.99,-63.37 91.22,-44.16 91.69,-29.89"/>
<polygon fill="midnightblue" stroke="midnightblue" points="95.19,-29.96 92.42,-19.73 88.21,-29.45 95.19,-29.96"/>
</g>
<!-- Node10 -->
<g id="node10" class="node">
<title>Node10</title>
<g id="a_node10"><a xlink:href="payload_8hpp.html" target="_top" xlink:title=" ">
<polygon fill="none" stroke="black" points="324.22,-56.5 324.22,-75.5 401.22,-75.5 401.22,-56.5 324.22,-56.5"/>
<text text-anchor="middle" x="362.72" y="-63.5" font-family="Helvetica,sans-Serif" font-size="10.00">payload.hpp</text>
</a>
</g>
</g>
<!-- Node9&#45;&gt;Node10 -->
<g id="edge10" class="edge">
<title>Node9&#45;&gt;Node10</title>
<path fill="none" stroke="midnightblue" d="M273.62,-117.98C290.69,-108.21 318.88,-92.08 338.99,-80.58"/>
<polygon fill="midnightblue" stroke="midnightblue" points="340.91,-83.51 347.85,-75.51 337.43,-77.44 340.91,-83.51"/>
</g>
<!-- Node10&#45;&gt;Node5 -->
<g id="edge14" class="edge">
<title>Node10&#45;&gt;Node5</title>
<path fill="none" stroke="midnightblue" d="M323.84,-58.16C277.47,-49.84 197.7,-35.05 129.72,-20 128.45,-19.72 127.15,-19.42 125.84,-19.12"/>
<polygon fill="midnightblue" stroke="midnightblue" points="126.3,-15.63 115.76,-16.71 124.67,-22.44 126.3,-15.63"/>
</g>
<!-- Node10&#45;&gt;Node8 -->
<g id="edge12" class="edge">
<title>Node10&#45;&gt;Node8</title>
<path fill="none" stroke="midnightblue" d="M344.18,-56.44C325.1,-47.64 295.15,-33.81 273.29,-23.72"/>
<polygon fill="midnightblue" stroke="midnightblue" points="274.72,-20.53 264.18,-19.52 271.79,-26.88 274.72,-20.53"/>
</g>
<!-- Node11 -->
<g id="node11" class="node">
<title>Node11</title>
<g id="a_node11"><a xlink:title=" ">
<polygon fill="none" stroke="#bfbfbf" points="321.22,-0.5 321.22,-19.5 450.22,-19.5 450.22,-0.5 321.22,-0.5"/>
<text text-anchor="middle" x="385.72" y="-7.5" font-family="Helvetica,sans-Serif" font-size="10.00">../../include/base64.hpp</text>
</a>
</g>
</g>
<!-- Node10&#45;&gt;Node11 -->
<g id="edge11" class="edge">
<title>Node10&#45;&gt;Node11</title>
<path fill="none" stroke="midnightblue" d="M366.52,-56.08C369.64,-48.77 374.15,-38.18 378.01,-29.1"/>
<polygon fill="midnightblue" stroke="midnightblue" points="381.3,-30.32 382,-19.75 374.86,-27.58 381.3,-30.32"/>
</g>
<!-- Node12 -->
<g id="node12" class="node">
<title>Node12</title>
<g id="a_node12"><a xlink:title=" ">
<polygon fill="none" stroke="#bfbfbf" points="468.72,-0.5 468.72,-19.5 506.72,-19.5 506.72,-0.5 468.72,-0.5"/>
<text text-anchor="middle" x="487.72" y="-7.5" font-family="Helvetica,sans-Serif" font-size="10.00">map</text>
</a>
</g>
</g>
<!-- Node10&#45;&gt;Node12 -->
<g id="edge13" class="edge">
<title>Node10&#45;&gt;Node12</title>
<path fill="none" stroke="midnightblue" d="M382.53,-56.44C403.13,-47.54 435.59,-33.52 459,-23.41"/>
<polygon fill="midnightblue" stroke="midnightblue" points="460.63,-26.52 468.42,-19.34 457.85,-20.09 460.63,-26.52"/>
</g>
<!-- Node13&#45;&gt;Node5 -->
<g id="edge20" class="edge">
<title>Node13&#45;&gt;Node5</title>
<path fill="none" stroke="midnightblue" d="M376.79,-117.93C342.49,-104.56 274.02,-77.98 215.72,-56 185.09,-44.45 150.01,-31.55 125.36,-22.53"/>
<polygon fill="midnightblue" stroke="midnightblue" points="126.39,-19.18 115.8,-19.03 123.99,-25.75 126.39,-19.18"/>
</g>
<!-- Node13&#45;&gt;Node6 -->
<g id="edge17" class="edge">
<title>Node13&#45;&gt;Node6</title>
<path fill="none" stroke="midnightblue" d="M369.39,-117.93C362.31,-115.93 354.76,-113.84 347.72,-112 300.04,-99.52 245.19,-86.55 207.09,-77.76"/>
<polygon fill="midnightblue" stroke="midnightblue" points="207.82,-74.33 197.29,-75.5 206.25,-81.16 207.82,-74.33"/>
</g>
<!-- Node13&#45;&gt;Node10 -->
<g id="edge18" class="edge">
<title>Node13&#45;&gt;Node10</title>
<path fill="none" stroke="midnightblue" d="M393.57,-117.98C388.27,-109.23 379.89,-95.37 373.2,-84.31"/>
<polygon fill="midnightblue" stroke="midnightblue" points="376.04,-82.25 367.87,-75.51 370.05,-85.88 376.04,-82.25"/>
</g>
<!-- Node13&#45;&gt;Node12 -->
<g id="edge19" class="edge">
<title>Node13&#45;&gt;Node12</title>
<path fill="none" stroke="midnightblue" d="M405.41,-117.82C420.1,-98.76 455.4,-52.95 474.66,-27.96"/>
<polygon fill="midnightblue" stroke="midnightblue" points="477.62,-29.84 480.96,-19.78 472.08,-25.57 477.62,-29.84"/>
</g>
</g>
</svg>
