<?xml version="1.0" encoding="UTF-8" standalone="no"?>
<!DOCTYPE svg PUBLIC "-//W3C//DTD SVG 1.1//EN"
 "http://www.w3.org/Graphics/SVG/1.1/DTD/svg11.dtd">
<!-- Generated by graphviz version 2.43.0 (0)
 -->
<!-- Title: src/tracker.hpp Pages: 1 -->
<svg width="2114pt" height="319pt"
 viewBox="0.00 0.00 2114.02 319.00" xmlns="http://www.w3.org/2000/svg" xmlns:xlink="http://www.w3.org/1999/xlink">
<g id="graph0" class="graph" transform="scale(1 1) rotate(0) translate(4 315)">
<title>src/tracker.hpp</title>
<!-- Node1 -->
<g id="node1" class="node">
<title>Node1</title>
<g id="a_node1"><a xlink:title=" ">
<polygon fill="#bfbfbf" stroke="black" points="1649,-291.5 1649,-310.5 1737,-310.5 1737,-291.5 1649,-291.5"/>
<text text-anchor="middle" x="1693" y="-298.5" font-family="Helvetica,sans-Serif" font-size="10.00">src/tracker.hpp</text>
</a>
</g>
</g>
<!-- Node2 -->
<g id="node2" class="node">
<title>Node2</title>
<g id="a_node2"><a xlink:title=" ">
<polygon fill="none" stroke="#bfbfbf" points="1483,-0.5 1483,-19.5 1527,-19.5 1527,-0.5 1483,-0.5"/>
<text text-anchor="middle" x="1505" y="-7.5" font-family="Helvetica,sans-Serif" font-size="10.00">string</text>
</a>
</g>
</g>
<!-- Node1&#45;&gt;Node2 -->
<g id="edge1" class="edge">
<title>Node1&#45;&gt;Node2</title>
<path fill="none" stroke="midnightblue" d="M1737.02,-296.83C1838.45,-288.32 2080,-260.63 2080,-190 2080,-190 2080,-190 2080,-126.5 2080,-93.45 2196.61,-124.36 1930,-56 1771.67,-15.4 1726.18,-40.33 1564,-20 1555.3,-18.91 1545.91,-17.56 1537.23,-16.23"/>
<polygon fill="midnightblue" stroke="midnightblue" points="1537.51,-12.74 1527.09,-14.66 1536.44,-19.65 1537.51,-12.74"/>
</g>
<!-- Node3 -->
<g id="node3" class="node">
<title>Node3</title>
<g id="a_node3"><a xlink:href="emitter_8hpp.html" target="_top" xlink:title=" ">
<polygon fill="none" stroke="black" points="844,-235.5 844,-254.5 956,-254.5 956,-235.5 844,-235.5"/>
<text text-anchor="middle" x="900" y="-242.5" font-family="Helvetica,sans-Serif" font-size="10.00">emitter/emitter.hpp</text>
</a>
</g>
</g>
<!-- Node1&#45;&gt;Node3 -->
<g id="edge2" class="edge">
<title>Node1&#45;&gt;Node3</title>
<path fill="none" stroke="midnightblue" d="M1648.95,-297C1516.88,-288.01 1123.61,-261.23 966.21,-250.51"/>
<polygon fill="midnightblue" stroke="midnightblue" points="966.4,-247.01 956.19,-249.83 965.93,-254 966.4,-247.01"/>
</g>
<!-- Node31 -->
<g id="node31" class="node">
<title>Node31</title>
<g id="a_node31"><a xlink:href="subject_8hpp.html" target="_top" xlink:title=" ">
<polygon fill="none" stroke="black" points="1656.5,-118 1656.5,-137 1729.5,-137 1729.5,-118 1656.5,-118"/>
<text text-anchor="middle" x="1693" y="-125" font-family="Helvetica,sans-Serif" font-size="10.00">subject.hpp</text>
</a>
</g>
</g>
<!-- Node1&#45;&gt;Node31 -->
<g id="edge53" class="edge">
<title>Node1&#45;&gt;Node31</title>
<path fill="none" stroke="midnightblue" d="M1693,-291.26C1693,-264.65 1693,-184.21 1693,-147.34"/>
<polygon fill="midnightblue" stroke="midnightblue" points="1696.5,-147.02 1693,-137.02 1689.5,-147.02 1696.5,-147.02"/>
</g>
<!-- Node32 -->
<g id="node32" class="node">
<title>Node32</title>
<g id="a_node32"><a xlink:href="client__session_8hpp.html" target="_top" xlink:title=" ">
<polygon fill="none" stroke="black" points="1492.5,-179.5 1492.5,-198.5 1599.5,-198.5 1599.5,-179.5 1492.5,-179.5"/>
<text text-anchor="middle" x="1546" y="-186.5" font-family="Helvetica,sans-Serif" font-size="10.00">client_session.hpp</text>
</a>
</g>
</g>
<!-- Node1&#45;&gt;Node32 -->
<g id="edge58" class="edge">
<title>Node1&#45;&gt;Node32</title>
<path fill="none" stroke="midnightblue" d="M1681.47,-291.37C1656.45,-272.65 1596.98,-228.15 1565.82,-204.83"/>
<polygon fill="midnightblue" stroke="midnightblue" points="1567.58,-201.78 1557.48,-198.59 1563.39,-207.39 1567.58,-201.78"/>
</g>
<!-- Node35 -->
<g id="node35" class="node">
<title>Node35</title>
<g id="a_node35"><a xlink:href="event_8hpp.html" target="_top" xlink:title=" ">
<polygon fill="none" stroke="black" points="1782.5,-179.5 1782.5,-198.5 1883.5,-198.5 1883.5,-179.5 1782.5,-179.5"/>
<text text-anchor="middle" x="1833" y="-186.5" font-family="Helvetica,sans-Serif" font-size="10.00">events/event.hpp</text>
</a>
</g>
</g>
<!-- Node1&#45;&gt;Node35 -->
<g id="edge66" class="edge">
<title>Node1&#45;&gt;Node35</title>
<path fill="none" stroke="midnightblue" d="M1703.99,-291.37C1727.81,-272.65 1784.44,-228.15 1814.12,-204.83"/>
<polygon fill="midnightblue" stroke="midnightblue" points="1816.36,-207.52 1822.07,-198.59 1812.04,-202.02 1816.36,-207.52"/>
</g>
<!-- Node3&#45;&gt;Node2 -->
<g id="edge3" class="edge">
<title>Node3&#45;&gt;Node2</title>
<path fill="none" stroke="midnightblue" d="M954.01,-235.48C1058.65,-218.43 1284.84,-178.64 1355,-143 1362.73,-139.07 1449.83,-60.81 1487.65,-26.68"/>
<polygon fill="midnightblue" stroke="midnightblue" points="1490.25,-29.05 1495.33,-19.75 1485.56,-23.85 1490.25,-29.05"/>
</g>
<!-- Node4 -->
<g id="node4" class="node">
<title>Node4</title>
<g id="a_node4"><a xlink:title=" ">
<polygon fill="none" stroke="#bfbfbf" points="281,-56.5 281,-75.5 337,-75.5 337,-56.5 281,-56.5"/>
<text text-anchor="middle" x="309" y="-63.5" font-family="Helvetica,sans-Serif" font-size="10.00">sstream</text>
</a>
</g>
</g>
<!-- Node3&#45;&gt;Node4 -->
<g id="edge4" class="edge">
<title>Node3&#45;&gt;Node4</title>
<path fill="none" stroke="midnightblue" d="M843.87,-241.35C764.54,-236.82 615.39,-225.36 491,-199 410.7,-181.98 366.02,-207.3 315,-143 302.3,-126.99 302.73,-102.66 305.08,-85.85"/>
<polygon fill="midnightblue" stroke="midnightblue" points="308.6,-86.08 306.87,-75.62 301.7,-84.87 308.6,-86.08"/>
</g>
<!-- Node5 -->
<g id="node5" class="node">
<title>Node5</title>
<g id="a_node5"><a xlink:title=" ">
<polygon fill="none" stroke="#bfbfbf" points="1264.5,-179.5 1264.5,-198.5 1371.5,-198.5 1371.5,-179.5 1264.5,-179.5"/>
<text text-anchor="middle" x="1318" y="-186.5" font-family="Helvetica,sans-Serif" font-size="10.00">condition_variable</text>
</a>
</g>
</g>
<!-- Node3&#45;&gt;Node5 -->
<g id="edge5" class="edge">
<title>Node3&#45;&gt;Node5</title>
<path fill="none" stroke="midnightblue" d="M956.08,-236.85C1025.21,-228.03 1146.27,-212.53 1250,-199 1251.3,-198.83 1252.6,-198.66 1253.92,-198.49"/>
<polygon fill="midnightblue" stroke="midnightblue" points="1254.72,-201.91 1264.18,-197.14 1253.81,-194.97 1254.72,-201.91"/>
</g>
<!-- Node6 -->
<g id="node6" class="node">
<title>Node6</title>
<g id="a_node6"><a xlink:title=" ">
<polygon fill="none" stroke="#bfbfbf" points="1390,-179.5 1390,-198.5 1436,-198.5 1436,-179.5 1390,-179.5"/>
<text text-anchor="middle" x="1413" y="-186.5" font-family="Helvetica,sans-Serif" font-size="10.00">future</text>
</a>
</g>
</g>
<!-- Node3&#45;&gt;Node6 -->
<g id="edge6" class="edge">
<title>Node3&#45;&gt;Node6</title>
<path fill="none" stroke="midnightblue" d="M956,-242.05C1044.33,-238.24 1221.41,-227.71 1379.77,-198.91"/>
<polygon fill="midnightblue" stroke="midnightblue" points="1380.5,-202.34 1389.7,-197.08 1379.23,-195.46 1380.5,-202.34"/>
</g>
<!-- Node7 -->
<g id="node7" class="node">
<title>Node7</title>
<g id="a_node7"><a xlink:title=" ">
<polygon fill="none" stroke="#bfbfbf" points="830,-118 830,-137 878,-137 878,-118 830,-118"/>
<text text-anchor="middle" x="854" y="-125" font-family="Helvetica,sans-Serif" font-size="10.00">thread</text>
</a>
</g>
</g>
<!-- Node3&#45;&gt;Node7 -->
<g id="edge7" class="edge">
<title>Node3&#45;&gt;Node7</title>
<path fill="none" stroke="midnightblue" d="M892.45,-235.32C885.35,-226.68 874.93,-212.77 869,-199 861.82,-182.31 857.96,-161.88 855.96,-147.31"/>
<polygon fill="midnightblue" stroke="midnightblue" points="859.4,-146.59 854.73,-137.07 852.45,-147.42 859.4,-146.59"/>
</g>
<!-- Node8 -->
<g id="node8" class="node">
<title>Node8</title>
<g id="a_node8"><a xlink:title=" ">
<polygon fill="none" stroke="#bfbfbf" points="500,-179.5 500,-198.5 564,-198.5 564,-179.5 500,-179.5"/>
<text text-anchor="middle" x="532" y="-186.5" font-family="Helvetica,sans-Serif" font-size="10.00">algorithm</text>
</a>
</g>
</g>
<!-- Node3&#45;&gt;Node8 -->
<g id="edge8" class="edge">
<title>Node3&#45;&gt;Node8</title>
<path fill="none" stroke="midnightblue" d="M843.95,-237.66C780.76,-230.2 674.75,-216.77 574.2,-199.1"/>
<polygon fill="midnightblue" stroke="midnightblue" points="574.64,-195.62 564.18,-197.32 573.41,-202.51 574.64,-195.62"/>
</g>
<!-- Node9 -->
<g id="node9" class="node">
<title>Node9</title>
<g id="a_node9"><a xlink:href="constants_8hpp.html" target="_top" xlink:title=" ">
<polygon fill="none" stroke="black" points="1542,-56.5 1542,-75.5 1636,-75.5 1636,-56.5 1542,-56.5"/>
<text text-anchor="middle" x="1589" y="-63.5" font-family="Helvetica,sans-Serif" font-size="10.00">../constants.hpp</text>
</a>
</g>
</g>
<!-- Node3&#45;&gt;Node9 -->
<g id="edge9" class="edge">
<title>Node3&#45;&gt;Node9</title>
<path fill="none" stroke="midnightblue" d="M956.25,-242.51C1120.08,-237.89 1586.75,-222.71 1609,-199 1638.37,-167.71 1614.79,-112.62 1599.49,-84.54"/>
<polygon fill="midnightblue" stroke="midnightblue" points="1602.51,-82.77 1594.53,-75.81 1596.43,-86.23 1602.51,-82.77"/>
</g>
<!-- Node11 -->
<g id="node11" class="node">
<title>Node11</title>
<g id="a_node11"><a xlink:href="utils_8hpp.html" target="_top" xlink:title=" ">
<polygon fill="none" stroke="black" points="692,-179.5 692,-198.5 760,-198.5 760,-179.5 692,-179.5"/>
<text text-anchor="middle" x="726" y="-186.5" font-family="Helvetica,sans-Serif" font-size="10.00">../utils.hpp</text>
</a>
</g>
</g>
<!-- Node3&#45;&gt;Node11 -->
<g id="edge12" class="edge">
<title>Node3&#45;&gt;Node11</title>
<path fill="none" stroke="midnightblue" d="M872.43,-235.44C842.9,-226.28 795.88,-211.69 763.12,-201.52"/>
<polygon fill="midnightblue" stroke="midnightblue" points="764.03,-198.14 753.44,-198.52 761.96,-204.82 764.03,-198.14"/>
</g>
<!-- Node19 -->
<g id="node19" class="node">
<title>Node19</title>
<g id="a_node19"><a xlink:href="self__describing__json_8hpp.html" target="_top" xlink:title=" ">
<polygon fill="none" stroke="black" points="1402,-112.5 1402,-142.5 1534,-142.5 1534,-112.5 1402,-112.5"/>
<text text-anchor="start" x="1410" y="-130.5" font-family="Helvetica,sans-Serif" font-size="10.00">payload/self_describing</text>
<text text-anchor="middle" x="1468" y="-119.5" font-family="Helvetica,sans-Serif" font-size="10.00">_json.hpp</text>
</a>
</g>
</g>
<!-- Node3&#45;&gt;Node19 -->
<g id="edge38" class="edge">
<title>Node3&#45;&gt;Node19</title>
<path fill="none" stroke="midnightblue" d="M956.03,-242.84C1087.44,-239.64 1407.25,-228.84 1445,-199 1458.87,-188.04 1464.48,-168.55 1466.7,-152.84"/>
<polygon fill="midnightblue" stroke="midnightblue" points="1470.2,-153.03 1467.75,-142.72 1463.23,-152.3 1470.2,-153.03"/>
</g>
<!-- Node21 -->
<g id="node21" class="node">
<title>Node21</title>
<g id="a_node21"><a xlink:href="payload_8hpp.html" target="_top" xlink:title=" ">
<polygon fill="none" stroke="black" points="1032.5,-56.5 1032.5,-75.5 1151.5,-75.5 1151.5,-56.5 1032.5,-56.5"/>
<text text-anchor="middle" x="1092" y="-63.5" font-family="Helvetica,sans-Serif" font-size="10.00">payload/payload.hpp</text>
</a>
</g>
</g>
<!-- Node3&#45;&gt;Node21 -->
<g id="edge37" class="edge">
<title>Node3&#45;&gt;Node21</title>
<path fill="none" stroke="midnightblue" d="M955.22,-235.47C980.83,-229.1 1010.14,-218.06 1031,-199 1062.29,-170.42 1052.03,-150.37 1070,-112 1074.25,-102.93 1079.13,-92.91 1083.21,-84.64"/>
<polygon fill="midnightblue" stroke="midnightblue" points="1086.39,-86.1 1087.7,-75.59 1080.12,-82.99 1086.39,-86.1"/>
</g>
<!-- Node24 -->
<g id="node24" class="node">
<title>Node24</title>
<g id="a_node24"><a xlink:href="event__store_8hpp.html" target="_top" xlink:title=" ">
<polygon fill="none" stroke="black" points="878,-179.5 878,-198.5 1022,-198.5 1022,-179.5 878,-179.5"/>
<text text-anchor="middle" x="950" y="-186.5" font-family="Helvetica,sans-Serif" font-size="10.00">../storage/event_store.hpp</text>
</a>
</g>
</g>
<!-- Node3&#45;&gt;Node24 -->
<g id="edge33" class="edge">
<title>Node3&#45;&gt;Node24</title>
<path fill="none" stroke="midnightblue" d="M908.26,-235.08C915.46,-227.3 926.11,-215.8 934.85,-206.37"/>
<polygon fill="midnightblue" stroke="midnightblue" points="937.67,-208.47 941.9,-198.75 932.53,-203.71 937.67,-208.47"/>
</g>
<!-- Node26 -->
<g id="node26" class="node">
<title>Node26</title>
<g id="a_node26"><a xlink:href="cracked__url_8hpp.html" target="_top" xlink:title=" ">
<polygon fill="none" stroke="black" points="166,-118 166,-137 268,-137 268,-118 166,-118"/>
<text text-anchor="middle" x="217" y="-125" font-family="Helvetica,sans-Serif" font-size="10.00">../cracked_url.hpp</text>
</a>
</g>
</g>
<!-- Node3&#45;&gt;Node26 -->
<g id="edge39" class="edge">
<title>Node3&#45;&gt;Node26</title>
<path fill="none" stroke="midnightblue" d="M843.94,-242.27C701.21,-237.52 331.87,-223.05 282,-199 258.06,-187.45 238.7,-162.89 227.51,-146.03"/>
<polygon fill="midnightblue" stroke="midnightblue" points="230.21,-143.74 221.9,-137.16 224.29,-147.48 230.21,-143.74"/>
</g>
<!-- Node28 -->
<g id="node28" class="node">
<title>Node28</title>
<g id="a_node28"><a xlink:href="http__request__result_8hpp.html" target="_top" xlink:title=" ">
<polygon fill="none" stroke="black" points="0,-112.5 0,-142.5 110,-142.5 110,-112.5 0,-112.5"/>
<text text-anchor="start" x="8" y="-130.5" font-family="Helvetica,sans-Serif" font-size="10.00">../http/http_request</text>
<text text-anchor="middle" x="55" y="-119.5" font-family="Helvetica,sans-Serif" font-size="10.00">_result.hpp</text>
</a>
</g>
</g>
<!-- Node3&#45;&gt;Node28 -->
<g id="edge43" class="edge">
<title>Node3&#45;&gt;Node28</title>
<path fill="none" stroke="midnightblue" d="M843.81,-244.11C670.56,-244.01 152.55,-240.22 90,-199 74.09,-188.51 65.13,-168.53 60.26,-152.51"/>
<polygon fill="midnightblue" stroke="midnightblue" points="63.6,-151.45 57.63,-142.69 56.84,-153.26 63.6,-151.45"/>
</g>
<!-- Node29 -->
<g id="node29" class="node">
<title>Node29</title>
<g id="a_node29"><a xlink:href="http__client_8hpp.html" target="_top" xlink:title=" ">
<polygon fill="none" stroke="black" points="99.5,-179.5 99.5,-198.5 220.5,-198.5 220.5,-179.5 99.5,-179.5"/>
<text text-anchor="middle" x="160" y="-186.5" font-family="Helvetica,sans-Serif" font-size="10.00">../http/http_client.hpp</text>
</a>
</g>
</g>
<!-- Node3&#45;&gt;Node29 -->
<g id="edge47" class="edge">
<title>Node3&#45;&gt;Node29</title>
<path fill="none" stroke="midnightblue" d="M843.96,-240.98C730.19,-234.67 464.01,-218.99 241,-199 237.58,-198.69 234.09,-198.36 230.56,-198.02"/>
<polygon fill="midnightblue" stroke="midnightblue" points="230.87,-194.53 220.57,-197.01 230.17,-201.5 230.87,-194.53"/>
</g>
<!-- Node30 -->
<g id="node30" class="node">
<title>Node30</title>
<g id="a_node30"><a xlink:href="retry__delay_8hpp.html" target="_top" xlink:title=" ">
<polygon fill="none" stroke="black" points="582,-179.5 582,-198.5 674,-198.5 674,-179.5 582,-179.5"/>
<text text-anchor="middle" x="628" y="-186.5" font-family="Helvetica,sans-Serif" font-size="10.00">retry_delay.hpp</text>
</a>
</g>
</g>
<!-- Node3&#45;&gt;Node30 -->
<g id="edge51" class="edge">
<title>Node3&#45;&gt;Node30</title>
<path fill="none" stroke="midnightblue" d="M856.9,-235.44C809.15,-225.96 732.14,-210.67 680.81,-200.48"/>
<polygon fill="midnightblue" stroke="midnightblue" points="681.39,-197.03 670.9,-198.52 680.02,-203.9 681.39,-197.03"/>
</g>
<!-- Node9&#45;&gt;Node2 -->
<g id="edge10" class="edge">
<title>Node9&#45;&gt;Node2</title>
<path fill="none" stroke="midnightblue" d="M1575.5,-56.32C1562.4,-47.9 1542.29,-34.97 1526.89,-25.07"/>
<polygon fill="midnightblue" stroke="midnightblue" points="1528.77,-22.12 1518.46,-19.65 1524.98,-28.01 1528.77,-22.12"/>
</g>
<!-- Node10 -->
<g id="node10" class="node">
<title>Node10</title>
<g id="a_node10"><a xlink:title=" ">
<polygon fill="none" stroke="#bfbfbf" points="1573,-0.5 1573,-19.5 1605,-19.5 1605,-0.5 1573,-0.5"/>
<text text-anchor="middle" x="1589" y="-7.5" font-family="Helvetica,sans-Serif" font-size="10.00">set</text>
</a>
</g>
</g>
<!-- Node9&#45;&gt;Node10 -->
<g id="edge11" class="edge">
<title>Node9&#45;&gt;Node10</title>
<path fill="none" stroke="midnightblue" d="M1589,-56.08C1589,-49.01 1589,-38.86 1589,-29.99"/>
<polygon fill="midnightblue" stroke="midnightblue" points="1592.5,-29.75 1589,-19.75 1585.5,-29.75 1592.5,-29.75"/>
</g>
<!-- Node11&#45;&gt;Node2 -->
<g id="edge14" class="edge">
<title>Node11&#45;&gt;Node2</title>
<path fill="none" stroke="midnightblue" d="M728.23,-179.41C735.35,-154.07 760.24,-79.89 813,-56 828.23,-49.1 1338.5,-20.27 1472.85,-12.78"/>
<polygon fill="midnightblue" stroke="midnightblue" points="1473.13,-16.27 1482.92,-12.22 1472.74,-9.28 1473.13,-16.27"/>
</g>
<!-- Node11&#45;&gt;Node4 -->
<g id="edge15" class="edge">
<title>Node11&#45;&gt;Node4</title>
<path fill="none" stroke="midnightblue" d="M691.71,-180.04C651.6,-170.44 587.9,-154.2 566,-143 546.29,-132.92 547.06,-121.38 527,-112 468.02,-84.41 392.24,-73.64 347.33,-69.51"/>
<polygon fill="midnightblue" stroke="midnightblue" points="347.41,-66 337.15,-68.64 346.81,-72.98 347.41,-66"/>
</g>
<!-- Node11&#45;&gt;Node7 -->
<g id="edge22" class="edge">
<title>Node11&#45;&gt;Node7</title>
<path fill="none" stroke="midnightblue" d="M744.34,-179.48C765.82,-169.49 801.62,-152.85 826.45,-141.31"/>
<polygon fill="midnightblue" stroke="midnightblue" points="828.1,-144.4 835.69,-137.01 825.15,-138.05 828.1,-144.4"/>
</g>
<!-- Node12 -->
<g id="node12" class="node">
<title>Node12</title>
<g id="a_node12"><a xlink:title=" ">
<polygon fill="none" stroke="#bfbfbf" points="822,-56.5 822,-75.5 854,-75.5 854,-56.5 822,-56.5"/>
<text text-anchor="middle" x="838" y="-63.5" font-family="Helvetica,sans-Serif" font-size="10.00">list</text>
</a>
</g>
</g>
<!-- Node11&#45;&gt;Node12 -->
<g id="edge13" class="edge">
<title>Node11&#45;&gt;Node12</title>
<path fill="none" stroke="midnightblue" d="M732.47,-179.2C743.32,-164.66 766.15,-134.93 788,-112 797.97,-101.54 809.98,-90.67 819.74,-82.24"/>
<polygon fill="midnightblue" stroke="midnightblue" points="822.27,-84.68 827.62,-75.53 817.73,-79.35 822.27,-84.68"/>
</g>
<!-- Node13 -->
<g id="node13" class="node">
<title>Node13</title>
<g id="a_node13"><a xlink:title=" ">
<polygon fill="none" stroke="#bfbfbf" points="50,-56.5 50,-75.5 110,-75.5 110,-56.5 50,-56.5"/>
<text text-anchor="middle" x="80" y="-63.5" font-family="Helvetica,sans-Serif" font-size="10.00">iostream</text>
</a>
</g>
</g>
<!-- Node11&#45;&gt;Node13 -->
<g id="edge16" class="edge">
<title>Node11&#45;&gt;Node13</title>
<path fill="none" stroke="midnightblue" d="M691.77,-180.62C688.81,-180.05 685.86,-179.5 683,-179 569.38,-159.17 533.03,-185.98 426,-143 404.14,-134.22 404.83,-120.87 383,-112 359.09,-102.28 197.22,-81.43 120.36,-71.91"/>
<polygon fill="midnightblue" stroke="midnightblue" points="120.46,-68.4 110.1,-70.65 119.6,-75.35 120.46,-68.4"/>
</g>
<!-- Node14 -->
<g id="node14" class="node">
<title>Node14</title>
<g id="a_node14"><a xlink:title=" ">
<polygon fill="none" stroke="#bfbfbf" points="675,-0.5 675,-19.5 713,-19.5 713,-0.5 675,-0.5"/>
<text text-anchor="middle" x="694" y="-7.5" font-family="Helvetica,sans-Serif" font-size="10.00">map</text>
</a>
</g>
</g>
<!-- Node11&#45;&gt;Node14 -->
<g id="edge17" class="edge">
<title>Node11&#45;&gt;Node14</title>
<path fill="none" stroke="midnightblue" d="M691.76,-180.68C688.8,-180.1 685.85,-179.53 683,-179 633.42,-169.83 491.7,-181.37 459,-143 396.1,-69.18 589.07,-28.37 664.84,-15.51"/>
<polygon fill="midnightblue" stroke="midnightblue" points="665.42,-18.96 674.71,-13.88 664.28,-12.05 665.42,-18.96"/>
</g>
<!-- Node15 -->
<g id="node15" class="node">
<title>Node15</title>
<g id="a_node15"><a xlink:title=" ">
<polygon fill="none" stroke="#bfbfbf" points="574.5,-118 574.5,-137 623.5,-137 623.5,-118 574.5,-118"/>
<text text-anchor="middle" x="599" y="-125" font-family="Helvetica,sans-Serif" font-size="10.00">cctype</text>
</a>
</g>
</g>
<!-- Node11&#45;&gt;Node15 -->
<g id="edge18" class="edge">
<title>Node11&#45;&gt;Node15</title>
<path fill="none" stroke="midnightblue" d="M707.8,-179.48C686.49,-169.49 650.97,-152.85 626.34,-141.31"/>
<polygon fill="midnightblue" stroke="midnightblue" points="627.7,-138.08 617.16,-137.01 624.73,-144.42 627.7,-138.08"/>
</g>
<!-- Node16 -->
<g id="node16" class="node">
<title>Node16</title>
<g id="a_node16"><a xlink:title=" ">
<polygon fill="none" stroke="#bfbfbf" points="642,-118 642,-137 698,-137 698,-118 642,-118"/>
<text text-anchor="middle" x="670" y="-125" font-family="Helvetica,sans-Serif" font-size="10.00">iomanip</text>
</a>
</g>
</g>
<!-- Node11&#45;&gt;Node16 -->
<g id="edge19" class="edge">
<title>Node11&#45;&gt;Node16</title>
<path fill="none" stroke="midnightblue" d="M717.98,-179.48C709.41,-170.37 695.64,-155.74 685.04,-144.48"/>
<polygon fill="midnightblue" stroke="midnightblue" points="687.41,-141.89 678.01,-137.01 682.31,-146.69 687.41,-141.89"/>
</g>
<!-- Node17 -->
<g id="node17" class="node">
<title>Node17</title>
<g id="a_node17"><a xlink:title=" ">
<polygon fill="none" stroke="#bfbfbf" points="324,-118 324,-137 374,-137 374,-118 324,-118"/>
<text text-anchor="middle" x="349" y="-125" font-family="Helvetica,sans-Serif" font-size="10.00">chrono</text>
</a>
</g>
</g>
<!-- Node11&#45;&gt;Node17 -->
<g id="edge20" class="edge">
<title>Node11&#45;&gt;Node17</title>
<path fill="none" stroke="midnightblue" d="M691.78,-180.56C688.82,-180 685.86,-179.47 683,-179 552.69,-157.45 516.34,-174.23 388,-143 385.01,-142.27 381.93,-141.38 378.88,-140.41"/>
<polygon fill="midnightblue" stroke="midnightblue" points="379.96,-137.08 369.36,-137.1 377.66,-143.69 379.96,-137.08"/>
</g>
<!-- Node18 -->
<g id="node18" class="node">
<title>Node18</title>
<g id="a_node18"><a xlink:title=" ">
<polygon fill="none" stroke="#bfbfbf" points="468,-118 468,-137 518,-137 518,-118 468,-118"/>
<text text-anchor="middle" x="493" y="-125" font-family="Helvetica,sans-Serif" font-size="10.00">cstdint</text>
</a>
</g>
</g>
<!-- Node11&#45;&gt;Node18 -->
<g id="edge21" class="edge">
<title>Node11&#45;&gt;Node18</title>
<path fill="none" stroke="midnightblue" d="M691.95,-180.65C644.68,-170.36 561.64,-151.91 532,-143 529.43,-142.23 526.78,-141.37 524.14,-140.48"/>
<polygon fill="midnightblue" stroke="midnightblue" points="525.29,-137.17 514.7,-137.13 522.95,-143.77 525.29,-137.17"/>
</g>
<!-- Node11&#45;&gt;Node19 -->
<g id="edge23" class="edge">
<title>Node11&#45;&gt;Node19</title>
<path fill="none" stroke="midnightblue" d="M760.22,-185.81C873.83,-178.49 1237.89,-154.69 1355,-143 1366.84,-141.82 1379.35,-140.39 1391.57,-138.9"/>
<polygon fill="midnightblue" stroke="midnightblue" points="1392.25,-142.34 1401.75,-137.63 1391.39,-135.39 1392.25,-142.34"/>
</g>
<!-- Node11&#45;&gt;Node21 -->
<g id="edge27" class="edge">
<title>Node11&#45;&gt;Node21</title>
<path fill="none" stroke="midnightblue" d="M738.7,-179.48C751.48,-170.75 771.6,-156.56 788,-143 803.51,-130.18 802.96,-120.92 821,-112 884.38,-80.65 965.25,-70.52 1022.09,-67.54"/>
<polygon fill="midnightblue" stroke="midnightblue" points="1022.59,-71.02 1032.42,-67.07 1022.27,-64.03 1022.59,-71.02"/>
</g>
<!-- Node23 -->
<g id="node23" class="node">
<title>Node23</title>
<g id="a_node23"><a xlink:title=" ">
<polygon fill="none" stroke="#bfbfbf" points="1078.5,-118 1078.5,-137 1183.5,-137 1183.5,-118 1078.5,-118"/>
<text text-anchor="middle" x="1131" y="-125" font-family="Helvetica,sans-Serif" font-size="10.00">../include/json.hpp</text>
</a>
</g>
</g>
<!-- Node11&#45;&gt;Node23 -->
<g id="edge32" class="edge">
<title>Node11&#45;&gt;Node23</title>
<path fill="none" stroke="midnightblue" d="M760.18,-182.98C828.24,-172.98 981.57,-150.45 1068.25,-137.72"/>
<polygon fill="midnightblue" stroke="midnightblue" points="1068.83,-141.17 1078.22,-136.25 1067.82,-134.25 1068.83,-141.17"/>
</g>
<!-- Node19&#45;&gt;Node2 -->
<g id="edge24" class="edge">
<title>Node19&#45;&gt;Node2</title>
<path fill="none" stroke="midnightblue" d="M1472.54,-112.34C1479.23,-91.43 1491.77,-52.31 1499.15,-29.27"/>
<polygon fill="midnightblue" stroke="midnightblue" points="1502.51,-30.26 1502.22,-19.67 1495.84,-28.12 1502.51,-30.26"/>
</g>
<!-- Node19&#45;&gt;Node9 -->
<g id="edge25" class="edge">
<title>Node19&#45;&gt;Node9</title>
<path fill="none" stroke="midnightblue" d="M1496.68,-112.4C1516.52,-102.64 1542.76,-89.74 1562.19,-80.18"/>
<polygon fill="midnightblue" stroke="midnightblue" points="1563.96,-83.21 1571.39,-75.66 1560.88,-76.93 1563.96,-83.21"/>
</g>
<!-- Node20 -->
<g id="node20" class="node">
<title>Node20</title>
<g id="a_node20"><a xlink:title=" ">
<polygon fill="none" stroke="#bfbfbf" points="1217,-0.5 1217,-19.5 1331,-19.5 1331,-0.5 1217,-0.5"/>
<text text-anchor="middle" x="1274" y="-7.5" font-family="Helvetica,sans-Serif" font-size="10.00">../../include/json.hpp</text>
</a>
</g>
</g>
<!-- Node19&#45;&gt;Node20 -->
<g id="edge26" class="edge">
<title>Node19&#45;&gt;Node20</title>
<path fill="none" stroke="midnightblue" d="M1444.21,-112.34C1406.72,-90.01 1334.32,-46.91 1297.2,-24.81"/>
<polygon fill="midnightblue" stroke="midnightblue" points="1298.94,-21.78 1288.56,-19.67 1295.36,-27.79 1298.94,-21.78"/>
</g>
<!-- Node21&#45;&gt;Node2 -->
<g id="edge31" class="edge">
<title>Node21&#45;&gt;Node2</title>
<path fill="none" stroke="midnightblue" d="M1151.61,-57.21C1240.03,-45.64 1402.95,-24.34 1472.33,-15.27"/>
<polygon fill="midnightblue" stroke="midnightblue" points="1473.18,-18.69 1482.64,-13.92 1472.27,-11.75 1473.18,-18.69"/>
</g>
<!-- Node21&#45;&gt;Node14 -->
<g id="edge30" class="edge">
<title>Node21&#45;&gt;Node14</title>
<path fill="none" stroke="midnightblue" d="M1032.42,-56.92C945.73,-45.15 788.11,-23.77 723.17,-14.96"/>
<polygon fill="midnightblue" stroke="midnightblue" points="723.59,-11.48 713.21,-13.61 722.65,-18.42 723.59,-11.48"/>
</g>
<!-- Node21&#45;&gt;Node20 -->
<g id="edge29" class="edge">
<title>Node21&#45;&gt;Node20</title>
<path fill="none" stroke="midnightblue" d="M1120.84,-56.44C1151.86,-47.24 1201.33,-32.56 1235.62,-22.39"/>
<polygon fill="midnightblue" stroke="midnightblue" points="1236.71,-25.72 1245.3,-19.52 1234.71,-19.01 1236.71,-25.72"/>
</g>
<!-- Node22 -->
<g id="node22" class="node">
<title>Node22</title>
<g id="a_node22"><a xlink:title=" ">
<polygon fill="none" stroke="#bfbfbf" points="1027.5,-0.5 1027.5,-19.5 1156.5,-19.5 1156.5,-0.5 1027.5,-0.5"/>
<text text-anchor="middle" x="1092" y="-7.5" font-family="Helvetica,sans-Serif" font-size="10.00">../../include/base64.hpp</text>
</a>
</g>
</g>
<!-- Node21&#45;&gt;Node22 -->
<g id="edge28" class="edge">
<title>Node21&#45;&gt;Node22</title>
<path fill="none" stroke="midnightblue" d="M1092,-56.08C1092,-49.01 1092,-38.86 1092,-29.99"/>
<polygon fill="midnightblue" stroke="midnightblue" points="1095.5,-29.75 1092,-19.75 1088.5,-29.75 1095.5,-29.75"/>
</g>
<!-- Node24&#45;&gt;Node12 -->
<g id="edge36" class="edge">
<title>Node24&#45;&gt;Node12</title>
<path fill="none" stroke="midnightblue" d="M943.37,-179.24C932.27,-164.76 908.96,-135.11 887,-112 877.15,-101.64 865.38,-90.78 855.84,-82.33"/>
<polygon fill="midnightblue" stroke="midnightblue" points="857.96,-79.54 848.13,-75.59 853.35,-84.81 857.96,-79.54"/>
</g>
<!-- Node25 -->
<g id="node25" class="node">
<title>Node25</title>
<g id="a_node25"><a xlink:href="event__row_8hpp.html" target="_top" xlink:title=" ">
<polygon fill="none" stroke="black" points="934,-118 934,-137 1022,-137 1022,-118 934,-118"/>
<text text-anchor="middle" x="978" y="-125" font-family="Helvetica,sans-Serif" font-size="10.00">event_row.hpp</text>
</a>
</g>
</g>
<!-- Node24&#45;&gt;Node25 -->
<g id="edge34" class="edge">
<title>Node24&#45;&gt;Node25</title>
<path fill="none" stroke="midnightblue" d="M954.01,-179.48C958.09,-170.82 964.52,-157.15 969.7,-146.15"/>
<polygon fill="midnightblue" stroke="midnightblue" points="972.9,-147.55 974,-137.01 966.57,-144.57 972.9,-147.55"/>
</g>
<!-- Node25&#45;&gt;Node21 -->
<g id="edge35" class="edge">
<title>Node25&#45;&gt;Node21</title>
<path fill="none" stroke="midnightblue" d="M994.33,-117.98C1013.21,-108.12 1044.51,-91.79 1066.58,-80.27"/>
<polygon fill="midnightblue" stroke="midnightblue" points="1068.45,-83.24 1075.7,-75.51 1065.21,-77.03 1068.45,-83.24"/>
</g>
<!-- Node26&#45;&gt;Node2 -->
<g id="edge40" class="edge">
<title>Node26&#45;&gt;Node2</title>
<path fill="none" stroke="midnightblue" d="M220.73,-117.78C227.97,-102.08 245.58,-69.45 272,-56 324.9,-29.06 1280.69,-22.62 1340,-20 1386.16,-17.96 1439.55,-14.93 1472.8,-12.95"/>
<polygon fill="midnightblue" stroke="midnightblue" points="1473.08,-16.44 1482.86,-12.35 1472.67,-9.46 1473.08,-16.44"/>
</g>
<!-- Node26&#45;&gt;Node4 -->
<g id="edge41" class="edge">
<title>Node26&#45;&gt;Node4</title>
<path fill="none" stroke="midnightblue" d="M230.18,-117.98C245.07,-108.34 269.54,-92.52 287.27,-81.05"/>
<polygon fill="midnightblue" stroke="midnightblue" points="289.35,-83.88 295.84,-75.51 285.55,-78 289.35,-83.88"/>
</g>
<!-- Node27 -->
<g id="node27" class="node">
<title>Node27</title>
<g id="a_node27"><a xlink:title=" ">
<polygon fill="none" stroke="#bfbfbf" points="181,-56.5 181,-75.5 225,-75.5 225,-56.5 181,-56.5"/>
<text text-anchor="middle" x="203" y="-63.5" font-family="Helvetica,sans-Serif" font-size="10.00">regex</text>
</a>
</g>
</g>
<!-- Node26&#45;&gt;Node27 -->
<g id="edge42" class="edge">
<title>Node26&#45;&gt;Node27</title>
<path fill="none" stroke="midnightblue" d="M214.99,-117.98C213,-109.49 209.87,-96.2 207.31,-85.32"/>
<polygon fill="midnightblue" stroke="midnightblue" points="210.7,-84.44 205,-75.51 203.89,-86.04 210.7,-84.44"/>
</g>
<!-- Node28&#45;&gt;Node12 -->
<g id="edge45" class="edge">
<title>Node28&#45;&gt;Node12</title>
<path fill="none" stroke="midnightblue" d="M110.23,-117.88C125.36,-115.72 141.79,-113.58 157,-112 411.27,-85.56 720.65,-71.73 811.65,-68.03"/>
<polygon fill="midnightblue" stroke="midnightblue" points="812.02,-71.51 821.88,-67.62 811.74,-64.52 812.02,-71.51"/>
</g>
<!-- Node28&#45;&gt;Node13 -->
<g id="edge44" class="edge">
<title>Node28&#45;&gt;Node13</title>
<path fill="none" stroke="midnightblue" d="M60.92,-112.4C64.37,-104.2 68.75,-93.78 72.44,-84.99"/>
<polygon fill="midnightblue" stroke="midnightblue" points="75.72,-86.23 76.36,-75.66 69.26,-83.52 75.72,-86.23"/>
</g>
<!-- Node28&#45;&gt;Node14 -->
<g id="edge46" class="edge">
<title>Node28&#45;&gt;Node14</title>
<path fill="none" stroke="midnightblue" d="M45.94,-112.39C37.07,-96.59 26.78,-71.23 41,-56 84.05,-9.89 543.7,-9.91 664.86,-10.73"/>
<polygon fill="midnightblue" stroke="midnightblue" points="664.86,-14.23 674.89,-10.81 664.91,-7.23 664.86,-14.23"/>
</g>
<!-- Node29&#45;&gt;Node2 -->
<g id="edge48" class="edge">
<title>Node29&#45;&gt;Node2</title>
<path fill="none" stroke="midnightblue" d="M157.25,-179.31C150.16,-154.95 134.3,-85.86 172,-56 222.89,-15.69 1275.14,-22.77 1340,-20 1386.17,-18.03 1439.56,-14.98 1472.8,-12.98"/>
<polygon fill="midnightblue" stroke="midnightblue" points="1473.09,-16.47 1482.86,-12.37 1472.66,-9.48 1473.09,-16.47"/>
</g>
<!-- Node29&#45;&gt;Node26 -->
<g id="edge49" class="edge">
<title>Node29&#45;&gt;Node26</title>
<path fill="none" stroke="midnightblue" d="M168.17,-179.48C176.89,-170.37 190.9,-155.74 201.69,-144.48"/>
<polygon fill="midnightblue" stroke="midnightblue" points="204.46,-146.65 208.85,-137.01 199.4,-141.81 204.46,-146.65"/>
</g>
<!-- Node29&#45;&gt;Node28 -->
<g id="edge50" class="edge">
<title>Node29&#45;&gt;Node28</title>
<path fill="none" stroke="midnightblue" d="M144.96,-179.48C130.34,-171.19 107.63,-158.32 88.69,-147.59"/>
<polygon fill="midnightblue" stroke="midnightblue" points="90.17,-144.41 79.75,-142.52 86.72,-150.5 90.17,-144.41"/>
</g>
<!-- Node30&#45;&gt;Node17 -->
<g id="edge52" class="edge">
<title>Node30&#45;&gt;Node17</title>
<path fill="none" stroke="midnightblue" d="M581.86,-180.31C522.77,-170.3 423.74,-152.92 388,-143 385.35,-142.26 382.63,-141.43 379.91,-140.54"/>
<polygon fill="midnightblue" stroke="midnightblue" points="380.84,-137.15 370.24,-137.14 378.52,-143.76 380.84,-137.15"/>
</g>
<!-- Node31&#45;&gt;Node2 -->
<g id="edge57" class="edge">
<title>Node31&#45;&gt;Node2</title>
<path fill="none" stroke="midnightblue" d="M1689.36,-117.75C1682.73,-102.88 1667.29,-72.67 1645,-56 1612.9,-32 1567.52,-20.51 1537.22,-15.22"/>
<polygon fill="midnightblue" stroke="midnightblue" points="1537.61,-11.73 1527.18,-13.59 1536.49,-18.64 1537.61,-11.73"/>
</g>
<!-- Node31&#45;&gt;Node9 -->
<g id="edge54" class="edge">
<title>Node31&#45;&gt;Node9</title>
<path fill="none" stroke="midnightblue" d="M1678.1,-117.98C1661.03,-108.21 1632.84,-92.08 1612.74,-80.58"/>
<polygon fill="midnightblue" stroke="midnightblue" points="1614.29,-77.44 1603.87,-75.51 1610.81,-83.51 1614.29,-77.44"/>
</g>
<!-- Node31&#45;&gt;Node14 -->
<g id="edge56" class="edge">
<title>Node31&#45;&gt;Node14</title>
<path fill="none" stroke="midnightblue" d="M1656.33,-119.27C1641.66,-116.62 1624.58,-113.82 1609,-112 1350.26,-81.8 1282.36,-109.24 1024,-76 911.69,-61.55 780.16,-31.69 722.98,-18.06"/>
<polygon fill="midnightblue" stroke="midnightblue" points="723.74,-14.64 713.19,-15.71 722.1,-21.45 723.74,-14.64"/>
</g>
<!-- Node31&#45;&gt;Node21 -->
<g id="edge55" class="edge">
<title>Node31&#45;&gt;Node21</title>
<path fill="none" stroke="midnightblue" d="M1656.3,-119.48C1641.63,-116.85 1624.56,-114.02 1609,-112 1449.79,-91.37 1261.73,-77.65 1162.12,-71.23"/>
<polygon fill="midnightblue" stroke="midnightblue" points="1162.09,-67.72 1151.88,-70.57 1161.64,-74.7 1162.09,-67.72"/>
</g>
<!-- Node32&#45;&gt;Node2 -->
<g id="edge59" class="edge">
<title>Node32&#45;&gt;Node2</title>
<path fill="none" stroke="midnightblue" d="M1599.71,-187.04C1665.92,-183.44 1766.53,-168.79 1739,-112 1721.47,-75.84 1703.86,-74.15 1668,-56 1625.46,-34.46 1571.28,-22.14 1537.36,-16.01"/>
<polygon fill="midnightblue" stroke="midnightblue" points="1537.55,-12.49 1527.1,-14.23 1536.36,-19.39 1537.55,-12.49"/>
</g>
<!-- Node32&#45;&gt;Node19 -->
<g id="edge61" class="edge">
<title>Node32&#45;&gt;Node19</title>
<path fill="none" stroke="midnightblue" d="M1534.82,-179.48C1524.36,-171.49 1508.32,-159.25 1494.57,-148.77"/>
<polygon fill="midnightblue" stroke="midnightblue" points="1496.46,-145.81 1486.38,-142.52 1492.21,-151.37 1496.46,-145.81"/>
</g>
<!-- Node32&#45;&gt;Node23 -->
<g id="edge62" class="edge">
<title>Node32&#45;&gt;Node23</title>
<path fill="none" stroke="midnightblue" d="M1492.21,-182.88C1422.77,-175.88 1298.34,-161.98 1193,-143 1187.08,-141.93 1180.87,-140.66 1174.76,-139.33"/>
<polygon fill="midnightblue" stroke="midnightblue" points="1175.18,-135.83 1164.66,-137.04 1173.63,-142.66 1175.18,-135.83"/>
</g>
<!-- Node33 -->
<g id="node33" class="node">
<title>Node33</title>
<g id="a_node33"><a xlink:title=" ">
<polygon fill="none" stroke="#bfbfbf" points="1552,-118 1552,-137 1600,-137 1600,-118 1552,-118"/>
<text text-anchor="middle" x="1576" y="-125" font-family="Helvetica,sans-Serif" font-size="10.00">mutex</text>
</a>
</g>
</g>
<!-- Node32&#45;&gt;Node33 -->
<g id="edge60" class="edge">
<title>Node32&#45;&gt;Node33</title>
<path fill="none" stroke="midnightblue" d="M1550.3,-179.48C1554.66,-170.82 1561.56,-157.15 1567.1,-146.15"/>
<polygon fill="midnightblue" stroke="midnightblue" points="1570.33,-147.51 1571.71,-137.01 1564.08,-144.36 1570.33,-147.51"/>
</g>
<!-- Node34 -->
<g id="node34" class="node">
<title>Node34</title>
<g id="a_node34"><a xlink:href="session__store_8hpp.html" target="_top" xlink:title=" ">
<polygon fill="none" stroke="black" points="1202,-118 1202,-137 1346,-137 1346,-118 1202,-118"/>
<text text-anchor="middle" x="1274" y="-125" font-family="Helvetica,sans-Serif" font-size="10.00">storage/session_store.hpp</text>
</a>
</g>
</g>
<!-- Node32&#45;&gt;Node34 -->
<g id="edge63" class="edge">
<title>Node32&#45;&gt;Node34</title>
<path fill="none" stroke="midnightblue" d="M1507.03,-179.48C1458.45,-168.85 1375.42,-150.68 1322.7,-139.15"/>
<polygon fill="midnightblue" stroke="midnightblue" points="1323.42,-135.73 1312.9,-137.01 1321.92,-142.57 1323.42,-135.73"/>
</g>
<!-- Node34&#45;&gt;Node12 -->
<g id="edge65" class="edge">
<title>Node34&#45;&gt;Node12</title>
<path fill="none" stroke="midnightblue" d="M1228.66,-117.96C1217.05,-115.89 1204.58,-113.77 1193,-112 1070.43,-93.27 923.21,-76.4 864.27,-69.87"/>
<polygon fill="midnightblue" stroke="midnightblue" points="864.64,-66.39 854.32,-68.77 863.87,-73.34 864.64,-66.39"/>
</g>
<!-- Node34&#45;&gt;Node20 -->
<g id="edge64" class="edge">
<title>Node34&#45;&gt;Node20</title>
<path fill="none" stroke="midnightblue" d="M1274,-117.82C1274,-99.26 1274,-55.34 1274,-29.97"/>
<polygon fill="midnightblue" stroke="midnightblue" points="1277.5,-29.78 1274,-19.78 1270.5,-29.78 1277.5,-29.78"/>
</g>
<!-- Node35&#45;&gt;Node2 -->
<g id="edge72" class="edge">
<title>Node35&#45;&gt;Node2</title>
<path fill="none" stroke="midnightblue" d="M1883.64,-183.25C1910.14,-177.9 1940.44,-166.63 1957,-143 1964.91,-131.72 1964.92,-123.28 1957,-112 1853.93,34.82 1741.35,-46.94 1564,-20 1555.33,-18.68 1545.95,-17.25 1537.27,-15.93"/>
<polygon fill="midnightblue" stroke="midnightblue" points="1537.55,-12.43 1527.13,-14.38 1536.49,-19.35 1537.55,-12.43"/>
</g>
<!-- Node35&#45;&gt;Node19 -->
<g id="edge67" class="edge">
<title>Node35&#45;&gt;Node19</title>
<path fill="none" stroke="midnightblue" d="M1782.35,-180.72C1726.49,-172.56 1633.71,-158.63 1544.27,-143.19"/>
<polygon fill="midnightblue" stroke="midnightblue" points="1544.68,-139.7 1534.23,-141.44 1543.48,-146.6 1544.68,-139.7"/>
</g>
<!-- Node35&#45;&gt;Node31 -->
<g id="edge71" class="edge">
<title>Node35&#45;&gt;Node31</title>
<path fill="none" stroke="midnightblue" d="M1812.94,-179.48C1789.24,-169.4 1749.59,-152.55 1722.42,-141"/>
<polygon fill="midnightblue" stroke="midnightblue" points="1723.59,-137.7 1713.02,-137.01 1720.86,-144.14 1723.59,-137.7"/>
</g>
<!-- Node36 -->
<g id="node36" class="node">
<title>Node36</title>
<g id="a_node36"><a xlink:href="event__payload_8hpp.html" target="_top" xlink:title=" ">
<polygon fill="none" stroke="black" points="1786.5,-118 1786.5,-137 1947.5,-137 1947.5,-118 1786.5,-118"/>
<text text-anchor="middle" x="1867" y="-125" font-family="Helvetica,sans-Serif" font-size="10.00">../payload/event_payload.hpp</text>
</a>
</g>
</g>
<!-- Node35&#45;&gt;Node36 -->
<g id="edge68" class="edge">
<title>Node35&#45;&gt;Node36</title>
<path fill="none" stroke="midnightblue" d="M1837.87,-179.48C1842.87,-170.73 1850.79,-156.87 1857.11,-145.81"/>
<polygon fill="midnightblue" stroke="midnightblue" points="1860.22,-147.43 1862.14,-137.01 1854.14,-143.96 1860.22,-147.43"/>
</g>
<!-- Node37 -->
<g id="node37" class="node">
<title>Node37</title>
<g id="a_node37"><a xlink:title=" ">
<polygon fill="none" stroke="#bfbfbf" points="2004.5,-118 2004.5,-137 2051.5,-137 2051.5,-118 2004.5,-118"/>
<text text-anchor="middle" x="2028" y="-125" font-family="Helvetica,sans-Serif" font-size="10.00">vector</text>
</a>
</g>
</g>
<!-- Node35&#45;&gt;Node37 -->
<g id="edge73" class="edge">
<title>Node35&#45;&gt;Node37</title>
<path fill="none" stroke="midnightblue" d="M1865.72,-179.5C1897.66,-170.99 1947.5,-157.17 1990,-143 1992.26,-142.25 1994.59,-141.44 1996.92,-140.61"/>
<polygon fill="midnightblue" stroke="midnightblue" points="1998.24,-143.85 2006.41,-137.1 1995.82,-137.28 1998.24,-143.85"/>
</g>
<!-- Node36&#45;&gt;Node2 -->
<g id="edge70" class="edge">
<title>Node36&#45;&gt;Node2</title>
<path fill="none" stroke="midnightblue" d="M1858.47,-117.91C1842.84,-102.72 1807.9,-71.29 1772,-56 1761.25,-51.42 1606.09,-26.8 1537.36,-16.04"/>
<polygon fill="midnightblue" stroke="midnightblue" points="1537.53,-12.52 1527.11,-14.44 1536.45,-19.44 1537.53,-12.52"/>
</g>
<!-- Node36&#45;&gt;Node21 -->
<g id="edge69" class="edge">
<title>Node36&#45;&gt;Node21</title>
<path fill="none" stroke="midnightblue" d="M1796.64,-117.97C1777.92,-115.86 1757.71,-113.71 1739,-112 1529.26,-92.84 1280.61,-77.65 1161.88,-70.86"/>
<polygon fill="midnightblue" stroke="midnightblue" points="1162.02,-67.37 1151.83,-70.29 1161.62,-74.36 1162.02,-67.37"/>
</g>
</g>
</svg>
