<?xml version="1.0" encoding="UTF-8" standalone="no"?>
<!DOCTYPE svg PUBLIC "-//W3C//DTD SVG 1.1//EN"
 "http://www.w3.org/Graphics/SVG/1.1/DTD/svg11.dtd">
<!-- Generated by graphviz version 2.43.0 (0)
 -->
<!-- Title: src/utils.hpp Pages: 1 -->
<svg width="966pt" height="207pt"
 viewBox="0.00 0.00 966.00 207.00" xmlns="http://www.w3.org/2000/svg" xmlns:xlink="http://www.w3.org/1999/xlink">
<g id="graph0" class="graph" transform="scale(1 1) rotate(0) translate(4 203)">
<title>src/utils.hpp</title>
<!-- Node1 -->
<g id="node1" class="node">
<title>Node1</title>
<g id="a_node1"><a xlink:title=" ">
<polygon fill="#bfbfbf" stroke="black" points="470.5,-179.5 470.5,-198.5 546.5,-198.5 546.5,-179.5 470.5,-179.5"/>
<text text-anchor="middle" x="508.5" y="-186.5" font-family="Helvetica,sans-Serif" font-size="10.00">src/utils.hpp</text>
</a>
</g>
</g>
<!-- Node2 -->
<g id="node2" class="node">
<title>Node2</title>
<g id="a_node2"><a xlink:href="client__session_8cpp.html" target="_top" xlink:title=" ">
<polygon fill="none" stroke="black" points="0,-118 0,-137 123,-137 123,-118 0,-118"/>
<text text-anchor="middle" x="61.5" y="-125" font-family="Helvetica,sans-Serif" font-size="10.00">src/client_session.cpp</text>
</a>
</g>
</g>
<!-- Node1&#45;&gt;Node2 -->
<g id="edge1" class="edge">
<title>Node1&#45;&gt;Node2</title>
<path fill="none" stroke="midnightblue" d="M460.25,-183.57C388.37,-176.68 249.01,-162.15 131.5,-143 121.21,-141.32 110.14,-139.19 99.9,-137.07"/>
<polygon fill="midnightblue" stroke="midnightblue" points="460.07,-187.07 470.36,-184.53 460.73,-180.1 460.07,-187.07"/>
</g>
<!-- Node3 -->
<g id="node3" class="node">
<title>Node3</title>
<g id="a_node3"><a xlink:href="emitter_8hpp.html" target="_top" xlink:title=" ">
<polygon fill="none" stroke="black" points="141,-118 141,-137 270,-137 270,-118 141,-118"/>
<text text-anchor="middle" x="205.5" y="-125" font-family="Helvetica,sans-Serif" font-size="10.00">src/emitter/emitter.hpp</text>
</a>
</g>
</g>
<!-- Node1&#45;&gt;Node3 -->
<g id="edge2" class="edge">
<title>Node1&#45;&gt;Node3</title>
<path fill="none" stroke="midnightblue" d="M460.37,-178.55C402.09,-167.11 304.8,-148 248.79,-137"/>
<polygon fill="midnightblue" stroke="midnightblue" points="459.94,-182.03 470.43,-180.52 461.29,-175.16 459.94,-182.03"/>
</g>
<!-- Node8 -->
<g id="node8" class="node">
<title>Node8</title>
<g id="a_node8"><a xlink:href="event_8cpp.html" target="_top" xlink:title=" ">
<polygon fill="none" stroke="black" points="288.5,-118 288.5,-137 406.5,-137 406.5,-118 288.5,-118"/>
<text text-anchor="middle" x="347.5" y="-125" font-family="Helvetica,sans-Serif" font-size="10.00">src/events/event.cpp</text>
</a>
</g>
</g>
<!-- Node1&#45;&gt;Node8 -->
<g id="edge8" class="edge">
<title>Node1&#45;&gt;Node8</title>
<path fill="none" stroke="midnightblue" d="M475.85,-175.93C444.56,-164.37 398.12,-147.21 370.52,-137.01"/>
<polygon fill="midnightblue" stroke="midnightblue" points="474.84,-179.29 485.43,-179.48 477.27,-172.73 474.84,-179.29"/>
</g>
<!-- Node9 -->
<g id="node9" class="node">
<title>Node9</title>
<g id="a_node9"><a xlink:href="event__payload_8cpp.html" target="_top" xlink:title=" ">
<polygon fill="none" stroke="black" points="424.5,-118 424.5,-137 592.5,-137 592.5,-118 424.5,-118"/>
<text text-anchor="middle" x="508.5" y="-125" font-family="Helvetica,sans-Serif" font-size="10.00">src/payload/event_payload.cpp</text>
</a>
</g>
</g>
<!-- Node1&#45;&gt;Node9 -->
<g id="edge9" class="edge">
<title>Node1&#45;&gt;Node9</title>
<path fill="none" stroke="midnightblue" d="M508.5,-169.32C508.5,-158.5 508.5,-145.4 508.5,-137.01"/>
<polygon fill="midnightblue" stroke="midnightblue" points="505,-169.48 508.5,-179.48 512,-169.48 505,-169.48"/>
</g>
<!-- Node10 -->
<g id="node10" class="node">
<title>Node10</title>
<g id="a_node10"><a xlink:href="payload_8cpp.html" target="_top" xlink:title=" ">
<polygon fill="none" stroke="black" points="611,-118 611,-137 746,-137 746,-118 611,-118"/>
<text text-anchor="middle" x="678.5" y="-125" font-family="Helvetica,sans-Serif" font-size="10.00">src/payload/payload.cpp</text>
</a>
</g>
</g>
<!-- Node1&#45;&gt;Node10 -->
<g id="edge10" class="edge">
<title>Node1&#45;&gt;Node10</title>
<path fill="none" stroke="midnightblue" d="M542.55,-176.08C575.59,-164.52 624.92,-147.25 654.19,-137.01"/>
<polygon fill="midnightblue" stroke="midnightblue" points="541.14,-172.87 532.86,-179.48 543.45,-179.48 541.14,-172.87"/>
</g>
<!-- Node11 -->
<g id="node11" class="node">
<title>Node11</title>
<g id="a_node11"><a xlink:href="sqlite__storage_8cpp.html" target="_top" xlink:title=" ">
<polygon fill="none" stroke="black" points="764,-112.5 764,-142.5 865,-142.5 865,-112.5 764,-112.5"/>
<text text-anchor="start" x="772" y="-130.5" font-family="Helvetica,sans-Serif" font-size="10.00">src/storage/sqlite</text>
<text text-anchor="middle" x="814.5" y="-119.5" font-family="Helvetica,sans-Serif" font-size="10.00">_storage.cpp</text>
</a>
</g>
</g>
<!-- Node1&#45;&gt;Node11 -->
<g id="edge11" class="edge">
<title>Node1&#45;&gt;Node11</title>
<path fill="none" stroke="midnightblue" d="M556.59,-180.13C606.49,-171.75 686.71,-157.7 755.5,-143 758.18,-142.43 760.93,-141.82 763.7,-141.19"/>
<polygon fill="midnightblue" stroke="midnightblue" points="556.01,-176.68 546.72,-181.78 557.16,-183.58 556.01,-176.68"/>
</g>
<!-- Node12 -->
<g id="node12" class="node">
<title>Node12</title>
<g id="a_node12"><a xlink:href="utils_8cpp.html" target="_top" xlink:title=" ">
<polygon fill="none" stroke="black" points="883,-118 883,-137 958,-137 958,-118 883,-118"/>
<text text-anchor="middle" x="920.5" y="-125" font-family="Helvetica,sans-Serif" font-size="10.00">src/utils.cpp</text>
</a>
</g>
</g>
<!-- Node1&#45;&gt;Node12 -->
<g id="edge12" class="edge">
<title>Node1&#45;&gt;Node12</title>
<path fill="none" stroke="midnightblue" d="M556.89,-184.88C627.39,-179.7 762.18,-167.39 874.5,-143 881.7,-141.44 889.39,-139.23 896.37,-137.02"/>
<polygon fill="midnightblue" stroke="midnightblue" points="556.28,-181.42 546.55,-185.62 556.78,-188.4 556.28,-181.42"/>
</g>
<!-- Node4 -->
<g id="node4" class="node">
<title>Node4</title>
<g id="a_node4"><a xlink:href="emitter_8cpp.html" target="_top" xlink:title=" ">
<polygon fill="none" stroke="black" points="49.5,-56.5 49.5,-75.5 177.5,-75.5 177.5,-56.5 49.5,-56.5"/>
<text text-anchor="middle" x="113.5" y="-63.5" font-family="Helvetica,sans-Serif" font-size="10.00">src/emitter/emitter.cpp</text>
</a>
</g>
</g>
<!-- Node3&#45;&gt;Node4 -->
<g id="edge3" class="edge">
<title>Node3&#45;&gt;Node4</title>
<path fill="none" stroke="midnightblue" d="M183.74,-112.43C166.01,-100.96 141.54,-85.13 126.66,-75.51"/>
<polygon fill="midnightblue" stroke="midnightblue" points="182.02,-115.48 192.32,-117.98 185.82,-109.61 182.02,-115.48"/>
</g>
<!-- Node5 -->
<g id="node5" class="node">
<title>Node5</title>
<g id="a_node5"><a xlink:href="snowplow_8hpp.html" target="_top" xlink:title=" ">
<polygon fill="none" stroke="black" points="154,-0.5 154,-19.5 257,-19.5 257,-0.5 154,-0.5"/>
<text text-anchor="middle" x="205.5" y="-7.5" font-family="Helvetica,sans-Serif" font-size="10.00">src/snowplow.hpp</text>
</a>
</g>
</g>
<!-- Node3&#45;&gt;Node5 -->
<g id="edge4" class="edge">
<title>Node3&#45;&gt;Node5</title>
<path fill="none" stroke="midnightblue" d="M205.5,-107.66C205.5,-82.37 205.5,-38.44 205.5,-19.78"/>
<polygon fill="midnightblue" stroke="midnightblue" points="202,-107.82 205.5,-117.82 209,-107.82 202,-107.82"/>
</g>
<!-- Node6 -->
<g id="node6" class="node">
<title>Node6</title>
<g id="a_node6"><a xlink:href="tracker_8hpp.html" target="_top" xlink:title=" ">
<polygon fill="none" stroke="black" points="233.5,-56.5 233.5,-75.5 321.5,-75.5 321.5,-56.5 233.5,-56.5"/>
<text text-anchor="middle" x="277.5" y="-63.5" font-family="Helvetica,sans-Serif" font-size="10.00">src/tracker.hpp</text>
</a>
</g>
</g>
<!-- Node3&#45;&gt;Node6 -->
<g id="edge5" class="edge">
<title>Node3&#45;&gt;Node6</title>
<path fill="none" stroke="midnightblue" d="M223.68,-111.47C237.46,-100.09 255.88,-84.87 267.2,-75.51"/>
<polygon fill="midnightblue" stroke="midnightblue" points="221.29,-108.91 215.82,-117.98 225.75,-114.3 221.29,-108.91"/>
</g>
<!-- Node6&#45;&gt;Node5 -->
<g id="edge6" class="edge">
<title>Node6&#45;&gt;Node5</title>
<path fill="none" stroke="midnightblue" d="M257.63,-50.1C244.68,-40.38 228.2,-28.03 217.28,-19.83"/>
<polygon fill="midnightblue" stroke="midnightblue" points="255.83,-53.12 265.93,-56.32 260.03,-47.52 255.83,-53.12"/>
</g>
<!-- Node7 -->
<g id="node7" class="node">
<title>Node7</title>
<g id="a_node7"><a xlink:href="tracker_8cpp.html" target="_top" xlink:title=" ">
<polygon fill="none" stroke="black" points="275,-0.5 275,-19.5 362,-19.5 362,-0.5 275,-0.5"/>
<text text-anchor="middle" x="318.5" y="-7.5" font-family="Helvetica,sans-Serif" font-size="10.00">src/tracker.cpp</text>
</a>
</g>
</g>
<!-- Node6&#45;&gt;Node7 -->
<g id="edge7" class="edge">
<title>Node6&#45;&gt;Node7</title>
<path fill="none" stroke="midnightblue" d="M290.52,-47.86C297.62,-38.5 306.1,-27.33 311.86,-19.75"/>
<polygon fill="midnightblue" stroke="midnightblue" points="287.53,-46 284.27,-56.08 293.11,-50.24 287.53,-46"/>
</g>
</g>
</svg>
