<?xml version="1.0" encoding="UTF-8" standalone="no"?>
<!DOCTYPE svg PUBLIC "-//W3C//DTD SVG 1.1//EN"
 "http://www.w3.org/Graphics/SVG/1.1/DTD/svg11.dtd">
<!-- Generated by graphviz version 2.43.0 (0)
 -->
<!-- Title: src/utils.hpp Pages: 1 -->
<svg width="1169pt" height="207pt"
 viewBox="0.00 0.00 1168.50 207.00" xmlns="http://www.w3.org/2000/svg" xmlns:xlink="http://www.w3.org/1999/xlink">
<g id="graph0" class="graph" transform="scale(1 1) rotate(0) translate(4 203)">
<title>src/utils.hpp</title>
<!-- Node1 -->
<g id="node1" class="node">
<title>Node1</title>
<g id="a_node1"><a xlink:title=" ">
<polygon fill="#bfbfbf" stroke="black" points="625,-179.5 625,-198.5 701,-198.5 701,-179.5 625,-179.5"/>
<text text-anchor="middle" x="663" y="-186.5" font-family="Helvetica,sans-Serif" font-size="10.00">src/utils.hpp</text>
</a>
</g>
</g>
<!-- Node2 -->
<g id="node2" class="node">
<title>Node2</title>
<g id="a_node2"><a xlink:title=" ">
<polygon fill="none" stroke="#bfbfbf" points="91,-118 91,-137 123,-137 123,-118 91,-118"/>
<text text-anchor="middle" x="107" y="-125" font-family="Helvetica,sans-Serif" font-size="10.00">list</text>
</a>
</g>
</g>
<!-- Node1&#45;&gt;Node2 -->
<g id="edge1" class="edge">
<title>Node1&#45;&gt;Node2</title>
<path fill="none" stroke="midnightblue" d="M624.82,-186.93C519.08,-183.63 224.11,-172 132,-143 130.76,-142.61 129.52,-142.15 128.28,-141.64"/>
<polygon fill="midnightblue" stroke="midnightblue" points="129.71,-138.44 119.21,-137.02 126.54,-144.68 129.71,-138.44"/>
</g>
<!-- Node3 -->
<g id="node3" class="node">
<title>Node3</title>
<g id="a_node3"><a xlink:title=" ">
<polygon fill="none" stroke="#bfbfbf" points="185,-0.5 185,-19.5 229,-19.5 229,-0.5 185,-0.5"/>
<text text-anchor="middle" x="207" y="-7.5" font-family="Helvetica,sans-Serif" font-size="10.00">string</text>
</a>
</g>
</g>
<!-- Node1&#45;&gt;Node3 -->
<g id="edge2" class="edge">
<title>Node1&#45;&gt;Node3</title>
<path fill="none" stroke="midnightblue" d="M624.93,-180.9C600.74,-174.62 570.27,-163.2 550,-143 520.48,-113.58 547.75,-81.77 515,-56 472.69,-22.7 309.63,-13.98 239.44,-11.74"/>
<polygon fill="midnightblue" stroke="midnightblue" points="239.49,-8.24 229.39,-11.45 239.28,-15.24 239.49,-8.24"/>
</g>
<!-- Node4 -->
<g id="node4" class="node">
<title>Node4</title>
<g id="a_node4"><a xlink:title=" ">
<polygon fill="none" stroke="#bfbfbf" points="559,-118 559,-137 615,-137 615,-118 559,-118"/>
<text text-anchor="middle" x="587" y="-125" font-family="Helvetica,sans-Serif" font-size="10.00">sstream</text>
</a>
</g>
</g>
<!-- Node1&#45;&gt;Node4 -->
<g id="edge3" class="edge">
<title>Node1&#45;&gt;Node4</title>
<path fill="none" stroke="midnightblue" d="M652.11,-179.48C640.03,-170.02 620.33,-154.6 605.76,-143.19"/>
<polygon fill="midnightblue" stroke="midnightblue" points="607.9,-140.42 597.87,-137.01 603.59,-145.93 607.9,-140.42"/>
</g>
<!-- Node5 -->
<g id="node5" class="node">
<title>Node5</title>
<g id="a_node5"><a xlink:title=" ">
<polygon fill="none" stroke="#bfbfbf" points="633,-118 633,-137 693,-137 693,-118 633,-118"/>
<text text-anchor="middle" x="663" y="-125" font-family="Helvetica,sans-Serif" font-size="10.00">iostream</text>
</a>
</g>
</g>
<!-- Node1&#45;&gt;Node5 -->
<g id="edge4" class="edge">
<title>Node1&#45;&gt;Node5</title>
<path fill="none" stroke="midnightblue" d="M663,-179.48C663,-171.08 663,-157.98 663,-147.16"/>
<polygon fill="midnightblue" stroke="midnightblue" points="666.5,-147.01 663,-137.01 659.5,-147.01 666.5,-147.01"/>
</g>
<!-- Node6 -->
<g id="node6" class="node">
<title>Node6</title>
<g id="a_node6"><a xlink:title=" ">
<polygon fill="none" stroke="#bfbfbf" points="468,-56.5 468,-75.5 506,-75.5 506,-56.5 468,-56.5"/>
<text text-anchor="middle" x="487" y="-63.5" font-family="Helvetica,sans-Serif" font-size="10.00">map</text>
</a>
</g>
</g>
<!-- Node1&#45;&gt;Node6 -->
<g id="edge5" class="edge">
<title>Node1&#45;&gt;Node6</title>
<path fill="none" stroke="midnightblue" d="M624.94,-185.32C592.51,-181.12 546.58,-170.39 517,-143 500.69,-127.9 493.11,-102.82 489.68,-85.62"/>
<polygon fill="midnightblue" stroke="midnightblue" points="493.11,-84.92 487.97,-75.65 486.21,-86.1 493.11,-84.92"/>
</g>
<!-- Node7 -->
<g id="node7" class="node">
<title>Node7</title>
<g id="a_node7"><a xlink:title=" ">
<polygon fill="none" stroke="#bfbfbf" points="711.5,-118 711.5,-137 760.5,-137 760.5,-118 711.5,-118"/>
<text text-anchor="middle" x="736" y="-125" font-family="Helvetica,sans-Serif" font-size="10.00">cctype</text>
</a>
</g>
</g>
<!-- Node1&#45;&gt;Node7 -->
<g id="edge6" class="edge">
<title>Node1&#45;&gt;Node7</title>
<path fill="none" stroke="midnightblue" d="M673.46,-179.48C684.95,-170.11 703.63,-154.88 717.59,-143.51"/>
<polygon fill="midnightblue" stroke="midnightblue" points="720.02,-146.04 725.56,-137.01 715.6,-140.61 720.02,-146.04"/>
</g>
<!-- Node8 -->
<g id="node8" class="node">
<title>Node8</title>
<g id="a_node8"><a xlink:title=" ">
<polygon fill="none" stroke="#bfbfbf" points="779,-118 779,-137 835,-137 835,-118 779,-118"/>
<text text-anchor="middle" x="807" y="-125" font-family="Helvetica,sans-Serif" font-size="10.00">iomanip</text>
</a>
</g>
</g>
<!-- Node1&#45;&gt;Node8 -->
<g id="edge7" class="edge">
<title>Node1&#45;&gt;Node8</title>
<path fill="none" stroke="midnightblue" d="M683.63,-179.48C708.12,-169.36 749.15,-152.4 777.11,-140.85"/>
<polygon fill="midnightblue" stroke="midnightblue" points="778.5,-144.06 786.41,-137.01 775.83,-137.59 778.5,-144.06"/>
</g>
<!-- Node9 -->
<g id="node9" class="node">
<title>Node9</title>
<g id="a_node9"><a xlink:title=" ">
<polygon fill="none" stroke="#bfbfbf" points="853,-118 853,-137 903,-137 903,-118 853,-118"/>
<text text-anchor="middle" x="878" y="-125" font-family="Helvetica,sans-Serif" font-size="10.00">chrono</text>
</a>
</g>
</g>
<!-- Node1&#45;&gt;Node9 -->
<g id="edge8" class="edge">
<title>Node1&#45;&gt;Node9</title>
<path fill="none" stroke="midnightblue" d="M701.29,-180.34C738.28,-172.5 795.64,-159.21 844,-143 845.92,-142.36 847.88,-141.65 849.84,-140.91"/>
<polygon fill="midnightblue" stroke="midnightblue" points="851.53,-144 859.5,-137.02 848.92,-137.51 851.53,-144"/>
</g>
<!-- Node10 -->
<g id="node10" class="node">
<title>Node10</title>
<g id="a_node10"><a xlink:title=" ">
<polygon fill="none" stroke="#bfbfbf" points="921,-118 921,-137 971,-137 971,-118 921,-118"/>
<text text-anchor="middle" x="946" y="-125" font-family="Helvetica,sans-Serif" font-size="10.00">cstdint</text>
</a>
</g>
</g>
<!-- Node1&#45;&gt;Node10 -->
<g id="edge9" class="edge">
<title>Node1&#45;&gt;Node10</title>
<path fill="none" stroke="midnightblue" d="M701.16,-183.8C750.57,-177.76 838.99,-164.86 912,-143 914.15,-142.36 916.34,-141.62 918.53,-140.82"/>
<polygon fill="midnightblue" stroke="midnightblue" points="919.92,-144.04 927.93,-137.1 917.34,-137.53 919.92,-144.04"/>
</g>
<!-- Node11 -->
<g id="node11" class="node">
<title>Node11</title>
<g id="a_node11"><a xlink:title=" ">
<polygon fill="none" stroke="#bfbfbf" points="989,-118 989,-137 1037,-137 1037,-118 989,-118"/>
<text text-anchor="middle" x="1013" y="-125" font-family="Helvetica,sans-Serif" font-size="10.00">thread</text>
</a>
</g>
</g>
<!-- Node1&#45;&gt;Node11 -->
<g id="edge10" class="edge">
<title>Node1&#45;&gt;Node11</title>
<path fill="none" stroke="midnightblue" d="M701.27,-185.94C761.56,-181.95 881.9,-170.94 980,-143 982.15,-142.39 984.35,-141.66 986.53,-140.87"/>
<polygon fill="midnightblue" stroke="midnightblue" points="987.91,-144.09 995.86,-137.09 985.28,-137.6 987.91,-144.09"/>
</g>
<!-- Node12 -->
<g id="node12" class="node">
<title>Node12</title>
<g id="a_node12"><a xlink:href="self__describing__json_8hpp.html" target="_top" xlink:title=" ">
<polygon fill="none" stroke="black" points="141,-112.5 141,-142.5 273,-142.5 273,-112.5 141,-112.5"/>
<text text-anchor="start" x="149" y="-130.5" font-family="Helvetica,sans-Serif" font-size="10.00">payload/self_describing</text>
<text text-anchor="middle" x="207" y="-119.5" font-family="Helvetica,sans-Serif" font-size="10.00">_json.hpp</text>
</a>
</g>
</g>
<!-- Node1&#45;&gt;Node12 -->
<g id="edge11" class="edge">
<title>Node1&#45;&gt;Node12</title>
<path fill="none" stroke="midnightblue" d="M624.85,-183.06C561.1,-174.8 428.87,-157.65 317,-143 305.99,-141.56 294.37,-140.03 282.96,-138.53"/>
<polygon fill="midnightblue" stroke="midnightblue" points="283.39,-135.06 273.02,-137.22 282.47,-142 283.39,-135.06"/>
</g>
<!-- Node16 -->
<g id="node16" class="node">
<title>Node16</title>
<g id="a_node16"><a xlink:href="payload_8hpp.html" target="_top" xlink:title=" ">
<polygon fill="none" stroke="black" points="325.5,-118 325.5,-137 444.5,-137 444.5,-118 325.5,-118"/>
<text text-anchor="middle" x="385" y="-125" font-family="Helvetica,sans-Serif" font-size="10.00">payload/payload.hpp</text>
</a>
</g>
</g>
<!-- Node1&#45;&gt;Node16 -->
<g id="edge17" class="edge">
<title>Node1&#45;&gt;Node16</title>
<path fill="none" stroke="midnightblue" d="M624.93,-179.85C575.51,-169.27 489.17,-150.79 434.65,-139.13"/>
<polygon fill="midnightblue" stroke="midnightblue" points="435.37,-135.7 424.86,-137.03 433.9,-142.55 435.37,-135.7"/>
</g>
<!-- Node18 -->
<g id="node18" class="node">
<title>Node18</title>
<g id="a_node18"><a xlink:title=" ">
<polygon fill="none" stroke="#bfbfbf" points="1055.5,-118 1055.5,-137 1160.5,-137 1160.5,-118 1055.5,-118"/>
<text text-anchor="middle" x="1108" y="-125" font-family="Helvetica,sans-Serif" font-size="10.00">../include/json.hpp</text>
</a>
</g>
</g>
<!-- Node1&#45;&gt;Node18 -->
<g id="edge22" class="edge">
<title>Node1&#45;&gt;Node18</title>
<path fill="none" stroke="midnightblue" d="M701.26,-184.94C770.42,-179.1 920.7,-164.94 1046,-143 1052.15,-141.92 1058.59,-140.62 1064.91,-139.23"/>
<polygon fill="midnightblue" stroke="midnightblue" points="1065.7,-142.65 1074.68,-137.02 1064.15,-135.82 1065.7,-142.65"/>
</g>
<!-- Node12&#45;&gt;Node3 -->
<g id="edge12" class="edge">
<title>Node12&#45;&gt;Node3</title>
<path fill="none" stroke="midnightblue" d="M177.72,-112.46C154.93,-99.43 129.01,-78.68 141,-56 148.48,-41.85 162.62,-31.32 175.9,-24.01"/>
<polygon fill="midnightblue" stroke="midnightblue" points="177.53,-27.11 184.87,-19.47 174.36,-20.87 177.53,-27.11"/>
</g>
<!-- Node13 -->
<g id="node13" class="node">
<title>Node13</title>
<g id="a_node13"><a xlink:href="constants_8hpp.html" target="_top" xlink:title=" ">
<polygon fill="none" stroke="black" points="0,-56.5 0,-75.5 94,-75.5 94,-56.5 0,-56.5"/>
<text text-anchor="middle" x="47" y="-63.5" font-family="Helvetica,sans-Serif" font-size="10.00">../constants.hpp</text>
</a>
</g>
</g>
<!-- Node12&#45;&gt;Node13 -->
<g id="edge13" class="edge">
<title>Node12&#45;&gt;Node13</title>
<path fill="none" stroke="midnightblue" d="M169.08,-112.4C141.88,-102.28 105.6,-88.79 79.67,-79.15"/>
<polygon fill="midnightblue" stroke="midnightblue" points="80.87,-75.86 70.28,-75.66 78.43,-82.42 80.87,-75.86"/>
</g>
<!-- Node15 -->
<g id="node15" class="node">
<title>Node15</title>
<g id="a_node15"><a xlink:title=" ">
<polygon fill="none" stroke="#bfbfbf" points="150,-56.5 150,-75.5 264,-75.5 264,-56.5 150,-56.5"/>
<text text-anchor="middle" x="207" y="-63.5" font-family="Helvetica,sans-Serif" font-size="10.00">../../include/json.hpp</text>
</a>
</g>
</g>
<!-- Node12&#45;&gt;Node15 -->
<g id="edge16" class="edge">
<title>Node12&#45;&gt;Node15</title>
<path fill="none" stroke="midnightblue" d="M207,-112.4C207,-104.47 207,-94.46 207,-85.86"/>
<polygon fill="midnightblue" stroke="midnightblue" points="210.5,-85.66 207,-75.66 203.5,-85.66 210.5,-85.66"/>
</g>
<!-- Node13&#45;&gt;Node3 -->
<g id="edge14" class="edge">
<title>Node13&#45;&gt;Node3</title>
<path fill="none" stroke="midnightblue" d="M72.35,-56.44C100.22,-47.04 145.03,-31.91 175.22,-21.72"/>
<polygon fill="midnightblue" stroke="midnightblue" points="176.5,-24.99 184.86,-18.47 174.26,-18.35 176.5,-24.99"/>
</g>
<!-- Node14 -->
<g id="node14" class="node">
<title>Node14</title>
<g id="a_node14"><a xlink:title=" ">
<polygon fill="none" stroke="#bfbfbf" points="31,-0.5 31,-19.5 63,-19.5 63,-0.5 31,-0.5"/>
<text text-anchor="middle" x="47" y="-7.5" font-family="Helvetica,sans-Serif" font-size="10.00">set</text>
</a>
</g>
</g>
<!-- Node13&#45;&gt;Node14 -->
<g id="edge15" class="edge">
<title>Node13&#45;&gt;Node14</title>
<path fill="none" stroke="midnightblue" d="M47,-56.08C47,-49.01 47,-38.86 47,-29.99"/>
<polygon fill="midnightblue" stroke="midnightblue" points="50.5,-29.75 47,-19.75 43.5,-29.75 50.5,-29.75"/>
</g>
<!-- Node16&#45;&gt;Node3 -->
<g id="edge21" class="edge">
<title>Node16&#45;&gt;Node3</title>
<path fill="none" stroke="midnightblue" d="M371.62,-117.82C341.21,-98.09 266.64,-49.7 229.2,-25.41"/>
<polygon fill="midnightblue" stroke="midnightblue" points="230.83,-22.29 220.53,-19.78 227.02,-28.16 230.83,-22.29"/>
</g>
<!-- Node16&#45;&gt;Node6 -->
<g id="edge20" class="edge">
<title>Node16&#45;&gt;Node6</title>
<path fill="none" stroke="midnightblue" d="M399.61,-117.98C416.35,-108.21 444,-92.08 463.72,-80.58"/>
<polygon fill="midnightblue" stroke="midnightblue" points="465.54,-83.57 472.41,-75.51 462.01,-77.52 465.54,-83.57"/>
</g>
<!-- Node16&#45;&gt;Node15 -->
<g id="edge19" class="edge">
<title>Node16&#45;&gt;Node15</title>
<path fill="none" stroke="midnightblue" d="M359.5,-117.98C328.7,-107.68 276.73,-90.31 242.15,-78.75"/>
<polygon fill="midnightblue" stroke="midnightblue" points="243.05,-75.36 232.46,-75.51 240.83,-82 243.05,-75.36"/>
</g>
<!-- Node17 -->
<g id="node17" class="node">
<title>Node17</title>
<g id="a_node17"><a xlink:title=" ">
<polygon fill="none" stroke="#bfbfbf" points="320.5,-56.5 320.5,-75.5 449.5,-75.5 449.5,-56.5 320.5,-56.5"/>
<text text-anchor="middle" x="385" y="-63.5" font-family="Helvetica,sans-Serif" font-size="10.00">../../include/base64.hpp</text>
</a>
</g>
</g>
<!-- Node16&#45;&gt;Node17 -->
<g id="edge18" class="edge">
<title>Node16&#45;&gt;Node17</title>
<path fill="none" stroke="midnightblue" d="M385,-117.98C385,-109.58 385,-96.48 385,-85.66"/>
<polygon fill="midnightblue" stroke="midnightblue" points="388.5,-85.51 385,-75.51 381.5,-85.51 388.5,-85.51"/>
</g>
</g>
</svg>
